G04 #@! TF.GenerationSoftware,KiCad,Pcbnew,(5.1.8)-1*
G04 #@! TF.CreationDate,2020-12-20T12:09:40-08:00*
G04 #@! TF.ProjectId,Z80_CPU_Memory,5a38305f-4350-4555-9f4d-656d6f72792e,rev?*
G04 #@! TF.SameCoordinates,Original*
G04 #@! TF.FileFunction,Soldermask,Bot*
G04 #@! TF.FilePolarity,Negative*
%FSLAX46Y46*%
G04 Gerber Fmt 4.6, Leading zero omitted, Abs format (unit mm)*
G04 Created by KiCad (PCBNEW (5.1.8)-1) date 2020-12-20 12:09:40*
%MOMM*%
%LPD*%
G01*
G04 APERTURE LIST*
%ADD10C,1.499000*%
%ADD11C,3.302000*%
%ADD12C,1.626000*%
%ADD13O,1.502000X1.502000*%
%ADD14C,1.502000*%
%ADD15C,1.542000*%
G04 APERTURE END LIST*
G36*
G01*
X126250500Y-120078501D02*
X126250500Y-118681499D01*
G75*
G02*
X126301499Y-118630500I50999J0D01*
G01*
X127698501Y-118630500D01*
G75*
G02*
X127749500Y-118681499I0J-50999D01*
G01*
X127749500Y-120078501D01*
G75*
G02*
X127698501Y-120129500I-50999J0D01*
G01*
X126301499Y-120129500D01*
G75*
G02*
X126250500Y-120078501I0J50999D01*
G01*
G37*
D10*
X129540000Y-119380000D03*
X132080000Y-119380000D03*
X134620000Y-119380000D03*
X137160000Y-119380000D03*
X139700000Y-119380000D03*
X142240000Y-119380000D03*
X144780000Y-119380000D03*
X147320000Y-119380000D03*
X149860000Y-119380000D03*
X152400000Y-119380000D03*
X154940000Y-119380000D03*
X157480000Y-119380000D03*
X160020000Y-119380000D03*
X162560000Y-119380000D03*
X165100000Y-119380000D03*
X167640000Y-119380000D03*
X170180000Y-119380000D03*
X172720000Y-119380000D03*
X175260000Y-119380000D03*
X175260000Y-104140000D03*
X172720000Y-104140000D03*
X170180000Y-104140000D03*
X167640000Y-104140000D03*
X165100000Y-104140000D03*
X162560000Y-104140000D03*
X160020000Y-104140000D03*
X157480000Y-104140000D03*
X154940000Y-104140000D03*
X152400000Y-104140000D03*
X149860000Y-104140000D03*
X147320000Y-104140000D03*
X144780000Y-104140000D03*
X142240000Y-104140000D03*
X139700000Y-104140000D03*
X137160000Y-104140000D03*
X134620000Y-104140000D03*
X132080000Y-104140000D03*
X129540000Y-104140000D03*
X127000000Y-104140000D03*
G36*
G01*
X158178501Y-98539500D02*
X156781499Y-98539500D01*
G75*
G02*
X156730500Y-98488501I0J50999D01*
G01*
X156730500Y-97091499D01*
G75*
G02*
X156781499Y-97040500I50999J0D01*
G01*
X158178501Y-97040500D01*
G75*
G02*
X158229500Y-97091499I0J-50999D01*
G01*
X158229500Y-98488501D01*
G75*
G02*
X158178501Y-98539500I-50999J0D01*
G01*
G37*
X157480000Y-95250000D03*
X157480000Y-92710000D03*
X157480000Y-90170000D03*
X157480000Y-87630000D03*
X157480000Y-85090000D03*
X157480000Y-82550000D03*
X157480000Y-80010000D03*
X149860000Y-80010000D03*
X149860000Y-82550000D03*
X149860000Y-85090000D03*
X149860000Y-87630000D03*
X149860000Y-90170000D03*
X149860000Y-92710000D03*
X149860000Y-95250000D03*
X149860000Y-97790000D03*
G36*
G01*
X184670500Y-120078501D02*
X184670500Y-118681499D01*
G75*
G02*
X184721499Y-118630500I50999J0D01*
G01*
X186118501Y-118630500D01*
G75*
G02*
X186169500Y-118681499I0J-50999D01*
G01*
X186169500Y-120078501D01*
G75*
G02*
X186118501Y-120129500I-50999J0D01*
G01*
X184721499Y-120129500D01*
G75*
G02*
X184670500Y-120078501I0J50999D01*
G01*
G37*
X187960000Y-119380000D03*
X190500000Y-119380000D03*
X193040000Y-119380000D03*
X195580000Y-119380000D03*
X198120000Y-119380000D03*
X200660000Y-119380000D03*
X203200000Y-119380000D03*
X205740000Y-119380000D03*
X208280000Y-119380000D03*
X210820000Y-119380000D03*
X213360000Y-119380000D03*
X215900000Y-119380000D03*
X218440000Y-119380000D03*
X220980000Y-119380000D03*
X223520000Y-119380000D03*
X223520000Y-104140000D03*
X220980000Y-104140000D03*
X218440000Y-104140000D03*
X215900000Y-104140000D03*
X213360000Y-104140000D03*
X210820000Y-104140000D03*
X208280000Y-104140000D03*
X205740000Y-104140000D03*
X203200000Y-104140000D03*
X200660000Y-104140000D03*
X198120000Y-104140000D03*
X195580000Y-104140000D03*
X193040000Y-104140000D03*
X190500000Y-104140000D03*
X187960000Y-104140000D03*
X185420000Y-104140000D03*
G36*
G01*
X146113501Y-100444500D02*
X144716499Y-100444500D01*
G75*
G02*
X144665500Y-100393501I0J50999D01*
G01*
X144665500Y-98996499D01*
G75*
G02*
X144716499Y-98945500I50999J0D01*
G01*
X146113501Y-98945500D01*
G75*
G02*
X146164500Y-98996499I0J-50999D01*
G01*
X146164500Y-100393501D01*
G75*
G02*
X146113501Y-100444500I-50999J0D01*
G01*
G37*
X145415000Y-92075000D03*
X137795000Y-92075000D03*
X137795000Y-99695000D03*
D11*
X130225800Y-95631000D03*
G36*
G01*
X166827000Y-125222000D02*
X166827000Y-123698000D01*
G75*
G02*
X166878000Y-123647000I51000J0D01*
G01*
X168402000Y-123647000D01*
G75*
G02*
X168453000Y-123698000I0J-51000D01*
G01*
X168453000Y-125222000D01*
G75*
G02*
X168402000Y-125273000I-51000J0D01*
G01*
X166878000Y-125273000D01*
G75*
G02*
X166827000Y-125222000I0J51000D01*
G01*
G37*
D12*
X170180000Y-124460000D03*
X172720000Y-124460000D03*
X175260000Y-124460000D03*
X177800000Y-124460000D03*
X180340000Y-124460000D03*
X182880000Y-124460000D03*
X185420000Y-124460000D03*
X187960000Y-124460000D03*
X190500000Y-124460000D03*
G36*
G01*
X208737000Y-83312000D02*
X208737000Y-81788000D01*
G75*
G02*
X208788000Y-81737000I51000J0D01*
G01*
X210312000Y-81737000D01*
G75*
G02*
X210363000Y-81788000I0J-51000D01*
G01*
X210363000Y-83312000D01*
G75*
G02*
X210312000Y-83363000I-51000J0D01*
G01*
X208788000Y-83363000D01*
G75*
G02*
X208737000Y-83312000I0J51000D01*
G01*
G37*
X209550000Y-80010000D03*
X212090000Y-82550000D03*
X212090000Y-80010000D03*
X214630000Y-82550000D03*
X214630000Y-80010000D03*
X217170000Y-82550000D03*
X217170000Y-80010000D03*
X219710000Y-82550000D03*
X219710000Y-80010000D03*
G36*
G01*
X126187000Y-127762000D02*
X126187000Y-126238000D01*
G75*
G02*
X126238000Y-126187000I51000J0D01*
G01*
X127762000Y-126187000D01*
G75*
G02*
X127813000Y-126238000I0J-51000D01*
G01*
X127813000Y-127762000D01*
G75*
G02*
X127762000Y-127813000I-51000J0D01*
G01*
X126238000Y-127813000D01*
G75*
G02*
X126187000Y-127762000I0J51000D01*
G01*
G37*
X129540000Y-127000000D03*
X132080000Y-127000000D03*
X134620000Y-127000000D03*
X137160000Y-127000000D03*
X139700000Y-127000000D03*
X142240000Y-127000000D03*
X144780000Y-127000000D03*
X147320000Y-127000000D03*
X149860000Y-127000000D03*
X152400000Y-127000000D03*
X154940000Y-127000000D03*
X157480000Y-127000000D03*
X160020000Y-127000000D03*
X162560000Y-127000000D03*
X165100000Y-127000000D03*
X167640000Y-127000000D03*
X170180000Y-127000000D03*
X172720000Y-127000000D03*
X175260000Y-127000000D03*
X177800000Y-127000000D03*
X180340000Y-127000000D03*
X182880000Y-127000000D03*
X185420000Y-127000000D03*
X187960000Y-127000000D03*
X190500000Y-127000000D03*
X193040000Y-127000000D03*
X195580000Y-127000000D03*
X198120000Y-127000000D03*
X200660000Y-127000000D03*
X203200000Y-127000000D03*
X205740000Y-127000000D03*
X208280000Y-127000000D03*
X210820000Y-127000000D03*
X213360000Y-127000000D03*
X215900000Y-127000000D03*
X218440000Y-127000000D03*
X220980000Y-127000000D03*
X223520000Y-127000000D03*
D10*
X152400000Y-121920000D03*
X157480000Y-121920000D03*
X190500000Y-83820000D03*
X185420000Y-83820000D03*
X181610000Y-104140000D03*
X181610000Y-109220000D03*
X179070000Y-109220000D03*
X179070000Y-104140000D03*
X156210000Y-100965000D03*
X151130000Y-100965000D03*
X185420000Y-81280000D03*
X190500000Y-81280000D03*
X149860000Y-121920000D03*
X144780000Y-121920000D03*
X128905000Y-100647500D03*
X126365000Y-100647500D03*
X131127500Y-100647500D03*
X133667500Y-100647500D03*
G36*
G01*
X189750500Y-122618501D02*
X189750500Y-121221499D01*
G75*
G02*
X189801499Y-121170500I50999J0D01*
G01*
X191198501Y-121170500D01*
G75*
G02*
X191249500Y-121221499I0J-50999D01*
G01*
X191249500Y-122618501D01*
G75*
G02*
X191198501Y-122669500I-50999J0D01*
G01*
X189801499Y-122669500D01*
G75*
G02*
X189750500Y-122618501I0J50999D01*
G01*
G37*
X193040000Y-121920000D03*
X195580000Y-121920000D03*
X198120000Y-121920000D03*
X200660000Y-121920000D03*
X203200000Y-121920000D03*
X205740000Y-121920000D03*
X208280000Y-121920000D03*
X210820000Y-121920000D03*
G36*
G01*
X161810500Y-122618501D02*
X161810500Y-121221499D01*
G75*
G02*
X161861499Y-121170500I50999J0D01*
G01*
X163258501Y-121170500D01*
G75*
G02*
X163309500Y-121221499I0J-50999D01*
G01*
X163309500Y-122618501D01*
G75*
G02*
X163258501Y-122669500I-50999J0D01*
G01*
X161861499Y-122669500D01*
G75*
G02*
X161810500Y-122618501I0J50999D01*
G01*
G37*
X165100000Y-121920000D03*
X167640000Y-121920000D03*
X170180000Y-121920000D03*
X172720000Y-121920000D03*
X175260000Y-121920000D03*
X185420000Y-86360000D03*
X187960000Y-86360000D03*
X190500000Y-86360000D03*
X193040000Y-86360000D03*
X195580000Y-86360000D03*
X198120000Y-86360000D03*
X200660000Y-86360000D03*
X203200000Y-86360000D03*
X205740000Y-86360000D03*
X208280000Y-86360000D03*
X210820000Y-86360000D03*
X213360000Y-86360000D03*
X215900000Y-86360000D03*
X218440000Y-86360000D03*
X220980000Y-86360000D03*
X223520000Y-86360000D03*
X223520000Y-101600000D03*
X220980000Y-101600000D03*
X218440000Y-101600000D03*
X215900000Y-101600000D03*
X213360000Y-101600000D03*
X210820000Y-101600000D03*
X208280000Y-101600000D03*
X205740000Y-101600000D03*
X203200000Y-101600000D03*
X200660000Y-101600000D03*
X198120000Y-101600000D03*
X195580000Y-101600000D03*
X193040000Y-101600000D03*
X190500000Y-101600000D03*
X187960000Y-101600000D03*
G36*
G01*
X184670500Y-102298501D02*
X184670500Y-100901499D01*
G75*
G02*
X184721499Y-100850500I50999J0D01*
G01*
X186118501Y-100850500D01*
G75*
G02*
X186169500Y-100901499I0J-50999D01*
G01*
X186169500Y-102298501D01*
G75*
G02*
X186118501Y-102349500I-50999J0D01*
G01*
X184721499Y-102349500D01*
G75*
G02*
X184670500Y-102298501I0J50999D01*
G01*
G37*
G36*
G01*
X172021499Y-83070500D02*
X173418501Y-83070500D01*
G75*
G02*
X173469500Y-83121499I0J-50999D01*
G01*
X173469500Y-84518501D01*
G75*
G02*
X173418501Y-84569500I-50999J0D01*
G01*
X172021499Y-84569500D01*
G75*
G02*
X171970500Y-84518501I0J50999D01*
G01*
X171970500Y-83121499D01*
G75*
G02*
X172021499Y-83070500I50999J0D01*
G01*
G37*
X170180000Y-81280000D03*
X170180000Y-83820000D03*
X167640000Y-81280000D03*
X167640000Y-83820000D03*
X165100000Y-81280000D03*
X162560000Y-83820000D03*
X165100000Y-83820000D03*
X162560000Y-86360000D03*
X165100000Y-86360000D03*
X162560000Y-88900000D03*
X165100000Y-88900000D03*
X162560000Y-91440000D03*
X165100000Y-91440000D03*
X162560000Y-93980000D03*
X165100000Y-93980000D03*
X162560000Y-96520000D03*
X165100000Y-99060000D03*
X165100000Y-96520000D03*
X167640000Y-99060000D03*
X167640000Y-96520000D03*
X170180000Y-99060000D03*
X170180000Y-96520000D03*
X172720000Y-99060000D03*
X172720000Y-96520000D03*
X175260000Y-99060000D03*
X175260000Y-96520000D03*
X177800000Y-99060000D03*
X180340000Y-96520000D03*
X177800000Y-96520000D03*
X180340000Y-93980000D03*
X177800000Y-93980000D03*
X180340000Y-91440000D03*
X177800000Y-91440000D03*
X180340000Y-88900000D03*
X177800000Y-88900000D03*
X180340000Y-86360000D03*
X177800000Y-86360000D03*
X180340000Y-83820000D03*
X177800000Y-81280000D03*
X177800000Y-83820000D03*
X175260000Y-81280000D03*
X175260000Y-83820000D03*
X172720000Y-81280000D03*
G36*
G01*
X178257000Y-120142000D02*
X178257000Y-118618000D01*
G75*
G02*
X178308000Y-118567000I51000J0D01*
G01*
X179832000Y-118567000D01*
G75*
G02*
X179883000Y-118618000I0J-51000D01*
G01*
X179883000Y-120142000D01*
G75*
G02*
X179832000Y-120193000I-51000J0D01*
G01*
X178308000Y-120193000D01*
G75*
G02*
X178257000Y-120142000I0J51000D01*
G01*
G37*
D12*
X181610000Y-119380000D03*
D13*
X139065000Y-85090000D03*
D14*
X139065000Y-87630000D03*
X141605000Y-87630000D03*
D13*
X141605000Y-85090000D03*
D14*
X201930000Y-82550000D03*
D13*
X201930000Y-80010000D03*
X199390000Y-80010000D03*
D14*
X199390000Y-82550000D03*
X196850000Y-82550000D03*
D13*
X196850000Y-80010000D03*
X194310000Y-80010000D03*
D14*
X194310000Y-82550000D03*
D13*
X146685000Y-85090000D03*
D14*
X146685000Y-87630000D03*
X144145000Y-87630000D03*
D13*
X144145000Y-85090000D03*
D15*
X141605000Y-82550000D03*
X144145000Y-80010000D03*
X146685000Y-82550000D03*
M02*
