G04 #@! TF.GenerationSoftware,KiCad,Pcbnew,(6.0.2)*
G04 #@! TF.CreationDate,2024-01-03T17:07:47-08:00*
G04 #@! TF.ProjectId,Z80-512K,5a38302d-3531-4324-9b2e-6b696361645f,2.0*
G04 #@! TF.SameCoordinates,Original*
G04 #@! TF.FileFunction,Soldermask,Top*
G04 #@! TF.FilePolarity,Negative*
%FSLAX46Y46*%
G04 Gerber Fmt 4.6, Leading zero omitted, Abs format (unit mm)*
G04 Created by KiCad (PCBNEW (6.0.2)) date 2024-01-03 17:07:47*
%MOMM*%
%LPD*%
G01*
G04 APERTURE LIST*
%ADD10C,3.200000*%
%ADD11R,1.524000X1.524000*%
%ADD12C,1.524000*%
%ADD13R,1.397000X1.397000*%
%ADD14C,1.397000*%
%ADD15C,1.440000*%
%ADD16C,1.400000*%
%ADD17O,1.400000X1.400000*%
%ADD18R,1.700000X1.700000*%
%ADD19O,1.700000X1.700000*%
G04 APERTURE END LIST*
D10*
X130810000Y-96520000D03*
D11*
X209550000Y-82550000D03*
D12*
X209550000Y-80010000D03*
X212090000Y-82550000D03*
X212090000Y-80010000D03*
X214630000Y-82550000D03*
X214630000Y-80010000D03*
X217170000Y-82550000D03*
X217170000Y-80010000D03*
X219710000Y-82550000D03*
X219710000Y-80010000D03*
D13*
X172720000Y-83820000D03*
D14*
X170180000Y-81280000D03*
X170180000Y-83820000D03*
X167640000Y-81280000D03*
X167640000Y-83820000D03*
X165100000Y-81280000D03*
X162560000Y-83820000D03*
X165100000Y-83820000D03*
X162560000Y-86360000D03*
X165100000Y-86360000D03*
X162560000Y-88900000D03*
X165100000Y-88900000D03*
X162560000Y-91440000D03*
X165100000Y-91440000D03*
X162560000Y-93980000D03*
X165100000Y-93980000D03*
X162560000Y-96520000D03*
X165100000Y-99060000D03*
X165100000Y-96520000D03*
X167640000Y-99060000D03*
X167640000Y-96520000D03*
X170180000Y-99060000D03*
X170180000Y-96520000D03*
X172720000Y-99060000D03*
X172720000Y-96520000D03*
X175260000Y-99060000D03*
X175260000Y-96520000D03*
X177800000Y-99060000D03*
X180340000Y-96520000D03*
X177800000Y-96520000D03*
X180340000Y-93980000D03*
X177800000Y-93980000D03*
X180340000Y-91440000D03*
X177800000Y-91440000D03*
X180340000Y-88900000D03*
X177800000Y-88900000D03*
X180340000Y-86360000D03*
X177800000Y-86360000D03*
X180340000Y-83820000D03*
X177800000Y-81280000D03*
X177800000Y-83820000D03*
X175260000Y-81280000D03*
X175260000Y-83820000D03*
X172720000Y-81280000D03*
X185420000Y-81280000D03*
X190500000Y-81280000D03*
X185420000Y-83820000D03*
X190500000Y-83820000D03*
X136525000Y-87630000D03*
X141605000Y-87630000D03*
X156210000Y-100965000D03*
X151130000Y-100965000D03*
X152400000Y-121920000D03*
X147320000Y-121920000D03*
X181610000Y-109220000D03*
X181610000Y-104140000D03*
X179070000Y-104140000D03*
X179070000Y-109220000D03*
D13*
X133350000Y-83820000D03*
D14*
X135890000Y-83820000D03*
D15*
X141605000Y-82550000D03*
X144145000Y-80010000D03*
X146685000Y-82550000D03*
D13*
X162560000Y-121920000D03*
D14*
X165100000Y-121920000D03*
X167640000Y-121920000D03*
X170180000Y-121920000D03*
X172720000Y-121920000D03*
X175260000Y-121920000D03*
D13*
X190500000Y-121920000D03*
D14*
X193040000Y-121920000D03*
X195580000Y-121920000D03*
X198120000Y-121920000D03*
X200660000Y-121920000D03*
X203200000Y-121920000D03*
X205740000Y-121920000D03*
X208280000Y-121920000D03*
X210820000Y-121920000D03*
D13*
X157480000Y-97790000D03*
D14*
X157480000Y-95250000D03*
X157480000Y-92710000D03*
X157480000Y-90170000D03*
X157480000Y-87630000D03*
X157480000Y-85090000D03*
X157480000Y-82550000D03*
X157480000Y-80010000D03*
X149860000Y-80010000D03*
X149860000Y-82550000D03*
X149860000Y-85090000D03*
X149860000Y-87630000D03*
X149860000Y-90170000D03*
X149860000Y-92710000D03*
X149860000Y-95250000D03*
X149860000Y-97790000D03*
D13*
X185420000Y-101600000D03*
D14*
X187960000Y-101600000D03*
X190500000Y-101600000D03*
X193040000Y-101600000D03*
X195580000Y-101600000D03*
X198120000Y-101600000D03*
X200660000Y-101600000D03*
X203200000Y-101600000D03*
X205740000Y-101600000D03*
X208280000Y-101600000D03*
X210820000Y-101600000D03*
X213360000Y-101600000D03*
X215900000Y-101600000D03*
X218440000Y-101600000D03*
X220980000Y-101600000D03*
X223520000Y-101600000D03*
X223520000Y-86360000D03*
X220980000Y-86360000D03*
X218440000Y-86360000D03*
X215900000Y-86360000D03*
X213360000Y-86360000D03*
X210820000Y-86360000D03*
X208280000Y-86360000D03*
X205740000Y-86360000D03*
X203200000Y-86360000D03*
X200660000Y-86360000D03*
X198120000Y-86360000D03*
X195580000Y-86360000D03*
X193040000Y-86360000D03*
X190500000Y-86360000D03*
X187960000Y-86360000D03*
X185420000Y-86360000D03*
D13*
X185420000Y-119380000D03*
D14*
X187960000Y-119380000D03*
X190500000Y-119380000D03*
X193040000Y-119380000D03*
X195580000Y-119380000D03*
X198120000Y-119380000D03*
X200660000Y-119380000D03*
X203200000Y-119380000D03*
X205740000Y-119380000D03*
X208280000Y-119380000D03*
X210820000Y-119380000D03*
X213360000Y-119380000D03*
X215900000Y-119380000D03*
X218440000Y-119380000D03*
X220980000Y-119380000D03*
X223520000Y-119380000D03*
X223520000Y-104140000D03*
X220980000Y-104140000D03*
X218440000Y-104140000D03*
X215900000Y-104140000D03*
X213360000Y-104140000D03*
X210820000Y-104140000D03*
X208280000Y-104140000D03*
X205740000Y-104140000D03*
X203200000Y-104140000D03*
X200660000Y-104140000D03*
X198120000Y-104140000D03*
X195580000Y-104140000D03*
X193040000Y-104140000D03*
X190500000Y-104140000D03*
X187960000Y-104140000D03*
X185420000Y-104140000D03*
D13*
X127000000Y-119380000D03*
D14*
X129540000Y-119380000D03*
X132080000Y-119380000D03*
X134620000Y-119380000D03*
X137160000Y-119380000D03*
X139700000Y-119380000D03*
X142240000Y-119380000D03*
X144780000Y-119380000D03*
X147320000Y-119380000D03*
X149860000Y-119380000D03*
X152400000Y-119380000D03*
X154940000Y-119380000D03*
X157480000Y-119380000D03*
X160020000Y-119380000D03*
X162560000Y-119380000D03*
X165100000Y-119380000D03*
X167640000Y-119380000D03*
X170180000Y-119380000D03*
X172720000Y-119380000D03*
X175260000Y-119380000D03*
X175260000Y-104140000D03*
X172720000Y-104140000D03*
X170180000Y-104140000D03*
X167640000Y-104140000D03*
X165100000Y-104140000D03*
X162560000Y-104140000D03*
X160020000Y-104140000D03*
X157480000Y-104140000D03*
X154940000Y-104140000D03*
X152400000Y-104140000D03*
X149860000Y-104140000D03*
X147320000Y-104140000D03*
X144780000Y-104140000D03*
X142240000Y-104140000D03*
X139700000Y-104140000D03*
X137160000Y-104140000D03*
X134620000Y-104140000D03*
X132080000Y-104140000D03*
X129540000Y-104140000D03*
X127000000Y-104140000D03*
D11*
X127000000Y-128270000D03*
D12*
X129540000Y-128270000D03*
X132080000Y-128270000D03*
X134620000Y-128270000D03*
X137160000Y-128270000D03*
X139700000Y-128270000D03*
X142240000Y-128270000D03*
X144780000Y-128270000D03*
X147320000Y-128270000D03*
X149860000Y-128270000D03*
X152400000Y-128270000D03*
X154940000Y-128270000D03*
X157480000Y-128270000D03*
X160020000Y-128270000D03*
X162560000Y-128270000D03*
X165100000Y-128270000D03*
X167640000Y-128270000D03*
X170180000Y-128270000D03*
X172720000Y-128270000D03*
X175260000Y-128270000D03*
X177800000Y-128270000D03*
X180340000Y-128270000D03*
X182880000Y-128270000D03*
X185420000Y-128270000D03*
X187960000Y-128270000D03*
X190500000Y-128270000D03*
X193040000Y-128270000D03*
X195580000Y-128270000D03*
X198120000Y-128270000D03*
X200660000Y-128270000D03*
X203200000Y-128270000D03*
X205740000Y-128270000D03*
X208280000Y-128270000D03*
X210820000Y-128270000D03*
X213360000Y-128270000D03*
X215900000Y-128270000D03*
X218440000Y-128270000D03*
X220980000Y-128270000D03*
X223520000Y-128270000D03*
X226060000Y-128270000D03*
X127000000Y-125730000D03*
X129540000Y-125730000D03*
X132080000Y-125730000D03*
X134620000Y-125730000D03*
X137160000Y-125730000D03*
X139700000Y-125730000D03*
X142240000Y-125730000D03*
X144780000Y-125730000D03*
X147320000Y-125730000D03*
X149860000Y-125730000D03*
X152400000Y-125730000D03*
X154940000Y-125730000D03*
X157480000Y-125730000D03*
X160020000Y-125730000D03*
X162560000Y-125730000D03*
X165100000Y-125730000D03*
X167640000Y-125730000D03*
X170180000Y-125730000D03*
X172720000Y-125730000D03*
X175260000Y-125730000D03*
X177800000Y-125730000D03*
X180340000Y-125730000D03*
X182880000Y-125730000D03*
X185420000Y-125730000D03*
X187960000Y-125730000D03*
X190500000Y-125730000D03*
X193040000Y-125730000D03*
X195580000Y-125730000D03*
X198120000Y-125730000D03*
X200660000Y-125730000D03*
X203200000Y-125730000D03*
X205740000Y-125730000D03*
X208280000Y-125730000D03*
X210820000Y-125730000D03*
X213360000Y-125730000D03*
X215900000Y-125730000D03*
X218440000Y-125730000D03*
X220980000Y-125730000D03*
X223520000Y-125730000D03*
X226060000Y-125730000D03*
D16*
X201930000Y-82550000D03*
D17*
X201930000Y-80010000D03*
D16*
X199390000Y-82550000D03*
D17*
X199390000Y-80010000D03*
D16*
X196850000Y-82550000D03*
D17*
X196850000Y-80010000D03*
D16*
X194310000Y-82550000D03*
D17*
X194310000Y-80010000D03*
D16*
X146685000Y-87630000D03*
D17*
X146685000Y-85090000D03*
D16*
X144145000Y-87630000D03*
D17*
X144145000Y-85090000D03*
D16*
X139065000Y-85090000D03*
D17*
X141605000Y-85090000D03*
D13*
X137795000Y-99695000D03*
D14*
X145415000Y-99695000D03*
X145415000Y-92075000D03*
X137795000Y-92075000D03*
D18*
X133350000Y-90170000D03*
D19*
X133350000Y-87630000D03*
M02*
