M48
; DRILL file {KiCad (5.1.8)-1} date 12/20/20 12:09:46
; FORMAT={-:-/ absolute / inch / decimal}
; #@! TF.CreationDate,2020-12-20T12:09:46-08:00
; #@! TF.GenerationSoftware,Kicad,Pcbnew,(5.1.8)-1
FMAT,2
INCH
T1C0.0118
T2C0.0276
T3C0.0315
T4C0.0320
T5C0.0400
T6C0.1260
%
G90
G05
T1
X5.25Y-4.05
X5.35Y-4.05
X5.45Y-4.05
X5.55Y-4.6125
X5.6Y-4.5625
X5.65Y-4.5125
X6.15Y-3.2
X6.24Y-4.26
X6.2625Y-4.28
X6.3375Y-4.3
X6.36Y-4.32
X6.3625Y-3.75
X6.45Y-4.8
X6.63Y-4.23
X6.66Y-4.2017
X6.67Y-4.66
X6.7Y-3.65
X6.74Y-4.64
X6.75Y-3.4
X6.79Y-4.59
X6.8Y-3.6875
X6.85Y-3.4
X6.878Y-4.508
X6.8875Y-3.35
X6.91Y-4.53
X6.94Y-4.5509
X6.9675Y-4.0225
X7.05Y-3.78
X7.05Y-3.945
X7.07Y-4.77
X7.175Y-3.4
X7.21Y-4.17
X7.23Y-4.4983
X7.26Y-4.48
X7.3Y-3.5
X7.35Y-3.425
X7.4Y-3.925
X7.5Y-3.84
X7.56Y-3.76
X7.6Y-4.43
X7.65Y-4.425
X7.7Y-4.325
X7.73Y-4.1383
X7.75Y-3.66
X7.75Y-4.325
X7.8Y-4.3
X7.85Y-3.45
X7.85Y-4.3
X7.9Y-4.275
X7.95Y-3.68
X7.95Y-4.325
X7.95Y-4.54
X8.0Y-4.25
X8.05Y-4.425
X8.1Y-4.225
X8.15Y-4.4
X8.2Y-4.2
X8.25Y-4.375
X8.75Y-4.175
T2
X7.75Y-3.15
X7.75Y-3.25
X7.65Y-3.15
X7.65Y-3.25
X7.95Y-3.15
X7.95Y-3.25
X7.85Y-3.15
X7.85Y-3.25
X5.475Y-3.35
X5.475Y-3.45
X5.575Y-3.35
X5.575Y-3.45
X5.775Y-3.35
X5.775Y-3.45
X5.675Y-3.35
X5.675Y-3.45
T3
X5.575Y-3.25
X5.675Y-3.15
X5.775Y-3.25
T4
X5.9Y-3.15
X5.9Y-3.25
X5.9Y-3.35
X5.9Y-3.45
X5.9Y-3.55
X5.9Y-3.65
X5.9Y-3.75
X5.9Y-3.85
X6.2Y-3.15
X6.2Y-3.25
X6.2Y-3.35
X6.2Y-3.45
X6.2Y-3.55
X6.2Y-3.65
X6.2Y-3.75
X6.2Y-3.85
X5.1625Y-3.9625
X5.2625Y-3.9625
X7.05Y-4.1
X7.05Y-4.3
X6.0Y-4.8
X6.2Y-4.8
X7.15Y-4.1
X7.15Y-4.3
X7.3Y-4.1
X7.3Y-4.7
X7.4Y-4.1
X7.4Y-4.7
X7.5Y-4.1
X7.5Y-4.7
X7.6Y-4.1
X7.6Y-4.7
X7.7Y-4.1
X7.7Y-4.7
X7.8Y-4.1
X7.8Y-4.7
X7.9Y-4.1
X7.9Y-4.7
X8.0Y-4.1
X8.0Y-4.7
X8.1Y-4.1
X8.1Y-4.7
X8.2Y-4.1
X8.2Y-4.7
X8.3Y-4.1
X8.3Y-4.7
X8.4Y-4.1
X8.4Y-4.7
X8.5Y-4.1
X8.5Y-4.7
X8.6Y-4.1
X8.6Y-4.7
X8.7Y-4.1
X8.7Y-4.7
X8.8Y-4.1
X8.8Y-4.7
X7.5Y-4.8
X7.6Y-4.8
X7.7Y-4.8
X7.8Y-4.8
X7.9Y-4.8
X8.0Y-4.8
X8.1Y-4.8
X8.2Y-4.8
X8.3Y-4.8
X5.0Y-4.1
X5.0Y-4.7
X5.1Y-4.1
X5.1Y-4.7
X5.2Y-4.1
X5.2Y-4.7
X5.3Y-4.1
X5.3Y-4.7
X5.4Y-4.1
X5.4Y-4.7
X5.5Y-4.1
X5.5Y-4.7
X5.6Y-4.1
X5.6Y-4.7
X5.7Y-4.1
X5.7Y-4.7
X5.8Y-4.1
X5.8Y-4.7
X5.9Y-4.1
X5.9Y-4.7
X6.0Y-4.1
X6.0Y-4.7
X6.1Y-4.1
X6.1Y-4.7
X6.2Y-4.1
X6.2Y-4.7
X6.3Y-4.1
X6.3Y-4.7
X6.4Y-4.1
X6.4Y-4.7
X6.5Y-4.1
X6.5Y-4.7
X6.6Y-4.1
X6.6Y-4.7
X6.7Y-4.1
X6.7Y-4.7
X6.8Y-4.1
X6.8Y-4.7
X6.9Y-4.1
X6.9Y-4.7
X7.3Y-3.4
X7.3Y-4.0
X7.4Y-3.4
X7.4Y-4.0
X7.5Y-3.4
X7.5Y-4.0
X7.6Y-3.4
X7.6Y-4.0
X7.7Y-3.4
X7.7Y-4.0
X7.8Y-3.4
X7.8Y-4.0
X7.9Y-3.4
X7.9Y-4.0
X8.0Y-3.4
X8.0Y-4.0
X8.1Y-3.4
X8.1Y-4.0
X8.2Y-3.4
X8.2Y-4.0
X8.3Y-3.4
X8.3Y-4.0
X8.4Y-3.4
X8.4Y-4.0
X8.5Y-3.4
X8.5Y-4.0
X8.6Y-3.4
X8.6Y-4.0
X8.7Y-3.4
X8.7Y-4.0
X8.8Y-3.4
X8.8Y-4.0
X4.975Y-3.9625
X5.075Y-3.9625
X7.3Y-3.3
X7.5Y-3.3
X5.7Y-4.8
X5.9Y-4.8
X5.425Y-3.625
X5.425Y-3.925
X5.725Y-3.625
X5.725Y-3.925
X7.3Y-3.2
X7.5Y-3.2
X6.4Y-4.8
X6.5Y-4.8
X6.6Y-4.8
X6.7Y-4.8
X6.8Y-4.8
X6.9Y-4.8
X6.4Y-3.3
X6.4Y-3.4
X6.4Y-3.5
X6.4Y-3.6
X6.4Y-3.7
X6.4Y-3.8
X6.5Y-3.2
X6.5Y-3.3
X6.5Y-3.4
X6.5Y-3.5
X6.5Y-3.6
X6.5Y-3.7
X6.5Y-3.8
X6.5Y-3.9
X6.6Y-3.2
X6.6Y-3.3
X6.6Y-3.8
X6.6Y-3.9
X6.7Y-3.2
X6.7Y-3.3
X6.7Y-3.8
X6.7Y-3.9
X6.8Y-3.2
X6.8Y-3.3
X6.8Y-3.8
X6.8Y-3.9
X6.9Y-3.2
X6.9Y-3.3
X6.9Y-3.8
X6.9Y-3.9
X7.0Y-3.2
X7.0Y-3.3
X7.0Y-3.4
X7.0Y-3.5
X7.0Y-3.6
X7.0Y-3.7
X7.0Y-3.8
X7.0Y-3.9
X7.1Y-3.3
X7.1Y-3.4
X7.1Y-3.5
X7.1Y-3.6
X7.1Y-3.7
X7.1Y-3.8
X5.95Y-3.975
X6.15Y-3.975
T5
X7.05Y-4.7
X7.15Y-4.7
X6.6Y-4.9
X6.7Y-4.9
X6.8Y-4.9
X6.9Y-4.9
X7.0Y-4.9
X7.1Y-4.9
X7.2Y-4.9
X7.3Y-4.9
X7.4Y-4.9
X7.5Y-4.9
X8.25Y-3.15
X8.25Y-3.25
X8.35Y-3.15
X8.35Y-3.25
X8.45Y-3.15
X8.45Y-3.25
X8.55Y-3.15
X8.55Y-3.25
X8.65Y-3.15
X8.65Y-3.25
X5.0Y-5.0
X5.1Y-5.0
X5.2Y-5.0
X5.3Y-5.0
X5.4Y-5.0
X5.5Y-5.0
X5.6Y-5.0
X5.7Y-5.0
X5.8Y-5.0
X5.9Y-5.0
X6.0Y-5.0
X6.1Y-5.0
X6.2Y-5.0
X6.3Y-5.0
X6.4Y-5.0
X6.5Y-5.0
X6.6Y-5.0
X6.7Y-5.0
X6.8Y-5.0
X6.9Y-5.0
X7.0Y-5.0
X7.1Y-5.0
X7.2Y-5.0
X7.3Y-5.0
X7.4Y-5.0
X7.5Y-5.0
X7.6Y-5.0
X7.7Y-5.0
X7.8Y-5.0
X7.9Y-5.0
X8.0Y-5.0
X8.1Y-5.0
X8.2Y-5.0
X8.3Y-5.0
X8.4Y-5.0
X8.5Y-5.0
X8.6Y-5.0
X8.7Y-5.0
X8.8Y-5.0
T6
X5.127Y-3.765
T0
M30
