G04 #@! TF.GenerationSoftware,KiCad,Pcbnew,(5.1.8)-1*
G04 #@! TF.CreationDate,2020-12-20T12:09:40-08:00*
G04 #@! TF.ProjectId,Z80_CPU_Memory,5a38305f-4350-4555-9f4d-656d6f72792e,rev?*
G04 #@! TF.SameCoordinates,Original*
G04 #@! TF.FileFunction,Legend,Bot*
G04 #@! TF.FilePolarity,Positive*
%FSLAX46Y46*%
G04 Gerber Fmt 4.6, Leading zero omitted, Abs format (unit mm)*
G04 Created by KiCad (PCBNEW (5.1.8)-1) date 2020-12-20 12:09:40*
%MOMM*%
%LPD*%
G01*
G04 APERTURE LIST*
%ADD10C,0.150000*%
%ADD11C,0.010000*%
G04 APERTURE END LIST*
D10*
X213970000Y-88797380D02*
X213303333Y-88797380D01*
X213970000Y-89797380D01*
X213303333Y-89797380D01*
X212779523Y-89225952D02*
X212874761Y-89178333D01*
X212922380Y-89130714D01*
X212970000Y-89035476D01*
X212970000Y-88987857D01*
X212922380Y-88892619D01*
X212874761Y-88845000D01*
X212779523Y-88797380D01*
X212589047Y-88797380D01*
X212493809Y-88845000D01*
X212446190Y-88892619D01*
X212398571Y-88987857D01*
X212398571Y-89035476D01*
X212446190Y-89130714D01*
X212493809Y-89178333D01*
X212589047Y-89225952D01*
X212779523Y-89225952D01*
X212874761Y-89273571D01*
X212922380Y-89321190D01*
X212970000Y-89416428D01*
X212970000Y-89606904D01*
X212922380Y-89702142D01*
X212874761Y-89749761D01*
X212779523Y-89797380D01*
X212589047Y-89797380D01*
X212493809Y-89749761D01*
X212446190Y-89702142D01*
X212398571Y-89606904D01*
X212398571Y-89416428D01*
X212446190Y-89321190D01*
X212493809Y-89273571D01*
X212589047Y-89225952D01*
X211779523Y-88797380D02*
X211684285Y-88797380D01*
X211589047Y-88845000D01*
X211541428Y-88892619D01*
X211493809Y-88987857D01*
X211446190Y-89178333D01*
X211446190Y-89416428D01*
X211493809Y-89606904D01*
X211541428Y-89702142D01*
X211589047Y-89749761D01*
X211684285Y-89797380D01*
X211779523Y-89797380D01*
X211874761Y-89749761D01*
X211922380Y-89702142D01*
X211970000Y-89606904D01*
X212017619Y-89416428D01*
X212017619Y-89178333D01*
X211970000Y-88987857D01*
X211922380Y-88892619D01*
X211874761Y-88845000D01*
X211779523Y-88797380D01*
X211017619Y-89416428D02*
X210255714Y-89416428D01*
X209303333Y-88797380D02*
X209779523Y-88797380D01*
X209827142Y-89273571D01*
X209779523Y-89225952D01*
X209684285Y-89178333D01*
X209446190Y-89178333D01*
X209350952Y-89225952D01*
X209303333Y-89273571D01*
X209255714Y-89368809D01*
X209255714Y-89606904D01*
X209303333Y-89702142D01*
X209350952Y-89749761D01*
X209446190Y-89797380D01*
X209684285Y-89797380D01*
X209779523Y-89749761D01*
X209827142Y-89702142D01*
X208303333Y-89797380D02*
X208874761Y-89797380D01*
X208589047Y-89797380D02*
X208589047Y-88797380D01*
X208684285Y-88940238D01*
X208779523Y-89035476D01*
X208874761Y-89083095D01*
X207922380Y-88892619D02*
X207874761Y-88845000D01*
X207779523Y-88797380D01*
X207541428Y-88797380D01*
X207446190Y-88845000D01*
X207398571Y-88892619D01*
X207350952Y-88987857D01*
X207350952Y-89083095D01*
X207398571Y-89225952D01*
X207970000Y-89797380D01*
X207350952Y-89797380D01*
X206922380Y-89797380D02*
X206922380Y-88797380D01*
X206350952Y-89797380D02*
X206779523Y-89225952D01*
X206350952Y-88797380D02*
X206922380Y-89368809D01*
X205160476Y-89416428D02*
X204398571Y-89416428D01*
X203303333Y-88797380D02*
X202970000Y-89797380D01*
X202636666Y-88797380D01*
X201922380Y-89749761D02*
X202017619Y-89797380D01*
X202208095Y-89797380D01*
X202303333Y-89749761D01*
X202350952Y-89654523D01*
X202350952Y-89273571D01*
X202303333Y-89178333D01*
X202208095Y-89130714D01*
X202017619Y-89130714D01*
X201922380Y-89178333D01*
X201874761Y-89273571D01*
X201874761Y-89368809D01*
X202350952Y-89464047D01*
X201446190Y-89797380D02*
X201446190Y-89130714D01*
X201446190Y-89321190D02*
X201398571Y-89225952D01*
X201350952Y-89178333D01*
X201255714Y-89130714D01*
X201160476Y-89130714D01*
X200874761Y-89749761D02*
X200779523Y-89797380D01*
X200589047Y-89797380D01*
X200493809Y-89749761D01*
X200446190Y-89654523D01*
X200446190Y-89606904D01*
X200493809Y-89511666D01*
X200589047Y-89464047D01*
X200731904Y-89464047D01*
X200827142Y-89416428D01*
X200874761Y-89321190D01*
X200874761Y-89273571D01*
X200827142Y-89178333D01*
X200731904Y-89130714D01*
X200589047Y-89130714D01*
X200493809Y-89178333D01*
X200017619Y-89797380D02*
X200017619Y-89130714D01*
X200017619Y-88797380D02*
X200065238Y-88845000D01*
X200017619Y-88892619D01*
X199970000Y-88845000D01*
X200017619Y-88797380D01*
X200017619Y-88892619D01*
X199398571Y-89797380D02*
X199493809Y-89749761D01*
X199541428Y-89702142D01*
X199589047Y-89606904D01*
X199589047Y-89321190D01*
X199541428Y-89225952D01*
X199493809Y-89178333D01*
X199398571Y-89130714D01*
X199255714Y-89130714D01*
X199160476Y-89178333D01*
X199112857Y-89225952D01*
X199065238Y-89321190D01*
X199065238Y-89606904D01*
X199112857Y-89702142D01*
X199160476Y-89749761D01*
X199255714Y-89797380D01*
X199398571Y-89797380D01*
X198636666Y-89130714D02*
X198636666Y-89797380D01*
X198636666Y-89225952D02*
X198589047Y-89178333D01*
X198493809Y-89130714D01*
X198350952Y-89130714D01*
X198255714Y-89178333D01*
X198208095Y-89273571D01*
X198208095Y-89797380D01*
X196446190Y-89797380D02*
X197017619Y-89797380D01*
X196731904Y-89797380D02*
X196731904Y-88797380D01*
X196827142Y-88940238D01*
X196922380Y-89035476D01*
X197017619Y-89083095D01*
X196017619Y-89702142D02*
X195970000Y-89749761D01*
X196017619Y-89797380D01*
X196065238Y-89749761D01*
X196017619Y-89702142D01*
X196017619Y-89797380D01*
X195350952Y-88797380D02*
X195255714Y-88797380D01*
X195160476Y-88845000D01*
X195112857Y-88892619D01*
X195065238Y-88987857D01*
X195017619Y-89178333D01*
X195017619Y-89416428D01*
X195065238Y-89606904D01*
X195112857Y-89702142D01*
X195160476Y-89749761D01*
X195255714Y-89797380D01*
X195350952Y-89797380D01*
X195446190Y-89749761D01*
X195493809Y-89702142D01*
X195541428Y-89606904D01*
X195589047Y-89416428D01*
X195589047Y-89178333D01*
X195541428Y-88987857D01*
X195493809Y-88892619D01*
X195446190Y-88845000D01*
X195350952Y-88797380D01*
X216898571Y-91352142D02*
X216946190Y-91399761D01*
X217089047Y-91447380D01*
X217184285Y-91447380D01*
X217327142Y-91399761D01*
X217422380Y-91304523D01*
X217470000Y-91209285D01*
X217517619Y-91018809D01*
X217517619Y-90875952D01*
X217470000Y-90685476D01*
X217422380Y-90590238D01*
X217327142Y-90495000D01*
X217184285Y-90447380D01*
X217089047Y-90447380D01*
X216946190Y-90495000D01*
X216898571Y-90542619D01*
X216327142Y-91447380D02*
X216422380Y-91399761D01*
X216470000Y-91352142D01*
X216517619Y-91256904D01*
X216517619Y-90971190D01*
X216470000Y-90875952D01*
X216422380Y-90828333D01*
X216327142Y-90780714D01*
X216184285Y-90780714D01*
X216089047Y-90828333D01*
X216041428Y-90875952D01*
X215993809Y-90971190D01*
X215993809Y-91256904D01*
X216041428Y-91352142D01*
X216089047Y-91399761D01*
X216184285Y-91447380D01*
X216327142Y-91447380D01*
X215565238Y-90780714D02*
X215565238Y-91780714D01*
X215565238Y-90828333D02*
X215470000Y-90780714D01*
X215279523Y-90780714D01*
X215184285Y-90828333D01*
X215136666Y-90875952D01*
X215089047Y-90971190D01*
X215089047Y-91256904D01*
X215136666Y-91352142D01*
X215184285Y-91399761D01*
X215279523Y-91447380D01*
X215470000Y-91447380D01*
X215565238Y-91399761D01*
X214755714Y-90780714D02*
X214517619Y-91447380D01*
X214279523Y-90780714D02*
X214517619Y-91447380D01*
X214612857Y-91685476D01*
X214660476Y-91733095D01*
X214755714Y-91780714D01*
X213898571Y-91447380D02*
X213898571Y-90780714D01*
X213898571Y-90971190D02*
X213850952Y-90875952D01*
X213803333Y-90828333D01*
X213708095Y-90780714D01*
X213612857Y-90780714D01*
X213279523Y-91447380D02*
X213279523Y-90780714D01*
X213279523Y-90447380D02*
X213327142Y-90495000D01*
X213279523Y-90542619D01*
X213231904Y-90495000D01*
X213279523Y-90447380D01*
X213279523Y-90542619D01*
X212374761Y-90780714D02*
X212374761Y-91590238D01*
X212422380Y-91685476D01*
X212470000Y-91733095D01*
X212565238Y-91780714D01*
X212708095Y-91780714D01*
X212803333Y-91733095D01*
X212374761Y-91399761D02*
X212470000Y-91447380D01*
X212660476Y-91447380D01*
X212755714Y-91399761D01*
X212803333Y-91352142D01*
X212850952Y-91256904D01*
X212850952Y-90971190D01*
X212803333Y-90875952D01*
X212755714Y-90828333D01*
X212660476Y-90780714D01*
X212470000Y-90780714D01*
X212374761Y-90828333D01*
X211898571Y-91447380D02*
X211898571Y-90447380D01*
X211470000Y-91447380D02*
X211470000Y-90923571D01*
X211517619Y-90828333D01*
X211612857Y-90780714D01*
X211755714Y-90780714D01*
X211850952Y-90828333D01*
X211898571Y-90875952D01*
X211136666Y-90780714D02*
X210755714Y-90780714D01*
X210993809Y-90447380D02*
X210993809Y-91304523D01*
X210946190Y-91399761D01*
X210850952Y-91447380D01*
X210755714Y-91447380D01*
X209374761Y-91828333D02*
X209422380Y-91780714D01*
X209517619Y-91637857D01*
X209565238Y-91542619D01*
X209612857Y-91399761D01*
X209660476Y-91161666D01*
X209660476Y-90971190D01*
X209612857Y-90733095D01*
X209565238Y-90590238D01*
X209517619Y-90495000D01*
X209422380Y-90352142D01*
X209374761Y-90304523D01*
X208422380Y-91352142D02*
X208470000Y-91399761D01*
X208612857Y-91447380D01*
X208708095Y-91447380D01*
X208850952Y-91399761D01*
X208946190Y-91304523D01*
X208993809Y-91209285D01*
X209041428Y-91018809D01*
X209041428Y-90875952D01*
X208993809Y-90685476D01*
X208946190Y-90590238D01*
X208850952Y-90495000D01*
X208708095Y-90447380D01*
X208612857Y-90447380D01*
X208470000Y-90495000D01*
X208422380Y-90542619D01*
X208089047Y-91828333D02*
X208041428Y-91780714D01*
X207946190Y-91637857D01*
X207898571Y-91542619D01*
X207850952Y-91399761D01*
X207803333Y-91161666D01*
X207803333Y-90971190D01*
X207850952Y-90733095D01*
X207898571Y-90590238D01*
X207946190Y-90495000D01*
X208041428Y-90352142D01*
X208089047Y-90304523D01*
X206612857Y-90542619D02*
X206565238Y-90495000D01*
X206470000Y-90447380D01*
X206231904Y-90447380D01*
X206136666Y-90495000D01*
X206089047Y-90542619D01*
X206041428Y-90637857D01*
X206041428Y-90733095D01*
X206089047Y-90875952D01*
X206660476Y-91447380D01*
X206041428Y-91447380D01*
X205422380Y-90447380D02*
X205327142Y-90447380D01*
X205231904Y-90495000D01*
X205184285Y-90542619D01*
X205136666Y-90637857D01*
X205089047Y-90828333D01*
X205089047Y-91066428D01*
X205136666Y-91256904D01*
X205184285Y-91352142D01*
X205231904Y-91399761D01*
X205327142Y-91447380D01*
X205422380Y-91447380D01*
X205517619Y-91399761D01*
X205565238Y-91352142D01*
X205612857Y-91256904D01*
X205660476Y-91066428D01*
X205660476Y-90828333D01*
X205612857Y-90637857D01*
X205565238Y-90542619D01*
X205517619Y-90495000D01*
X205422380Y-90447380D01*
X204708095Y-90542619D02*
X204660476Y-90495000D01*
X204565238Y-90447380D01*
X204327142Y-90447380D01*
X204231904Y-90495000D01*
X204184285Y-90542619D01*
X204136666Y-90637857D01*
X204136666Y-90733095D01*
X204184285Y-90875952D01*
X204755714Y-91447380D01*
X204136666Y-91447380D01*
X203517619Y-90447380D02*
X203422380Y-90447380D01*
X203327142Y-90495000D01*
X203279523Y-90542619D01*
X203231904Y-90637857D01*
X203184285Y-90828333D01*
X203184285Y-91066428D01*
X203231904Y-91256904D01*
X203279523Y-91352142D01*
X203327142Y-91399761D01*
X203422380Y-91447380D01*
X203517619Y-91447380D01*
X203612857Y-91399761D01*
X203660476Y-91352142D01*
X203708095Y-91256904D01*
X203755714Y-91066428D01*
X203755714Y-90828333D01*
X203708095Y-90637857D01*
X203660476Y-90542619D01*
X203612857Y-90495000D01*
X203517619Y-90447380D01*
X202041428Y-91399761D02*
X201898571Y-91447380D01*
X201660476Y-91447380D01*
X201565238Y-91399761D01*
X201517619Y-91352142D01*
X201470000Y-91256904D01*
X201470000Y-91161666D01*
X201517619Y-91066428D01*
X201565238Y-91018809D01*
X201660476Y-90971190D01*
X201850952Y-90923571D01*
X201946190Y-90875952D01*
X201993809Y-90828333D01*
X202041428Y-90733095D01*
X202041428Y-90637857D01*
X201993809Y-90542619D01*
X201946190Y-90495000D01*
X201850952Y-90447380D01*
X201612857Y-90447380D01*
X201470000Y-90495000D01*
X200660476Y-91399761D02*
X200755714Y-91447380D01*
X200946190Y-91447380D01*
X201041428Y-91399761D01*
X201089047Y-91304523D01*
X201089047Y-90923571D01*
X201041428Y-90828333D01*
X200946190Y-90780714D01*
X200755714Y-90780714D01*
X200660476Y-90828333D01*
X200612857Y-90923571D01*
X200612857Y-91018809D01*
X201089047Y-91114047D01*
X200184285Y-91447380D02*
X200184285Y-90780714D01*
X200184285Y-90971190D02*
X200136666Y-90875952D01*
X200089047Y-90828333D01*
X199993809Y-90780714D01*
X199898571Y-90780714D01*
X199136666Y-90780714D02*
X199136666Y-91590238D01*
X199184285Y-91685476D01*
X199231904Y-91733095D01*
X199327142Y-91780714D01*
X199470000Y-91780714D01*
X199565238Y-91733095D01*
X199136666Y-91399761D02*
X199231904Y-91447380D01*
X199422380Y-91447380D01*
X199517619Y-91399761D01*
X199565238Y-91352142D01*
X199612857Y-91256904D01*
X199612857Y-90971190D01*
X199565238Y-90875952D01*
X199517619Y-90828333D01*
X199422380Y-90780714D01*
X199231904Y-90780714D01*
X199136666Y-90828333D01*
X198279523Y-91399761D02*
X198374761Y-91447380D01*
X198565238Y-91447380D01*
X198660476Y-91399761D01*
X198708095Y-91304523D01*
X198708095Y-90923571D01*
X198660476Y-90828333D01*
X198565238Y-90780714D01*
X198374761Y-90780714D01*
X198279523Y-90828333D01*
X198231904Y-90923571D01*
X198231904Y-91018809D01*
X198708095Y-91114047D01*
X197898571Y-90780714D02*
X197660476Y-91447380D01*
X197422380Y-90780714D02*
X197660476Y-91447380D01*
X197755714Y-91685476D01*
X197803333Y-91733095D01*
X197898571Y-91780714D01*
X196279523Y-91447380D02*
X196279523Y-90447380D01*
X195708095Y-91447380D02*
X196136666Y-90875952D01*
X195708095Y-90447380D02*
X196279523Y-91018809D01*
X195279523Y-91447380D02*
X195279523Y-90780714D01*
X195279523Y-90447380D02*
X195327142Y-90495000D01*
X195279523Y-90542619D01*
X195231904Y-90495000D01*
X195279523Y-90447380D01*
X195279523Y-90542619D01*
X194850952Y-91399761D02*
X194755714Y-91447380D01*
X194565238Y-91447380D01*
X194470000Y-91399761D01*
X194422380Y-91304523D01*
X194422380Y-91256904D01*
X194470000Y-91161666D01*
X194565238Y-91114047D01*
X194708095Y-91114047D01*
X194803333Y-91066428D01*
X194850952Y-90971190D01*
X194850952Y-90923571D01*
X194803333Y-90828333D01*
X194708095Y-90780714D01*
X194565238Y-90780714D01*
X194470000Y-90828333D01*
X193612857Y-91399761D02*
X193708095Y-91447380D01*
X193898571Y-91447380D01*
X193993809Y-91399761D01*
X194041428Y-91304523D01*
X194041428Y-90923571D01*
X193993809Y-90828333D01*
X193898571Y-90780714D01*
X193708095Y-90780714D01*
X193612857Y-90828333D01*
X193565238Y-90923571D01*
X193565238Y-91018809D01*
X194041428Y-91114047D01*
X192993809Y-91447380D02*
X193089047Y-91399761D01*
X193136666Y-91304523D01*
X193136666Y-90447380D01*
X192231904Y-91399761D02*
X192327142Y-91447380D01*
X192517619Y-91447380D01*
X192612857Y-91399761D01*
X192660476Y-91304523D01*
X192660476Y-90923571D01*
X192612857Y-90828333D01*
X192517619Y-90780714D01*
X192327142Y-90780714D01*
X192231904Y-90828333D01*
X192184285Y-90923571D01*
X192184285Y-91018809D01*
X192660476Y-91114047D01*
X191850952Y-90780714D02*
X191612857Y-91447380D01*
X191374761Y-90780714D01*
D11*
G36*
X206378759Y-98306684D02*
G01*
X206352247Y-98319782D01*
X206319553Y-98342606D01*
X206295725Y-98367496D01*
X206279406Y-98398749D01*
X206269240Y-98440666D01*
X206263872Y-98497544D01*
X206261944Y-98573684D01*
X206261831Y-98606417D01*
X206262161Y-98678156D01*
X206263527Y-98729427D01*
X206266500Y-98764904D01*
X206271649Y-98789263D01*
X206279543Y-98807180D01*
X206287757Y-98819402D01*
X206340187Y-98871405D01*
X206401930Y-98902684D01*
X206468536Y-98912092D01*
X206535558Y-98898480D01*
X206556792Y-98888854D01*
X206607624Y-98862359D01*
X206607624Y-99277552D01*
X206570525Y-99258368D01*
X206521643Y-99243525D01*
X206461561Y-99239722D01*
X206401564Y-99246743D01*
X206356256Y-99262513D01*
X206318675Y-99292547D01*
X206286564Y-99335524D01*
X206284150Y-99339936D01*
X206273967Y-99360721D01*
X206266530Y-99381670D01*
X206261411Y-99407048D01*
X206258181Y-99441118D01*
X206256413Y-99488141D01*
X206255677Y-99552382D01*
X206255544Y-99624676D01*
X206255544Y-99855322D01*
X206393861Y-99855322D01*
X206393861Y-99430033D01*
X206432549Y-99397479D01*
X206472738Y-99371440D01*
X206510797Y-99366705D01*
X206549066Y-99378889D01*
X206569462Y-99390820D01*
X206584642Y-99407813D01*
X206595438Y-99433495D01*
X206602683Y-99471491D01*
X206607208Y-99525426D01*
X206609844Y-99598925D01*
X206610772Y-99647847D01*
X206613911Y-99849035D01*
X206679926Y-99852836D01*
X206745940Y-99856636D01*
X206745940Y-98608150D01*
X206607624Y-98608150D01*
X206604097Y-98677754D01*
X206592215Y-98726069D01*
X206570020Y-98756131D01*
X206535559Y-98770971D01*
X206500742Y-98773936D01*
X206461329Y-98770528D01*
X206435171Y-98757117D01*
X206418814Y-98739396D01*
X206405937Y-98720335D01*
X206398272Y-98699101D01*
X206394861Y-98669349D01*
X206394749Y-98624736D01*
X206395897Y-98587380D01*
X206398532Y-98531104D01*
X206402456Y-98494158D01*
X206409063Y-98470723D01*
X206419749Y-98454980D01*
X206429833Y-98445880D01*
X206471970Y-98426037D01*
X206521840Y-98422832D01*
X206550476Y-98429668D01*
X206578828Y-98453964D01*
X206597609Y-98501228D01*
X206606712Y-98571124D01*
X206607624Y-98608150D01*
X206745940Y-98608150D01*
X206745940Y-98296114D01*
X206676782Y-98296114D01*
X206635260Y-98297756D01*
X206613838Y-98303587D01*
X206607626Y-98314961D01*
X206607624Y-98315298D01*
X206604742Y-98326438D01*
X206592030Y-98325173D01*
X206566757Y-98312933D01*
X206507869Y-98294207D01*
X206441615Y-98292239D01*
X206378759Y-98306684D01*
G37*
X206378759Y-98306684D02*
X206352247Y-98319782D01*
X206319553Y-98342606D01*
X206295725Y-98367496D01*
X206279406Y-98398749D01*
X206269240Y-98440666D01*
X206263872Y-98497544D01*
X206261944Y-98573684D01*
X206261831Y-98606417D01*
X206262161Y-98678156D01*
X206263527Y-98729427D01*
X206266500Y-98764904D01*
X206271649Y-98789263D01*
X206279543Y-98807180D01*
X206287757Y-98819402D01*
X206340187Y-98871405D01*
X206401930Y-98902684D01*
X206468536Y-98912092D01*
X206535558Y-98898480D01*
X206556792Y-98888854D01*
X206607624Y-98862359D01*
X206607624Y-99277552D01*
X206570525Y-99258368D01*
X206521643Y-99243525D01*
X206461561Y-99239722D01*
X206401564Y-99246743D01*
X206356256Y-99262513D01*
X206318675Y-99292547D01*
X206286564Y-99335524D01*
X206284150Y-99339936D01*
X206273967Y-99360721D01*
X206266530Y-99381670D01*
X206261411Y-99407048D01*
X206258181Y-99441118D01*
X206256413Y-99488141D01*
X206255677Y-99552382D01*
X206255544Y-99624676D01*
X206255544Y-99855322D01*
X206393861Y-99855322D01*
X206393861Y-99430033D01*
X206432549Y-99397479D01*
X206472738Y-99371440D01*
X206510797Y-99366705D01*
X206549066Y-99378889D01*
X206569462Y-99390820D01*
X206584642Y-99407813D01*
X206595438Y-99433495D01*
X206602683Y-99471491D01*
X206607208Y-99525426D01*
X206609844Y-99598925D01*
X206610772Y-99647847D01*
X206613911Y-99849035D01*
X206679926Y-99852836D01*
X206745940Y-99856636D01*
X206745940Y-98608150D01*
X206607624Y-98608150D01*
X206604097Y-98677754D01*
X206592215Y-98726069D01*
X206570020Y-98756131D01*
X206535559Y-98770971D01*
X206500742Y-98773936D01*
X206461329Y-98770528D01*
X206435171Y-98757117D01*
X206418814Y-98739396D01*
X206405937Y-98720335D01*
X206398272Y-98699101D01*
X206394861Y-98669349D01*
X206394749Y-98624736D01*
X206395897Y-98587380D01*
X206398532Y-98531104D01*
X206402456Y-98494158D01*
X206409063Y-98470723D01*
X206419749Y-98454980D01*
X206429833Y-98445880D01*
X206471970Y-98426037D01*
X206521840Y-98422832D01*
X206550476Y-98429668D01*
X206578828Y-98453964D01*
X206597609Y-98501228D01*
X206606712Y-98571124D01*
X206607624Y-98608150D01*
X206745940Y-98608150D01*
X206745940Y-98296114D01*
X206676782Y-98296114D01*
X206635260Y-98297756D01*
X206613838Y-98303587D01*
X206607626Y-98314961D01*
X206607624Y-98315298D01*
X206604742Y-98326438D01*
X206592030Y-98325173D01*
X206566757Y-98312933D01*
X206507869Y-98294207D01*
X206441615Y-98292239D01*
X206378759Y-98306684D01*
G36*
X205854210Y-99244055D02*
G01*
X205795055Y-99259839D01*
X205750023Y-99288448D01*
X205718246Y-99325919D01*
X205708366Y-99341911D01*
X205701073Y-99358663D01*
X205695974Y-99380092D01*
X205692679Y-99410116D01*
X205690797Y-99452654D01*
X205689937Y-99511622D01*
X205689707Y-99590940D01*
X205689703Y-99611984D01*
X205689703Y-99855322D01*
X205750059Y-99855322D01*
X205788557Y-99852626D01*
X205817023Y-99845795D01*
X205824155Y-99841583D01*
X205843652Y-99834313D01*
X205863566Y-99841583D01*
X205896353Y-99850660D01*
X205943978Y-99854313D01*
X205996764Y-99852728D01*
X206045036Y-99846089D01*
X206073218Y-99837572D01*
X206127753Y-99802563D01*
X206161835Y-99753979D01*
X206177157Y-99689382D01*
X206177299Y-99687723D01*
X206175955Y-99659066D01*
X206054356Y-99659066D01*
X206043726Y-99691661D01*
X206026410Y-99710005D01*
X205991652Y-99723879D01*
X205945773Y-99729417D01*
X205898988Y-99726691D01*
X205861514Y-99715774D01*
X205851015Y-99708769D01*
X205832668Y-99676404D01*
X205828020Y-99639611D01*
X205828020Y-99591263D01*
X205897582Y-99591263D01*
X205963667Y-99596350D01*
X206013764Y-99610763D01*
X206044929Y-99633229D01*
X206054356Y-99659066D01*
X206175955Y-99659066D01*
X206173987Y-99617147D01*
X206150710Y-99561345D01*
X206106948Y-99519147D01*
X206100899Y-99515308D01*
X206074907Y-99502809D01*
X206042735Y-99495240D01*
X205997760Y-99491561D01*
X205944331Y-99490716D01*
X205828020Y-99490669D01*
X205828020Y-99441911D01*
X205832953Y-99404081D01*
X205845543Y-99378736D01*
X205847017Y-99377387D01*
X205875034Y-99366300D01*
X205917326Y-99362003D01*
X205964064Y-99364115D01*
X206005418Y-99372256D01*
X206029957Y-99384465D01*
X206043253Y-99394246D01*
X206057294Y-99396113D01*
X206076671Y-99388100D01*
X206105976Y-99368239D01*
X206149803Y-99334563D01*
X206153825Y-99331409D01*
X206151764Y-99319736D01*
X206134568Y-99300322D01*
X206108433Y-99278748D01*
X206079552Y-99260596D01*
X206070478Y-99256309D01*
X206037380Y-99247756D01*
X205988880Y-99241655D01*
X205934695Y-99239208D01*
X205932161Y-99239203D01*
X205854210Y-99244055D01*
G37*
X205854210Y-99244055D02*
X205795055Y-99259839D01*
X205750023Y-99288448D01*
X205718246Y-99325919D01*
X205708366Y-99341911D01*
X205701073Y-99358663D01*
X205695974Y-99380092D01*
X205692679Y-99410116D01*
X205690797Y-99452654D01*
X205689937Y-99511622D01*
X205689707Y-99590940D01*
X205689703Y-99611984D01*
X205689703Y-99855322D01*
X205750059Y-99855322D01*
X205788557Y-99852626D01*
X205817023Y-99845795D01*
X205824155Y-99841583D01*
X205843652Y-99834313D01*
X205863566Y-99841583D01*
X205896353Y-99850660D01*
X205943978Y-99854313D01*
X205996764Y-99852728D01*
X206045036Y-99846089D01*
X206073218Y-99837572D01*
X206127753Y-99802563D01*
X206161835Y-99753979D01*
X206177157Y-99689382D01*
X206177299Y-99687723D01*
X206175955Y-99659066D01*
X206054356Y-99659066D01*
X206043726Y-99691661D01*
X206026410Y-99710005D01*
X205991652Y-99723879D01*
X205945773Y-99729417D01*
X205898988Y-99726691D01*
X205861514Y-99715774D01*
X205851015Y-99708769D01*
X205832668Y-99676404D01*
X205828020Y-99639611D01*
X205828020Y-99591263D01*
X205897582Y-99591263D01*
X205963667Y-99596350D01*
X206013764Y-99610763D01*
X206044929Y-99633229D01*
X206054356Y-99659066D01*
X206175955Y-99659066D01*
X206173987Y-99617147D01*
X206150710Y-99561345D01*
X206106948Y-99519147D01*
X206100899Y-99515308D01*
X206074907Y-99502809D01*
X206042735Y-99495240D01*
X205997760Y-99491561D01*
X205944331Y-99490716D01*
X205828020Y-99490669D01*
X205828020Y-99441911D01*
X205832953Y-99404081D01*
X205845543Y-99378736D01*
X205847017Y-99377387D01*
X205875034Y-99366300D01*
X205917326Y-99362003D01*
X205964064Y-99364115D01*
X206005418Y-99372256D01*
X206029957Y-99384465D01*
X206043253Y-99394246D01*
X206057294Y-99396113D01*
X206076671Y-99388100D01*
X206105976Y-99368239D01*
X206149803Y-99334563D01*
X206153825Y-99331409D01*
X206151764Y-99319736D01*
X206134568Y-99300322D01*
X206108433Y-99278748D01*
X206079552Y-99260596D01*
X206070478Y-99256309D01*
X206037380Y-99247756D01*
X205988880Y-99241655D01*
X205934695Y-99239208D01*
X205932161Y-99239203D01*
X205854210Y-99244055D01*
G36*
X205463356Y-99240520D02*
G01*
X205444539Y-99246160D01*
X205438473Y-99258553D01*
X205438218Y-99264147D01*
X205437129Y-99279730D01*
X205429632Y-99282176D01*
X205409381Y-99271493D01*
X205397351Y-99264194D01*
X205359400Y-99248563D01*
X205314072Y-99240834D01*
X205266544Y-99240240D01*
X205221995Y-99246013D01*
X205185602Y-99257384D01*
X205162543Y-99273588D01*
X205157996Y-99293855D01*
X205160291Y-99299343D01*
X205177020Y-99322126D01*
X205202963Y-99350147D01*
X205207655Y-99354677D01*
X205232383Y-99375505D01*
X205253718Y-99382235D01*
X205283555Y-99377538D01*
X205295508Y-99374417D01*
X205332705Y-99366921D01*
X205358859Y-99370292D01*
X205380946Y-99382181D01*
X205401178Y-99398135D01*
X205416079Y-99418200D01*
X205426434Y-99446202D01*
X205433029Y-99485967D01*
X205436649Y-99541323D01*
X205438078Y-99616094D01*
X205438218Y-99661240D01*
X205438218Y-99855322D01*
X205563960Y-99855322D01*
X205563960Y-99239183D01*
X205501089Y-99239183D01*
X205463356Y-99240520D01*
G37*
X205463356Y-99240520D02*
X205444539Y-99246160D01*
X205438473Y-99258553D01*
X205438218Y-99264147D01*
X205437129Y-99279730D01*
X205429632Y-99282176D01*
X205409381Y-99271493D01*
X205397351Y-99264194D01*
X205359400Y-99248563D01*
X205314072Y-99240834D01*
X205266544Y-99240240D01*
X205221995Y-99246013D01*
X205185602Y-99257384D01*
X205162543Y-99273588D01*
X205157996Y-99293855D01*
X205160291Y-99299343D01*
X205177020Y-99322126D01*
X205202963Y-99350147D01*
X205207655Y-99354677D01*
X205232383Y-99375505D01*
X205253718Y-99382235D01*
X205283555Y-99377538D01*
X205295508Y-99374417D01*
X205332705Y-99366921D01*
X205358859Y-99370292D01*
X205380946Y-99382181D01*
X205401178Y-99398135D01*
X205416079Y-99418200D01*
X205426434Y-99446202D01*
X205433029Y-99485967D01*
X205436649Y-99541323D01*
X205438078Y-99616094D01*
X205438218Y-99661240D01*
X205438218Y-99855322D01*
X205563960Y-99855322D01*
X205563960Y-99239183D01*
X205501089Y-99239183D01*
X205463356Y-99240520D01*
G36*
X204671188Y-99855322D02*
G01*
X204740346Y-99855322D01*
X204780488Y-99854145D01*
X204801394Y-99849272D01*
X204808922Y-99838686D01*
X204809505Y-99831529D01*
X204810774Y-99817176D01*
X204818779Y-99814423D01*
X204839815Y-99823271D01*
X204856173Y-99831529D01*
X204918977Y-99851097D01*
X204987248Y-99852229D01*
X205042752Y-99837635D01*
X205094438Y-99802377D01*
X205133838Y-99750335D01*
X205155413Y-99688950D01*
X205155962Y-99685518D01*
X205159167Y-99648071D01*
X205160761Y-99594313D01*
X205160633Y-99553655D01*
X205023279Y-99553655D01*
X205020097Y-99607694D01*
X205012859Y-99652235D01*
X205003060Y-99677388D01*
X204965989Y-99711760D01*
X204921974Y-99724082D01*
X204876584Y-99714118D01*
X204837797Y-99684395D01*
X204823108Y-99664405D01*
X204814519Y-99640550D01*
X204810496Y-99605730D01*
X204809505Y-99553430D01*
X204811278Y-99501639D01*
X204815963Y-99456134D01*
X204822603Y-99425681D01*
X204823710Y-99422952D01*
X204850491Y-99390500D01*
X204889579Y-99372683D01*
X204933315Y-99369806D01*
X204974038Y-99382174D01*
X205004087Y-99410093D01*
X205007204Y-99415648D01*
X205016961Y-99449522D01*
X205022277Y-99498228D01*
X205023279Y-99553655D01*
X205160633Y-99553655D01*
X205160568Y-99533040D01*
X205159664Y-99500063D01*
X205153514Y-99418481D01*
X205140733Y-99357230D01*
X205119471Y-99311949D01*
X205087878Y-99278279D01*
X205057207Y-99258514D01*
X205014354Y-99244620D01*
X204961056Y-99239854D01*
X204906480Y-99243736D01*
X204859792Y-99255782D01*
X204835124Y-99270193D01*
X204809505Y-99293378D01*
X204809505Y-99000273D01*
X204671188Y-99000273D01*
X204671188Y-99855322D01*
G37*
X204671188Y-99855322D02*
X204740346Y-99855322D01*
X204780488Y-99854145D01*
X204801394Y-99849272D01*
X204808922Y-99838686D01*
X204809505Y-99831529D01*
X204810774Y-99817176D01*
X204818779Y-99814423D01*
X204839815Y-99823271D01*
X204856173Y-99831529D01*
X204918977Y-99851097D01*
X204987248Y-99852229D01*
X205042752Y-99837635D01*
X205094438Y-99802377D01*
X205133838Y-99750335D01*
X205155413Y-99688950D01*
X205155962Y-99685518D01*
X205159167Y-99648071D01*
X205160761Y-99594313D01*
X205160633Y-99553655D01*
X205023279Y-99553655D01*
X205020097Y-99607694D01*
X205012859Y-99652235D01*
X205003060Y-99677388D01*
X204965989Y-99711760D01*
X204921974Y-99724082D01*
X204876584Y-99714118D01*
X204837797Y-99684395D01*
X204823108Y-99664405D01*
X204814519Y-99640550D01*
X204810496Y-99605730D01*
X204809505Y-99553430D01*
X204811278Y-99501639D01*
X204815963Y-99456134D01*
X204822603Y-99425681D01*
X204823710Y-99422952D01*
X204850491Y-99390500D01*
X204889579Y-99372683D01*
X204933315Y-99369806D01*
X204974038Y-99382174D01*
X205004087Y-99410093D01*
X205007204Y-99415648D01*
X205016961Y-99449522D01*
X205022277Y-99498228D01*
X205023279Y-99553655D01*
X205160633Y-99553655D01*
X205160568Y-99533040D01*
X205159664Y-99500063D01*
X205153514Y-99418481D01*
X205140733Y-99357230D01*
X205119471Y-99311949D01*
X205087878Y-99278279D01*
X205057207Y-99258514D01*
X205014354Y-99244620D01*
X204961056Y-99239854D01*
X204906480Y-99243736D01*
X204859792Y-99255782D01*
X204835124Y-99270193D01*
X204809505Y-99293378D01*
X204809505Y-99000273D01*
X204671188Y-99000273D01*
X204671188Y-99855322D01*
G36*
X204188476Y-99241737D02*
G01*
X204138745Y-99245471D01*
X204008709Y-99635273D01*
X203988322Y-99566114D01*
X203976054Y-99523374D01*
X203959915Y-99465615D01*
X203942488Y-99402125D01*
X203933274Y-99368070D01*
X203898612Y-99239183D01*
X203755609Y-99239183D01*
X203798354Y-99374357D01*
X203819404Y-99440842D01*
X203844833Y-99521039D01*
X203871390Y-99604693D01*
X203895098Y-99679282D01*
X203949098Y-99849035D01*
X204007402Y-99852828D01*
X204065705Y-99856622D01*
X204097321Y-99752234D01*
X204116818Y-99687389D01*
X204138096Y-99615900D01*
X204156692Y-99552763D01*
X204157426Y-99550250D01*
X204171316Y-99507469D01*
X204183571Y-99478279D01*
X204192154Y-99467241D01*
X204193918Y-99468518D01*
X204200109Y-99485630D01*
X204211872Y-99522287D01*
X204227775Y-99573878D01*
X204246386Y-99635794D01*
X204256457Y-99669852D01*
X204310993Y-99855322D01*
X204426736Y-99855322D01*
X204519263Y-99562971D01*
X204545256Y-99480962D01*
X204568934Y-99406487D01*
X204589180Y-99343044D01*
X204604874Y-99294132D01*
X204614898Y-99263249D01*
X204617945Y-99254226D01*
X204615533Y-99244987D01*
X204596592Y-99240941D01*
X204557177Y-99241346D01*
X204551007Y-99241652D01*
X204477914Y-99245471D01*
X204430043Y-99421510D01*
X204412447Y-99485711D01*
X204396723Y-99542149D01*
X204384254Y-99585922D01*
X204376426Y-99612130D01*
X204374980Y-99616403D01*
X204368986Y-99611490D01*
X204356899Y-99586032D01*
X204340107Y-99543497D01*
X204319997Y-99487350D01*
X204302997Y-99436630D01*
X204238206Y-99238004D01*
X204188476Y-99241737D01*
G37*
X204188476Y-99241737D02*
X204138745Y-99245471D01*
X204008709Y-99635273D01*
X203988322Y-99566114D01*
X203976054Y-99523374D01*
X203959915Y-99465615D01*
X203942488Y-99402125D01*
X203933274Y-99368070D01*
X203898612Y-99239183D01*
X203755609Y-99239183D01*
X203798354Y-99374357D01*
X203819404Y-99440842D01*
X203844833Y-99521039D01*
X203871390Y-99604693D01*
X203895098Y-99679282D01*
X203949098Y-99849035D01*
X204007402Y-99852828D01*
X204065705Y-99856622D01*
X204097321Y-99752234D01*
X204116818Y-99687389D01*
X204138096Y-99615900D01*
X204156692Y-99552763D01*
X204157426Y-99550250D01*
X204171316Y-99507469D01*
X204183571Y-99478279D01*
X204192154Y-99467241D01*
X204193918Y-99468518D01*
X204200109Y-99485630D01*
X204211872Y-99522287D01*
X204227775Y-99573878D01*
X204246386Y-99635794D01*
X204256457Y-99669852D01*
X204310993Y-99855322D01*
X204426736Y-99855322D01*
X204519263Y-99562971D01*
X204545256Y-99480962D01*
X204568934Y-99406487D01*
X204589180Y-99343044D01*
X204604874Y-99294132D01*
X204614898Y-99263249D01*
X204617945Y-99254226D01*
X204615533Y-99244987D01*
X204596592Y-99240941D01*
X204557177Y-99241346D01*
X204551007Y-99241652D01*
X204477914Y-99245471D01*
X204430043Y-99421510D01*
X204412447Y-99485711D01*
X204396723Y-99542149D01*
X204384254Y-99585922D01*
X204376426Y-99612130D01*
X204374980Y-99616403D01*
X204368986Y-99611490D01*
X204356899Y-99586032D01*
X204340107Y-99543497D01*
X204319997Y-99487350D01*
X204302997Y-99436630D01*
X204238206Y-99238004D01*
X204188476Y-99241737D01*
G36*
X203431589Y-99242917D02*
G01*
X203378589Y-99255790D01*
X203363269Y-99262610D01*
X203333572Y-99280474D01*
X203310780Y-99300593D01*
X203293917Y-99326462D01*
X203282002Y-99361573D01*
X203274058Y-99409420D01*
X203269106Y-99473496D01*
X203266169Y-99557294D01*
X203265053Y-99613268D01*
X203260948Y-99855322D01*
X203331068Y-99855322D01*
X203373607Y-99853538D01*
X203395524Y-99847442D01*
X203401188Y-99837206D01*
X203404179Y-99826137D01*
X203417549Y-99828254D01*
X203435767Y-99837129D01*
X203481376Y-99850733D01*
X203539993Y-99854399D01*
X203601646Y-99848403D01*
X203656362Y-99833021D01*
X203661270Y-99830886D01*
X203711277Y-99795755D01*
X203744244Y-99746919D01*
X203759413Y-99689833D01*
X203758254Y-99669324D01*
X203634492Y-99669324D01*
X203623587Y-99696925D01*
X203591255Y-99716704D01*
X203539090Y-99727319D01*
X203511213Y-99728728D01*
X203464753Y-99725120D01*
X203433871Y-99711097D01*
X203426336Y-99704431D01*
X203405924Y-99668166D01*
X203401188Y-99635273D01*
X203401188Y-99591263D01*
X203462487Y-99591263D01*
X203533744Y-99594895D01*
X203583724Y-99606318D01*
X203615304Y-99626324D01*
X203622374Y-99635243D01*
X203634492Y-99669324D01*
X203758254Y-99669324D01*
X203756029Y-99629956D01*
X203733337Y-99572744D01*
X203702376Y-99534080D01*
X203683624Y-99517364D01*
X203665267Y-99506378D01*
X203641381Y-99499680D01*
X203606043Y-99495826D01*
X203553331Y-99493373D01*
X203532423Y-99492668D01*
X203401188Y-99488379D01*
X203401380Y-99448658D01*
X203406463Y-99406905D01*
X203424838Y-99381658D01*
X203461961Y-99365530D01*
X203462957Y-99365242D01*
X203515590Y-99358900D01*
X203567094Y-99367184D01*
X203605370Y-99387327D01*
X203620728Y-99397273D01*
X203637270Y-99395897D01*
X203662725Y-99381487D01*
X203677672Y-99371317D01*
X203706909Y-99349588D01*
X203725020Y-99333300D01*
X203727926Y-99328637D01*
X203715960Y-99304505D01*
X203680604Y-99275685D01*
X203665247Y-99265961D01*
X203621099Y-99249214D01*
X203561602Y-99239727D01*
X203495513Y-99237595D01*
X203431589Y-99242917D01*
G37*
X203431589Y-99242917D02*
X203378589Y-99255790D01*
X203363269Y-99262610D01*
X203333572Y-99280474D01*
X203310780Y-99300593D01*
X203293917Y-99326462D01*
X203282002Y-99361573D01*
X203274058Y-99409420D01*
X203269106Y-99473496D01*
X203266169Y-99557294D01*
X203265053Y-99613268D01*
X203260948Y-99855322D01*
X203331068Y-99855322D01*
X203373607Y-99853538D01*
X203395524Y-99847442D01*
X203401188Y-99837206D01*
X203404179Y-99826137D01*
X203417549Y-99828254D01*
X203435767Y-99837129D01*
X203481376Y-99850733D01*
X203539993Y-99854399D01*
X203601646Y-99848403D01*
X203656362Y-99833021D01*
X203661270Y-99830886D01*
X203711277Y-99795755D01*
X203744244Y-99746919D01*
X203759413Y-99689833D01*
X203758254Y-99669324D01*
X203634492Y-99669324D01*
X203623587Y-99696925D01*
X203591255Y-99716704D01*
X203539090Y-99727319D01*
X203511213Y-99728728D01*
X203464753Y-99725120D01*
X203433871Y-99711097D01*
X203426336Y-99704431D01*
X203405924Y-99668166D01*
X203401188Y-99635273D01*
X203401188Y-99591263D01*
X203462487Y-99591263D01*
X203533744Y-99594895D01*
X203583724Y-99606318D01*
X203615304Y-99626324D01*
X203622374Y-99635243D01*
X203634492Y-99669324D01*
X203758254Y-99669324D01*
X203756029Y-99629956D01*
X203733337Y-99572744D01*
X203702376Y-99534080D01*
X203683624Y-99517364D01*
X203665267Y-99506378D01*
X203641381Y-99499680D01*
X203606043Y-99495826D01*
X203553331Y-99493373D01*
X203532423Y-99492668D01*
X203401188Y-99488379D01*
X203401380Y-99448658D01*
X203406463Y-99406905D01*
X203424838Y-99381658D01*
X203461961Y-99365530D01*
X203462957Y-99365242D01*
X203515590Y-99358900D01*
X203567094Y-99367184D01*
X203605370Y-99387327D01*
X203620728Y-99397273D01*
X203637270Y-99395897D01*
X203662725Y-99381487D01*
X203677672Y-99371317D01*
X203706909Y-99349588D01*
X203725020Y-99333300D01*
X203727926Y-99328637D01*
X203715960Y-99304505D01*
X203680604Y-99275685D01*
X203665247Y-99265961D01*
X203621099Y-99249214D01*
X203561602Y-99239727D01*
X203495513Y-99237595D01*
X203431589Y-99242917D01*
G36*
X202834745Y-99238986D02*
G01*
X202786405Y-99248515D01*
X202758886Y-99262625D01*
X202729936Y-99286068D01*
X202771124Y-99338071D01*
X202796518Y-99369564D01*
X202813762Y-99384928D01*
X202830898Y-99387276D01*
X202855973Y-99379717D01*
X202867743Y-99375441D01*
X202915730Y-99369131D01*
X202959676Y-99382656D01*
X202991940Y-99413210D01*
X202997181Y-99422952D01*
X203002888Y-99448758D01*
X203007294Y-99496317D01*
X203010189Y-99562258D01*
X203011369Y-99643210D01*
X203011386Y-99654726D01*
X203011386Y-99855322D01*
X203149703Y-99855322D01*
X203149703Y-99239183D01*
X203080544Y-99239183D01*
X203040667Y-99240225D01*
X203019893Y-99244858D01*
X203012211Y-99255349D01*
X203011386Y-99265245D01*
X203011386Y-99291306D01*
X202978255Y-99265245D01*
X202940265Y-99247465D01*
X202889230Y-99238674D01*
X202834745Y-99238986D01*
G37*
X202834745Y-99238986D02*
X202786405Y-99248515D01*
X202758886Y-99262625D01*
X202729936Y-99286068D01*
X202771124Y-99338071D01*
X202796518Y-99369564D01*
X202813762Y-99384928D01*
X202830898Y-99387276D01*
X202855973Y-99379717D01*
X202867743Y-99375441D01*
X202915730Y-99369131D01*
X202959676Y-99382656D01*
X202991940Y-99413210D01*
X202997181Y-99422952D01*
X203002888Y-99448758D01*
X203007294Y-99496317D01*
X203010189Y-99562258D01*
X203011369Y-99643210D01*
X203011386Y-99654726D01*
X203011386Y-99855322D01*
X203149703Y-99855322D01*
X203149703Y-99239183D01*
X203080544Y-99239183D01*
X203040667Y-99240225D01*
X203019893Y-99244858D01*
X203012211Y-99255349D01*
X203011386Y-99265245D01*
X203011386Y-99291306D01*
X202978255Y-99265245D01*
X202940265Y-99247465D01*
X202889230Y-99238674D01*
X202834745Y-99238986D01*
G36*
X202437419Y-99242470D02*
G01*
X202377315Y-99258097D01*
X202326979Y-99290348D01*
X202302607Y-99314440D01*
X202262655Y-99371395D01*
X202239758Y-99437465D01*
X202231892Y-99518682D01*
X202231852Y-99525248D01*
X202231782Y-99591263D01*
X202611736Y-99591263D01*
X202603637Y-99625842D01*
X202589013Y-99657159D01*
X202563419Y-99689791D01*
X202558065Y-99695000D01*
X202512057Y-99723194D01*
X202459590Y-99727975D01*
X202399197Y-99709426D01*
X202388960Y-99704431D01*
X202357561Y-99689245D01*
X202336530Y-99680594D01*
X202332861Y-99679793D01*
X202320052Y-99687563D01*
X202295622Y-99706572D01*
X202283221Y-99716960D01*
X202257524Y-99740821D01*
X202249085Y-99756577D01*
X202254942Y-99771071D01*
X202258072Y-99775034D01*
X202279275Y-99792379D01*
X202314262Y-99813459D01*
X202338663Y-99825765D01*
X202407928Y-99847446D01*
X202484612Y-99854471D01*
X202557235Y-99846147D01*
X202577574Y-99840186D01*
X202640524Y-99806452D01*
X202687185Y-99754545D01*
X202717827Y-99683959D01*
X202732718Y-99594192D01*
X202734353Y-99547253D01*
X202729579Y-99478913D01*
X202609010Y-99478913D01*
X202597348Y-99483965D01*
X202566002Y-99487929D01*
X202520429Y-99490268D01*
X202489554Y-99490669D01*
X202434019Y-99490283D01*
X202398967Y-99488475D01*
X202379738Y-99484273D01*
X202371670Y-99476703D01*
X202370099Y-99465718D01*
X202380879Y-99431881D01*
X202408020Y-99398440D01*
X202443723Y-99372772D01*
X202479440Y-99362272D01*
X202527952Y-99371586D01*
X202569947Y-99398513D01*
X202599064Y-99437327D01*
X202609010Y-99478913D01*
X202729579Y-99478913D01*
X202727401Y-99447736D01*
X202705945Y-99368449D01*
X202669530Y-99308763D01*
X202617703Y-99268049D01*
X202550010Y-99245679D01*
X202513338Y-99241371D01*
X202437419Y-99242470D01*
G37*
X202437419Y-99242470D02*
X202377315Y-99258097D01*
X202326979Y-99290348D01*
X202302607Y-99314440D01*
X202262655Y-99371395D01*
X202239758Y-99437465D01*
X202231892Y-99518682D01*
X202231852Y-99525248D01*
X202231782Y-99591263D01*
X202611736Y-99591263D01*
X202603637Y-99625842D01*
X202589013Y-99657159D01*
X202563419Y-99689791D01*
X202558065Y-99695000D01*
X202512057Y-99723194D01*
X202459590Y-99727975D01*
X202399197Y-99709426D01*
X202388960Y-99704431D01*
X202357561Y-99689245D01*
X202336530Y-99680594D01*
X202332861Y-99679793D01*
X202320052Y-99687563D01*
X202295622Y-99706572D01*
X202283221Y-99716960D01*
X202257524Y-99740821D01*
X202249085Y-99756577D01*
X202254942Y-99771071D01*
X202258072Y-99775034D01*
X202279275Y-99792379D01*
X202314262Y-99813459D01*
X202338663Y-99825765D01*
X202407928Y-99847446D01*
X202484612Y-99854471D01*
X202557235Y-99846147D01*
X202577574Y-99840186D01*
X202640524Y-99806452D01*
X202687185Y-99754545D01*
X202717827Y-99683959D01*
X202732718Y-99594192D01*
X202734353Y-99547253D01*
X202729579Y-99478913D01*
X202609010Y-99478913D01*
X202597348Y-99483965D01*
X202566002Y-99487929D01*
X202520429Y-99490268D01*
X202489554Y-99490669D01*
X202434019Y-99490283D01*
X202398967Y-99488475D01*
X202379738Y-99484273D01*
X202371670Y-99476703D01*
X202370099Y-99465718D01*
X202380879Y-99431881D01*
X202408020Y-99398440D01*
X202443723Y-99372772D01*
X202479440Y-99362272D01*
X202527952Y-99371586D01*
X202569947Y-99398513D01*
X202599064Y-99437327D01*
X202609010Y-99478913D01*
X202729579Y-99478913D01*
X202727401Y-99447736D01*
X202705945Y-99368449D01*
X202669530Y-99308763D01*
X202617703Y-99268049D01*
X202550010Y-99245679D01*
X202513338Y-99241371D01*
X202437419Y-99242470D01*
G36*
X207008261Y-98302648D02*
G01*
X206942479Y-98331731D01*
X206892540Y-98380293D01*
X206858374Y-98448408D01*
X206839907Y-98536151D01*
X206838583Y-98549851D01*
X206837546Y-98646439D01*
X206850993Y-98731102D01*
X206878108Y-98799721D01*
X206892627Y-98821794D01*
X206943201Y-98868511D01*
X207007609Y-98898768D01*
X207079666Y-98911324D01*
X207153185Y-98904939D01*
X207209072Y-98885272D01*
X207257132Y-98852129D01*
X207296412Y-98808675D01*
X207297092Y-98807658D01*
X207313044Y-98780838D01*
X207323410Y-98753868D01*
X207329688Y-98719832D01*
X207333373Y-98671810D01*
X207334997Y-98632431D01*
X207335672Y-98596719D01*
X207209955Y-98596719D01*
X207208726Y-98632270D01*
X207204266Y-98679594D01*
X207196397Y-98709965D01*
X207182207Y-98731572D01*
X207168917Y-98744194D01*
X207121802Y-98770622D01*
X207072505Y-98774153D01*
X207026593Y-98755139D01*
X207003638Y-98733831D01*
X206987096Y-98712359D01*
X206977421Y-98691813D01*
X206973174Y-98665074D01*
X206972920Y-98625023D01*
X206974228Y-98588138D01*
X206977043Y-98535447D01*
X206981505Y-98501272D01*
X206989548Y-98478980D01*
X207003103Y-98461942D01*
X207013845Y-98452203D01*
X207058777Y-98426623D01*
X207107249Y-98425347D01*
X207147894Y-98440499D01*
X207182567Y-98472142D01*
X207203224Y-98524120D01*
X207209955Y-98596719D01*
X207335672Y-98596719D01*
X207336479Y-98554121D01*
X207333948Y-98495556D01*
X207326362Y-98451507D01*
X207312681Y-98416748D01*
X207291865Y-98386051D01*
X207284147Y-98376936D01*
X207235889Y-98331521D01*
X207184128Y-98304993D01*
X207120828Y-98293879D01*
X207089961Y-98292971D01*
X207008261Y-98302648D01*
G37*
X207008261Y-98302648D02*
X206942479Y-98331731D01*
X206892540Y-98380293D01*
X206858374Y-98448408D01*
X206839907Y-98536151D01*
X206838583Y-98549851D01*
X206837546Y-98646439D01*
X206850993Y-98731102D01*
X206878108Y-98799721D01*
X206892627Y-98821794D01*
X206943201Y-98868511D01*
X207007609Y-98898768D01*
X207079666Y-98911324D01*
X207153185Y-98904939D01*
X207209072Y-98885272D01*
X207257132Y-98852129D01*
X207296412Y-98808675D01*
X207297092Y-98807658D01*
X207313044Y-98780838D01*
X207323410Y-98753868D01*
X207329688Y-98719832D01*
X207333373Y-98671810D01*
X207334997Y-98632431D01*
X207335672Y-98596719D01*
X207209955Y-98596719D01*
X207208726Y-98632270D01*
X207204266Y-98679594D01*
X207196397Y-98709965D01*
X207182207Y-98731572D01*
X207168917Y-98744194D01*
X207121802Y-98770622D01*
X207072505Y-98774153D01*
X207026593Y-98755139D01*
X207003638Y-98733831D01*
X206987096Y-98712359D01*
X206977421Y-98691813D01*
X206973174Y-98665074D01*
X206972920Y-98625023D01*
X206974228Y-98588138D01*
X206977043Y-98535447D01*
X206981505Y-98501272D01*
X206989548Y-98478980D01*
X207003103Y-98461942D01*
X207013845Y-98452203D01*
X207058777Y-98426623D01*
X207107249Y-98425347D01*
X207147894Y-98440499D01*
X207182567Y-98472142D01*
X207203224Y-98524120D01*
X207209955Y-98596719D01*
X207335672Y-98596719D01*
X207336479Y-98554121D01*
X207333948Y-98495556D01*
X207326362Y-98451507D01*
X207312681Y-98416748D01*
X207291865Y-98386051D01*
X207284147Y-98376936D01*
X207235889Y-98331521D01*
X207184128Y-98304993D01*
X207120828Y-98293879D01*
X207089961Y-98292971D01*
X207008261Y-98302648D01*
G36*
X205826699Y-98310114D02*
G01*
X205814168Y-98316014D01*
X205770799Y-98347783D01*
X205729790Y-98394146D01*
X205699168Y-98445196D01*
X205690459Y-98468666D01*
X205682512Y-98510591D01*
X205677774Y-98561257D01*
X205677199Y-98582179D01*
X205677129Y-98648193D01*
X206057083Y-98648193D01*
X206048983Y-98682773D01*
X206029104Y-98723670D01*
X205994347Y-98759014D01*
X205952998Y-98781782D01*
X205926649Y-98786510D01*
X205890916Y-98780773D01*
X205848282Y-98766382D01*
X205833799Y-98759762D01*
X205780240Y-98733013D01*
X205734533Y-98767876D01*
X205708158Y-98791455D01*
X205694124Y-98810917D01*
X205693414Y-98816629D01*
X205705951Y-98830473D01*
X205733428Y-98851512D01*
X205758366Y-98867925D01*
X205825664Y-98897430D01*
X205901110Y-98910784D01*
X205975888Y-98907312D01*
X206035495Y-98889163D01*
X206096941Y-98850284D01*
X206140608Y-98799095D01*
X206167926Y-98732867D01*
X206180322Y-98648871D01*
X206181421Y-98610436D01*
X206177022Y-98522361D01*
X206176482Y-98519799D01*
X206050582Y-98519799D01*
X206047115Y-98528058D01*
X206032863Y-98532613D01*
X206003470Y-98534565D01*
X205954575Y-98535017D01*
X205935748Y-98535025D01*
X205878467Y-98534343D01*
X205842141Y-98531864D01*
X205822604Y-98526943D01*
X205815690Y-98518934D01*
X205815445Y-98516362D01*
X205823336Y-98495923D01*
X205843085Y-98467289D01*
X205851575Y-98457263D01*
X205883094Y-98428908D01*
X205915949Y-98417759D01*
X205933651Y-98416827D01*
X205981539Y-98428481D01*
X206021699Y-98459785D01*
X206047173Y-98505252D01*
X206047625Y-98506733D01*
X206050582Y-98519799D01*
X206176482Y-98519799D01*
X206162392Y-98453010D01*
X206136038Y-98397525D01*
X206103807Y-98358139D01*
X206044217Y-98315431D01*
X205974168Y-98292609D01*
X205899661Y-98290546D01*
X205826699Y-98310114D01*
G37*
X205826699Y-98310114D02*
X205814168Y-98316014D01*
X205770799Y-98347783D01*
X205729790Y-98394146D01*
X205699168Y-98445196D01*
X205690459Y-98468666D01*
X205682512Y-98510591D01*
X205677774Y-98561257D01*
X205677199Y-98582179D01*
X205677129Y-98648193D01*
X206057083Y-98648193D01*
X206048983Y-98682773D01*
X206029104Y-98723670D01*
X205994347Y-98759014D01*
X205952998Y-98781782D01*
X205926649Y-98786510D01*
X205890916Y-98780773D01*
X205848282Y-98766382D01*
X205833799Y-98759762D01*
X205780240Y-98733013D01*
X205734533Y-98767876D01*
X205708158Y-98791455D01*
X205694124Y-98810917D01*
X205693414Y-98816629D01*
X205705951Y-98830473D01*
X205733428Y-98851512D01*
X205758366Y-98867925D01*
X205825664Y-98897430D01*
X205901110Y-98910784D01*
X205975888Y-98907312D01*
X206035495Y-98889163D01*
X206096941Y-98850284D01*
X206140608Y-98799095D01*
X206167926Y-98732867D01*
X206180322Y-98648871D01*
X206181421Y-98610436D01*
X206177022Y-98522361D01*
X206176482Y-98519799D01*
X206050582Y-98519799D01*
X206047115Y-98528058D01*
X206032863Y-98532613D01*
X206003470Y-98534565D01*
X205954575Y-98535017D01*
X205935748Y-98535025D01*
X205878467Y-98534343D01*
X205842141Y-98531864D01*
X205822604Y-98526943D01*
X205815690Y-98518934D01*
X205815445Y-98516362D01*
X205823336Y-98495923D01*
X205843085Y-98467289D01*
X205851575Y-98457263D01*
X205883094Y-98428908D01*
X205915949Y-98417759D01*
X205933651Y-98416827D01*
X205981539Y-98428481D01*
X206021699Y-98459785D01*
X206047173Y-98505252D01*
X206047625Y-98506733D01*
X206050582Y-98519799D01*
X206176482Y-98519799D01*
X206162392Y-98453010D01*
X206136038Y-98397525D01*
X206103807Y-98358139D01*
X206044217Y-98315431D01*
X205974168Y-98292609D01*
X205899661Y-98290546D01*
X205826699Y-98310114D01*
G36*
X204455983Y-98293952D02*
G01*
X204408366Y-98302982D01*
X204358966Y-98321870D01*
X204353688Y-98324277D01*
X204316226Y-98343976D01*
X204290283Y-98362281D01*
X204281897Y-98374008D01*
X204289883Y-98393132D01*
X204309280Y-98421350D01*
X204317890Y-98431884D01*
X204353372Y-98473347D01*
X204399115Y-98446358D01*
X204442650Y-98428378D01*
X204492950Y-98418767D01*
X204541188Y-98418160D01*
X204578533Y-98427191D01*
X204587495Y-98432827D01*
X204604563Y-98458671D01*
X204606637Y-98488441D01*
X204593866Y-98511697D01*
X204586312Y-98516208D01*
X204563675Y-98521809D01*
X204523885Y-98528392D01*
X204474834Y-98534683D01*
X204465785Y-98535670D01*
X204387004Y-98549298D01*
X204329864Y-98572446D01*
X204291970Y-98607252D01*
X204270921Y-98655854D01*
X204264365Y-98715218D01*
X204273423Y-98782698D01*
X204302836Y-98835688D01*
X204352722Y-98874283D01*
X204423200Y-98898581D01*
X204501435Y-98908167D01*
X204565234Y-98908052D01*
X204616984Y-98899345D01*
X204652327Y-98887325D01*
X204696983Y-98866380D01*
X204738253Y-98842074D01*
X204752921Y-98831376D01*
X204790643Y-98800584D01*
X204745148Y-98754549D01*
X204699653Y-98708513D01*
X204647928Y-98742743D01*
X204596048Y-98768452D01*
X204540649Y-98781899D01*
X204487395Y-98783318D01*
X204441951Y-98772943D01*
X204409984Y-98751007D01*
X204399662Y-98732498D01*
X204401211Y-98702814D01*
X204426860Y-98680115D01*
X204476540Y-98664440D01*
X204530969Y-98657195D01*
X204614736Y-98643373D01*
X204676967Y-98617296D01*
X204718493Y-98578199D01*
X204740147Y-98525320D01*
X204743147Y-98462626D01*
X204728329Y-98397142D01*
X204694546Y-98347644D01*
X204641495Y-98313908D01*
X204568874Y-98295707D01*
X204515072Y-98292139D01*
X204455983Y-98293952D01*
G37*
X204455983Y-98293952D02*
X204408366Y-98302982D01*
X204358966Y-98321870D01*
X204353688Y-98324277D01*
X204316226Y-98343976D01*
X204290283Y-98362281D01*
X204281897Y-98374008D01*
X204289883Y-98393132D01*
X204309280Y-98421350D01*
X204317890Y-98431884D01*
X204353372Y-98473347D01*
X204399115Y-98446358D01*
X204442650Y-98428378D01*
X204492950Y-98418767D01*
X204541188Y-98418160D01*
X204578533Y-98427191D01*
X204587495Y-98432827D01*
X204604563Y-98458671D01*
X204606637Y-98488441D01*
X204593866Y-98511697D01*
X204586312Y-98516208D01*
X204563675Y-98521809D01*
X204523885Y-98528392D01*
X204474834Y-98534683D01*
X204465785Y-98535670D01*
X204387004Y-98549298D01*
X204329864Y-98572446D01*
X204291970Y-98607252D01*
X204270921Y-98655854D01*
X204264365Y-98715218D01*
X204273423Y-98782698D01*
X204302836Y-98835688D01*
X204352722Y-98874283D01*
X204423200Y-98898581D01*
X204501435Y-98908167D01*
X204565234Y-98908052D01*
X204616984Y-98899345D01*
X204652327Y-98887325D01*
X204696983Y-98866380D01*
X204738253Y-98842074D01*
X204752921Y-98831376D01*
X204790643Y-98800584D01*
X204745148Y-98754549D01*
X204699653Y-98708513D01*
X204647928Y-98742743D01*
X204596048Y-98768452D01*
X204540649Y-98781899D01*
X204487395Y-98783318D01*
X204441951Y-98772943D01*
X204409984Y-98751007D01*
X204399662Y-98732498D01*
X204401211Y-98702814D01*
X204426860Y-98680115D01*
X204476540Y-98664440D01*
X204530969Y-98657195D01*
X204614736Y-98643373D01*
X204676967Y-98617296D01*
X204718493Y-98578199D01*
X204740147Y-98525320D01*
X204743147Y-98462626D01*
X204728329Y-98397142D01*
X204694546Y-98347644D01*
X204641495Y-98313908D01*
X204568874Y-98295707D01*
X204515072Y-98292139D01*
X204455983Y-98293952D01*
G36*
X203859238Y-98303555D02*
G01*
X203795637Y-98338192D01*
X203745877Y-98392872D01*
X203722432Y-98437342D01*
X203712366Y-98476621D01*
X203705844Y-98532616D01*
X203703049Y-98597121D01*
X203704164Y-98661929D01*
X203709374Y-98718834D01*
X203715459Y-98749227D01*
X203735986Y-98790806D01*
X203771537Y-98834968D01*
X203814381Y-98873587D01*
X203856789Y-98898534D01*
X203857823Y-98898930D01*
X203910447Y-98909831D01*
X203972812Y-98910101D01*
X204032076Y-98900176D01*
X204054960Y-98892222D01*
X204113898Y-98858800D01*
X204156110Y-98815011D01*
X204183844Y-98757038D01*
X204199349Y-98681065D01*
X204202857Y-98641271D01*
X204202410Y-98591266D01*
X204067624Y-98591266D01*
X204063083Y-98664232D01*
X204050014Y-98719834D01*
X204029244Y-98755361D01*
X204014448Y-98765520D01*
X203976536Y-98772604D01*
X203931473Y-98770507D01*
X203892513Y-98760312D01*
X203882296Y-98754704D01*
X203855341Y-98722038D01*
X203837549Y-98672045D01*
X203829976Y-98611205D01*
X203833675Y-98545997D01*
X203841943Y-98506753D01*
X203865680Y-98461305D01*
X203903151Y-98432896D01*
X203948280Y-98423073D01*
X203994989Y-98433387D01*
X204030868Y-98458612D01*
X204049723Y-98479425D01*
X204060728Y-98499939D01*
X204065974Y-98527703D01*
X204067551Y-98570262D01*
X204067624Y-98591266D01*
X204202410Y-98591266D01*
X204201906Y-98535080D01*
X204184612Y-98448001D01*
X204150971Y-98380030D01*
X204100982Y-98331164D01*
X204034644Y-98301399D01*
X204020399Y-98297948D01*
X203934790Y-98289845D01*
X203859238Y-98303555D01*
G37*
X203859238Y-98303555D02*
X203795637Y-98338192D01*
X203745877Y-98392872D01*
X203722432Y-98437342D01*
X203712366Y-98476621D01*
X203705844Y-98532616D01*
X203703049Y-98597121D01*
X203704164Y-98661929D01*
X203709374Y-98718834D01*
X203715459Y-98749227D01*
X203735986Y-98790806D01*
X203771537Y-98834968D01*
X203814381Y-98873587D01*
X203856789Y-98898534D01*
X203857823Y-98898930D01*
X203910447Y-98909831D01*
X203972812Y-98910101D01*
X204032076Y-98900176D01*
X204054960Y-98892222D01*
X204113898Y-98858800D01*
X204156110Y-98815011D01*
X204183844Y-98757038D01*
X204199349Y-98681065D01*
X204202857Y-98641271D01*
X204202410Y-98591266D01*
X204067624Y-98591266D01*
X204063083Y-98664232D01*
X204050014Y-98719834D01*
X204029244Y-98755361D01*
X204014448Y-98765520D01*
X203976536Y-98772604D01*
X203931473Y-98770507D01*
X203892513Y-98760312D01*
X203882296Y-98754704D01*
X203855341Y-98722038D01*
X203837549Y-98672045D01*
X203829976Y-98611205D01*
X203833675Y-98545997D01*
X203841943Y-98506753D01*
X203865680Y-98461305D01*
X203903151Y-98432896D01*
X203948280Y-98423073D01*
X203994989Y-98433387D01*
X204030868Y-98458612D01*
X204049723Y-98479425D01*
X204060728Y-98499939D01*
X204065974Y-98527703D01*
X204067551Y-98570262D01*
X204067624Y-98591266D01*
X204202410Y-98591266D01*
X204201906Y-98535080D01*
X204184612Y-98448001D01*
X204150971Y-98380030D01*
X204100982Y-98331164D01*
X204034644Y-98301399D01*
X204020399Y-98297948D01*
X203934790Y-98289845D01*
X203859238Y-98303555D01*
G36*
X203476633Y-98491842D02*
G01*
X203475445Y-98584063D01*
X203471103Y-98654110D01*
X203462442Y-98704881D01*
X203448296Y-98739272D01*
X203427500Y-98760179D01*
X203398890Y-98770500D01*
X203363465Y-98773136D01*
X203326364Y-98770182D01*
X203298182Y-98759389D01*
X203277757Y-98737860D01*
X203263921Y-98702699D01*
X203255509Y-98651010D01*
X203251357Y-98579894D01*
X203250297Y-98491842D01*
X203250297Y-98296114D01*
X203111980Y-98296114D01*
X203111980Y-98899679D01*
X203181138Y-98899679D01*
X203222830Y-98897989D01*
X203244299Y-98892056D01*
X203250297Y-98880793D01*
X203253909Y-98870761D01*
X203268286Y-98872883D01*
X203297264Y-98887080D01*
X203363681Y-98908980D01*
X203434125Y-98907428D01*
X203501623Y-98883647D01*
X203533767Y-98864862D01*
X203558285Y-98844522D01*
X203576196Y-98819073D01*
X203588521Y-98784958D01*
X203596277Y-98738621D01*
X203600484Y-98676507D01*
X203602160Y-98595061D01*
X203602376Y-98532078D01*
X203602376Y-98296114D01*
X203476633Y-98296114D01*
X203476633Y-98491842D01*
G37*
X203476633Y-98491842D02*
X203475445Y-98584063D01*
X203471103Y-98654110D01*
X203462442Y-98704881D01*
X203448296Y-98739272D01*
X203427500Y-98760179D01*
X203398890Y-98770500D01*
X203363465Y-98773136D01*
X203326364Y-98770182D01*
X203298182Y-98759389D01*
X203277757Y-98737860D01*
X203263921Y-98702699D01*
X203255509Y-98651010D01*
X203251357Y-98579894D01*
X203250297Y-98491842D01*
X203250297Y-98296114D01*
X203111980Y-98296114D01*
X203111980Y-98899679D01*
X203181138Y-98899679D01*
X203222830Y-98897989D01*
X203244299Y-98892056D01*
X203250297Y-98880793D01*
X203253909Y-98870761D01*
X203268286Y-98872883D01*
X203297264Y-98887080D01*
X203363681Y-98908980D01*
X203434125Y-98907428D01*
X203501623Y-98883647D01*
X203533767Y-98864862D01*
X203558285Y-98844522D01*
X203576196Y-98819073D01*
X203588521Y-98784958D01*
X203596277Y-98738621D01*
X203600484Y-98676507D01*
X203602160Y-98595061D01*
X203602376Y-98532078D01*
X203602376Y-98296114D01*
X203476633Y-98296114D01*
X203476633Y-98491842D01*
G36*
X202252774Y-98301380D02*
G01*
X202179920Y-98332330D01*
X202156973Y-98347395D01*
X202127646Y-98370548D01*
X202109236Y-98388753D01*
X202106039Y-98394683D01*
X202115065Y-98407840D01*
X202138163Y-98430167D01*
X202156656Y-98445750D01*
X202207272Y-98486426D01*
X202247240Y-98452795D01*
X202278126Y-98431084D01*
X202308241Y-98423590D01*
X202342708Y-98425420D01*
X202397439Y-98439028D01*
X202435114Y-98467272D01*
X202458009Y-98512933D01*
X202468403Y-98578789D01*
X202468405Y-98578831D01*
X202467506Y-98652439D01*
X202453537Y-98706446D01*
X202425672Y-98743216D01*
X202406675Y-98755668D01*
X202356224Y-98771173D01*
X202302337Y-98771183D01*
X202255454Y-98756138D01*
X202244356Y-98748787D01*
X202216524Y-98730011D01*
X202194764Y-98726934D01*
X202171296Y-98740909D01*
X202145351Y-98766010D01*
X202104284Y-98808380D01*
X202149879Y-98845964D01*
X202220326Y-98888382D01*
X202299767Y-98909285D01*
X202382785Y-98907772D01*
X202437306Y-98893911D01*
X202501030Y-98859635D01*
X202551995Y-98805712D01*
X202575149Y-98767649D01*
X202593901Y-98713036D01*
X202603285Y-98643869D01*
X202603357Y-98568907D01*
X202594176Y-98496909D01*
X202575801Y-98436637D01*
X202572907Y-98430458D01*
X202530048Y-98369851D01*
X202472021Y-98325724D01*
X202403409Y-98298993D01*
X202328799Y-98290573D01*
X202252774Y-98301380D01*
G37*
X202252774Y-98301380D02*
X202179920Y-98332330D01*
X202156973Y-98347395D01*
X202127646Y-98370548D01*
X202109236Y-98388753D01*
X202106039Y-98394683D01*
X202115065Y-98407840D01*
X202138163Y-98430167D01*
X202156656Y-98445750D01*
X202207272Y-98486426D01*
X202247240Y-98452795D01*
X202278126Y-98431084D01*
X202308241Y-98423590D01*
X202342708Y-98425420D01*
X202397439Y-98439028D01*
X202435114Y-98467272D01*
X202458009Y-98512933D01*
X202468403Y-98578789D01*
X202468405Y-98578831D01*
X202467506Y-98652439D01*
X202453537Y-98706446D01*
X202425672Y-98743216D01*
X202406675Y-98755668D01*
X202356224Y-98771173D01*
X202302337Y-98771183D01*
X202255454Y-98756138D01*
X202244356Y-98748787D01*
X202216524Y-98730011D01*
X202194764Y-98726934D01*
X202171296Y-98740909D01*
X202145351Y-98766010D01*
X202104284Y-98808380D01*
X202149879Y-98845964D01*
X202220326Y-98888382D01*
X202299767Y-98909285D01*
X202382785Y-98907772D01*
X202437306Y-98893911D01*
X202501030Y-98859635D01*
X202551995Y-98805712D01*
X202575149Y-98767649D01*
X202593901Y-98713036D01*
X202603285Y-98643869D01*
X202603357Y-98568907D01*
X202594176Y-98496909D01*
X202575801Y-98436637D01*
X202572907Y-98430458D01*
X202530048Y-98369851D01*
X202472021Y-98325724D01*
X202403409Y-98298993D01*
X202328799Y-98290573D01*
X202252774Y-98301380D01*
G36*
X201792102Y-98293957D02*
G01*
X201759904Y-98301779D01*
X201698175Y-98330421D01*
X201645390Y-98374167D01*
X201608859Y-98426617D01*
X201603840Y-98438393D01*
X201596955Y-98469240D01*
X201592136Y-98514871D01*
X201590495Y-98560992D01*
X201590495Y-98648193D01*
X201772822Y-98648193D01*
X201848021Y-98648478D01*
X201900997Y-98650204D01*
X201934675Y-98654681D01*
X201951980Y-98663220D01*
X201955837Y-98677130D01*
X201949171Y-98697722D01*
X201937230Y-98721815D01*
X201903920Y-98762025D01*
X201857632Y-98782058D01*
X201801056Y-98781405D01*
X201736969Y-98759601D01*
X201681583Y-98732693D01*
X201635625Y-98769032D01*
X201589667Y-98805372D01*
X201632904Y-98845319D01*
X201690626Y-98883063D01*
X201761614Y-98905820D01*
X201837971Y-98912188D01*
X201911801Y-98900768D01*
X201923713Y-98896893D01*
X201988601Y-98863006D01*
X202036870Y-98812486D01*
X202069535Y-98743825D01*
X202087615Y-98655514D01*
X202087825Y-98653621D01*
X202089444Y-98557378D01*
X202082900Y-98523042D01*
X201955148Y-98523042D01*
X201943416Y-98528322D01*
X201911562Y-98532367D01*
X201864603Y-98534676D01*
X201834846Y-98535025D01*
X201779352Y-98534806D01*
X201744654Y-98533416D01*
X201726399Y-98529751D01*
X201720234Y-98522710D01*
X201721805Y-98511190D01*
X201723122Y-98506733D01*
X201745618Y-98464855D01*
X201780997Y-98431104D01*
X201812220Y-98416273D01*
X201853699Y-98417168D01*
X201895731Y-98435664D01*
X201930988Y-98466286D01*
X201952146Y-98503562D01*
X201955148Y-98523042D01*
X202082900Y-98523042D01*
X202073310Y-98472729D01*
X202041302Y-98401691D01*
X201995299Y-98346279D01*
X201937179Y-98308509D01*
X201868820Y-98290396D01*
X201792102Y-98293957D01*
G37*
X201792102Y-98293957D02*
X201759904Y-98301779D01*
X201698175Y-98330421D01*
X201645390Y-98374167D01*
X201608859Y-98426617D01*
X201603840Y-98438393D01*
X201596955Y-98469240D01*
X201592136Y-98514871D01*
X201590495Y-98560992D01*
X201590495Y-98648193D01*
X201772822Y-98648193D01*
X201848021Y-98648478D01*
X201900997Y-98650204D01*
X201934675Y-98654681D01*
X201951980Y-98663220D01*
X201955837Y-98677130D01*
X201949171Y-98697722D01*
X201937230Y-98721815D01*
X201903920Y-98762025D01*
X201857632Y-98782058D01*
X201801056Y-98781405D01*
X201736969Y-98759601D01*
X201681583Y-98732693D01*
X201635625Y-98769032D01*
X201589667Y-98805372D01*
X201632904Y-98845319D01*
X201690626Y-98883063D01*
X201761614Y-98905820D01*
X201837971Y-98912188D01*
X201911801Y-98900768D01*
X201923713Y-98896893D01*
X201988601Y-98863006D01*
X202036870Y-98812486D01*
X202069535Y-98743825D01*
X202087615Y-98655514D01*
X202087825Y-98653621D01*
X202089444Y-98557378D01*
X202082900Y-98523042D01*
X201955148Y-98523042D01*
X201943416Y-98528322D01*
X201911562Y-98532367D01*
X201864603Y-98534676D01*
X201834846Y-98535025D01*
X201779352Y-98534806D01*
X201744654Y-98533416D01*
X201726399Y-98529751D01*
X201720234Y-98522710D01*
X201721805Y-98511190D01*
X201723122Y-98506733D01*
X201745618Y-98464855D01*
X201780997Y-98431104D01*
X201812220Y-98416273D01*
X201853699Y-98417168D01*
X201895731Y-98435664D01*
X201930988Y-98466286D01*
X201952146Y-98503562D01*
X201955148Y-98523042D01*
X202082900Y-98523042D01*
X202073310Y-98472729D01*
X202041302Y-98401691D01*
X201995299Y-98346279D01*
X201937179Y-98308509D01*
X201868820Y-98290396D01*
X201792102Y-98293957D01*
G36*
X205224012Y-98306502D02*
G01*
X205192717Y-98321450D01*
X205162409Y-98343041D01*
X205139318Y-98367891D01*
X205122500Y-98399587D01*
X205111006Y-98441714D01*
X205103891Y-98497858D01*
X205100207Y-98571606D01*
X205099008Y-98666544D01*
X205098989Y-98676485D01*
X205098713Y-98899679D01*
X205237030Y-98899679D01*
X205237030Y-98693918D01*
X205237128Y-98617689D01*
X205237809Y-98562439D01*
X205239651Y-98524001D01*
X205243233Y-98498206D01*
X205249132Y-98480884D01*
X205257927Y-98467868D01*
X205270180Y-98455007D01*
X205313047Y-98427373D01*
X205359843Y-98422245D01*
X205404424Y-98439717D01*
X205419928Y-98452721D01*
X205431310Y-98464947D01*
X205439481Y-98478040D01*
X205444974Y-98496115D01*
X205448320Y-98523287D01*
X205450051Y-98563670D01*
X205450697Y-98621379D01*
X205450792Y-98691632D01*
X205450792Y-98899679D01*
X205589109Y-98899679D01*
X205589109Y-98296114D01*
X205519950Y-98296114D01*
X205478428Y-98297756D01*
X205457006Y-98303587D01*
X205450795Y-98314961D01*
X205450792Y-98315298D01*
X205447910Y-98326438D01*
X205435199Y-98325174D01*
X205409926Y-98312934D01*
X205352605Y-98294924D01*
X205287037Y-98292921D01*
X205224012Y-98306502D01*
G37*
X205224012Y-98306502D02*
X205192717Y-98321450D01*
X205162409Y-98343041D01*
X205139318Y-98367891D01*
X205122500Y-98399587D01*
X205111006Y-98441714D01*
X205103891Y-98497858D01*
X205100207Y-98571606D01*
X205099008Y-98666544D01*
X205098989Y-98676485D01*
X205098713Y-98899679D01*
X205237030Y-98899679D01*
X205237030Y-98693918D01*
X205237128Y-98617689D01*
X205237809Y-98562439D01*
X205239651Y-98524001D01*
X205243233Y-98498206D01*
X205249132Y-98480884D01*
X205257927Y-98467868D01*
X205270180Y-98455007D01*
X205313047Y-98427373D01*
X205359843Y-98422245D01*
X205404424Y-98439717D01*
X205419928Y-98452721D01*
X205431310Y-98464947D01*
X205439481Y-98478040D01*
X205444974Y-98496115D01*
X205448320Y-98523287D01*
X205450051Y-98563670D01*
X205450697Y-98621379D01*
X205450792Y-98691632D01*
X205450792Y-98899679D01*
X205589109Y-98899679D01*
X205589109Y-98296114D01*
X205519950Y-98296114D01*
X205478428Y-98297756D01*
X205457006Y-98303587D01*
X205450795Y-98314961D01*
X205450792Y-98315298D01*
X205447910Y-98326438D01*
X205435199Y-98325174D01*
X205409926Y-98312934D01*
X205352605Y-98294924D01*
X205287037Y-98292921D01*
X205224012Y-98306502D01*
G36*
X202670540Y-98295530D02*
G01*
X202627289Y-98308745D01*
X202599442Y-98325441D01*
X202590371Y-98338645D01*
X202592868Y-98354297D01*
X202609069Y-98378885D01*
X202622768Y-98396300D01*
X202651008Y-98427783D01*
X202672225Y-98441029D01*
X202690312Y-98440164D01*
X202743965Y-98426510D01*
X202783370Y-98427130D01*
X202815368Y-98442604D01*
X202826110Y-98451661D01*
X202860495Y-98483527D01*
X202860495Y-98899679D01*
X202998812Y-98899679D01*
X202998812Y-98296114D01*
X202929653Y-98296114D01*
X202888131Y-98297756D01*
X202866709Y-98303587D01*
X202860498Y-98314961D01*
X202860495Y-98315298D01*
X202857561Y-98327213D01*
X202844296Y-98325659D01*
X202825916Y-98317063D01*
X202787954Y-98301068D01*
X202757128Y-98291445D01*
X202717464Y-98288978D01*
X202670540Y-98295530D01*
G37*
X202670540Y-98295530D02*
X202627289Y-98308745D01*
X202599442Y-98325441D01*
X202590371Y-98338645D01*
X202592868Y-98354297D01*
X202609069Y-98378885D01*
X202622768Y-98396300D01*
X202651008Y-98427783D01*
X202672225Y-98441029D01*
X202690312Y-98440164D01*
X202743965Y-98426510D01*
X202783370Y-98427130D01*
X202815368Y-98442604D01*
X202826110Y-98451661D01*
X202860495Y-98483527D01*
X202860495Y-98899679D01*
X202998812Y-98899679D01*
X202998812Y-98296114D01*
X202929653Y-98296114D01*
X202888131Y-98297756D01*
X202866709Y-98303587D01*
X202860498Y-98314961D01*
X202860495Y-98315298D01*
X202857561Y-98327213D01*
X202844296Y-98325659D01*
X202825916Y-98317063D01*
X202787954Y-98301068D01*
X202757128Y-98291445D01*
X202717464Y-98288978D01*
X202670540Y-98295530D01*
G36*
X204093036Y-94127518D02*
G01*
X204036188Y-94429070D01*
X203616662Y-94602012D01*
X203365016Y-94430895D01*
X203294542Y-94383250D01*
X203230837Y-94340710D01*
X203176874Y-94305215D01*
X203135627Y-94278710D01*
X203110066Y-94263136D01*
X203103105Y-94259778D01*
X203090565Y-94268414D01*
X203063769Y-94292292D01*
X203025720Y-94328359D01*
X202979421Y-94373567D01*
X202927877Y-94424864D01*
X202874091Y-94479201D01*
X202821065Y-94533528D01*
X202771805Y-94584795D01*
X202729313Y-94629951D01*
X202696593Y-94665946D01*
X202676649Y-94689730D01*
X202671881Y-94697690D01*
X202678743Y-94712365D01*
X202697980Y-94744514D01*
X202727570Y-94790992D01*
X202765490Y-94848656D01*
X202809718Y-94914360D01*
X202835346Y-94951836D01*
X202882059Y-95020268D01*
X202923568Y-95082020D01*
X202957860Y-95134019D01*
X202982920Y-95173192D01*
X202996736Y-95196465D01*
X202998812Y-95201355D01*
X202994105Y-95215255D01*
X202981277Y-95247650D01*
X202962262Y-95293985D01*
X202938997Y-95349706D01*
X202913416Y-95410258D01*
X202887455Y-95471086D01*
X202863050Y-95527636D01*
X202842137Y-95575352D01*
X202826651Y-95609681D01*
X202818528Y-95626068D01*
X202818048Y-95626712D01*
X202805293Y-95629841D01*
X202771323Y-95636821D01*
X202719660Y-95646967D01*
X202653824Y-95659592D01*
X202577336Y-95674009D01*
X202532710Y-95682323D01*
X202450979Y-95697884D01*
X202377157Y-95712692D01*
X202314979Y-95725936D01*
X202268178Y-95736805D01*
X202240491Y-95744489D01*
X202234926Y-95746927D01*
X202229474Y-95763430D01*
X202225076Y-95800700D01*
X202221728Y-95854380D01*
X202219426Y-95920112D01*
X202218168Y-95993537D01*
X202217952Y-96070296D01*
X202218773Y-96146032D01*
X202220629Y-96216386D01*
X202223518Y-96277000D01*
X202227435Y-96323516D01*
X202232378Y-96351575D01*
X202235343Y-96357416D01*
X202253066Y-96364417D01*
X202290619Y-96374427D01*
X202343036Y-96386269D01*
X202405348Y-96398767D01*
X202427100Y-96402810D01*
X202531976Y-96422020D01*
X202614820Y-96437491D01*
X202678370Y-96449837D01*
X202725363Y-96459673D01*
X202758537Y-96467614D01*
X202780629Y-96474276D01*
X202794376Y-96480273D01*
X202802516Y-96486219D01*
X202803655Y-96487394D01*
X202815023Y-96506326D01*
X202832365Y-96543169D01*
X202853950Y-96593413D01*
X202878046Y-96652546D01*
X202902921Y-96716056D01*
X202926843Y-96779432D01*
X202948081Y-96838162D01*
X202964903Y-96887735D01*
X202975578Y-96923639D01*
X202978373Y-96941362D01*
X202978140Y-96941983D01*
X202968669Y-96956470D01*
X202947182Y-96988344D01*
X202915937Y-97034289D01*
X202877193Y-97090985D01*
X202833207Y-97155117D01*
X202820681Y-97173342D01*
X202776016Y-97239414D01*
X202736712Y-97299700D01*
X202704912Y-97350735D01*
X202682755Y-97389060D01*
X202672383Y-97411211D01*
X202671881Y-97413932D01*
X202680595Y-97428236D01*
X202704675Y-97456572D01*
X202741024Y-97495896D01*
X202786547Y-97543161D01*
X202838148Y-97595323D01*
X202892733Y-97649335D01*
X202947206Y-97702153D01*
X202998471Y-97750731D01*
X203043433Y-97792023D01*
X203078996Y-97822985D01*
X203102065Y-97840570D01*
X203108446Y-97843441D01*
X203123301Y-97836678D01*
X203153714Y-97818439D01*
X203194732Y-97791797D01*
X203226291Y-97770352D01*
X203283475Y-97731003D01*
X203351194Y-97684671D01*
X203419120Y-97638413D01*
X203455639Y-97613655D01*
X203579248Y-97530047D01*
X203683009Y-97586150D01*
X203730280Y-97610728D01*
X203770477Y-97629831D01*
X203797674Y-97640727D01*
X203804598Y-97642243D01*
X203812923Y-97631049D01*
X203829346Y-97599417D01*
X203852643Y-97550265D01*
X203881586Y-97486510D01*
X203914950Y-97411071D01*
X203951509Y-97326864D01*
X203990036Y-97236808D01*
X204029306Y-97143821D01*
X204068092Y-97050820D01*
X204105170Y-96960723D01*
X204139311Y-96876448D01*
X204169292Y-96800913D01*
X204193884Y-96737034D01*
X204211864Y-96687731D01*
X204222003Y-96655921D01*
X204223634Y-96644996D01*
X204210709Y-96631061D01*
X204182411Y-96608440D01*
X204144654Y-96581833D01*
X204141485Y-96579728D01*
X204043900Y-96501614D01*
X203965214Y-96410482D01*
X203906109Y-96309245D01*
X203867268Y-96200818D01*
X203849372Y-96088114D01*
X203853103Y-95974048D01*
X203879143Y-95861534D01*
X203928175Y-95753485D01*
X203942600Y-95729845D01*
X204017631Y-95634387D01*
X204106270Y-95557732D01*
X204205451Y-95500280D01*
X204312105Y-95462429D01*
X204423164Y-95444578D01*
X204535561Y-95447125D01*
X204646227Y-95470470D01*
X204752094Y-95515010D01*
X204850095Y-95581145D01*
X204880410Y-95607987D01*
X204957562Y-95692012D01*
X205013782Y-95780466D01*
X205052347Y-95879615D01*
X205073826Y-95977803D01*
X205079128Y-96088197D01*
X205061448Y-96199140D01*
X205022581Y-96306881D01*
X204964323Y-96407669D01*
X204888469Y-96497756D01*
X204796817Y-96573392D01*
X204784772Y-96581364D01*
X204746611Y-96607474D01*
X204717601Y-96630095D01*
X204703732Y-96644539D01*
X204703531Y-96644996D01*
X204706508Y-96660621D01*
X204718311Y-96696082D01*
X204737714Y-96748462D01*
X204763488Y-96814845D01*
X204794409Y-96892314D01*
X204829249Y-96977950D01*
X204866783Y-97068837D01*
X204905783Y-97162059D01*
X204945023Y-97254697D01*
X204983276Y-97343835D01*
X205019317Y-97426555D01*
X205051917Y-97499941D01*
X205079852Y-97561075D01*
X205101895Y-97607041D01*
X205116818Y-97634921D01*
X205122828Y-97642243D01*
X205141191Y-97636541D01*
X205175552Y-97621249D01*
X205219984Y-97599099D01*
X205244417Y-97586150D01*
X205348178Y-97530047D01*
X205471787Y-97613655D01*
X205534886Y-97656487D01*
X205603970Y-97703622D01*
X205668707Y-97748003D01*
X205701134Y-97770352D01*
X205746741Y-97800977D01*
X205785360Y-97825247D01*
X205811952Y-97840087D01*
X205820590Y-97843224D01*
X205833161Y-97834761D01*
X205860984Y-97811136D01*
X205901361Y-97774802D01*
X205951595Y-97728211D01*
X206008988Y-97673817D01*
X206045286Y-97638892D01*
X206108790Y-97576496D01*
X206163673Y-97520688D01*
X206207714Y-97473854D01*
X206238695Y-97438382D01*
X206254398Y-97416661D01*
X206255905Y-97412252D01*
X206248914Y-97395485D01*
X206229594Y-97361582D01*
X206200091Y-97313976D01*
X206162545Y-97256099D01*
X206119100Y-97191384D01*
X206106745Y-97173342D01*
X206061727Y-97107767D01*
X206021340Y-97048728D01*
X205987840Y-96999542D01*
X205963486Y-96963528D01*
X205950536Y-96944002D01*
X205949285Y-96941983D01*
X205951156Y-96926422D01*
X205961087Y-96892209D01*
X205977347Y-96843855D01*
X205998205Y-96785871D01*
X206021927Y-96722770D01*
X206046784Y-96659063D01*
X206071042Y-96599261D01*
X206092971Y-96547876D01*
X206110838Y-96509419D01*
X206122913Y-96488402D01*
X206123771Y-96487394D01*
X206131154Y-96481388D01*
X206143625Y-96475448D01*
X206163920Y-96468960D01*
X206194778Y-96461309D01*
X206238934Y-96451880D01*
X206299126Y-96440059D01*
X206378093Y-96425229D01*
X206478570Y-96406777D01*
X206500325Y-96402810D01*
X206564802Y-96390353D01*
X206621011Y-96378166D01*
X206663987Y-96367426D01*
X206688760Y-96359309D01*
X206692082Y-96357416D01*
X206697556Y-96340638D01*
X206702006Y-96303145D01*
X206705428Y-96249294D01*
X206707819Y-96183444D01*
X206709177Y-96109953D01*
X206709499Y-96033180D01*
X206708781Y-95957483D01*
X206707021Y-95887220D01*
X206704216Y-95826750D01*
X206700362Y-95780430D01*
X206695457Y-95752619D01*
X206692500Y-95746927D01*
X206676037Y-95741186D01*
X206638551Y-95731845D01*
X206583775Y-95719715D01*
X206515445Y-95705607D01*
X206437294Y-95690330D01*
X206394716Y-95682323D01*
X206313929Y-95667221D01*
X206241887Y-95653540D01*
X206182111Y-95641967D01*
X206138121Y-95633187D01*
X206113439Y-95627887D01*
X206109377Y-95626712D01*
X206102511Y-95613465D01*
X206087998Y-95581557D01*
X206067771Y-95535547D01*
X206043766Y-95479992D01*
X206017918Y-95419453D01*
X205992160Y-95358486D01*
X205968427Y-95301651D01*
X205948654Y-95253506D01*
X205934776Y-95218610D01*
X205928726Y-95201521D01*
X205928614Y-95200774D01*
X205935472Y-95187293D01*
X205954698Y-95156270D01*
X205984272Y-95110789D01*
X206022173Y-95053932D01*
X206066380Y-94988783D01*
X206092079Y-94951362D01*
X206138907Y-94882747D01*
X206180499Y-94820452D01*
X206214825Y-94767629D01*
X206239857Y-94727427D01*
X206253565Y-94703000D01*
X206255544Y-94697524D01*
X206247034Y-94684778D01*
X206223507Y-94657563D01*
X206187968Y-94618928D01*
X206143423Y-94571923D01*
X206092877Y-94519595D01*
X206039336Y-94464995D01*
X205985805Y-94411170D01*
X205935289Y-94361170D01*
X205890794Y-94318043D01*
X205855325Y-94284839D01*
X205831887Y-94264606D01*
X205824046Y-94259778D01*
X205811280Y-94266567D01*
X205780744Y-94285642D01*
X205735410Y-94315061D01*
X205678244Y-94352881D01*
X205612216Y-94397161D01*
X205562410Y-94430895D01*
X205310764Y-94602012D01*
X205101001Y-94515541D01*
X204891237Y-94429070D01*
X204834389Y-94127518D01*
X204777540Y-93825966D01*
X204149885Y-93825966D01*
X204093036Y-94127518D01*
G37*
X204093036Y-94127518D02*
X204036188Y-94429070D01*
X203616662Y-94602012D01*
X203365016Y-94430895D01*
X203294542Y-94383250D01*
X203230837Y-94340710D01*
X203176874Y-94305215D01*
X203135627Y-94278710D01*
X203110066Y-94263136D01*
X203103105Y-94259778D01*
X203090565Y-94268414D01*
X203063769Y-94292292D01*
X203025720Y-94328359D01*
X202979421Y-94373567D01*
X202927877Y-94424864D01*
X202874091Y-94479201D01*
X202821065Y-94533528D01*
X202771805Y-94584795D01*
X202729313Y-94629951D01*
X202696593Y-94665946D01*
X202676649Y-94689730D01*
X202671881Y-94697690D01*
X202678743Y-94712365D01*
X202697980Y-94744514D01*
X202727570Y-94790992D01*
X202765490Y-94848656D01*
X202809718Y-94914360D01*
X202835346Y-94951836D01*
X202882059Y-95020268D01*
X202923568Y-95082020D01*
X202957860Y-95134019D01*
X202982920Y-95173192D01*
X202996736Y-95196465D01*
X202998812Y-95201355D01*
X202994105Y-95215255D01*
X202981277Y-95247650D01*
X202962262Y-95293985D01*
X202938997Y-95349706D01*
X202913416Y-95410258D01*
X202887455Y-95471086D01*
X202863050Y-95527636D01*
X202842137Y-95575352D01*
X202826651Y-95609681D01*
X202818528Y-95626068D01*
X202818048Y-95626712D01*
X202805293Y-95629841D01*
X202771323Y-95636821D01*
X202719660Y-95646967D01*
X202653824Y-95659592D01*
X202577336Y-95674009D01*
X202532710Y-95682323D01*
X202450979Y-95697884D01*
X202377157Y-95712692D01*
X202314979Y-95725936D01*
X202268178Y-95736805D01*
X202240491Y-95744489D01*
X202234926Y-95746927D01*
X202229474Y-95763430D01*
X202225076Y-95800700D01*
X202221728Y-95854380D01*
X202219426Y-95920112D01*
X202218168Y-95993537D01*
X202217952Y-96070296D01*
X202218773Y-96146032D01*
X202220629Y-96216386D01*
X202223518Y-96277000D01*
X202227435Y-96323516D01*
X202232378Y-96351575D01*
X202235343Y-96357416D01*
X202253066Y-96364417D01*
X202290619Y-96374427D01*
X202343036Y-96386269D01*
X202405348Y-96398767D01*
X202427100Y-96402810D01*
X202531976Y-96422020D01*
X202614820Y-96437491D01*
X202678370Y-96449837D01*
X202725363Y-96459673D01*
X202758537Y-96467614D01*
X202780629Y-96474276D01*
X202794376Y-96480273D01*
X202802516Y-96486219D01*
X202803655Y-96487394D01*
X202815023Y-96506326D01*
X202832365Y-96543169D01*
X202853950Y-96593413D01*
X202878046Y-96652546D01*
X202902921Y-96716056D01*
X202926843Y-96779432D01*
X202948081Y-96838162D01*
X202964903Y-96887735D01*
X202975578Y-96923639D01*
X202978373Y-96941362D01*
X202978140Y-96941983D01*
X202968669Y-96956470D01*
X202947182Y-96988344D01*
X202915937Y-97034289D01*
X202877193Y-97090985D01*
X202833207Y-97155117D01*
X202820681Y-97173342D01*
X202776016Y-97239414D01*
X202736712Y-97299700D01*
X202704912Y-97350735D01*
X202682755Y-97389060D01*
X202672383Y-97411211D01*
X202671881Y-97413932D01*
X202680595Y-97428236D01*
X202704675Y-97456572D01*
X202741024Y-97495896D01*
X202786547Y-97543161D01*
X202838148Y-97595323D01*
X202892733Y-97649335D01*
X202947206Y-97702153D01*
X202998471Y-97750731D01*
X203043433Y-97792023D01*
X203078996Y-97822985D01*
X203102065Y-97840570D01*
X203108446Y-97843441D01*
X203123301Y-97836678D01*
X203153714Y-97818439D01*
X203194732Y-97791797D01*
X203226291Y-97770352D01*
X203283475Y-97731003D01*
X203351194Y-97684671D01*
X203419120Y-97638413D01*
X203455639Y-97613655D01*
X203579248Y-97530047D01*
X203683009Y-97586150D01*
X203730280Y-97610728D01*
X203770477Y-97629831D01*
X203797674Y-97640727D01*
X203804598Y-97642243D01*
X203812923Y-97631049D01*
X203829346Y-97599417D01*
X203852643Y-97550265D01*
X203881586Y-97486510D01*
X203914950Y-97411071D01*
X203951509Y-97326864D01*
X203990036Y-97236808D01*
X204029306Y-97143821D01*
X204068092Y-97050820D01*
X204105170Y-96960723D01*
X204139311Y-96876448D01*
X204169292Y-96800913D01*
X204193884Y-96737034D01*
X204211864Y-96687731D01*
X204222003Y-96655921D01*
X204223634Y-96644996D01*
X204210709Y-96631061D01*
X204182411Y-96608440D01*
X204144654Y-96581833D01*
X204141485Y-96579728D01*
X204043900Y-96501614D01*
X203965214Y-96410482D01*
X203906109Y-96309245D01*
X203867268Y-96200818D01*
X203849372Y-96088114D01*
X203853103Y-95974048D01*
X203879143Y-95861534D01*
X203928175Y-95753485D01*
X203942600Y-95729845D01*
X204017631Y-95634387D01*
X204106270Y-95557732D01*
X204205451Y-95500280D01*
X204312105Y-95462429D01*
X204423164Y-95444578D01*
X204535561Y-95447125D01*
X204646227Y-95470470D01*
X204752094Y-95515010D01*
X204850095Y-95581145D01*
X204880410Y-95607987D01*
X204957562Y-95692012D01*
X205013782Y-95780466D01*
X205052347Y-95879615D01*
X205073826Y-95977803D01*
X205079128Y-96088197D01*
X205061448Y-96199140D01*
X205022581Y-96306881D01*
X204964323Y-96407669D01*
X204888469Y-96497756D01*
X204796817Y-96573392D01*
X204784772Y-96581364D01*
X204746611Y-96607474D01*
X204717601Y-96630095D01*
X204703732Y-96644539D01*
X204703531Y-96644996D01*
X204706508Y-96660621D01*
X204718311Y-96696082D01*
X204737714Y-96748462D01*
X204763488Y-96814845D01*
X204794409Y-96892314D01*
X204829249Y-96977950D01*
X204866783Y-97068837D01*
X204905783Y-97162059D01*
X204945023Y-97254697D01*
X204983276Y-97343835D01*
X205019317Y-97426555D01*
X205051917Y-97499941D01*
X205079852Y-97561075D01*
X205101895Y-97607041D01*
X205116818Y-97634921D01*
X205122828Y-97642243D01*
X205141191Y-97636541D01*
X205175552Y-97621249D01*
X205219984Y-97599099D01*
X205244417Y-97586150D01*
X205348178Y-97530047D01*
X205471787Y-97613655D01*
X205534886Y-97656487D01*
X205603970Y-97703622D01*
X205668707Y-97748003D01*
X205701134Y-97770352D01*
X205746741Y-97800977D01*
X205785360Y-97825247D01*
X205811952Y-97840087D01*
X205820590Y-97843224D01*
X205833161Y-97834761D01*
X205860984Y-97811136D01*
X205901361Y-97774802D01*
X205951595Y-97728211D01*
X206008988Y-97673817D01*
X206045286Y-97638892D01*
X206108790Y-97576496D01*
X206163673Y-97520688D01*
X206207714Y-97473854D01*
X206238695Y-97438382D01*
X206254398Y-97416661D01*
X206255905Y-97412252D01*
X206248914Y-97395485D01*
X206229594Y-97361582D01*
X206200091Y-97313976D01*
X206162545Y-97256099D01*
X206119100Y-97191384D01*
X206106745Y-97173342D01*
X206061727Y-97107767D01*
X206021340Y-97048728D01*
X205987840Y-96999542D01*
X205963486Y-96963528D01*
X205950536Y-96944002D01*
X205949285Y-96941983D01*
X205951156Y-96926422D01*
X205961087Y-96892209D01*
X205977347Y-96843855D01*
X205998205Y-96785871D01*
X206021927Y-96722770D01*
X206046784Y-96659063D01*
X206071042Y-96599261D01*
X206092971Y-96547876D01*
X206110838Y-96509419D01*
X206122913Y-96488402D01*
X206123771Y-96487394D01*
X206131154Y-96481388D01*
X206143625Y-96475448D01*
X206163920Y-96468960D01*
X206194778Y-96461309D01*
X206238934Y-96451880D01*
X206299126Y-96440059D01*
X206378093Y-96425229D01*
X206478570Y-96406777D01*
X206500325Y-96402810D01*
X206564802Y-96390353D01*
X206621011Y-96378166D01*
X206663987Y-96367426D01*
X206688760Y-96359309D01*
X206692082Y-96357416D01*
X206697556Y-96340638D01*
X206702006Y-96303145D01*
X206705428Y-96249294D01*
X206707819Y-96183444D01*
X206709177Y-96109953D01*
X206709499Y-96033180D01*
X206708781Y-95957483D01*
X206707021Y-95887220D01*
X206704216Y-95826750D01*
X206700362Y-95780430D01*
X206695457Y-95752619D01*
X206692500Y-95746927D01*
X206676037Y-95741186D01*
X206638551Y-95731845D01*
X206583775Y-95719715D01*
X206515445Y-95705607D01*
X206437294Y-95690330D01*
X206394716Y-95682323D01*
X206313929Y-95667221D01*
X206241887Y-95653540D01*
X206182111Y-95641967D01*
X206138121Y-95633187D01*
X206113439Y-95627887D01*
X206109377Y-95626712D01*
X206102511Y-95613465D01*
X206087998Y-95581557D01*
X206067771Y-95535547D01*
X206043766Y-95479992D01*
X206017918Y-95419453D01*
X205992160Y-95358486D01*
X205968427Y-95301651D01*
X205948654Y-95253506D01*
X205934776Y-95218610D01*
X205928726Y-95201521D01*
X205928614Y-95200774D01*
X205935472Y-95187293D01*
X205954698Y-95156270D01*
X205984272Y-95110789D01*
X206022173Y-95053932D01*
X206066380Y-94988783D01*
X206092079Y-94951362D01*
X206138907Y-94882747D01*
X206180499Y-94820452D01*
X206214825Y-94767629D01*
X206239857Y-94727427D01*
X206253565Y-94703000D01*
X206255544Y-94697524D01*
X206247034Y-94684778D01*
X206223507Y-94657563D01*
X206187968Y-94618928D01*
X206143423Y-94571923D01*
X206092877Y-94519595D01*
X206039336Y-94464995D01*
X205985805Y-94411170D01*
X205935289Y-94361170D01*
X205890794Y-94318043D01*
X205855325Y-94284839D01*
X205831887Y-94264606D01*
X205824046Y-94259778D01*
X205811280Y-94266567D01*
X205780744Y-94285642D01*
X205735410Y-94315061D01*
X205678244Y-94352881D01*
X205612216Y-94397161D01*
X205562410Y-94430895D01*
X205310764Y-94602012D01*
X205101001Y-94515541D01*
X204891237Y-94429070D01*
X204834389Y-94127518D01*
X204777540Y-93825966D01*
X204149885Y-93825966D01*
X204093036Y-94127518D01*
M02*
