M48
; DRILL file {KiCad (5.1.8)-1} date 01/25/21 16:16:47
; FORMAT={-:-/ absolute / inch / decimal}
; #@! TF.CreationDate,2021-01-25T16:16:47-08:00
; #@! TF.GenerationSoftware,Kicad,Pcbnew,(5.1.8)-1
FMAT,2
INCH
T1C0.0118
T2C0.0276
T3C0.0315
T4C0.0320
T5C0.0400
T6C0.1260
%
G90
G05
T1
X5.05Y-4.0375
X5.25Y-4.0625
X5.2875Y-3.775
X5.35Y-4.0375
X5.45Y-4.0375
X5.55Y-4.0375
X5.5625Y-4.625
X5.6125Y-4.575
X5.65Y-4.0375
X5.6625Y-4.525
X5.8757Y-4.6368
X5.9Y-4.8
X5.925Y-4.5875
X6.0625Y-3.2
X6.2325Y-4.2375
X6.2625Y-4.2625
X6.3Y-3.15
X6.3008Y-3.4492
X6.3375Y-4.2875
X6.3625Y-3.75
X6.37Y-4.3125
X6.375Y-4.75
X6.63Y-4.2125
X6.6625Y-4.1875
X6.67Y-4.66
X6.675Y-3.6125
X6.675Y-3.65
X6.74Y-4.6364
X6.75Y-3.4375
X6.75Y-3.475
X6.75Y-3.5125
X6.785Y-4.5891
X6.8Y-3.6875
X6.85Y-3.4375
X6.85Y-3.475
X6.8825Y-4.515
X6.9025Y-3.35
X6.9025Y-4.5375
X6.96Y-4.5525
X6.9675Y-4.05
X7.05Y-3.7875
X7.05Y-3.95
X7.05Y-4.77
X7.1994Y-4.1729
X7.2Y-3.4
X7.2275Y-4.4986
X7.25Y-4.925
X7.25Y-4.975
X7.26Y-4.48
X7.3Y-3.5
X7.3175Y-4.5375
X7.4Y-3.83
X7.5Y-3.93
X7.5475Y-3.7625
X7.6Y-4.4289
X7.6313Y-4.4437
X7.7Y-4.3125
X7.73Y-4.1383
X7.75Y-3.6625
X7.75Y-4.325
X7.8Y-4.2875
X7.85Y-3.55
X7.85Y-4.3
X7.9Y-4.275
X7.95Y-3.6625
X7.95Y-4.325
X7.95Y-4.5
X8.0Y-4.25
X8.05Y-4.46
X8.1Y-4.225
X8.15Y-4.425
X8.2Y-4.2
X8.25Y-4.375
X8.75Y-4.175
T2
X7.65Y-3.15
X7.65Y-3.25
X7.85Y-3.15
X7.85Y-3.25
X5.675Y-3.35
X5.675Y-3.45
X5.25Y-3.9
X5.25Y-4.0
X7.75Y-3.15
X7.75Y-3.25
X5.775Y-3.35
X5.775Y-3.45
X7.95Y-3.15
X7.95Y-3.25
T3
X5.575Y-3.25
X5.675Y-3.15
X5.775Y-3.25
X6.2Y-4.8125
X6.2Y-4.8912
T4
X5.95Y-3.975
X6.15Y-3.975
X5.8Y-4.8
X6.0Y-4.8
X5.0Y-4.1
X5.0Y-4.7
X5.1Y-4.1
X5.1Y-4.7
X5.2Y-4.1
X5.2Y-4.7
X5.3Y-4.1
X5.3Y-4.7
X5.4Y-4.1
X5.4Y-4.7
X5.5Y-4.1
X5.5Y-4.7
X5.6Y-4.1
X5.6Y-4.7
X5.7Y-4.1
X5.7Y-4.7
X5.8Y-4.1
X5.8Y-4.7
X5.9Y-4.1
X5.9Y-4.7
X6.0Y-4.1
X6.0Y-4.7
X6.1Y-4.1
X6.1Y-4.7
X6.2Y-4.1
X6.2Y-4.7
X6.3Y-4.1
X6.3Y-4.7
X6.4Y-4.1
X6.4Y-4.7
X6.5Y-4.1
X6.5Y-4.7
X6.6Y-4.1
X6.6Y-4.7
X6.7Y-4.1
X6.7Y-4.7
X6.8Y-4.1
X6.8Y-4.7
X6.9Y-4.1
X6.9Y-4.7
X7.3Y-3.2
X7.5Y-3.2
X5.0Y-3.95
X5.1Y-3.95
X6.4Y-3.3
X6.4Y-3.4
X6.4Y-3.5
X6.4Y-3.6
X6.4Y-3.7
X6.4Y-3.8
X6.5Y-3.2
X6.5Y-3.3
X6.5Y-3.4
X6.5Y-3.5
X6.5Y-3.6
X6.5Y-3.7
X6.5Y-3.8
X6.5Y-3.9
X6.6Y-3.2
X6.6Y-3.3
X6.6Y-3.8
X6.6Y-3.9
X6.7Y-3.2
X6.7Y-3.3
X6.7Y-3.8
X6.7Y-3.9
X6.8Y-3.2
X6.8Y-3.3
X6.8Y-3.8
X6.8Y-3.9
X6.9Y-3.2
X6.9Y-3.3
X6.9Y-3.8
X6.9Y-3.9
X7.0Y-3.2
X7.0Y-3.3
X7.0Y-3.4
X7.0Y-3.5
X7.0Y-3.6
X7.0Y-3.7
X7.0Y-3.8
X7.0Y-3.9
X7.1Y-3.3
X7.1Y-3.4
X7.1Y-3.5
X7.1Y-3.6
X7.1Y-3.7
X7.1Y-3.8
X5.375Y-3.45
X5.575Y-3.45
X6.4Y-4.8
X6.5Y-4.8
X6.6Y-4.8
X6.7Y-4.8
X6.8Y-4.8
X6.9Y-4.8
X7.3Y-4.1
X7.3Y-4.7
X7.4Y-4.1
X7.4Y-4.7
X7.5Y-4.1
X7.5Y-4.7
X7.6Y-4.1
X7.6Y-4.7
X7.7Y-4.1
X7.7Y-4.7
X7.8Y-4.1
X7.8Y-4.7
X7.9Y-4.1
X7.9Y-4.7
X8.0Y-4.1
X8.0Y-4.7
X8.1Y-4.1
X8.1Y-4.7
X8.2Y-4.1
X8.2Y-4.7
X8.3Y-4.1
X8.3Y-4.7
X8.4Y-4.1
X8.4Y-4.7
X8.5Y-4.1
X8.5Y-4.7
X8.6Y-4.1
X8.6Y-4.7
X8.7Y-4.1
X8.7Y-4.7
X8.8Y-4.1
X8.8Y-4.7
X7.3Y-3.4
X7.3Y-4.0
X7.4Y-3.4
X7.4Y-4.0
X7.5Y-3.4
X7.5Y-4.0
X7.6Y-3.4
X7.6Y-4.0
X7.7Y-3.4
X7.7Y-4.0
X7.8Y-3.4
X7.8Y-4.0
X7.9Y-3.4
X7.9Y-4.0
X8.0Y-3.4
X8.0Y-4.0
X8.1Y-3.4
X8.1Y-4.0
X8.2Y-3.4
X8.2Y-4.0
X8.3Y-3.4
X8.3Y-4.0
X8.4Y-3.4
X8.4Y-4.0
X8.5Y-3.4
X8.5Y-4.0
X8.6Y-3.4
X8.6Y-4.0
X8.7Y-3.4
X8.7Y-4.0
X8.8Y-3.4
X8.8Y-4.0
X7.05Y-4.1
X7.05Y-4.3
X7.5Y-4.8
X7.6Y-4.8
X7.7Y-4.8
X7.8Y-4.8
X7.9Y-4.8
X8.0Y-4.8
X8.1Y-4.8
X8.2Y-4.8
X8.3Y-4.8
X5.9Y-3.15
X5.9Y-3.25
X5.9Y-3.35
X5.9Y-3.45
X5.9Y-3.55
X5.9Y-3.65
X5.9Y-3.75
X5.9Y-3.85
X6.2Y-3.15
X6.2Y-3.25
X6.2Y-3.35
X6.2Y-3.45
X6.2Y-3.55
X6.2Y-3.65
X6.2Y-3.75
X6.2Y-3.85
X7.15Y-4.1
X7.15Y-4.3
X5.425Y-3.625
X5.425Y-3.925
X5.725Y-3.625
X5.725Y-3.925
X7.3Y-3.3
X7.5Y-3.3
T5
X5.0Y-5.0
X5.1Y-5.0
X5.2Y-5.0
X5.3Y-5.0
X5.4Y-5.0
X5.5Y-5.0
X5.6Y-5.0
X5.7Y-5.0
X5.8Y-5.0
X5.9Y-5.0
X6.0Y-5.0
X6.1Y-5.0
X6.2Y-5.0
X6.3Y-5.0
X6.4Y-5.0
X6.5Y-5.0
X6.6Y-5.0
X6.7Y-5.0
X6.8Y-5.0
X6.9Y-5.0
X7.0Y-5.0
X7.1Y-5.0
X7.2Y-5.0
X7.3Y-5.0
X7.4Y-5.0
X7.5Y-5.0
X7.6Y-5.0
X7.7Y-5.0
X7.8Y-5.0
X7.9Y-5.0
X8.0Y-5.0
X8.1Y-5.0
X8.2Y-5.0
X8.3Y-5.0
X8.4Y-5.0
X8.5Y-5.0
X8.6Y-5.0
X8.7Y-5.0
X8.8Y-5.0
X8.25Y-3.15
X8.25Y-3.25
X8.35Y-3.15
X8.35Y-3.25
X8.45Y-3.15
X8.45Y-3.25
X8.55Y-3.15
X8.55Y-3.25
X8.65Y-3.15
X8.65Y-3.25
X6.6Y-4.9
X6.7Y-4.9
X6.8Y-4.9
X6.9Y-4.9
X7.0Y-4.9
X7.1Y-4.9
X7.2Y-4.9
X7.3Y-4.9
X7.4Y-4.9
X7.5Y-4.9
X7.05Y-4.7
X7.15Y-4.7
T6
X5.127Y-3.765
T0
M30
