G04 #@! TF.GenerationSoftware,KiCad,Pcbnew,(5.1.8)-1*
G04 #@! TF.CreationDate,2021-01-25T16:16:45-08:00*
G04 #@! TF.ProjectId,Z80-512K,5a38302d-3531-4324-9b2e-6b696361645f,1.2*
G04 #@! TF.SameCoordinates,Original*
G04 #@! TF.FileFunction,Legend,Top*
G04 #@! TF.FilePolarity,Positive*
%FSLAX46Y46*%
G04 Gerber Fmt 4.6, Leading zero omitted, Abs format (unit mm)*
G04 Created by KiCad (PCBNEW (5.1.8)-1) date 2021-01-25 16:16:45*
%MOMM*%
%LPD*%
G01*
G04 APERTURE LIST*
%ADD10C,0.150000*%
%ADD11C,0.120000*%
G04 APERTURE END LIST*
D10*
X130318452Y-105179880D02*
X130318452Y-105894166D01*
X130270833Y-106037023D01*
X130175595Y-106132261D01*
X130032738Y-106179880D01*
X129937500Y-106179880D01*
X131270833Y-106179880D02*
X130794642Y-106179880D01*
X130794642Y-105179880D01*
X132175595Y-106084642D02*
X132127976Y-106132261D01*
X131985119Y-106179880D01*
X131889880Y-106179880D01*
X131747023Y-106132261D01*
X131651785Y-106037023D01*
X131604166Y-105941785D01*
X131556547Y-105751309D01*
X131556547Y-105608452D01*
X131604166Y-105417976D01*
X131651785Y-105322738D01*
X131747023Y-105227500D01*
X131889880Y-105179880D01*
X131985119Y-105179880D01*
X132127976Y-105227500D01*
X132175595Y-105275119D01*
X132889880Y-105179880D02*
X132889880Y-105894166D01*
X132842261Y-106037023D01*
X132747023Y-106132261D01*
X132604166Y-106179880D01*
X132508928Y-106179880D01*
X133842261Y-106179880D02*
X133366071Y-106179880D01*
X133366071Y-105179880D01*
X134747023Y-106084642D02*
X134699404Y-106132261D01*
X134556547Y-106179880D01*
X134461309Y-106179880D01*
X134318452Y-106132261D01*
X134223214Y-106037023D01*
X134175595Y-105941785D01*
X134127976Y-105751309D01*
X134127976Y-105608452D01*
X134175595Y-105417976D01*
X134223214Y-105322738D01*
X134318452Y-105227500D01*
X134461309Y-105179880D01*
X134556547Y-105179880D01*
X134699404Y-105227500D01*
X134747023Y-105275119D01*
X135461309Y-105179880D02*
X135461309Y-105894166D01*
X135413690Y-106037023D01*
X135318452Y-106132261D01*
X135175595Y-106179880D01*
X135080357Y-106179880D01*
X136413690Y-106179880D02*
X135937500Y-106179880D01*
X135937500Y-105179880D01*
X137318452Y-106084642D02*
X137270833Y-106132261D01*
X137127976Y-106179880D01*
X137032738Y-106179880D01*
X136889880Y-106132261D01*
X136794642Y-106037023D01*
X136747023Y-105941785D01*
X136699404Y-105751309D01*
X136699404Y-105608452D01*
X136747023Y-105417976D01*
X136794642Y-105322738D01*
X136889880Y-105227500D01*
X137032738Y-105179880D01*
X137127976Y-105179880D01*
X137270833Y-105227500D01*
X137318452Y-105275119D01*
X138032738Y-105179880D02*
X138032738Y-105894166D01*
X137985119Y-106037023D01*
X137889880Y-106132261D01*
X137747023Y-106179880D01*
X137651785Y-106179880D01*
X138985119Y-106179880D02*
X138508928Y-106179880D01*
X138508928Y-105179880D01*
X139889880Y-106084642D02*
X139842261Y-106132261D01*
X139699404Y-106179880D01*
X139604166Y-106179880D01*
X139461309Y-106132261D01*
X139366071Y-106037023D01*
X139318452Y-105941785D01*
X139270833Y-105751309D01*
X139270833Y-105608452D01*
X139318452Y-105417976D01*
X139366071Y-105322738D01*
X139461309Y-105227500D01*
X139604166Y-105179880D01*
X139699404Y-105179880D01*
X139842261Y-105227500D01*
X139889880Y-105275119D01*
D11*
X154940000Y-120967500D02*
X154940000Y-121602500D01*
X154622500Y-121285000D02*
X155257500Y-121285000D01*
X207962500Y-84772500D02*
X207327500Y-84137500D01*
X207962500Y-84137500D02*
X207962500Y-84772500D01*
X207327500Y-84137500D02*
X207962500Y-84137500D01*
X218440000Y-122237500D02*
X219710000Y-123507500D01*
X216535000Y-121602500D02*
X217805000Y-122872500D01*
X218440000Y-121602500D02*
X218440000Y-122872500D01*
X217805000Y-122237500D02*
X217805000Y-123507500D01*
X216535000Y-120967500D02*
X216535000Y-122237500D01*
X215265000Y-123507500D02*
X213995000Y-123507500D01*
X216535000Y-122237500D02*
X215265000Y-123507500D01*
X217805000Y-123507500D02*
X216535000Y-122237500D01*
X218440000Y-122872500D02*
X217805000Y-123507500D01*
X219075000Y-123507500D02*
X218440000Y-122872500D01*
X220345000Y-123507500D02*
X219075000Y-123507500D01*
X218440000Y-121602500D02*
X220345000Y-123507500D01*
X216535000Y-120967500D02*
X217805000Y-122237500D01*
X217805000Y-122237500D02*
X218440000Y-121602500D01*
X213995000Y-123507500D02*
X216535000Y-120967500D01*
D10*
X127457142Y-125183809D02*
X126542857Y-125183809D01*
X127000000Y-125183809D02*
X127000000Y-123583809D01*
X126847619Y-123812380D01*
X126695238Y-123964761D01*
X126542857Y-124040952D01*
D11*
X128270000Y-123190000D02*
X128270000Y-125730000D01*
X126365000Y-123190000D02*
X128270000Y-123190000D01*
X125730000Y-123825000D02*
X126365000Y-123190000D01*
X125730000Y-125730000D02*
X125730000Y-123825000D01*
D10*
X181864047Y-115323928D02*
X182625952Y-115323928D01*
X178054047Y-115323928D02*
X178815952Y-115323928D01*
X178435000Y-115704880D02*
X178435000Y-114942976D01*
X129116785Y-122134880D02*
X129650119Y-122134880D01*
X129116785Y-123134880D01*
X129650119Y-123134880D01*
X130069166Y-122563452D02*
X129992976Y-122515833D01*
X129954880Y-122468214D01*
X129916785Y-122372976D01*
X129916785Y-122325357D01*
X129954880Y-122230119D01*
X129992976Y-122182500D01*
X130069166Y-122134880D01*
X130221547Y-122134880D01*
X130297738Y-122182500D01*
X130335833Y-122230119D01*
X130373928Y-122325357D01*
X130373928Y-122372976D01*
X130335833Y-122468214D01*
X130297738Y-122515833D01*
X130221547Y-122563452D01*
X130069166Y-122563452D01*
X129992976Y-122611071D01*
X129954880Y-122658690D01*
X129916785Y-122753928D01*
X129916785Y-122944404D01*
X129954880Y-123039642D01*
X129992976Y-123087261D01*
X130069166Y-123134880D01*
X130221547Y-123134880D01*
X130297738Y-123087261D01*
X130335833Y-123039642D01*
X130373928Y-122944404D01*
X130373928Y-122753928D01*
X130335833Y-122658690D01*
X130297738Y-122611071D01*
X130221547Y-122563452D01*
X130869166Y-122134880D02*
X130945357Y-122134880D01*
X131021547Y-122182500D01*
X131059642Y-122230119D01*
X131097738Y-122325357D01*
X131135833Y-122515833D01*
X131135833Y-122753928D01*
X131097738Y-122944404D01*
X131059642Y-123039642D01*
X131021547Y-123087261D01*
X130945357Y-123134880D01*
X130869166Y-123134880D01*
X130792976Y-123087261D01*
X130754880Y-123039642D01*
X130716785Y-122944404D01*
X130678690Y-122753928D01*
X130678690Y-122515833D01*
X130716785Y-122325357D01*
X130754880Y-122230119D01*
X130792976Y-122182500D01*
X130869166Y-122134880D01*
X131478690Y-122753928D02*
X132088214Y-122753928D01*
X132850119Y-122134880D02*
X132469166Y-122134880D01*
X132431071Y-122611071D01*
X132469166Y-122563452D01*
X132545357Y-122515833D01*
X132735833Y-122515833D01*
X132812023Y-122563452D01*
X132850119Y-122611071D01*
X132888214Y-122706309D01*
X132888214Y-122944404D01*
X132850119Y-123039642D01*
X132812023Y-123087261D01*
X132735833Y-123134880D01*
X132545357Y-123134880D01*
X132469166Y-123087261D01*
X132431071Y-123039642D01*
X133650119Y-123134880D02*
X133192976Y-123134880D01*
X133421547Y-123134880D02*
X133421547Y-122134880D01*
X133345357Y-122277738D01*
X133269166Y-122372976D01*
X133192976Y-122420595D01*
X133954880Y-122230119D02*
X133992976Y-122182500D01*
X134069166Y-122134880D01*
X134259642Y-122134880D01*
X134335833Y-122182500D01*
X134373928Y-122230119D01*
X134412023Y-122325357D01*
X134412023Y-122420595D01*
X134373928Y-122563452D01*
X133916785Y-123134880D01*
X134412023Y-123134880D01*
X134754880Y-123134880D02*
X134754880Y-122134880D01*
X135212023Y-123134880D02*
X134869166Y-122563452D01*
X135212023Y-122134880D02*
X134754880Y-122706309D01*
X136164404Y-122753928D02*
X136773928Y-122753928D01*
X137650119Y-122134880D02*
X137916785Y-123134880D01*
X138183452Y-122134880D01*
X138754880Y-123087261D02*
X138678690Y-123134880D01*
X138526309Y-123134880D01*
X138450119Y-123087261D01*
X138412023Y-122992023D01*
X138412023Y-122611071D01*
X138450119Y-122515833D01*
X138526309Y-122468214D01*
X138678690Y-122468214D01*
X138754880Y-122515833D01*
X138792976Y-122611071D01*
X138792976Y-122706309D01*
X138412023Y-122801547D01*
X139135833Y-123134880D02*
X139135833Y-122468214D01*
X139135833Y-122658690D02*
X139173928Y-122563452D01*
X139212023Y-122515833D01*
X139288214Y-122468214D01*
X139364404Y-122468214D01*
X139592976Y-123087261D02*
X139669166Y-123134880D01*
X139821547Y-123134880D01*
X139897738Y-123087261D01*
X139935833Y-122992023D01*
X139935833Y-122944404D01*
X139897738Y-122849166D01*
X139821547Y-122801547D01*
X139707261Y-122801547D01*
X139631071Y-122753928D01*
X139592976Y-122658690D01*
X139592976Y-122611071D01*
X139631071Y-122515833D01*
X139707261Y-122468214D01*
X139821547Y-122468214D01*
X139897738Y-122515833D01*
X140278690Y-123134880D02*
X140278690Y-122468214D01*
X140278690Y-122134880D02*
X140240595Y-122182500D01*
X140278690Y-122230119D01*
X140316785Y-122182500D01*
X140278690Y-122134880D01*
X140278690Y-122230119D01*
X140773928Y-123134880D02*
X140697738Y-123087261D01*
X140659642Y-123039642D01*
X140621547Y-122944404D01*
X140621547Y-122658690D01*
X140659642Y-122563452D01*
X140697738Y-122515833D01*
X140773928Y-122468214D01*
X140888214Y-122468214D01*
X140964404Y-122515833D01*
X141002500Y-122563452D01*
X141040595Y-122658690D01*
X141040595Y-122944404D01*
X141002500Y-123039642D01*
X140964404Y-123087261D01*
X140888214Y-123134880D01*
X140773928Y-123134880D01*
X141383452Y-122468214D02*
X141383452Y-123134880D01*
X141383452Y-122563452D02*
X141421547Y-122515833D01*
X141497738Y-122468214D01*
X141612023Y-122468214D01*
X141688214Y-122515833D01*
X141726309Y-122611071D01*
X141726309Y-123134880D01*
X143135833Y-123134880D02*
X142678690Y-123134880D01*
X142907261Y-123134880D02*
X142907261Y-122134880D01*
X142831071Y-122277738D01*
X142754880Y-122372976D01*
X142678690Y-122420595D01*
X143478690Y-123039642D02*
X143516785Y-123087261D01*
X143478690Y-123134880D01*
X143440595Y-123087261D01*
X143478690Y-123039642D01*
X143478690Y-123134880D01*
X143821547Y-122230119D02*
X143859642Y-122182500D01*
X143935833Y-122134880D01*
X144126309Y-122134880D01*
X144202500Y-122182500D01*
X144240595Y-122230119D01*
X144278690Y-122325357D01*
X144278690Y-122420595D01*
X144240595Y-122563452D01*
X143783452Y-123134880D01*
X144278690Y-123134880D01*
X129421547Y-125165833D02*
X129383452Y-125118214D01*
X129307261Y-124975357D01*
X129269166Y-124880119D01*
X129231071Y-124737261D01*
X129192976Y-124499166D01*
X129192976Y-124308690D01*
X129231071Y-124070595D01*
X129269166Y-123927738D01*
X129307261Y-123832500D01*
X129383452Y-123689642D01*
X129421547Y-123642023D01*
X130183452Y-124689642D02*
X130145357Y-124737261D01*
X130031071Y-124784880D01*
X129954880Y-124784880D01*
X129840595Y-124737261D01*
X129764404Y-124642023D01*
X129726309Y-124546785D01*
X129688214Y-124356309D01*
X129688214Y-124213452D01*
X129726309Y-124022976D01*
X129764404Y-123927738D01*
X129840595Y-123832500D01*
X129954880Y-123784880D01*
X130031071Y-123784880D01*
X130145357Y-123832500D01*
X130183452Y-123880119D01*
X130450119Y-125165833D02*
X130488214Y-125118214D01*
X130564404Y-124975357D01*
X130602500Y-124880119D01*
X130640595Y-124737261D01*
X130678690Y-124499166D01*
X130678690Y-124308690D01*
X130640595Y-124070595D01*
X130602500Y-123927738D01*
X130564404Y-123832500D01*
X130488214Y-123689642D01*
X130450119Y-123642023D01*
X131631071Y-123880119D02*
X131669166Y-123832500D01*
X131745357Y-123784880D01*
X131935833Y-123784880D01*
X132012023Y-123832500D01*
X132050119Y-123880119D01*
X132088214Y-123975357D01*
X132088214Y-124070595D01*
X132050119Y-124213452D01*
X131592976Y-124784880D01*
X132088214Y-124784880D01*
X132583452Y-123784880D02*
X132659642Y-123784880D01*
X132735833Y-123832500D01*
X132773928Y-123880119D01*
X132812023Y-123975357D01*
X132850119Y-124165833D01*
X132850119Y-124403928D01*
X132812023Y-124594404D01*
X132773928Y-124689642D01*
X132735833Y-124737261D01*
X132659642Y-124784880D01*
X132583452Y-124784880D01*
X132507261Y-124737261D01*
X132469166Y-124689642D01*
X132431071Y-124594404D01*
X132392976Y-124403928D01*
X132392976Y-124165833D01*
X132431071Y-123975357D01*
X132469166Y-123880119D01*
X132507261Y-123832500D01*
X132583452Y-123784880D01*
X133154880Y-123880119D02*
X133192976Y-123832500D01*
X133269166Y-123784880D01*
X133459642Y-123784880D01*
X133535833Y-123832500D01*
X133573928Y-123880119D01*
X133612023Y-123975357D01*
X133612023Y-124070595D01*
X133573928Y-124213452D01*
X133116785Y-124784880D01*
X133612023Y-124784880D01*
X134107261Y-123784880D02*
X134183452Y-123784880D01*
X134259642Y-123832500D01*
X134297738Y-123880119D01*
X134335833Y-123975357D01*
X134373928Y-124165833D01*
X134373928Y-124403928D01*
X134335833Y-124594404D01*
X134297738Y-124689642D01*
X134259642Y-124737261D01*
X134183452Y-124784880D01*
X134107261Y-124784880D01*
X134031071Y-124737261D01*
X133992976Y-124689642D01*
X133954880Y-124594404D01*
X133916785Y-124403928D01*
X133916785Y-124165833D01*
X133954880Y-123975357D01*
X133992976Y-123880119D01*
X134031071Y-123832500D01*
X134107261Y-123784880D01*
X134754880Y-124737261D02*
X134754880Y-124784880D01*
X134716785Y-124880119D01*
X134678690Y-124927738D01*
X135669166Y-123880119D02*
X135707261Y-123832500D01*
X135783452Y-123784880D01*
X135973928Y-123784880D01*
X136050119Y-123832500D01*
X136088214Y-123880119D01*
X136126309Y-123975357D01*
X136126309Y-124070595D01*
X136088214Y-124213452D01*
X135631071Y-124784880D01*
X136126309Y-124784880D01*
X136621547Y-123784880D02*
X136697738Y-123784880D01*
X136773928Y-123832500D01*
X136812023Y-123880119D01*
X136850119Y-123975357D01*
X136888214Y-124165833D01*
X136888214Y-124403928D01*
X136850119Y-124594404D01*
X136812023Y-124689642D01*
X136773928Y-124737261D01*
X136697738Y-124784880D01*
X136621547Y-124784880D01*
X136545357Y-124737261D01*
X136507261Y-124689642D01*
X136469166Y-124594404D01*
X136431071Y-124403928D01*
X136431071Y-124165833D01*
X136469166Y-123975357D01*
X136507261Y-123880119D01*
X136545357Y-123832500D01*
X136621547Y-123784880D01*
X137192976Y-123880119D02*
X137231071Y-123832500D01*
X137307261Y-123784880D01*
X137497738Y-123784880D01*
X137573928Y-123832500D01*
X137612023Y-123880119D01*
X137650119Y-123975357D01*
X137650119Y-124070595D01*
X137612023Y-124213452D01*
X137154880Y-124784880D01*
X137650119Y-124784880D01*
X138412023Y-124784880D02*
X137954880Y-124784880D01*
X138183452Y-124784880D02*
X138183452Y-123784880D01*
X138107261Y-123927738D01*
X138031071Y-124022976D01*
X137954880Y-124070595D01*
X139326309Y-124737261D02*
X139440595Y-124784880D01*
X139631071Y-124784880D01*
X139707261Y-124737261D01*
X139745357Y-124689642D01*
X139783452Y-124594404D01*
X139783452Y-124499166D01*
X139745357Y-124403928D01*
X139707261Y-124356309D01*
X139631071Y-124308690D01*
X139478690Y-124261071D01*
X139402500Y-124213452D01*
X139364404Y-124165833D01*
X139326309Y-124070595D01*
X139326309Y-123975357D01*
X139364404Y-123880119D01*
X139402500Y-123832500D01*
X139478690Y-123784880D01*
X139669166Y-123784880D01*
X139783452Y-123832500D01*
X140431071Y-124737261D02*
X140354880Y-124784880D01*
X140202500Y-124784880D01*
X140126309Y-124737261D01*
X140088214Y-124642023D01*
X140088214Y-124261071D01*
X140126309Y-124165833D01*
X140202500Y-124118214D01*
X140354880Y-124118214D01*
X140431071Y-124165833D01*
X140469166Y-124261071D01*
X140469166Y-124356309D01*
X140088214Y-124451547D01*
X140812023Y-124784880D02*
X140812023Y-124118214D01*
X140812023Y-124308690D02*
X140850119Y-124213452D01*
X140888214Y-124165833D01*
X140964404Y-124118214D01*
X141040595Y-124118214D01*
X141650119Y-124118214D02*
X141650119Y-124927738D01*
X141612023Y-125022976D01*
X141573928Y-125070595D01*
X141497738Y-125118214D01*
X141383452Y-125118214D01*
X141307261Y-125070595D01*
X141650119Y-124737261D02*
X141573928Y-124784880D01*
X141421547Y-124784880D01*
X141345357Y-124737261D01*
X141307261Y-124689642D01*
X141269166Y-124594404D01*
X141269166Y-124308690D01*
X141307261Y-124213452D01*
X141345357Y-124165833D01*
X141421547Y-124118214D01*
X141573928Y-124118214D01*
X141650119Y-124165833D01*
X142335833Y-124737261D02*
X142259642Y-124784880D01*
X142107261Y-124784880D01*
X142031071Y-124737261D01*
X141992976Y-124642023D01*
X141992976Y-124261071D01*
X142031071Y-124165833D01*
X142107261Y-124118214D01*
X142259642Y-124118214D01*
X142335833Y-124165833D01*
X142373928Y-124261071D01*
X142373928Y-124356309D01*
X141992976Y-124451547D01*
X142640595Y-124118214D02*
X142831071Y-124784880D01*
X143021547Y-124118214D02*
X142831071Y-124784880D01*
X142754880Y-125022976D01*
X142716785Y-125070595D01*
X142640595Y-125118214D01*
X143935833Y-124784880D02*
X143935833Y-123784880D01*
X144392976Y-124784880D02*
X144050119Y-124213452D01*
X144392976Y-123784880D02*
X143935833Y-124356309D01*
X144735833Y-124784880D02*
X144735833Y-124118214D01*
X144735833Y-123784880D02*
X144697738Y-123832500D01*
X144735833Y-123880119D01*
X144773928Y-123832500D01*
X144735833Y-123784880D01*
X144735833Y-123880119D01*
X145078690Y-124737261D02*
X145154880Y-124784880D01*
X145307261Y-124784880D01*
X145383452Y-124737261D01*
X145421547Y-124642023D01*
X145421547Y-124594404D01*
X145383452Y-124499166D01*
X145307261Y-124451547D01*
X145192976Y-124451547D01*
X145116785Y-124403928D01*
X145078690Y-124308690D01*
X145078690Y-124261071D01*
X145116785Y-124165833D01*
X145192976Y-124118214D01*
X145307261Y-124118214D01*
X145383452Y-124165833D01*
X146069166Y-124737261D02*
X145992976Y-124784880D01*
X145840595Y-124784880D01*
X145764404Y-124737261D01*
X145726309Y-124642023D01*
X145726309Y-124261071D01*
X145764404Y-124165833D01*
X145840595Y-124118214D01*
X145992976Y-124118214D01*
X146069166Y-124165833D01*
X146107261Y-124261071D01*
X146107261Y-124356309D01*
X145726309Y-124451547D01*
X146564404Y-124784880D02*
X146488214Y-124737261D01*
X146450119Y-124642023D01*
X146450119Y-123784880D01*
X147173928Y-124737261D02*
X147097738Y-124784880D01*
X146945357Y-124784880D01*
X146869166Y-124737261D01*
X146831071Y-124642023D01*
X146831071Y-124261071D01*
X146869166Y-124165833D01*
X146945357Y-124118214D01*
X147097738Y-124118214D01*
X147173928Y-124165833D01*
X147212023Y-124261071D01*
X147212023Y-124356309D01*
X146831071Y-124451547D01*
X147478690Y-124118214D02*
X147669166Y-124784880D01*
X147859642Y-124118214D01*
X210812857Y-124245714D02*
X211003333Y-124912380D01*
X211193809Y-124436190D01*
X211384285Y-124912380D01*
X211574761Y-124245714D01*
X211860476Y-124245714D02*
X212050952Y-124912380D01*
X212241428Y-124436190D01*
X212431904Y-124912380D01*
X212622380Y-124245714D01*
X212908095Y-124245714D02*
X213098571Y-124912380D01*
X213289047Y-124436190D01*
X213479523Y-124912380D01*
X213670000Y-124245714D01*
X214050952Y-124817142D02*
X214098571Y-124864761D01*
X214050952Y-124912380D01*
X214003333Y-124864761D01*
X214050952Y-124817142D01*
X214050952Y-124912380D01*
X214527142Y-124912380D02*
X214527142Y-124245714D01*
X214527142Y-124340952D02*
X214574761Y-124293333D01*
X214670000Y-124245714D01*
X214812857Y-124245714D01*
X214908095Y-124293333D01*
X214955714Y-124388571D01*
X214955714Y-124912380D01*
X214955714Y-124388571D02*
X215003333Y-124293333D01*
X215098571Y-124245714D01*
X215241428Y-124245714D01*
X215336666Y-124293333D01*
X215384285Y-124388571D01*
X215384285Y-124912380D01*
X216289047Y-124912380D02*
X216289047Y-124388571D01*
X216241428Y-124293333D01*
X216146190Y-124245714D01*
X215955714Y-124245714D01*
X215860476Y-124293333D01*
X216289047Y-124864761D02*
X216193809Y-124912380D01*
X215955714Y-124912380D01*
X215860476Y-124864761D01*
X215812857Y-124769523D01*
X215812857Y-124674285D01*
X215860476Y-124579047D01*
X215955714Y-124531428D01*
X216193809Y-124531428D01*
X216289047Y-124483809D01*
X216908095Y-124912380D02*
X216812857Y-124864761D01*
X216765238Y-124769523D01*
X216765238Y-123912380D01*
X217289047Y-124912380D02*
X217289047Y-124245714D01*
X217289047Y-123912380D02*
X217241428Y-123960000D01*
X217289047Y-124007619D01*
X217336666Y-123960000D01*
X217289047Y-123912380D01*
X217289047Y-124007619D01*
X217765238Y-124245714D02*
X217765238Y-124912380D01*
X217765238Y-124340952D02*
X217812857Y-124293333D01*
X217908095Y-124245714D01*
X218050952Y-124245714D01*
X218146190Y-124293333D01*
X218193809Y-124388571D01*
X218193809Y-124912380D01*
X218812857Y-124912380D02*
X218717619Y-124864761D01*
X218670000Y-124817142D01*
X218622380Y-124721904D01*
X218622380Y-124436190D01*
X218670000Y-124340952D01*
X218717619Y-124293333D01*
X218812857Y-124245714D01*
X218955714Y-124245714D01*
X219050952Y-124293333D01*
X219098571Y-124340952D01*
X219146190Y-124436190D01*
X219146190Y-124721904D01*
X219098571Y-124817142D01*
X219050952Y-124864761D01*
X218955714Y-124912380D01*
X218812857Y-124912380D01*
X219479523Y-124245714D02*
X219717619Y-124912380D01*
X219955714Y-124245714D01*
X220336666Y-124817142D02*
X220384285Y-124864761D01*
X220336666Y-124912380D01*
X220289047Y-124864761D01*
X220336666Y-124817142D01*
X220336666Y-124912380D01*
X221241428Y-124864761D02*
X221146190Y-124912380D01*
X220955714Y-124912380D01*
X220860476Y-124864761D01*
X220812857Y-124817142D01*
X220765238Y-124721904D01*
X220765238Y-124436190D01*
X220812857Y-124340952D01*
X220860476Y-124293333D01*
X220955714Y-124245714D01*
X221146190Y-124245714D01*
X221241428Y-124293333D01*
X221812857Y-124912380D02*
X221717619Y-124864761D01*
X221670000Y-124817142D01*
X221622380Y-124721904D01*
X221622380Y-124436190D01*
X221670000Y-124340952D01*
X221717619Y-124293333D01*
X221812857Y-124245714D01*
X221955714Y-124245714D01*
X222050952Y-124293333D01*
X222098571Y-124340952D01*
X222146190Y-124436190D01*
X222146190Y-124721904D01*
X222098571Y-124817142D01*
X222050952Y-124864761D01*
X221955714Y-124912380D01*
X221812857Y-124912380D01*
X222574761Y-124912380D02*
X222574761Y-124245714D01*
X222574761Y-124340952D02*
X222622380Y-124293333D01*
X222717619Y-124245714D01*
X222860476Y-124245714D01*
X222955714Y-124293333D01*
X223003333Y-124388571D01*
X223003333Y-124912380D01*
X223003333Y-124388571D02*
X223050952Y-124293333D01*
X223146190Y-124245714D01*
X223289047Y-124245714D01*
X223384285Y-124293333D01*
X223431904Y-124388571D01*
X223431904Y-124912380D01*
D11*
X129770000Y-100330000D02*
G75*
G03*
X129770000Y-100330000I-1500000J0D01*
G01*
X126770000Y-101580000D02*
X126770000Y-99080000D01*
X127270000Y-100330000D02*
G75*
G02*
X128270000Y-99330000I1000000J0D01*
G01*
X127770000Y-100330000D02*
G75*
G02*
X128270000Y-99830000I500000J0D01*
G01*
X129270000Y-100330000D02*
G75*
G02*
X128270000Y-101330000I-1000000J0D01*
G01*
X128770000Y-100330000D02*
G75*
G02*
X128270000Y-100830000I-500000J0D01*
G01*
X126770001Y-99080001D02*
G75*
G02*
X126770001Y-101579999I1499999J-1249999D01*
G01*
X190246000Y-125222000D02*
X190246000Y-126238000D01*
X190754000Y-125222000D02*
X190754000Y-126238000D01*
X187706000Y-125222000D02*
X187706000Y-126238000D01*
X188214000Y-125222000D02*
X188214000Y-126238000D01*
X185166000Y-125222000D02*
X185166000Y-126238000D01*
X185674000Y-125222000D02*
X185674000Y-126238000D01*
X183134000Y-125222000D02*
X183134000Y-126238000D01*
X182626000Y-125222000D02*
X182626000Y-126238000D01*
X180594000Y-125222000D02*
X180594000Y-126238000D01*
X180086000Y-125222000D02*
X180086000Y-126238000D01*
X178054000Y-125222000D02*
X178054000Y-126238000D01*
X177546000Y-125222000D02*
X177546000Y-126238000D01*
X175514000Y-125222000D02*
X175514000Y-126238000D01*
X175006000Y-125222000D02*
X175006000Y-126238000D01*
X172466000Y-125222000D02*
X172466000Y-126238000D01*
X172974000Y-125222000D02*
X172974000Y-126238000D01*
X169926000Y-125222000D02*
X169926000Y-126238000D01*
X170434000Y-125222000D02*
X170434000Y-126238000D01*
X167894000Y-125222000D02*
X167894000Y-126238000D01*
X167386000Y-125222000D02*
X167386000Y-126238000D01*
X168910000Y-123190000D02*
X168910000Y-125730000D01*
X166370000Y-123190000D02*
X168910000Y-123190000D01*
X166370000Y-125730000D02*
X166370000Y-123190000D01*
X191770000Y-125730000D02*
X166370000Y-125730000D01*
X191770000Y-123190000D02*
X191770000Y-125730000D01*
X166370000Y-123190000D02*
X191770000Y-123190000D01*
X223774000Y-127762000D02*
X223774000Y-128778000D01*
X223266000Y-127762000D02*
X223266000Y-128778000D01*
X221234000Y-127762000D02*
X221234000Y-128778000D01*
X220726000Y-127762000D02*
X220726000Y-128778000D01*
X218694000Y-127762000D02*
X218694000Y-128778000D01*
X218186000Y-127762000D02*
X218186000Y-128778000D01*
X215646000Y-127762000D02*
X215646000Y-128778000D01*
X216154000Y-127762000D02*
X216154000Y-128778000D01*
X213106000Y-127762000D02*
X213106000Y-128778000D01*
X213614000Y-127762000D02*
X213614000Y-128778000D01*
X210566000Y-127762000D02*
X210566000Y-128778000D01*
X211074000Y-127762000D02*
X211074000Y-128778000D01*
X208534000Y-127762000D02*
X208534000Y-128778000D01*
X208026000Y-127762000D02*
X208026000Y-128778000D01*
X205486000Y-127762000D02*
X205486000Y-128778000D01*
X205994000Y-127762000D02*
X205994000Y-128778000D01*
X203454000Y-127762000D02*
X203454000Y-128778000D01*
X202946000Y-127762000D02*
X202946000Y-128778000D01*
X200914000Y-127762000D02*
X200914000Y-128778000D01*
X200406000Y-127762000D02*
X200406000Y-128778000D01*
X197866000Y-127762000D02*
X197866000Y-128778000D01*
X198374000Y-127762000D02*
X198374000Y-128778000D01*
X195326000Y-127762000D02*
X195326000Y-128778000D01*
X195834000Y-127762000D02*
X195834000Y-128778000D01*
X193294000Y-127762000D02*
X193294000Y-128778000D01*
X192786000Y-127762000D02*
X192786000Y-128778000D01*
X190754000Y-127762000D02*
X190754000Y-128778000D01*
X190246000Y-127762000D02*
X190246000Y-128778000D01*
X187706000Y-127762000D02*
X187706000Y-128778000D01*
X188214000Y-127762000D02*
X188214000Y-128778000D01*
X185674000Y-127762000D02*
X185674000Y-128778000D01*
X185166000Y-127762000D02*
X185166000Y-128778000D01*
X183134000Y-127762000D02*
X183134000Y-128778000D01*
X182626000Y-127762000D02*
X182626000Y-128778000D01*
X180594000Y-127762000D02*
X180594000Y-128778000D01*
X180086000Y-127762000D02*
X180086000Y-128778000D01*
X178054000Y-127762000D02*
X178054000Y-128778000D01*
X177546000Y-127762000D02*
X177546000Y-128778000D01*
X175514000Y-127762000D02*
X175514000Y-128778000D01*
X175006000Y-127762000D02*
X175006000Y-128778000D01*
X172974000Y-127762000D02*
X172974000Y-128778000D01*
X172466000Y-127762000D02*
X172466000Y-128778000D01*
X170434000Y-127762000D02*
X170434000Y-128778000D01*
X169926000Y-127762000D02*
X169926000Y-128778000D01*
X167386000Y-127762000D02*
X167386000Y-128778000D01*
X167894000Y-127762000D02*
X167894000Y-128778000D01*
X165354000Y-127762000D02*
X165354000Y-128778000D01*
X164846000Y-127762000D02*
X164846000Y-128778000D01*
X162814000Y-127762000D02*
X162814000Y-128778000D01*
X162306000Y-127762000D02*
X162306000Y-128778000D01*
X159766000Y-127762000D02*
X159766000Y-128778000D01*
X160274000Y-127762000D02*
X160274000Y-128778000D01*
X157226000Y-127762000D02*
X157226000Y-128778000D01*
X157734000Y-127762000D02*
X157734000Y-128778000D01*
X154686000Y-127762000D02*
X154686000Y-128778000D01*
X155194000Y-127762000D02*
X155194000Y-128778000D01*
X152654000Y-127762000D02*
X152654000Y-128778000D01*
X152146000Y-127762000D02*
X152146000Y-128778000D01*
X149606000Y-127762000D02*
X149606000Y-128778000D01*
X150114000Y-127762000D02*
X150114000Y-128778000D01*
X147066000Y-127762000D02*
X147066000Y-128778000D01*
X147574000Y-127762000D02*
X147574000Y-128778000D01*
X145034000Y-127762000D02*
X145034000Y-128778000D01*
X144526000Y-127762000D02*
X144526000Y-128778000D01*
X141986000Y-127762000D02*
X141986000Y-128778000D01*
X142494000Y-127762000D02*
X142494000Y-128778000D01*
X139446000Y-127762000D02*
X139446000Y-128778000D01*
X139954000Y-127762000D02*
X139954000Y-128778000D01*
X137414000Y-127762000D02*
X137414000Y-128778000D01*
X136906000Y-127762000D02*
X136906000Y-128778000D01*
X134366000Y-127762000D02*
X134366000Y-128778000D01*
X134874000Y-127762000D02*
X134874000Y-128778000D01*
X131826000Y-127762000D02*
X131826000Y-128778000D01*
X132334000Y-127762000D02*
X132334000Y-128778000D01*
X129794000Y-127762000D02*
X129794000Y-128778000D01*
X129286000Y-127762000D02*
X129286000Y-128778000D01*
X127254000Y-127762000D02*
X127254000Y-128778000D01*
X126746000Y-127762000D02*
X126746000Y-128778000D01*
X125730000Y-125730000D02*
X224790000Y-125730000D01*
X224790000Y-125730000D02*
X224790000Y-128270000D01*
X224790000Y-128270000D02*
X125730000Y-128270000D01*
X125730000Y-128270000D02*
X125730000Y-125730000D01*
X128270000Y-125730000D02*
X128270000Y-128270000D01*
X208280000Y-79375000D02*
X208915000Y-78740000D01*
X208280000Y-80645000D02*
X208280000Y-79375000D01*
X208915000Y-81280000D02*
X208280000Y-80645000D01*
X210185000Y-78740000D02*
X208915000Y-78740000D01*
X210820000Y-79375000D02*
X210185000Y-78740000D01*
X211455000Y-78740000D02*
X210820000Y-79375000D01*
X212725000Y-78740000D02*
X211455000Y-78740000D01*
X213360000Y-79375000D02*
X212725000Y-78740000D01*
X213995000Y-78740000D02*
X213360000Y-79375000D01*
X215265000Y-78740000D02*
X213995000Y-78740000D01*
X215900000Y-79375000D02*
X215265000Y-78740000D01*
X216535000Y-78740000D02*
X215900000Y-79375000D01*
X217805000Y-78740000D02*
X216535000Y-78740000D01*
X218440000Y-79375000D02*
X217805000Y-78740000D01*
X219075000Y-78740000D02*
X218440000Y-79375000D01*
X220345000Y-78740000D02*
X219075000Y-78740000D01*
X220980000Y-79375000D02*
X220345000Y-78740000D01*
X220980000Y-80645000D02*
X220980000Y-79375000D01*
X220345000Y-81280000D02*
X220980000Y-80645000D01*
X220980000Y-81915000D02*
X220345000Y-81280000D01*
X220980000Y-83185000D02*
X220980000Y-81915000D01*
X220345000Y-83820000D02*
X220980000Y-83185000D01*
X219075000Y-83820000D02*
X220345000Y-83820000D01*
X218440000Y-83185000D02*
X219075000Y-83820000D01*
X217805000Y-83820000D02*
X218440000Y-83185000D01*
X216535000Y-83820000D02*
X217805000Y-83820000D01*
X215900000Y-83185000D02*
X216535000Y-83820000D01*
X215265000Y-83820000D02*
X215900000Y-83185000D01*
X213995000Y-83820000D02*
X215265000Y-83820000D01*
X213360000Y-83185000D02*
X213995000Y-83820000D01*
X212725000Y-83820000D02*
X213360000Y-83185000D01*
X211455000Y-83820000D02*
X212725000Y-83820000D01*
X210820000Y-83185000D02*
X211455000Y-83820000D01*
X210820000Y-83820000D02*
X210820000Y-83185000D01*
X208280000Y-81280000D02*
X208915000Y-81280000D01*
X208280000Y-83820000D02*
X208280000Y-81280000D01*
X210820000Y-83820000D02*
X208280000Y-83820000D01*
X158750000Y-78740000D02*
X158750000Y-99060000D01*
X148590000Y-78740000D02*
X158750000Y-78740000D01*
X148590000Y-99060000D02*
X148590000Y-78740000D01*
X158750000Y-99060000D02*
X148590000Y-99060000D01*
X153670000Y-98044000D02*
G75*
G03*
X152654000Y-99060000I0J-1016000D01*
G01*
X154686000Y-99060000D02*
G75*
G03*
X153670000Y-98044000I-1016000J0D01*
G01*
X160020000Y-101600000D02*
X160020000Y-80645000D01*
X160020000Y-80645000D02*
X161925000Y-78740000D01*
X161925000Y-78740000D02*
X182880000Y-78740000D01*
X182880000Y-78740000D02*
X182880000Y-101600000D01*
X182880000Y-101600000D02*
X160020000Y-101600000D01*
X184150000Y-102870000D02*
X184150000Y-85090000D01*
X184150000Y-85090000D02*
X224790000Y-85090000D01*
X224790000Y-85090000D02*
X224790000Y-102870000D01*
X224790000Y-102870000D02*
X184150000Y-102870000D01*
X185166000Y-93980000D02*
G75*
G03*
X184150000Y-92964000I-1016000J0D01*
G01*
X184150000Y-94996000D02*
G75*
G03*
X185166000Y-93980000I0J1016000D01*
G01*
X184150000Y-120650000D02*
X184150000Y-102870000D01*
X184150000Y-102870000D02*
X224790000Y-102870000D01*
X224790000Y-102870000D02*
X224790000Y-120650000D01*
X224790000Y-120650000D02*
X184150000Y-120650000D01*
X185166000Y-111760000D02*
G75*
G03*
X184150000Y-110744000I-1016000J0D01*
G01*
X184150000Y-112776000D02*
G75*
G03*
X185166000Y-111760000I0J1016000D01*
G01*
X125730000Y-120650000D02*
X125730000Y-102870000D01*
X176530000Y-120650000D02*
X176530000Y-102870000D01*
X125730000Y-120650000D02*
X176530000Y-120650000D01*
X125730000Y-102870000D02*
X176530000Y-102870000D01*
X126746000Y-111760000D02*
G75*
G03*
X125730000Y-110744000I-1016000J0D01*
G01*
X125730000Y-112776000D02*
G75*
G03*
X126746000Y-111760000I0J1016000D01*
G01*
X135890000Y-89535000D02*
X147320000Y-89535000D01*
X147955000Y-101600000D02*
X147955000Y-90170000D01*
X147320000Y-102235000D02*
X135255000Y-102235000D01*
X135255000Y-90170000D02*
X135255000Y-102235000D01*
X135890000Y-89535000D02*
G75*
G03*
X135255000Y-90170000I0J-635000D01*
G01*
X147955000Y-90170000D02*
G75*
G03*
X147320000Y-89535000I-635000J0D01*
G01*
X147320000Y-102235000D02*
G75*
G03*
X147955000Y-101600000I0J635000D01*
G01*
X135255000Y-97155000D02*
G75*
G03*
X135255000Y-94615000I0J1270000D01*
G01*
X179070000Y-116205000D02*
X179070000Y-117475000D01*
X179070000Y-117475000D02*
X181610000Y-117475000D01*
X181610000Y-117475000D02*
X181610000Y-116205000D01*
X182880000Y-121920000D02*
X182880000Y-116205000D01*
X182880000Y-116205000D02*
X177800000Y-116205000D01*
X177800000Y-116205000D02*
X177800000Y-121920000D01*
X182880000Y-121920000D02*
X177800000Y-121920000D01*
X189230000Y-123190000D02*
X189230000Y-120650000D01*
X189230000Y-120650000D02*
X212090000Y-120650000D01*
X212090000Y-120650000D02*
X212090000Y-123190000D01*
X212090000Y-123190000D02*
X189230000Y-123190000D01*
X191770000Y-123190000D02*
X191770000Y-120650000D01*
X161290000Y-123190000D02*
X161290000Y-120650000D01*
X161290000Y-120650000D02*
X176530000Y-120650000D01*
X176530000Y-120650000D02*
X176530000Y-123190000D01*
X176530000Y-123190000D02*
X161290000Y-123190000D01*
X163830000Y-123190000D02*
X163830000Y-120650000D01*
X184404000Y-81788000D02*
X184404000Y-80772000D01*
X184912000Y-80264000D02*
X191008000Y-80264000D01*
X184912000Y-82296000D02*
X191008000Y-82296000D01*
X191516000Y-81788000D02*
X191516000Y-80772000D01*
X184912000Y-80264000D02*
G75*
G03*
X184404000Y-80772000I0J-508000D01*
G01*
X184404000Y-81788000D02*
G75*
G03*
X184912000Y-82296000I508000J0D01*
G01*
X191516000Y-80772000D02*
G75*
G03*
X191008000Y-80264000I-508000J0D01*
G01*
X191008000Y-82296000D02*
G75*
G03*
X191516000Y-81788000I0J508000D01*
G01*
X184404000Y-84328000D02*
X184404000Y-83312000D01*
X184912000Y-82804000D02*
X191008000Y-82804000D01*
X184912000Y-84836000D02*
X191008000Y-84836000D01*
X191516000Y-84328000D02*
X191516000Y-83312000D01*
X184912000Y-82804000D02*
G75*
G03*
X184404000Y-83312000I0J-508000D01*
G01*
X184404000Y-84328000D02*
G75*
G03*
X184912000Y-84836000I508000J0D01*
G01*
X191516000Y-83312000D02*
G75*
G03*
X191008000Y-82804000I-508000J0D01*
G01*
X191008000Y-84836000D02*
G75*
G03*
X191516000Y-84328000I0J508000D01*
G01*
X135509000Y-88138000D02*
X135509000Y-87122000D01*
X136017000Y-86614000D02*
X142113000Y-86614000D01*
X136017000Y-88646000D02*
X142113000Y-88646000D01*
X142621000Y-88138000D02*
X142621000Y-87122000D01*
X136017000Y-86614000D02*
G75*
G03*
X135509000Y-87122000I0J-508000D01*
G01*
X135509000Y-88138000D02*
G75*
G03*
X136017000Y-88646000I508000J0D01*
G01*
X142621000Y-87122000D02*
G75*
G03*
X142113000Y-86614000I-508000J0D01*
G01*
X142113000Y-88646000D02*
G75*
G03*
X142621000Y-88138000I0J508000D01*
G01*
X157226000Y-100457000D02*
X157226000Y-101473000D01*
X156718000Y-101981000D02*
X150622000Y-101981000D01*
X156718000Y-99949000D02*
X150622000Y-99949000D01*
X150114000Y-100457000D02*
X150114000Y-101473000D01*
X156718000Y-101981000D02*
G75*
G03*
X157226000Y-101473000I0J508000D01*
G01*
X157226000Y-100457000D02*
G75*
G03*
X156718000Y-99949000I-508000J0D01*
G01*
X150114000Y-101473000D02*
G75*
G03*
X150622000Y-101981000I508000J0D01*
G01*
X150622000Y-99949000D02*
G75*
G03*
X150114000Y-100457000I0J-508000D01*
G01*
X153416000Y-121412000D02*
X153416000Y-122428000D01*
X152908000Y-122936000D02*
X146812000Y-122936000D01*
X152908000Y-120904000D02*
X146812000Y-120904000D01*
X146304000Y-121412000D02*
X146304000Y-122428000D01*
X152908000Y-122936000D02*
G75*
G03*
X153416000Y-122428000I0J508000D01*
G01*
X153416000Y-121412000D02*
G75*
G03*
X152908000Y-120904000I-508000J0D01*
G01*
X146304000Y-122428000D02*
G75*
G03*
X146812000Y-122936000I508000J0D01*
G01*
X146812000Y-120904000D02*
G75*
G03*
X146304000Y-121412000I0J-508000D01*
G01*
X182118000Y-110236000D02*
X181102000Y-110236000D01*
X180594000Y-109728000D02*
X180594000Y-103632000D01*
X182626000Y-109728000D02*
X182626000Y-103632000D01*
X182118000Y-103124000D02*
X181102000Y-103124000D01*
X180594000Y-109728000D02*
G75*
G03*
X181102000Y-110236000I508000J0D01*
G01*
X182118000Y-110236000D02*
G75*
G03*
X182626000Y-109728000I0J508000D01*
G01*
X181102000Y-103124000D02*
G75*
G03*
X180594000Y-103632000I0J-508000D01*
G01*
X182626000Y-103632000D02*
G75*
G03*
X182118000Y-103124000I-508000J0D01*
G01*
X178562000Y-110236000D02*
X179578000Y-110236000D01*
X178054000Y-103632000D02*
X178054000Y-109728000D01*
X180086000Y-103632000D02*
X180086000Y-109728000D01*
X178562000Y-103124000D02*
X179578000Y-103124000D01*
X180086000Y-103632000D02*
G75*
G03*
X179578000Y-103124000I-508000J0D01*
G01*
X178562000Y-103124000D02*
G75*
G03*
X178054000Y-103632000I0J-508000D01*
G01*
X179578000Y-110236000D02*
G75*
G03*
X180086000Y-109728000I0J508000D01*
G01*
X178054000Y-109728000D02*
G75*
G03*
X178562000Y-110236000I508000J0D01*
G01*
X202850000Y-82550000D02*
G75*
G03*
X202850000Y-82550000I-920000J0D01*
G01*
X201930000Y-81630000D02*
X201930000Y-81010000D01*
X199390000Y-81630000D02*
X199390000Y-81010000D01*
X200310000Y-82550000D02*
G75*
G03*
X200310000Y-82550000I-920000J0D01*
G01*
X197770000Y-82550000D02*
G75*
G03*
X197770000Y-82550000I-920000J0D01*
G01*
X196850000Y-81630000D02*
X196850000Y-81010000D01*
X194310000Y-81630000D02*
X194310000Y-81010000D01*
X195230000Y-82550000D02*
G75*
G03*
X195230000Y-82550000I-920000J0D01*
G01*
X146685000Y-86710000D02*
X146685000Y-86090000D01*
X147605000Y-87630000D02*
G75*
G03*
X147605000Y-87630000I-920000J0D01*
G01*
X145065000Y-87630000D02*
G75*
G03*
X145065000Y-87630000I-920000J0D01*
G01*
X144145000Y-86710000D02*
X144145000Y-86090000D01*
X147620000Y-83690000D02*
X140670000Y-83690000D01*
X147620000Y-78950000D02*
X140670000Y-78950000D01*
X147620000Y-83690000D02*
X147620000Y-83045000D01*
X147620000Y-82055000D02*
X147620000Y-78950000D01*
X140670000Y-83690000D02*
X140670000Y-83045000D01*
X140670000Y-82055000D02*
X140670000Y-78950000D01*
X160100000Y-123237500D02*
G75*
G03*
X160100000Y-123237500I-2620000J0D01*
G01*
X156440000Y-123237500D02*
X154900000Y-123237500D01*
X160060000Y-123237500D02*
X158520000Y-123237500D01*
X156440000Y-123277500D02*
X154900000Y-123277500D01*
X160060000Y-123277500D02*
X158520000Y-123277500D01*
X160059000Y-123317500D02*
X158520000Y-123317500D01*
X156440000Y-123317500D02*
X154901000Y-123317500D01*
X160058000Y-123357500D02*
X158520000Y-123357500D01*
X156440000Y-123357500D02*
X154902000Y-123357500D01*
X160056000Y-123397500D02*
X158520000Y-123397500D01*
X156440000Y-123397500D02*
X154904000Y-123397500D01*
X160053000Y-123437500D02*
X158520000Y-123437500D01*
X156440000Y-123437500D02*
X154907000Y-123437500D01*
X160049000Y-123477500D02*
X158520000Y-123477500D01*
X156440000Y-123477500D02*
X154911000Y-123477500D01*
X160045000Y-123517500D02*
X158520000Y-123517500D01*
X156440000Y-123517500D02*
X154915000Y-123517500D01*
X160041000Y-123557500D02*
X158520000Y-123557500D01*
X156440000Y-123557500D02*
X154919000Y-123557500D01*
X160036000Y-123597500D02*
X158520000Y-123597500D01*
X156440000Y-123597500D02*
X154924000Y-123597500D01*
X160030000Y-123637500D02*
X158520000Y-123637500D01*
X156440000Y-123637500D02*
X154930000Y-123637500D01*
X160023000Y-123677500D02*
X158520000Y-123677500D01*
X156440000Y-123677500D02*
X154937000Y-123677500D01*
X160016000Y-123717500D02*
X158520000Y-123717500D01*
X156440000Y-123717500D02*
X154944000Y-123717500D01*
X160008000Y-123757500D02*
X158520000Y-123757500D01*
X156440000Y-123757500D02*
X154952000Y-123757500D01*
X160000000Y-123797500D02*
X158520000Y-123797500D01*
X156440000Y-123797500D02*
X154960000Y-123797500D01*
X159991000Y-123837500D02*
X158520000Y-123837500D01*
X156440000Y-123837500D02*
X154969000Y-123837500D01*
X159981000Y-123877500D02*
X158520000Y-123877500D01*
X156440000Y-123877500D02*
X154979000Y-123877500D01*
X159971000Y-123917500D02*
X158520000Y-123917500D01*
X156440000Y-123917500D02*
X154989000Y-123917500D01*
X159960000Y-123958500D02*
X158520000Y-123958500D01*
X156440000Y-123958500D02*
X155000000Y-123958500D01*
X159948000Y-123998500D02*
X158520000Y-123998500D01*
X156440000Y-123998500D02*
X155012000Y-123998500D01*
X159935000Y-124038500D02*
X158520000Y-124038500D01*
X156440000Y-124038500D02*
X155025000Y-124038500D01*
X159922000Y-124078500D02*
X158520000Y-124078500D01*
X156440000Y-124078500D02*
X155038000Y-124078500D01*
X159908000Y-124118500D02*
X158520000Y-124118500D01*
X156440000Y-124118500D02*
X155052000Y-124118500D01*
X159894000Y-124158500D02*
X158520000Y-124158500D01*
X156440000Y-124158500D02*
X155066000Y-124158500D01*
X159878000Y-124198500D02*
X158520000Y-124198500D01*
X156440000Y-124198500D02*
X155082000Y-124198500D01*
X159862000Y-124238500D02*
X158520000Y-124238500D01*
X156440000Y-124238500D02*
X155098000Y-124238500D01*
X159845000Y-124278500D02*
X158520000Y-124278500D01*
X156440000Y-124278500D02*
X155115000Y-124278500D01*
X159828000Y-124318500D02*
X158520000Y-124318500D01*
X156440000Y-124318500D02*
X155132000Y-124318500D01*
X159809000Y-124358500D02*
X158520000Y-124358500D01*
X156440000Y-124358500D02*
X155151000Y-124358500D01*
X159790000Y-124398500D02*
X158520000Y-124398500D01*
X156440000Y-124398500D02*
X155170000Y-124398500D01*
X159770000Y-124438500D02*
X158520000Y-124438500D01*
X156440000Y-124438500D02*
X155190000Y-124438500D01*
X159748000Y-124478500D02*
X158520000Y-124478500D01*
X156440000Y-124478500D02*
X155212000Y-124478500D01*
X159727000Y-124518500D02*
X158520000Y-124518500D01*
X156440000Y-124518500D02*
X155233000Y-124518500D01*
X159704000Y-124558500D02*
X158520000Y-124558500D01*
X156440000Y-124558500D02*
X155256000Y-124558500D01*
X159680000Y-124598500D02*
X158520000Y-124598500D01*
X156440000Y-124598500D02*
X155280000Y-124598500D01*
X159655000Y-124638500D02*
X158520000Y-124638500D01*
X156440000Y-124638500D02*
X155305000Y-124638500D01*
X159629000Y-124678500D02*
X158520000Y-124678500D01*
X156440000Y-124678500D02*
X155331000Y-124678500D01*
X159602000Y-124718500D02*
X158520000Y-124718500D01*
X156440000Y-124718500D02*
X155358000Y-124718500D01*
X159575000Y-124758500D02*
X158520000Y-124758500D01*
X156440000Y-124758500D02*
X155385000Y-124758500D01*
X159545000Y-124798500D02*
X158520000Y-124798500D01*
X156440000Y-124798500D02*
X155415000Y-124798500D01*
X159515000Y-124838500D02*
X158520000Y-124838500D01*
X156440000Y-124838500D02*
X155445000Y-124838500D01*
X159484000Y-124878500D02*
X158520000Y-124878500D01*
X156440000Y-124878500D02*
X155476000Y-124878500D01*
X159451000Y-124918500D02*
X158520000Y-124918500D01*
X156440000Y-124918500D02*
X155509000Y-124918500D01*
X159417000Y-124958500D02*
X158520000Y-124958500D01*
X156440000Y-124958500D02*
X155543000Y-124958500D01*
X159381000Y-124998500D02*
X158520000Y-124998500D01*
X156440000Y-124998500D02*
X155579000Y-124998500D01*
X159344000Y-125038500D02*
X158520000Y-125038500D01*
X156440000Y-125038500D02*
X155616000Y-125038500D01*
X159306000Y-125078500D02*
X158520000Y-125078500D01*
X156440000Y-125078500D02*
X155654000Y-125078500D01*
X159265000Y-125118500D02*
X158520000Y-125118500D01*
X156440000Y-125118500D02*
X155695000Y-125118500D01*
X159223000Y-125158500D02*
X158520000Y-125158500D01*
X156440000Y-125158500D02*
X155737000Y-125158500D01*
X159179000Y-125198500D02*
X158520000Y-125198500D01*
X156440000Y-125198500D02*
X155781000Y-125198500D01*
X159133000Y-125238500D02*
X158520000Y-125238500D01*
X156440000Y-125238500D02*
X155827000Y-125238500D01*
X159085000Y-125278500D02*
X155875000Y-125278500D01*
X159034000Y-125318500D02*
X155926000Y-125318500D01*
X158980000Y-125358500D02*
X155980000Y-125358500D01*
X158923000Y-125398500D02*
X156037000Y-125398500D01*
X158863000Y-125438500D02*
X156097000Y-125438500D01*
X158799000Y-125478500D02*
X156161000Y-125478500D01*
X158731000Y-125518500D02*
X156229000Y-125518500D01*
X158658000Y-125558500D02*
X156302000Y-125558500D01*
X158578000Y-125598500D02*
X156382000Y-125598500D01*
X158491000Y-125638500D02*
X156469000Y-125638500D01*
X158395000Y-125678500D02*
X156565000Y-125678500D01*
X158285000Y-125718500D02*
X156675000Y-125718500D01*
X158157000Y-125758500D02*
X156803000Y-125758500D01*
X157998000Y-125798500D02*
X156962000Y-125798500D01*
X157764000Y-125838500D02*
X157196000Y-125838500D01*
X158955000Y-120432725D02*
X158955000Y-120932725D01*
X159205000Y-120682725D02*
X158705000Y-120682725D01*
X133350000Y-100680000D02*
X133350000Y-100060000D01*
X134270000Y-101600000D02*
G75*
G03*
X134270000Y-101600000I-920000J0D01*
G01*
D10*
X127134880Y-98210595D02*
X126134880Y-98210595D01*
X126134880Y-97972500D01*
X126182500Y-97829642D01*
X126277738Y-97734404D01*
X126372976Y-97686785D01*
X126563452Y-97639166D01*
X126706309Y-97639166D01*
X126896785Y-97686785D01*
X126992023Y-97734404D01*
X127087261Y-97829642D01*
X127134880Y-97972500D01*
X127134880Y-98210595D01*
X127134880Y-96686785D02*
X127134880Y-97258214D01*
X127134880Y-96972500D02*
X126134880Y-96972500D01*
X126277738Y-97067738D01*
X126372976Y-97162976D01*
X126420595Y-97258214D01*
X127039642Y-95592008D02*
X127087261Y-95636056D01*
X127134880Y-95756294D01*
X127134880Y-95832485D01*
X127087261Y-95940818D01*
X126992023Y-96005104D01*
X126896785Y-96031294D01*
X126706309Y-96045580D01*
X126563452Y-96027723D01*
X126372976Y-95965818D01*
X126277738Y-95915818D01*
X126182500Y-95827723D01*
X126134880Y-95707485D01*
X126134880Y-95631294D01*
X126182500Y-95522961D01*
X126230119Y-95490818D01*
X127134880Y-95261056D02*
X126134880Y-95136056D01*
X126134880Y-94831294D01*
X126182500Y-94761056D01*
X126230119Y-94728913D01*
X126325357Y-94702723D01*
X126468214Y-94720580D01*
X126563452Y-94770580D01*
X126611071Y-94814627D01*
X126658690Y-94896770D01*
X126658690Y-95201532D01*
X126134880Y-94336056D02*
X126944404Y-94437247D01*
X127039642Y-94411056D01*
X127087261Y-94378913D01*
X127134880Y-94308675D01*
X127134880Y-94156294D01*
X127087261Y-94074151D01*
X127039642Y-94030104D01*
X126944404Y-93980104D01*
X126134880Y-93878913D01*
X206041666Y-79779880D02*
X206041666Y-80494166D01*
X205994047Y-80637023D01*
X205898809Y-80732261D01*
X205755952Y-80779880D01*
X205660714Y-80779880D01*
X206470238Y-79875119D02*
X206517857Y-79827500D01*
X206613095Y-79779880D01*
X206851190Y-79779880D01*
X206946428Y-79827500D01*
X206994047Y-79875119D01*
X207041666Y-79970357D01*
X207041666Y-80065595D01*
X206994047Y-80208452D01*
X206422619Y-80779880D01*
X207041666Y-80779880D01*
X205466681Y-81684880D02*
X205377395Y-82399166D01*
X205321443Y-82542023D01*
X205233348Y-82637261D01*
X205113110Y-82684880D01*
X205036919Y-82684880D01*
X205733348Y-81684880D02*
X206190491Y-81684880D01*
X205836919Y-82684880D02*
X205961919Y-81684880D01*
X206329776Y-82399166D02*
X206710729Y-82399166D01*
X206217872Y-82684880D02*
X206609538Y-81684880D01*
X206751205Y-82684880D01*
X207555967Y-81732500D02*
X207485729Y-81684880D01*
X207371443Y-81684880D01*
X207251205Y-81732500D01*
X207163110Y-81827738D01*
X207113110Y-81922976D01*
X207051205Y-82113452D01*
X207033348Y-82256309D01*
X207047633Y-82446785D01*
X207073824Y-82542023D01*
X207138110Y-82637261D01*
X207246443Y-82684880D01*
X207322633Y-82684880D01*
X207442872Y-82637261D01*
X207486919Y-82589642D01*
X207528586Y-82256309D01*
X207376205Y-82256309D01*
X153122380Y-94741904D02*
X153931904Y-94741904D01*
X154027142Y-94694285D01*
X154074761Y-94646666D01*
X154122380Y-94551428D01*
X154122380Y-94360952D01*
X154074761Y-94265714D01*
X154027142Y-94218095D01*
X153931904Y-94170476D01*
X153122380Y-94170476D01*
X153122380Y-93218095D02*
X153122380Y-93694285D01*
X153598571Y-93741904D01*
X153550952Y-93694285D01*
X153503333Y-93599047D01*
X153503333Y-93360952D01*
X153550952Y-93265714D01*
X153598571Y-93218095D01*
X153693809Y-93170476D01*
X153931904Y-93170476D01*
X154027142Y-93218095D01*
X154074761Y-93265714D01*
X154122380Y-93360952D01*
X154122380Y-93599047D01*
X154074761Y-93694285D01*
X154027142Y-93741904D01*
X153836666Y-88957604D02*
X153836666Y-88576651D01*
X154122380Y-89069508D02*
X153122380Y-88677842D01*
X154122380Y-88536175D01*
X154122380Y-88269508D02*
X153122380Y-88144508D01*
X153122380Y-87954032D01*
X153170000Y-87845699D01*
X153265238Y-87781413D01*
X153360476Y-87755223D01*
X153550952Y-87740937D01*
X153693809Y-87758794D01*
X153884285Y-87820699D01*
X153979523Y-87870699D01*
X154074761Y-87958794D01*
X154122380Y-88079032D01*
X154122380Y-88269508D01*
X154122380Y-87469508D02*
X153122380Y-87344508D01*
X153836666Y-87167127D01*
X153122380Y-86811175D01*
X154122380Y-86936175D01*
X153122380Y-86087366D02*
X153122380Y-86239747D01*
X153170000Y-86321889D01*
X153217619Y-86365937D01*
X153360476Y-86459985D01*
X153550952Y-86521889D01*
X153931904Y-86569508D01*
X154027142Y-86543318D01*
X154074761Y-86511175D01*
X154122380Y-86440937D01*
X154122380Y-86288556D01*
X154074761Y-86206413D01*
X154027142Y-86162366D01*
X153931904Y-86112366D01*
X153693809Y-86082604D01*
X153598571Y-86108794D01*
X153550952Y-86140937D01*
X153503333Y-86211175D01*
X153503333Y-86363556D01*
X153550952Y-86445699D01*
X153598571Y-86489747D01*
X153693809Y-86539747D01*
X154122380Y-85755223D02*
X154122380Y-85602842D01*
X154074761Y-85520699D01*
X154027142Y-85476651D01*
X153884285Y-85382604D01*
X153693809Y-85320699D01*
X153312857Y-85273080D01*
X153217619Y-85299270D01*
X153170000Y-85331413D01*
X153122380Y-85401651D01*
X153122380Y-85554032D01*
X153170000Y-85636175D01*
X153217619Y-85680223D01*
X153312857Y-85730223D01*
X153550952Y-85759985D01*
X153646190Y-85733794D01*
X153693809Y-85701651D01*
X153741428Y-85631413D01*
X153741428Y-85479032D01*
X153693809Y-85396889D01*
X153646190Y-85352842D01*
X153550952Y-85302842D01*
X153122380Y-84982604D02*
X153122380Y-84487366D01*
X153503333Y-84801651D01*
X153503333Y-84687366D01*
X153550952Y-84617127D01*
X153598571Y-84584985D01*
X153693809Y-84558794D01*
X153931904Y-84588556D01*
X154027142Y-84638556D01*
X154074761Y-84682604D01*
X154122380Y-84764747D01*
X154122380Y-84993318D01*
X154074761Y-85063556D01*
X154027142Y-85095699D01*
X153836666Y-84271889D02*
X153836666Y-83890937D01*
X154122380Y-84383794D02*
X153122380Y-83992127D01*
X154122380Y-83850461D01*
X157988095Y-100417380D02*
X157988095Y-101226904D01*
X158035714Y-101322142D01*
X158083333Y-101369761D01*
X158178571Y-101417380D01*
X158369047Y-101417380D01*
X158464285Y-101369761D01*
X158511904Y-101322142D01*
X158559523Y-101226904D01*
X158559523Y-100417380D01*
X159464285Y-100750714D02*
X159464285Y-101417380D01*
X159226190Y-100369761D02*
X158988095Y-101084047D01*
X159607142Y-101084047D01*
X177507514Y-102592166D02*
X177888467Y-102592166D01*
X177395610Y-102877880D02*
X177787276Y-101877880D01*
X177928943Y-102877880D01*
X178206324Y-101877880D02*
X178663467Y-101877880D01*
X178309895Y-102877880D02*
X178434895Y-101877880D01*
X179137276Y-102354071D02*
X178870610Y-102354071D01*
X178805133Y-102877880D02*
X178930133Y-101877880D01*
X179311086Y-101877880D01*
X179909895Y-102877880D02*
X179452752Y-102877880D01*
X179681324Y-102877880D02*
X179806324Y-101877880D01*
X179712276Y-102020738D01*
X179624181Y-102115976D01*
X179542038Y-102163595D01*
X180758705Y-101877880D02*
X180377752Y-101877880D01*
X180280133Y-102354071D01*
X180324181Y-102306452D01*
X180406324Y-102258833D01*
X180596800Y-102258833D01*
X180667038Y-102306452D01*
X180699181Y-102354071D01*
X180725372Y-102449309D01*
X180695610Y-102687404D01*
X180645610Y-102782642D01*
X180601562Y-102830261D01*
X180519419Y-102877880D01*
X180328943Y-102877880D01*
X180258705Y-102830261D01*
X180226562Y-102782642D01*
X181292038Y-101877880D02*
X181368229Y-101877880D01*
X181438467Y-101925500D01*
X181470610Y-101973119D01*
X181496800Y-102068357D01*
X181511086Y-102258833D01*
X181481324Y-102496928D01*
X181419419Y-102687404D01*
X181369419Y-102782642D01*
X181325372Y-102830261D01*
X181243229Y-102877880D01*
X181167038Y-102877880D01*
X181096800Y-102830261D01*
X181064657Y-102782642D01*
X181038467Y-102687404D01*
X181024181Y-102496928D01*
X181053943Y-102258833D01*
X181115848Y-102068357D01*
X181165848Y-101973119D01*
X181209895Y-101925500D01*
X181292038Y-101877880D01*
X182202752Y-102211214D02*
X182119419Y-102877880D01*
X182059895Y-101830261D02*
X181780133Y-102544547D01*
X182275372Y-102544547D01*
X182536086Y-102592166D02*
X182917038Y-102592166D01*
X182424181Y-102877880D02*
X182815848Y-101877880D01*
X182957514Y-102877880D01*
X183192038Y-102830261D02*
X183300372Y-102877880D01*
X183490848Y-102877880D01*
X183572991Y-102830261D01*
X183617038Y-102782642D01*
X183667038Y-102687404D01*
X183678943Y-102592166D01*
X183652752Y-102496928D01*
X183620610Y-102449309D01*
X183550372Y-102401690D01*
X183403943Y-102354071D01*
X183333705Y-102306452D01*
X183301562Y-102258833D01*
X183275372Y-102163595D01*
X183287276Y-102068357D01*
X183337276Y-101973119D01*
X183381324Y-101925500D01*
X183463467Y-101877880D01*
X183653943Y-101877880D01*
X183762276Y-101925500D01*
X192278095Y-92479880D02*
X192278095Y-93289404D01*
X192325714Y-93384642D01*
X192373333Y-93432261D01*
X192468571Y-93479880D01*
X192659047Y-93479880D01*
X192754285Y-93432261D01*
X192801904Y-93384642D01*
X192849523Y-93289404D01*
X192849523Y-92479880D01*
X193278095Y-92575119D02*
X193325714Y-92527500D01*
X193420952Y-92479880D01*
X193659047Y-92479880D01*
X193754285Y-92527500D01*
X193801904Y-92575119D01*
X193849523Y-92670357D01*
X193849523Y-92765595D01*
X193801904Y-92908452D01*
X193230476Y-93479880D01*
X193849523Y-93479880D01*
X189720610Y-95019761D02*
X189828943Y-95067380D01*
X190019419Y-95067380D01*
X190101562Y-95019761D01*
X190145610Y-94972142D01*
X190195610Y-94876904D01*
X190207514Y-94781666D01*
X190181324Y-94686428D01*
X190149181Y-94638809D01*
X190078943Y-94591190D01*
X189932514Y-94543571D01*
X189862276Y-94495952D01*
X189830133Y-94448333D01*
X189803943Y-94353095D01*
X189815848Y-94257857D01*
X189865848Y-94162619D01*
X189909895Y-94115000D01*
X189992038Y-94067380D01*
X190182514Y-94067380D01*
X190290848Y-94115000D01*
X190482514Y-95019761D02*
X190590848Y-95067380D01*
X190781324Y-95067380D01*
X190863467Y-95019761D01*
X190907514Y-94972142D01*
X190957514Y-94876904D01*
X190969419Y-94781666D01*
X190943229Y-94686428D01*
X190911086Y-94638809D01*
X190840848Y-94591190D01*
X190694419Y-94543571D01*
X190624181Y-94495952D01*
X190592038Y-94448333D01*
X190565848Y-94353095D01*
X190577752Y-94257857D01*
X190627752Y-94162619D01*
X190671800Y-94115000D01*
X190753943Y-94067380D01*
X190944419Y-94067380D01*
X191052752Y-94115000D01*
X191287276Y-94067380D02*
X191744419Y-94067380D01*
X191390848Y-95067380D02*
X191515848Y-94067380D01*
X191934895Y-94067380D02*
X192430133Y-94067380D01*
X192115848Y-94448333D01*
X192230133Y-94448333D01*
X192300372Y-94495952D01*
X192332514Y-94543571D01*
X192358705Y-94638809D01*
X192328943Y-94876904D01*
X192278943Y-94972142D01*
X192234895Y-95019761D01*
X192152752Y-95067380D01*
X191924181Y-95067380D01*
X191853943Y-95019761D01*
X191821800Y-94972142D01*
X192686086Y-95067380D02*
X192838467Y-95067380D01*
X192920610Y-95019761D01*
X192964657Y-94972142D01*
X193058705Y-94829285D01*
X193120610Y-94638809D01*
X193168229Y-94257857D01*
X193142038Y-94162619D01*
X193109895Y-94115000D01*
X193039657Y-94067380D01*
X192887276Y-94067380D01*
X192805133Y-94115000D01*
X192761086Y-94162619D01*
X192711086Y-94257857D01*
X192681324Y-94495952D01*
X192707514Y-94591190D01*
X192739657Y-94638809D01*
X192809895Y-94686428D01*
X192962276Y-94686428D01*
X193044419Y-94638809D01*
X193088467Y-94591190D01*
X193138467Y-94495952D01*
X193377752Y-95019761D02*
X193486086Y-95067380D01*
X193676562Y-95067380D01*
X193758705Y-95019761D01*
X193802752Y-94972142D01*
X193852752Y-94876904D01*
X193864657Y-94781666D01*
X193838467Y-94686428D01*
X193806324Y-94638809D01*
X193736086Y-94591190D01*
X193589657Y-94543571D01*
X193519419Y-94495952D01*
X193487276Y-94448333D01*
X193461086Y-94353095D01*
X193472991Y-94257857D01*
X193522991Y-94162619D01*
X193567038Y-94115000D01*
X193649181Y-94067380D01*
X193839657Y-94067380D01*
X193947991Y-94115000D01*
X194503943Y-94543571D02*
X194237276Y-94543571D01*
X194171800Y-95067380D02*
X194296800Y-94067380D01*
X194677752Y-94067380D01*
X195134895Y-94067380D02*
X195211086Y-94067380D01*
X195281324Y-94115000D01*
X195313467Y-94162619D01*
X195339657Y-94257857D01*
X195353943Y-94448333D01*
X195324181Y-94686428D01*
X195262276Y-94876904D01*
X195212276Y-94972142D01*
X195168229Y-95019761D01*
X195086086Y-95067380D01*
X195009895Y-95067380D01*
X194939657Y-95019761D01*
X194907514Y-94972142D01*
X194881324Y-94876904D01*
X194867038Y-94686428D01*
X194896800Y-94448333D01*
X194958705Y-94257857D01*
X195008705Y-94162619D01*
X195052752Y-94115000D01*
X195134895Y-94067380D01*
X196045610Y-94400714D02*
X195962276Y-95067380D01*
X195902752Y-94019761D02*
X195622991Y-94734047D01*
X196118229Y-94734047D01*
X196658705Y-94067380D02*
X196734895Y-94067380D01*
X196805133Y-94115000D01*
X196837276Y-94162619D01*
X196863467Y-94257857D01*
X196877752Y-94448333D01*
X196847991Y-94686428D01*
X196786086Y-94876904D01*
X196736086Y-94972142D01*
X196692038Y-95019761D01*
X196609895Y-95067380D01*
X196533705Y-95067380D01*
X196463467Y-95019761D01*
X196431324Y-94972142D01*
X196405133Y-94876904D01*
X196390848Y-94686428D01*
X196420610Y-94448333D01*
X196482514Y-94257857D01*
X196532514Y-94162619D01*
X196576562Y-94115000D01*
X196658705Y-94067380D01*
X192278095Y-110259880D02*
X192278095Y-111069404D01*
X192325714Y-111164642D01*
X192373333Y-111212261D01*
X192468571Y-111259880D01*
X192659047Y-111259880D01*
X192754285Y-111212261D01*
X192801904Y-111164642D01*
X192849523Y-111069404D01*
X192849523Y-110259880D01*
X193230476Y-110259880D02*
X193849523Y-110259880D01*
X193516190Y-110640833D01*
X193659047Y-110640833D01*
X193754285Y-110688452D01*
X193801904Y-110736071D01*
X193849523Y-110831309D01*
X193849523Y-111069404D01*
X193801904Y-111164642D01*
X193754285Y-111212261D01*
X193659047Y-111259880D01*
X193373333Y-111259880D01*
X193278095Y-111212261D01*
X193230476Y-111164642D01*
X190099538Y-113704666D02*
X190480491Y-113704666D01*
X189987633Y-113990380D02*
X190379300Y-112990380D01*
X190520967Y-113990380D01*
X190755491Y-113942761D02*
X190863824Y-113990380D01*
X191054300Y-113990380D01*
X191136443Y-113942761D01*
X191180491Y-113895142D01*
X191230491Y-113799904D01*
X191242395Y-113704666D01*
X191216205Y-113609428D01*
X191184062Y-113561809D01*
X191113824Y-113514190D01*
X190967395Y-113466571D01*
X190897157Y-113418952D01*
X190865014Y-113371333D01*
X190838824Y-113276095D01*
X190850729Y-113180857D01*
X190900729Y-113085619D01*
X190944776Y-113038000D01*
X191026919Y-112990380D01*
X191217395Y-112990380D01*
X191325729Y-113038000D01*
X192017395Y-112990380D02*
X191865014Y-112990380D01*
X191782872Y-113038000D01*
X191738824Y-113085619D01*
X191644776Y-113228476D01*
X191582872Y-113418952D01*
X191535252Y-113799904D01*
X191561443Y-113895142D01*
X191593586Y-113942761D01*
X191663824Y-113990380D01*
X191816205Y-113990380D01*
X191898348Y-113942761D01*
X191942395Y-113895142D01*
X191992395Y-113799904D01*
X192022157Y-113561809D01*
X191995967Y-113466571D01*
X191963824Y-113418952D01*
X191893586Y-113371333D01*
X191741205Y-113371333D01*
X191659062Y-113418952D01*
X191615014Y-113466571D01*
X191565014Y-113561809D01*
X192780491Y-113895142D02*
X192736443Y-113942761D01*
X192616205Y-113990380D01*
X192540014Y-113990380D01*
X192431681Y-113942761D01*
X192367395Y-113847523D01*
X192341205Y-113752285D01*
X192326919Y-113561809D01*
X192344776Y-113418952D01*
X192406681Y-113228476D01*
X192456681Y-113133238D01*
X192544776Y-113038000D01*
X192665014Y-112990380D01*
X192741205Y-112990380D01*
X192849538Y-113038000D01*
X192881681Y-113085619D01*
X193537633Y-113323714D02*
X193454300Y-113990380D01*
X193394776Y-112942761D02*
X193115014Y-113657047D01*
X193610252Y-113657047D01*
X194150729Y-112990380D02*
X194226919Y-112990380D01*
X194297157Y-113038000D01*
X194329300Y-113085619D01*
X194355491Y-113180857D01*
X194369776Y-113371333D01*
X194340014Y-113609428D01*
X194278110Y-113799904D01*
X194228110Y-113895142D01*
X194184062Y-113942761D01*
X194101919Y-113990380D01*
X194025729Y-113990380D01*
X193955491Y-113942761D01*
X193923348Y-113895142D01*
X193897157Y-113799904D01*
X193882872Y-113609428D01*
X193912633Y-113371333D01*
X193974538Y-113180857D01*
X194024538Y-113085619D01*
X194068586Y-113038000D01*
X194150729Y-112990380D01*
X194912633Y-112990380D02*
X194988824Y-112990380D01*
X195059062Y-113038000D01*
X195091205Y-113085619D01*
X195117395Y-113180857D01*
X195131681Y-113371333D01*
X195101919Y-113609428D01*
X195040014Y-113799904D01*
X194990014Y-113895142D01*
X194945967Y-113942761D01*
X194863824Y-113990380D01*
X194787633Y-113990380D01*
X194717395Y-113942761D01*
X194685252Y-113895142D01*
X194659062Y-113799904D01*
X194644776Y-113609428D01*
X194674538Y-113371333D01*
X194736443Y-113180857D01*
X194786443Y-113085619D01*
X194830491Y-113038000D01*
X194912633Y-112990380D01*
X195582872Y-113418952D02*
X195512633Y-113371333D01*
X195480491Y-113323714D01*
X195454300Y-113228476D01*
X195460252Y-113180857D01*
X195510252Y-113085619D01*
X195554300Y-113038000D01*
X195636443Y-112990380D01*
X195788824Y-112990380D01*
X195859062Y-113038000D01*
X195891205Y-113085619D01*
X195917395Y-113180857D01*
X195911443Y-113228476D01*
X195861443Y-113323714D01*
X195817395Y-113371333D01*
X195735252Y-113418952D01*
X195582872Y-113418952D01*
X195500729Y-113466571D01*
X195456681Y-113514190D01*
X195406681Y-113609428D01*
X195382872Y-113799904D01*
X195409062Y-113895142D01*
X195441205Y-113942761D01*
X195511443Y-113990380D01*
X195663824Y-113990380D01*
X195745967Y-113942761D01*
X195790014Y-113895142D01*
X195840014Y-113799904D01*
X195863824Y-113609428D01*
X195837633Y-113514190D01*
X195805491Y-113466571D01*
X195735252Y-113418952D01*
X133858095Y-109624880D02*
X133858095Y-110434404D01*
X133905714Y-110529642D01*
X133953333Y-110577261D01*
X134048571Y-110624880D01*
X134239047Y-110624880D01*
X134334285Y-110577261D01*
X134381904Y-110529642D01*
X134429523Y-110434404D01*
X134429523Y-109624880D01*
X135429523Y-110624880D02*
X134858095Y-110624880D01*
X135143809Y-110624880D02*
X135143809Y-109624880D01*
X135048571Y-109767738D01*
X134953333Y-109862976D01*
X134858095Y-109910595D01*
X132454538Y-112164880D02*
X132987872Y-112164880D01*
X132329538Y-113164880D01*
X132862872Y-113164880D01*
X133353348Y-112593452D02*
X133283110Y-112545833D01*
X133250967Y-112498214D01*
X133224776Y-112402976D01*
X133230729Y-112355357D01*
X133280729Y-112260119D01*
X133324776Y-112212500D01*
X133406919Y-112164880D01*
X133559300Y-112164880D01*
X133629538Y-112212500D01*
X133661681Y-112260119D01*
X133687872Y-112355357D01*
X133681919Y-112402976D01*
X133631919Y-112498214D01*
X133587872Y-112545833D01*
X133505729Y-112593452D01*
X133353348Y-112593452D01*
X133271205Y-112641071D01*
X133227157Y-112688690D01*
X133177157Y-112783928D01*
X133153348Y-112974404D01*
X133179538Y-113069642D01*
X133211681Y-113117261D01*
X133281919Y-113164880D01*
X133434300Y-113164880D01*
X133516443Y-113117261D01*
X133560491Y-113069642D01*
X133610491Y-112974404D01*
X133634300Y-112783928D01*
X133608110Y-112688690D01*
X133575967Y-112641071D01*
X133505729Y-112593452D01*
X134355729Y-112498214D02*
X134272395Y-113164880D01*
X134212872Y-112117261D02*
X133933110Y-112831547D01*
X134428348Y-112831547D01*
X135160491Y-113069642D02*
X135116443Y-113117261D01*
X134996205Y-113164880D01*
X134920014Y-113164880D01*
X134811681Y-113117261D01*
X134747395Y-113022023D01*
X134721205Y-112926785D01*
X134706919Y-112736309D01*
X134724776Y-112593452D01*
X134786681Y-112402976D01*
X134836681Y-112307738D01*
X134924776Y-112212500D01*
X135045014Y-112164880D01*
X135121205Y-112164880D01*
X135229538Y-112212500D01*
X135261681Y-112260119D01*
X135768824Y-112164880D02*
X135845014Y-112164880D01*
X135915252Y-112212500D01*
X135947395Y-112260119D01*
X135973586Y-112355357D01*
X135987872Y-112545833D01*
X135958110Y-112783928D01*
X135896205Y-112974404D01*
X135846205Y-113069642D01*
X135802157Y-113117261D01*
X135720014Y-113164880D01*
X135643824Y-113164880D01*
X135573586Y-113117261D01*
X135541443Y-113069642D01*
X135515252Y-112974404D01*
X135500967Y-112783928D01*
X135530729Y-112545833D01*
X135592633Y-112355357D01*
X135642633Y-112260119D01*
X135686681Y-112212500D01*
X135768824Y-112164880D01*
X136530729Y-112164880D02*
X136606919Y-112164880D01*
X136677157Y-112212500D01*
X136709300Y-112260119D01*
X136735491Y-112355357D01*
X136749776Y-112545833D01*
X136720014Y-112783928D01*
X136658110Y-112974404D01*
X136608110Y-113069642D01*
X136564062Y-113117261D01*
X136481919Y-113164880D01*
X136405729Y-113164880D01*
X136335491Y-113117261D01*
X136303348Y-113069642D01*
X136277157Y-112974404D01*
X136262872Y-112783928D01*
X136292633Y-112545833D01*
X136354538Y-112355357D01*
X136404538Y-112260119D01*
X136448586Y-112212500D01*
X136530729Y-112164880D01*
X132167380Y-91614523D02*
X133167380Y-90947857D01*
X132167380Y-90947857D02*
X133167380Y-91614523D01*
X133167380Y-90043095D02*
X133167380Y-90614523D01*
X133167380Y-90328809D02*
X132167380Y-90328809D01*
X132310238Y-90424047D01*
X132405476Y-90519285D01*
X132453095Y-90614523D01*
X133754880Y-93960937D02*
X133754880Y-93427604D01*
X134754880Y-93895461D01*
X134659642Y-93235937D02*
X134707261Y-93203794D01*
X134754880Y-93247842D01*
X134707261Y-93279985D01*
X134659642Y-93235937D01*
X134754880Y-93247842D01*
X133754880Y-92818080D02*
X133754880Y-92322842D01*
X134135833Y-92637127D01*
X134135833Y-92522842D01*
X134183452Y-92452604D01*
X134231071Y-92420461D01*
X134326309Y-92394270D01*
X134564404Y-92424032D01*
X134659642Y-92474032D01*
X134707261Y-92518080D01*
X134754880Y-92600223D01*
X134754880Y-92828794D01*
X134707261Y-92899032D01*
X134659642Y-92931175D01*
X133754880Y-92056175D02*
X133754880Y-91522842D01*
X134754880Y-91990699D01*
X133850119Y-91268080D02*
X133802500Y-91224032D01*
X133754880Y-91141889D01*
X133754880Y-90951413D01*
X133802500Y-90881175D01*
X133850119Y-90849032D01*
X133945357Y-90822842D01*
X134040595Y-90834747D01*
X134183452Y-90890699D01*
X134754880Y-91419270D01*
X134754880Y-90924032D01*
X134183452Y-90395461D02*
X134135833Y-90465699D01*
X134088214Y-90497842D01*
X133992976Y-90524032D01*
X133945357Y-90518080D01*
X133850119Y-90468080D01*
X133802500Y-90424032D01*
X133754880Y-90341889D01*
X133754880Y-90189508D01*
X133802500Y-90119270D01*
X133850119Y-90087127D01*
X133945357Y-90060937D01*
X133992976Y-90066889D01*
X134088214Y-90116889D01*
X134135833Y-90160937D01*
X134183452Y-90243080D01*
X134183452Y-90395461D01*
X134231071Y-90477604D01*
X134278690Y-90521651D01*
X134373928Y-90571651D01*
X134564404Y-90595461D01*
X134659642Y-90569270D01*
X134707261Y-90537127D01*
X134754880Y-90466889D01*
X134754880Y-90314508D01*
X134707261Y-90232366D01*
X134659642Y-90188318D01*
X134564404Y-90138318D01*
X134373928Y-90114508D01*
X134278690Y-90140699D01*
X134231071Y-90172842D01*
X134183452Y-90243080D01*
X134754880Y-89819270D02*
X133754880Y-89694270D01*
X134469166Y-89516889D01*
X133754880Y-89160937D01*
X134754880Y-89285937D01*
X134754880Y-88904985D02*
X133754880Y-88779985D01*
X134231071Y-88839508D02*
X134231071Y-88382366D01*
X134754880Y-88447842D02*
X133754880Y-88322842D01*
X134088214Y-88059747D02*
X134088214Y-87640699D01*
X134754880Y-88143080D01*
X134754880Y-87724032D01*
X180006666Y-113117380D02*
X180006666Y-113831666D01*
X179959047Y-113974523D01*
X179863809Y-114069761D01*
X179720952Y-114117380D01*
X179625714Y-114117380D01*
X181006666Y-114117380D02*
X180435238Y-114117380D01*
X180720952Y-114117380D02*
X180720952Y-113117380D01*
X180625714Y-113260238D01*
X180530476Y-113355476D01*
X180435238Y-113403095D01*
X179050729Y-114704880D02*
X179192395Y-115704880D01*
X179584062Y-114704880D01*
X180057872Y-115181071D02*
X180166205Y-115228690D01*
X180198348Y-115276309D01*
X180224538Y-115371547D01*
X180206681Y-115514404D01*
X180156681Y-115609642D01*
X180112633Y-115657261D01*
X180030491Y-115704880D01*
X179725729Y-115704880D01*
X179850729Y-114704880D01*
X180117395Y-114704880D01*
X180187633Y-114752500D01*
X180219776Y-114800119D01*
X180245967Y-114895357D01*
X180234062Y-114990595D01*
X180184062Y-115085833D01*
X180140014Y-115133452D01*
X180057872Y-115181071D01*
X179791205Y-115181071D01*
X180523348Y-115419166D02*
X180904300Y-115419166D01*
X180411443Y-115704880D02*
X180803110Y-114704880D01*
X180944776Y-115704880D01*
X181222157Y-114704880D02*
X181679300Y-114704880D01*
X181325729Y-115704880D02*
X181450729Y-114704880D01*
X197429523Y-124594880D02*
X197096190Y-124118690D01*
X196858095Y-124594880D02*
X196858095Y-123594880D01*
X197239047Y-123594880D01*
X197334285Y-123642500D01*
X197381904Y-123690119D01*
X197429523Y-123785357D01*
X197429523Y-123928214D01*
X197381904Y-124023452D01*
X197334285Y-124071071D01*
X197239047Y-124118690D01*
X196858095Y-124118690D01*
X197858095Y-124594880D02*
X197858095Y-123594880D01*
X198429523Y-124594880D01*
X198429523Y-123594880D01*
X199429523Y-124594880D02*
X198858095Y-124594880D01*
X199143809Y-124594880D02*
X199143809Y-123594880D01*
X199048571Y-123737738D01*
X198953333Y-123832976D01*
X198858095Y-123880595D01*
X202440491Y-123928214D02*
X202357157Y-124594880D01*
X202297633Y-123547261D02*
X202017872Y-124261547D01*
X202513110Y-124261547D01*
X202788110Y-124499642D02*
X202820252Y-124547261D01*
X202776205Y-124594880D01*
X202744062Y-124547261D01*
X202788110Y-124499642D01*
X202776205Y-124594880D01*
X203205967Y-123594880D02*
X203739300Y-123594880D01*
X203271443Y-124594880D01*
X203919062Y-124594880D02*
X204044062Y-123594880D01*
X204042872Y-124213928D02*
X204223824Y-124594880D01*
X204307157Y-123928214D02*
X203954776Y-124309166D01*
X160917023Y-124912380D02*
X160583690Y-124436190D01*
X160345595Y-124912380D02*
X160345595Y-123912380D01*
X160726547Y-123912380D01*
X160821785Y-123960000D01*
X160869404Y-124007619D01*
X160917023Y-124102857D01*
X160917023Y-124245714D01*
X160869404Y-124340952D01*
X160821785Y-124388571D01*
X160726547Y-124436190D01*
X160345595Y-124436190D01*
X161345595Y-124912380D02*
X161345595Y-123912380D01*
X161917023Y-124912380D01*
X161917023Y-123912380D01*
X162345595Y-124007619D02*
X162393214Y-123960000D01*
X162488452Y-123912380D01*
X162726547Y-123912380D01*
X162821785Y-123960000D01*
X162869404Y-124007619D01*
X162917023Y-124102857D01*
X162917023Y-124198095D01*
X162869404Y-124340952D01*
X162297976Y-124912380D01*
X162917023Y-124912380D01*
X164340491Y-124245714D02*
X164257157Y-124912380D01*
X164197633Y-123864761D02*
X163917872Y-124579047D01*
X164413110Y-124579047D01*
X164688110Y-124817142D02*
X164720252Y-124864761D01*
X164676205Y-124912380D01*
X164644062Y-124864761D01*
X164688110Y-124817142D01*
X164676205Y-124912380D01*
X165105967Y-123912380D02*
X165639300Y-123912380D01*
X165171443Y-124912380D01*
X165819062Y-124912380D02*
X165944062Y-123912380D01*
X165942872Y-124531428D02*
X166123824Y-124912380D01*
X166207157Y-124245714D02*
X165854776Y-124626666D01*
X184062642Y-81446666D02*
X184110261Y-81494285D01*
X184157880Y-81637142D01*
X184157880Y-81732380D01*
X184110261Y-81875238D01*
X184015023Y-81970476D01*
X183919785Y-82018095D01*
X183729309Y-82065714D01*
X183586452Y-82065714D01*
X183395976Y-82018095D01*
X183300738Y-81970476D01*
X183205500Y-81875238D01*
X183157880Y-81732380D01*
X183157880Y-81637142D01*
X183205500Y-81494285D01*
X183253119Y-81446666D01*
X183157880Y-80589523D02*
X183157880Y-80780000D01*
X183205500Y-80875238D01*
X183253119Y-80922857D01*
X183395976Y-81018095D01*
X183586452Y-81065714D01*
X183967404Y-81065714D01*
X184062642Y-81018095D01*
X184110261Y-80970476D01*
X184157880Y-80875238D01*
X184157880Y-80684761D01*
X184110261Y-80589523D01*
X184062642Y-80541904D01*
X183967404Y-80494285D01*
X183729309Y-80494285D01*
X183634071Y-80541904D01*
X183586452Y-80589523D01*
X183538833Y-80684761D01*
X183538833Y-80875238D01*
X183586452Y-80970476D01*
X183634071Y-81018095D01*
X183729309Y-81065714D01*
X186685419Y-81732380D02*
X186228276Y-81732380D01*
X186456848Y-81732380D02*
X186581848Y-80732380D01*
X186487800Y-80875238D01*
X186399705Y-80970476D01*
X186317562Y-81018095D01*
X187305657Y-80732380D02*
X187381848Y-80732380D01*
X187452086Y-80780000D01*
X187484229Y-80827619D01*
X187510419Y-80922857D01*
X187524705Y-81113333D01*
X187494943Y-81351428D01*
X187433038Y-81541904D01*
X187383038Y-81637142D01*
X187338991Y-81684761D01*
X187256848Y-81732380D01*
X187180657Y-81732380D01*
X187110419Y-81684761D01*
X187078276Y-81637142D01*
X187052086Y-81541904D01*
X187037800Y-81351428D01*
X187067562Y-81113333D01*
X187129467Y-80922857D01*
X187179467Y-80827619D01*
X187223514Y-80780000D01*
X187305657Y-80732380D01*
X188067562Y-80732380D02*
X188143752Y-80732380D01*
X188213991Y-80780000D01*
X188246133Y-80827619D01*
X188272324Y-80922857D01*
X188286610Y-81113333D01*
X188256848Y-81351428D01*
X188194943Y-81541904D01*
X188144943Y-81637142D01*
X188100895Y-81684761D01*
X188018752Y-81732380D01*
X187942562Y-81732380D01*
X187872324Y-81684761D01*
X187840181Y-81637142D01*
X187813991Y-81541904D01*
X187799705Y-81351428D01*
X187829467Y-81113333D01*
X187891372Y-80922857D01*
X187941372Y-80827619D01*
X187985419Y-80780000D01*
X188067562Y-80732380D01*
X188635419Y-81065714D02*
X188552086Y-81732380D01*
X188623514Y-81160952D02*
X188667562Y-81113333D01*
X188749705Y-81065714D01*
X188863991Y-81065714D01*
X188934229Y-81113333D01*
X188960419Y-81208571D01*
X188894943Y-81732380D01*
X189608038Y-81208571D02*
X189341372Y-81208571D01*
X189275895Y-81732380D02*
X189400895Y-80732380D01*
X189781848Y-80732380D01*
X184062642Y-83986666D02*
X184110261Y-84034285D01*
X184157880Y-84177142D01*
X184157880Y-84272380D01*
X184110261Y-84415238D01*
X184015023Y-84510476D01*
X183919785Y-84558095D01*
X183729309Y-84605714D01*
X183586452Y-84605714D01*
X183395976Y-84558095D01*
X183300738Y-84510476D01*
X183205500Y-84415238D01*
X183157880Y-84272380D01*
X183157880Y-84177142D01*
X183205500Y-84034285D01*
X183253119Y-83986666D01*
X183253119Y-83605714D02*
X183205500Y-83558095D01*
X183157880Y-83462857D01*
X183157880Y-83224761D01*
X183205500Y-83129523D01*
X183253119Y-83081904D01*
X183348357Y-83034285D01*
X183443595Y-83034285D01*
X183586452Y-83081904D01*
X184157880Y-83653333D01*
X184157880Y-83034285D01*
X186685419Y-84272380D02*
X186228276Y-84272380D01*
X186456848Y-84272380D02*
X186581848Y-83272380D01*
X186487800Y-83415238D01*
X186399705Y-83510476D01*
X186317562Y-83558095D01*
X187305657Y-83272380D02*
X187381848Y-83272380D01*
X187452086Y-83320000D01*
X187484229Y-83367619D01*
X187510419Y-83462857D01*
X187524705Y-83653333D01*
X187494943Y-83891428D01*
X187433038Y-84081904D01*
X187383038Y-84177142D01*
X187338991Y-84224761D01*
X187256848Y-84272380D01*
X187180657Y-84272380D01*
X187110419Y-84224761D01*
X187078276Y-84177142D01*
X187052086Y-84081904D01*
X187037800Y-83891428D01*
X187067562Y-83653333D01*
X187129467Y-83462857D01*
X187179467Y-83367619D01*
X187223514Y-83320000D01*
X187305657Y-83272380D01*
X188067562Y-83272380D02*
X188143752Y-83272380D01*
X188213991Y-83320000D01*
X188246133Y-83367619D01*
X188272324Y-83462857D01*
X188286610Y-83653333D01*
X188256848Y-83891428D01*
X188194943Y-84081904D01*
X188144943Y-84177142D01*
X188100895Y-84224761D01*
X188018752Y-84272380D01*
X187942562Y-84272380D01*
X187872324Y-84224761D01*
X187840181Y-84177142D01*
X187813991Y-84081904D01*
X187799705Y-83891428D01*
X187829467Y-83653333D01*
X187891372Y-83462857D01*
X187941372Y-83367619D01*
X187985419Y-83320000D01*
X188067562Y-83272380D01*
X188635419Y-83605714D02*
X188552086Y-84272380D01*
X188623514Y-83700952D02*
X188667562Y-83653333D01*
X188749705Y-83605714D01*
X188863991Y-83605714D01*
X188934229Y-83653333D01*
X188960419Y-83748571D01*
X188894943Y-84272380D01*
X189608038Y-83748571D02*
X189341372Y-83748571D01*
X189275895Y-84272380D02*
X189400895Y-83272380D01*
X189781848Y-83272380D01*
X136358333Y-86082142D02*
X136310714Y-86129761D01*
X136167857Y-86177380D01*
X136072619Y-86177380D01*
X135929761Y-86129761D01*
X135834523Y-86034523D01*
X135786904Y-85939285D01*
X135739285Y-85748809D01*
X135739285Y-85605952D01*
X135786904Y-85415476D01*
X135834523Y-85320238D01*
X135929761Y-85225000D01*
X136072619Y-85177380D01*
X136167857Y-85177380D01*
X136310714Y-85225000D01*
X136358333Y-85272619D01*
X136691666Y-85177380D02*
X137358333Y-85177380D01*
X136929761Y-86177380D01*
X137726919Y-88082380D02*
X137269776Y-88082380D01*
X137498348Y-88082380D02*
X137623348Y-87082380D01*
X137529300Y-87225238D01*
X137441205Y-87320476D01*
X137359062Y-87368095D01*
X138347157Y-87082380D02*
X138423348Y-87082380D01*
X138493586Y-87130000D01*
X138525729Y-87177619D01*
X138551919Y-87272857D01*
X138566205Y-87463333D01*
X138536443Y-87701428D01*
X138474538Y-87891904D01*
X138424538Y-87987142D01*
X138380491Y-88034761D01*
X138298348Y-88082380D01*
X138222157Y-88082380D01*
X138151919Y-88034761D01*
X138119776Y-87987142D01*
X138093586Y-87891904D01*
X138079300Y-87701428D01*
X138109062Y-87463333D01*
X138170967Y-87272857D01*
X138220967Y-87177619D01*
X138265014Y-87130000D01*
X138347157Y-87082380D01*
X139109062Y-87082380D02*
X139185252Y-87082380D01*
X139255491Y-87130000D01*
X139287633Y-87177619D01*
X139313824Y-87272857D01*
X139328110Y-87463333D01*
X139298348Y-87701428D01*
X139236443Y-87891904D01*
X139186443Y-87987142D01*
X139142395Y-88034761D01*
X139060252Y-88082380D01*
X138984062Y-88082380D01*
X138913824Y-88034761D01*
X138881681Y-87987142D01*
X138855491Y-87891904D01*
X138841205Y-87701428D01*
X138870967Y-87463333D01*
X138932872Y-87272857D01*
X138982872Y-87177619D01*
X139026919Y-87130000D01*
X139109062Y-87082380D01*
X139676919Y-87415714D02*
X139593586Y-88082380D01*
X139665014Y-87510952D02*
X139709062Y-87463333D01*
X139791205Y-87415714D01*
X139905491Y-87415714D01*
X139975729Y-87463333D01*
X140001919Y-87558571D01*
X139936443Y-88082380D01*
X140649538Y-87558571D02*
X140382872Y-87558571D01*
X140317395Y-88082380D02*
X140442395Y-87082380D01*
X140823348Y-87082380D01*
X149582142Y-101131666D02*
X149629761Y-101179285D01*
X149677380Y-101322142D01*
X149677380Y-101417380D01*
X149629761Y-101560238D01*
X149534523Y-101655476D01*
X149439285Y-101703095D01*
X149248809Y-101750714D01*
X149105952Y-101750714D01*
X148915476Y-101703095D01*
X148820238Y-101655476D01*
X148725000Y-101560238D01*
X148677380Y-101417380D01*
X148677380Y-101322142D01*
X148725000Y-101179285D01*
X148772619Y-101131666D01*
X148677380Y-100226904D02*
X148677380Y-100703095D01*
X149153571Y-100750714D01*
X149105952Y-100703095D01*
X149058333Y-100607857D01*
X149058333Y-100369761D01*
X149105952Y-100274523D01*
X149153571Y-100226904D01*
X149248809Y-100179285D01*
X149486904Y-100179285D01*
X149582142Y-100226904D01*
X149629761Y-100274523D01*
X149677380Y-100369761D01*
X149677380Y-100607857D01*
X149629761Y-100703095D01*
X149582142Y-100750714D01*
X152395419Y-101417380D02*
X151938276Y-101417380D01*
X152166848Y-101417380D02*
X152291848Y-100417380D01*
X152197800Y-100560238D01*
X152109705Y-100655476D01*
X152027562Y-100703095D01*
X153015657Y-100417380D02*
X153091848Y-100417380D01*
X153162086Y-100465000D01*
X153194229Y-100512619D01*
X153220419Y-100607857D01*
X153234705Y-100798333D01*
X153204943Y-101036428D01*
X153143038Y-101226904D01*
X153093038Y-101322142D01*
X153048991Y-101369761D01*
X152966848Y-101417380D01*
X152890657Y-101417380D01*
X152820419Y-101369761D01*
X152788276Y-101322142D01*
X152762086Y-101226904D01*
X152747800Y-101036428D01*
X152777562Y-100798333D01*
X152839467Y-100607857D01*
X152889467Y-100512619D01*
X152933514Y-100465000D01*
X153015657Y-100417380D01*
X153777562Y-100417380D02*
X153853752Y-100417380D01*
X153923991Y-100465000D01*
X153956133Y-100512619D01*
X153982324Y-100607857D01*
X153996610Y-100798333D01*
X153966848Y-101036428D01*
X153904943Y-101226904D01*
X153854943Y-101322142D01*
X153810895Y-101369761D01*
X153728752Y-101417380D01*
X153652562Y-101417380D01*
X153582324Y-101369761D01*
X153550181Y-101322142D01*
X153523991Y-101226904D01*
X153509705Y-101036428D01*
X153539467Y-100798333D01*
X153601372Y-100607857D01*
X153651372Y-100512619D01*
X153695419Y-100465000D01*
X153777562Y-100417380D01*
X154345419Y-100750714D02*
X154262086Y-101417380D01*
X154333514Y-100845952D02*
X154377562Y-100798333D01*
X154459705Y-100750714D01*
X154573991Y-100750714D01*
X154644229Y-100798333D01*
X154670419Y-100893571D01*
X154604943Y-101417380D01*
X155318038Y-100893571D02*
X155051372Y-100893571D01*
X154985895Y-101417380D02*
X155110895Y-100417380D01*
X155491848Y-100417380D01*
X149693333Y-124182142D02*
X149645714Y-124229761D01*
X149502857Y-124277380D01*
X149407619Y-124277380D01*
X149264761Y-124229761D01*
X149169523Y-124134523D01*
X149121904Y-124039285D01*
X149074285Y-123848809D01*
X149074285Y-123705952D01*
X149121904Y-123515476D01*
X149169523Y-123420238D01*
X149264761Y-123325000D01*
X149407619Y-123277380D01*
X149502857Y-123277380D01*
X149645714Y-123325000D01*
X149693333Y-123372619D01*
X150645714Y-124277380D02*
X150074285Y-124277380D01*
X150360000Y-124277380D02*
X150360000Y-123277380D01*
X150264761Y-123420238D01*
X150169523Y-123515476D01*
X150074285Y-123563095D01*
X148521919Y-122372380D02*
X148064776Y-122372380D01*
X148293348Y-122372380D02*
X148418348Y-121372380D01*
X148324300Y-121515238D01*
X148236205Y-121610476D01*
X148154062Y-121658095D01*
X149142157Y-121372380D02*
X149218348Y-121372380D01*
X149288586Y-121420000D01*
X149320729Y-121467619D01*
X149346919Y-121562857D01*
X149361205Y-121753333D01*
X149331443Y-121991428D01*
X149269538Y-122181904D01*
X149219538Y-122277142D01*
X149175491Y-122324761D01*
X149093348Y-122372380D01*
X149017157Y-122372380D01*
X148946919Y-122324761D01*
X148914776Y-122277142D01*
X148888586Y-122181904D01*
X148874300Y-121991428D01*
X148904062Y-121753333D01*
X148965967Y-121562857D01*
X149015967Y-121467619D01*
X149060014Y-121420000D01*
X149142157Y-121372380D01*
X149904062Y-121372380D02*
X149980252Y-121372380D01*
X150050491Y-121420000D01*
X150082633Y-121467619D01*
X150108824Y-121562857D01*
X150123110Y-121753333D01*
X150093348Y-121991428D01*
X150031443Y-122181904D01*
X149981443Y-122277142D01*
X149937395Y-122324761D01*
X149855252Y-122372380D01*
X149779062Y-122372380D01*
X149708824Y-122324761D01*
X149676681Y-122277142D01*
X149650491Y-122181904D01*
X149636205Y-121991428D01*
X149665967Y-121753333D01*
X149727872Y-121562857D01*
X149777872Y-121467619D01*
X149821919Y-121420000D01*
X149904062Y-121372380D01*
X150471919Y-121705714D02*
X150388586Y-122372380D01*
X150460014Y-121800952D02*
X150504062Y-121753333D01*
X150586205Y-121705714D01*
X150700491Y-121705714D01*
X150770729Y-121753333D01*
X150796919Y-121848571D01*
X150731443Y-122372380D01*
X151444538Y-121848571D02*
X151177872Y-121848571D01*
X151112395Y-122372380D02*
X151237395Y-121372380D01*
X151618348Y-121372380D01*
X181967142Y-111609166D02*
X182014761Y-111656785D01*
X182062380Y-111799642D01*
X182062380Y-111894880D01*
X182014761Y-112037738D01*
X181919523Y-112132976D01*
X181824285Y-112180595D01*
X181633809Y-112228214D01*
X181490952Y-112228214D01*
X181300476Y-112180595D01*
X181205238Y-112132976D01*
X181110000Y-112037738D01*
X181062380Y-111894880D01*
X181062380Y-111799642D01*
X181110000Y-111656785D01*
X181157619Y-111609166D01*
X181062380Y-111275833D02*
X181062380Y-110656785D01*
X181443333Y-110990119D01*
X181443333Y-110847261D01*
X181490952Y-110752023D01*
X181538571Y-110704404D01*
X181633809Y-110656785D01*
X181871904Y-110656785D01*
X181967142Y-110704404D01*
X182014761Y-110752023D01*
X182062380Y-110847261D01*
X182062380Y-111132976D01*
X182014761Y-111228214D01*
X181967142Y-111275833D01*
X182062380Y-107954580D02*
X182062380Y-108411723D01*
X182062380Y-108183151D02*
X181062380Y-108058151D01*
X181205238Y-108152199D01*
X181300476Y-108240294D01*
X181348095Y-108322437D01*
X181062380Y-107334342D02*
X181062380Y-107258151D01*
X181110000Y-107187913D01*
X181157619Y-107155770D01*
X181252857Y-107129580D01*
X181443333Y-107115294D01*
X181681428Y-107145056D01*
X181871904Y-107206961D01*
X181967142Y-107256961D01*
X182014761Y-107301008D01*
X182062380Y-107383151D01*
X182062380Y-107459342D01*
X182014761Y-107529580D01*
X181967142Y-107561723D01*
X181871904Y-107587913D01*
X181681428Y-107602199D01*
X181443333Y-107572437D01*
X181252857Y-107510532D01*
X181157619Y-107460532D01*
X181110000Y-107416485D01*
X181062380Y-107334342D01*
X181062380Y-106572437D02*
X181062380Y-106496247D01*
X181110000Y-106426008D01*
X181157619Y-106393866D01*
X181252857Y-106367675D01*
X181443333Y-106353389D01*
X181681428Y-106383151D01*
X181871904Y-106445056D01*
X181967142Y-106495056D01*
X182014761Y-106539104D01*
X182062380Y-106621247D01*
X182062380Y-106697437D01*
X182014761Y-106767675D01*
X181967142Y-106799818D01*
X181871904Y-106826008D01*
X181681428Y-106840294D01*
X181443333Y-106810532D01*
X181252857Y-106748627D01*
X181157619Y-106698627D01*
X181110000Y-106654580D01*
X181062380Y-106572437D01*
X181395714Y-106004580D02*
X182062380Y-106087913D01*
X181490952Y-106016485D02*
X181443333Y-105972437D01*
X181395714Y-105890294D01*
X181395714Y-105776008D01*
X181443333Y-105705770D01*
X181538571Y-105679580D01*
X182062380Y-105745056D01*
X181538571Y-105031961D02*
X181538571Y-105298627D01*
X182062380Y-105364104D02*
X181062380Y-105239104D01*
X181062380Y-104858151D01*
X179427142Y-111609166D02*
X179474761Y-111656785D01*
X179522380Y-111799642D01*
X179522380Y-111894880D01*
X179474761Y-112037738D01*
X179379523Y-112132976D01*
X179284285Y-112180595D01*
X179093809Y-112228214D01*
X178950952Y-112228214D01*
X178760476Y-112180595D01*
X178665238Y-112132976D01*
X178570000Y-112037738D01*
X178522380Y-111894880D01*
X178522380Y-111799642D01*
X178570000Y-111656785D01*
X178617619Y-111609166D01*
X178855714Y-110752023D02*
X179522380Y-110752023D01*
X178474761Y-110990119D02*
X179189047Y-111228214D01*
X179189047Y-110609166D01*
X179522380Y-107954580D02*
X179522380Y-108411723D01*
X179522380Y-108183151D02*
X178522380Y-108058151D01*
X178665238Y-108152199D01*
X178760476Y-108240294D01*
X178808095Y-108322437D01*
X178522380Y-107334342D02*
X178522380Y-107258151D01*
X178570000Y-107187913D01*
X178617619Y-107155770D01*
X178712857Y-107129580D01*
X178903333Y-107115294D01*
X179141428Y-107145056D01*
X179331904Y-107206961D01*
X179427142Y-107256961D01*
X179474761Y-107301008D01*
X179522380Y-107383151D01*
X179522380Y-107459342D01*
X179474761Y-107529580D01*
X179427142Y-107561723D01*
X179331904Y-107587913D01*
X179141428Y-107602199D01*
X178903333Y-107572437D01*
X178712857Y-107510532D01*
X178617619Y-107460532D01*
X178570000Y-107416485D01*
X178522380Y-107334342D01*
X178522380Y-106572437D02*
X178522380Y-106496247D01*
X178570000Y-106426008D01*
X178617619Y-106393866D01*
X178712857Y-106367675D01*
X178903333Y-106353389D01*
X179141428Y-106383151D01*
X179331904Y-106445056D01*
X179427142Y-106495056D01*
X179474761Y-106539104D01*
X179522380Y-106621247D01*
X179522380Y-106697437D01*
X179474761Y-106767675D01*
X179427142Y-106799818D01*
X179331904Y-106826008D01*
X179141428Y-106840294D01*
X178903333Y-106810532D01*
X178712857Y-106748627D01*
X178617619Y-106698627D01*
X178570000Y-106654580D01*
X178522380Y-106572437D01*
X178855714Y-106004580D02*
X179522380Y-106087913D01*
X178950952Y-106016485D02*
X178903333Y-105972437D01*
X178855714Y-105890294D01*
X178855714Y-105776008D01*
X178903333Y-105705770D01*
X178998571Y-105679580D01*
X179522380Y-105745056D01*
X178998571Y-105031961D02*
X178998571Y-105298627D01*
X179522380Y-105364104D02*
X178522380Y-105239104D01*
X178522380Y-104858151D01*
X201112380Y-81286333D02*
X200636190Y-81553000D01*
X201112380Y-81743476D02*
X200112380Y-81743476D01*
X200112380Y-81438714D01*
X200160000Y-81362523D01*
X200207619Y-81324428D01*
X200302857Y-81286333D01*
X200445714Y-81286333D01*
X200540952Y-81324428D01*
X200588571Y-81362523D01*
X200636190Y-81438714D01*
X200636190Y-81743476D01*
X201112380Y-80524428D02*
X201112380Y-80981571D01*
X201112380Y-80753000D02*
X200112380Y-80753000D01*
X200255238Y-80829190D01*
X200350476Y-80905380D01*
X200398095Y-80981571D01*
X201353824Y-84907380D02*
X200896681Y-84907380D01*
X201125252Y-84907380D02*
X201250252Y-83907380D01*
X201156205Y-84050238D01*
X201068110Y-84145476D01*
X200985967Y-84193095D01*
X201974062Y-83907380D02*
X202050252Y-83907380D01*
X202120491Y-83955000D01*
X202152633Y-84002619D01*
X202178824Y-84097857D01*
X202193110Y-84288333D01*
X202163348Y-84526428D01*
X202101443Y-84716904D01*
X202051443Y-84812142D01*
X202007395Y-84859761D01*
X201925252Y-84907380D01*
X201849062Y-84907380D01*
X201778824Y-84859761D01*
X201746681Y-84812142D01*
X201720491Y-84716904D01*
X201706205Y-84526428D01*
X201735967Y-84288333D01*
X201797872Y-84097857D01*
X201847872Y-84002619D01*
X201891919Y-83955000D01*
X201974062Y-83907380D01*
X202458586Y-84907380D02*
X202583586Y-83907380D01*
X202582395Y-84526428D02*
X202763348Y-84907380D01*
X202846681Y-84240714D02*
X202494300Y-84621666D01*
X198572380Y-81286333D02*
X198096190Y-81553000D01*
X198572380Y-81743476D02*
X197572380Y-81743476D01*
X197572380Y-81438714D01*
X197620000Y-81362523D01*
X197667619Y-81324428D01*
X197762857Y-81286333D01*
X197905714Y-81286333D01*
X198000952Y-81324428D01*
X198048571Y-81362523D01*
X198096190Y-81438714D01*
X198096190Y-81743476D01*
X197667619Y-80981571D02*
X197620000Y-80943476D01*
X197572380Y-80867285D01*
X197572380Y-80676809D01*
X197620000Y-80600619D01*
X197667619Y-80562523D01*
X197762857Y-80524428D01*
X197858095Y-80524428D01*
X198000952Y-80562523D01*
X198572380Y-81019666D01*
X198572380Y-80524428D01*
X198813824Y-84907380D02*
X198356681Y-84907380D01*
X198585252Y-84907380D02*
X198710252Y-83907380D01*
X198616205Y-84050238D01*
X198528110Y-84145476D01*
X198445967Y-84193095D01*
X199434062Y-83907380D02*
X199510252Y-83907380D01*
X199580491Y-83955000D01*
X199612633Y-84002619D01*
X199638824Y-84097857D01*
X199653110Y-84288333D01*
X199623348Y-84526428D01*
X199561443Y-84716904D01*
X199511443Y-84812142D01*
X199467395Y-84859761D01*
X199385252Y-84907380D01*
X199309062Y-84907380D01*
X199238824Y-84859761D01*
X199206681Y-84812142D01*
X199180491Y-84716904D01*
X199166205Y-84526428D01*
X199195967Y-84288333D01*
X199257872Y-84097857D01*
X199307872Y-84002619D01*
X199351919Y-83955000D01*
X199434062Y-83907380D01*
X199918586Y-84907380D02*
X200043586Y-83907380D01*
X200042395Y-84526428D02*
X200223348Y-84907380D01*
X200306681Y-84240714D02*
X199954300Y-84621666D01*
X196032380Y-81286333D02*
X195556190Y-81553000D01*
X196032380Y-81743476D02*
X195032380Y-81743476D01*
X195032380Y-81438714D01*
X195080000Y-81362523D01*
X195127619Y-81324428D01*
X195222857Y-81286333D01*
X195365714Y-81286333D01*
X195460952Y-81324428D01*
X195508571Y-81362523D01*
X195556190Y-81438714D01*
X195556190Y-81743476D01*
X195032380Y-81019666D02*
X195032380Y-80524428D01*
X195413333Y-80791095D01*
X195413333Y-80676809D01*
X195460952Y-80600619D01*
X195508571Y-80562523D01*
X195603809Y-80524428D01*
X195841904Y-80524428D01*
X195937142Y-80562523D01*
X195984761Y-80600619D01*
X196032380Y-80676809D01*
X196032380Y-80905380D01*
X195984761Y-80981571D01*
X195937142Y-81019666D01*
X196273824Y-84907380D02*
X195816681Y-84907380D01*
X196045252Y-84907380D02*
X196170252Y-83907380D01*
X196076205Y-84050238D01*
X195988110Y-84145476D01*
X195905967Y-84193095D01*
X196894062Y-83907380D02*
X196970252Y-83907380D01*
X197040491Y-83955000D01*
X197072633Y-84002619D01*
X197098824Y-84097857D01*
X197113110Y-84288333D01*
X197083348Y-84526428D01*
X197021443Y-84716904D01*
X196971443Y-84812142D01*
X196927395Y-84859761D01*
X196845252Y-84907380D01*
X196769062Y-84907380D01*
X196698824Y-84859761D01*
X196666681Y-84812142D01*
X196640491Y-84716904D01*
X196626205Y-84526428D01*
X196655967Y-84288333D01*
X196717872Y-84097857D01*
X196767872Y-84002619D01*
X196811919Y-83955000D01*
X196894062Y-83907380D01*
X197378586Y-84907380D02*
X197503586Y-83907380D01*
X197502395Y-84526428D02*
X197683348Y-84907380D01*
X197766681Y-84240714D02*
X197414300Y-84621666D01*
X193492380Y-81286333D02*
X193016190Y-81553000D01*
X193492380Y-81743476D02*
X192492380Y-81743476D01*
X192492380Y-81438714D01*
X192540000Y-81362523D01*
X192587619Y-81324428D01*
X192682857Y-81286333D01*
X192825714Y-81286333D01*
X192920952Y-81324428D01*
X192968571Y-81362523D01*
X193016190Y-81438714D01*
X193016190Y-81743476D01*
X192825714Y-80600619D02*
X193492380Y-80600619D01*
X192444761Y-80791095D02*
X193159047Y-80981571D01*
X193159047Y-80486333D01*
X193733824Y-84907380D02*
X193276681Y-84907380D01*
X193505252Y-84907380D02*
X193630252Y-83907380D01*
X193536205Y-84050238D01*
X193448110Y-84145476D01*
X193365967Y-84193095D01*
X194354062Y-83907380D02*
X194430252Y-83907380D01*
X194500491Y-83955000D01*
X194532633Y-84002619D01*
X194558824Y-84097857D01*
X194573110Y-84288333D01*
X194543348Y-84526428D01*
X194481443Y-84716904D01*
X194431443Y-84812142D01*
X194387395Y-84859761D01*
X194305252Y-84907380D01*
X194229062Y-84907380D01*
X194158824Y-84859761D01*
X194126681Y-84812142D01*
X194100491Y-84716904D01*
X194086205Y-84526428D01*
X194115967Y-84288333D01*
X194177872Y-84097857D01*
X194227872Y-84002619D01*
X194271919Y-83955000D01*
X194354062Y-83907380D01*
X194838586Y-84907380D02*
X194963586Y-83907380D01*
X194962395Y-84526428D02*
X195143348Y-84907380D01*
X195226681Y-84240714D02*
X194874300Y-84621666D01*
X145930880Y-86302833D02*
X145454690Y-86569500D01*
X145930880Y-86759976D02*
X144930880Y-86759976D01*
X144930880Y-86455214D01*
X144978500Y-86379023D01*
X145026119Y-86340928D01*
X145121357Y-86302833D01*
X145264214Y-86302833D01*
X145359452Y-86340928D01*
X145407071Y-86379023D01*
X145454690Y-86455214D01*
X145454690Y-86759976D01*
X144930880Y-85579023D02*
X144930880Y-85959976D01*
X145407071Y-85998071D01*
X145359452Y-85959976D01*
X145311833Y-85883785D01*
X145311833Y-85693309D01*
X145359452Y-85617119D01*
X145407071Y-85579023D01*
X145502309Y-85540928D01*
X145740404Y-85540928D01*
X145835642Y-85579023D01*
X145883261Y-85617119D01*
X145930880Y-85693309D01*
X145930880Y-85883785D01*
X145883261Y-85959976D01*
X145835642Y-85998071D01*
X148407380Y-86682175D02*
X148407380Y-87139318D01*
X148407380Y-86910747D02*
X147407380Y-86785747D01*
X147550238Y-86879794D01*
X147645476Y-86967889D01*
X147693095Y-87050032D01*
X147407380Y-86061937D02*
X147407380Y-85985747D01*
X147455000Y-85915508D01*
X147502619Y-85883366D01*
X147597857Y-85857175D01*
X147788333Y-85842889D01*
X148026428Y-85872651D01*
X148216904Y-85934556D01*
X148312142Y-85984556D01*
X148359761Y-86028604D01*
X148407380Y-86110747D01*
X148407380Y-86186937D01*
X148359761Y-86257175D01*
X148312142Y-86289318D01*
X148216904Y-86315508D01*
X148026428Y-86329794D01*
X147788333Y-86300032D01*
X147597857Y-86238127D01*
X147502619Y-86188127D01*
X147455000Y-86144080D01*
X147407380Y-86061937D01*
X148407380Y-85577413D02*
X147407380Y-85452413D01*
X148026428Y-85453604D02*
X148407380Y-85272651D01*
X147740714Y-85189318D02*
X148121666Y-85541699D01*
X141471666Y-84907380D02*
X141205000Y-84431190D01*
X141014523Y-84907380D02*
X141014523Y-83907380D01*
X141319285Y-83907380D01*
X141395476Y-83955000D01*
X141433571Y-84002619D01*
X141471666Y-84097857D01*
X141471666Y-84240714D01*
X141433571Y-84335952D01*
X141395476Y-84383571D01*
X141319285Y-84431190D01*
X141014523Y-84431190D01*
X142157380Y-83907380D02*
X142005000Y-83907380D01*
X141928809Y-83955000D01*
X141890714Y-84002619D01*
X141814523Y-84145476D01*
X141776428Y-84335952D01*
X141776428Y-84716904D01*
X141814523Y-84812142D01*
X141852619Y-84859761D01*
X141928809Y-84907380D01*
X142081190Y-84907380D01*
X142157380Y-84859761D01*
X142195476Y-84812142D01*
X142233571Y-84716904D01*
X142233571Y-84478809D01*
X142195476Y-84383571D01*
X142157380Y-84335952D01*
X142081190Y-84288333D01*
X141928809Y-84288333D01*
X141852619Y-84335952D01*
X141814523Y-84383571D01*
X141776428Y-84478809D01*
X140113348Y-85272619D02*
X140157395Y-85225000D01*
X140239538Y-85177380D01*
X140430014Y-85177380D01*
X140500252Y-85225000D01*
X140532395Y-85272619D01*
X140558586Y-85367857D01*
X140546681Y-85463095D01*
X140490729Y-85605952D01*
X139962157Y-86177380D01*
X140457395Y-86177380D01*
X140838348Y-86177380D02*
X140990729Y-86177380D01*
X141072872Y-86129761D01*
X141116919Y-86082142D01*
X141210967Y-85939285D01*
X141272872Y-85748809D01*
X141320491Y-85367857D01*
X141294300Y-85272619D01*
X141262157Y-85225000D01*
X141191919Y-85177380D01*
X141039538Y-85177380D01*
X140957395Y-85225000D01*
X140913348Y-85272619D01*
X140863348Y-85367857D01*
X140833586Y-85605952D01*
X140859776Y-85701190D01*
X140891919Y-85748809D01*
X140962157Y-85796428D01*
X141114538Y-85796428D01*
X141196681Y-85748809D01*
X141240729Y-85701190D01*
X141290729Y-85605952D01*
X141574062Y-86082142D02*
X141606205Y-86129761D01*
X141562157Y-86177380D01*
X141530014Y-86129761D01*
X141574062Y-86082142D01*
X141562157Y-86177380D01*
X142369300Y-85510714D02*
X142285967Y-86177380D01*
X142226443Y-85129761D02*
X141946681Y-85844047D01*
X142441919Y-85844047D01*
X142705014Y-86177380D02*
X142830014Y-85177380D01*
X142828824Y-85796428D02*
X143009776Y-86177380D01*
X143093110Y-85510714D02*
X142740729Y-85891666D01*
X140152380Y-83780238D02*
X139676190Y-84113571D01*
X140152380Y-84351666D02*
X139152380Y-84351666D01*
X139152380Y-83970714D01*
X139200000Y-83875476D01*
X139247619Y-83827857D01*
X139342857Y-83780238D01*
X139485714Y-83780238D01*
X139580952Y-83827857D01*
X139628571Y-83875476D01*
X139676190Y-83970714D01*
X139676190Y-84351666D01*
X139152380Y-83494523D02*
X140152380Y-83161190D01*
X139152380Y-82827857D01*
X140152380Y-81970714D02*
X140152380Y-82542142D01*
X140152380Y-82256428D02*
X139152380Y-82256428D01*
X139295238Y-82351666D01*
X139390476Y-82446904D01*
X139438095Y-82542142D01*
X139247619Y-81184270D02*
X139200000Y-81140223D01*
X139152380Y-81058080D01*
X139152380Y-80867604D01*
X139200000Y-80797366D01*
X139247619Y-80765223D01*
X139342857Y-80739032D01*
X139438095Y-80750937D01*
X139580952Y-80806889D01*
X140152380Y-81335461D01*
X140152380Y-80840223D01*
X140152380Y-80497366D02*
X139152380Y-80372366D01*
X139771428Y-80373556D02*
X140152380Y-80192604D01*
X139485714Y-80109270D02*
X139866666Y-80461651D01*
X153185833Y-124182142D02*
X153138214Y-124229761D01*
X152995357Y-124277380D01*
X152900119Y-124277380D01*
X152757261Y-124229761D01*
X152662023Y-124134523D01*
X152614404Y-124039285D01*
X152566785Y-123848809D01*
X152566785Y-123705952D01*
X152614404Y-123515476D01*
X152662023Y-123420238D01*
X152757261Y-123325000D01*
X152900119Y-123277380D01*
X152995357Y-123277380D01*
X153138214Y-123325000D01*
X153185833Y-123372619D01*
X153757261Y-123705952D02*
X153662023Y-123658333D01*
X153614404Y-123610714D01*
X153566785Y-123515476D01*
X153566785Y-123467857D01*
X153614404Y-123372619D01*
X153662023Y-123325000D01*
X153757261Y-123277380D01*
X153947738Y-123277380D01*
X154042976Y-123325000D01*
X154090595Y-123372619D01*
X154138214Y-123467857D01*
X154138214Y-123515476D01*
X154090595Y-123610714D01*
X154042976Y-123658333D01*
X153947738Y-123705952D01*
X153757261Y-123705952D01*
X153662023Y-123753571D01*
X153614404Y-123801190D01*
X153566785Y-123896428D01*
X153566785Y-124086904D01*
X153614404Y-124182142D01*
X153662023Y-124229761D01*
X153757261Y-124277380D01*
X153947738Y-124277380D01*
X154042976Y-124229761D01*
X154090595Y-124182142D01*
X154138214Y-124086904D01*
X154138214Y-123896428D01*
X154090595Y-123801190D01*
X154042976Y-123753571D01*
X153947738Y-123705952D01*
X152402514Y-124880714D02*
X152319181Y-125547380D01*
X152259657Y-124499761D02*
X151979895Y-125214047D01*
X152475133Y-125214047D01*
X152787038Y-124547380D02*
X153320372Y-124547380D01*
X152852514Y-125547380D01*
X153926324Y-124880714D02*
X153842991Y-125547380D01*
X153583467Y-124880714D02*
X153517991Y-125404523D01*
X153544181Y-125499761D01*
X153614419Y-125547380D01*
X153728705Y-125547380D01*
X153810848Y-125499761D01*
X153854895Y-125452142D01*
X154556086Y-125023571D02*
X154289419Y-125023571D01*
X154223943Y-125547380D02*
X154348943Y-124547380D01*
X154729895Y-124547380D01*
X132214880Y-100496666D02*
X131738690Y-100830000D01*
X132214880Y-101068095D02*
X131214880Y-101068095D01*
X131214880Y-100687142D01*
X131262500Y-100591904D01*
X131310119Y-100544285D01*
X131405357Y-100496666D01*
X131548214Y-100496666D01*
X131643452Y-100544285D01*
X131691071Y-100591904D01*
X131738690Y-100687142D01*
X131738690Y-101068095D01*
X131214880Y-100163333D02*
X131214880Y-99496666D01*
X132214880Y-99925238D01*
X135072380Y-100525223D02*
X135072380Y-100982366D01*
X135072380Y-100753794D02*
X134072380Y-100628794D01*
X134215238Y-100722842D01*
X134310476Y-100810937D01*
X134358095Y-100893080D01*
X135072380Y-100182366D02*
X134072380Y-100057366D01*
X134691428Y-100058556D02*
X135072380Y-99877604D01*
X134405714Y-99794270D02*
X134786666Y-100146651D01*
M02*
