G04 #@! TF.GenerationSoftware,KiCad,Pcbnew,(6.0.2)*
G04 #@! TF.CreationDate,2024-01-03T17:07:47-08:00*
G04 #@! TF.ProjectId,Z80-512K,5a38302d-3531-4324-9b2e-6b696361645f,2.0*
G04 #@! TF.SameCoordinates,Original*
G04 #@! TF.FileFunction,Legend,Top*
G04 #@! TF.FilePolarity,Positive*
%FSLAX46Y46*%
G04 Gerber Fmt 4.6, Leading zero omitted, Abs format (unit mm)*
G04 Created by KiCad (PCBNEW (6.0.2)) date 2024-01-03 17:07:47*
%MOMM*%
%LPD*%
G01*
G04 APERTURE LIST*
%ADD10C,0.150000*%
%ADD11C,0.120000*%
G04 APERTURE END LIST*
D10*
X166830952Y-94384880D02*
X166830952Y-95099166D01*
X166783333Y-95242023D01*
X166688095Y-95337261D01*
X166545238Y-95384880D01*
X166450000Y-95384880D01*
X167783333Y-95384880D02*
X167307142Y-95384880D01*
X167307142Y-94384880D01*
X168688095Y-95289642D02*
X168640476Y-95337261D01*
X168497619Y-95384880D01*
X168402380Y-95384880D01*
X168259523Y-95337261D01*
X168164285Y-95242023D01*
X168116666Y-95146785D01*
X168069047Y-94956309D01*
X168069047Y-94813452D01*
X168116666Y-94622976D01*
X168164285Y-94527738D01*
X168259523Y-94432500D01*
X168402380Y-94384880D01*
X168497619Y-94384880D01*
X168640476Y-94432500D01*
X168688095Y-94480119D01*
X169402380Y-94384880D02*
X169402380Y-95099166D01*
X169354761Y-95242023D01*
X169259523Y-95337261D01*
X169116666Y-95384880D01*
X169021428Y-95384880D01*
X170354761Y-95384880D02*
X169878571Y-95384880D01*
X169878571Y-94384880D01*
X171259523Y-95289642D02*
X171211904Y-95337261D01*
X171069047Y-95384880D01*
X170973809Y-95384880D01*
X170830952Y-95337261D01*
X170735714Y-95242023D01*
X170688095Y-95146785D01*
X170640476Y-94956309D01*
X170640476Y-94813452D01*
X170688095Y-94622976D01*
X170735714Y-94527738D01*
X170830952Y-94432500D01*
X170973809Y-94384880D01*
X171069047Y-94384880D01*
X171211904Y-94432500D01*
X171259523Y-94480119D01*
X171973809Y-94384880D02*
X171973809Y-95099166D01*
X171926190Y-95242023D01*
X171830952Y-95337261D01*
X171688095Y-95384880D01*
X171592857Y-95384880D01*
X172926190Y-95384880D02*
X172450000Y-95384880D01*
X172450000Y-94384880D01*
X173830952Y-95289642D02*
X173783333Y-95337261D01*
X173640476Y-95384880D01*
X173545238Y-95384880D01*
X173402380Y-95337261D01*
X173307142Y-95242023D01*
X173259523Y-95146785D01*
X173211904Y-94956309D01*
X173211904Y-94813452D01*
X173259523Y-94622976D01*
X173307142Y-94527738D01*
X173402380Y-94432500D01*
X173545238Y-94384880D01*
X173640476Y-94384880D01*
X173783333Y-94432500D01*
X173830952Y-94480119D01*
X174545238Y-94384880D02*
X174545238Y-95099166D01*
X174497619Y-95242023D01*
X174402380Y-95337261D01*
X174259523Y-95384880D01*
X174164285Y-95384880D01*
X175497619Y-95384880D02*
X175021428Y-95384880D01*
X175021428Y-94384880D01*
X176402380Y-95289642D02*
X176354761Y-95337261D01*
X176211904Y-95384880D01*
X176116666Y-95384880D01*
X175973809Y-95337261D01*
X175878571Y-95242023D01*
X175830952Y-95146785D01*
X175783333Y-94956309D01*
X175783333Y-94813452D01*
X175830952Y-94622976D01*
X175878571Y-94527738D01*
X175973809Y-94432500D01*
X176116666Y-94384880D01*
X176211904Y-94384880D01*
X176354761Y-94432500D01*
X176402380Y-94480119D01*
X178947142Y-114367380D02*
X178647142Y-113891190D01*
X178432857Y-114367380D02*
X178432857Y-113367380D01*
X178775714Y-113367380D01*
X178861428Y-113415000D01*
X178904285Y-113462619D01*
X178947142Y-113557857D01*
X178947142Y-113700714D01*
X178904285Y-113795952D01*
X178861428Y-113843571D01*
X178775714Y-113891190D01*
X178432857Y-113891190D01*
X179847142Y-114272142D02*
X179804285Y-114319761D01*
X179675714Y-114367380D01*
X179590000Y-114367380D01*
X179461428Y-114319761D01*
X179375714Y-114224523D01*
X179332857Y-114129285D01*
X179290000Y-113938809D01*
X179290000Y-113795952D01*
X179332857Y-113605476D01*
X179375714Y-113510238D01*
X179461428Y-113415000D01*
X179590000Y-113367380D01*
X179675714Y-113367380D01*
X179804285Y-113415000D01*
X179847142Y-113462619D01*
X180532857Y-113843571D02*
X180661428Y-113891190D01*
X180704285Y-113938809D01*
X180747142Y-114034047D01*
X180747142Y-114176904D01*
X180704285Y-114272142D01*
X180661428Y-114319761D01*
X180575714Y-114367380D01*
X180232857Y-114367380D01*
X180232857Y-113367380D01*
X180532857Y-113367380D01*
X180618571Y-113415000D01*
X180661428Y-113462619D01*
X180704285Y-113557857D01*
X180704285Y-113653095D01*
X180661428Y-113748333D01*
X180618571Y-113795952D01*
X180532857Y-113843571D01*
X180232857Y-113843571D01*
X181518571Y-113700714D02*
X181518571Y-114367380D01*
X181132857Y-113700714D02*
X181132857Y-114224523D01*
X181175714Y-114319761D01*
X181261428Y-114367380D01*
X181390000Y-114367380D01*
X181475714Y-114319761D01*
X181518571Y-114272142D01*
X181904285Y-114319761D02*
X181990000Y-114367380D01*
X182161428Y-114367380D01*
X182247142Y-114319761D01*
X182290000Y-114224523D01*
X182290000Y-114176904D01*
X182247142Y-114081666D01*
X182161428Y-114034047D01*
X182032857Y-114034047D01*
X181947142Y-113986428D01*
X181904285Y-113891190D01*
X181904285Y-113843571D01*
X181947142Y-113748333D01*
X182032857Y-113700714D01*
X182161428Y-113700714D01*
X182247142Y-113748333D01*
X177254285Y-114977380D02*
X177854285Y-114977380D01*
X177254285Y-115977380D01*
X177854285Y-115977380D01*
X178325714Y-115405952D02*
X178240000Y-115358333D01*
X178197142Y-115310714D01*
X178154285Y-115215476D01*
X178154285Y-115167857D01*
X178197142Y-115072619D01*
X178240000Y-115025000D01*
X178325714Y-114977380D01*
X178497142Y-114977380D01*
X178582857Y-115025000D01*
X178625714Y-115072619D01*
X178668571Y-115167857D01*
X178668571Y-115215476D01*
X178625714Y-115310714D01*
X178582857Y-115358333D01*
X178497142Y-115405952D01*
X178325714Y-115405952D01*
X178240000Y-115453571D01*
X178197142Y-115501190D01*
X178154285Y-115596428D01*
X178154285Y-115786904D01*
X178197142Y-115882142D01*
X178240000Y-115929761D01*
X178325714Y-115977380D01*
X178497142Y-115977380D01*
X178582857Y-115929761D01*
X178625714Y-115882142D01*
X178668571Y-115786904D01*
X178668571Y-115596428D01*
X178625714Y-115501190D01*
X178582857Y-115453571D01*
X178497142Y-115405952D01*
X179225714Y-114977380D02*
X179311428Y-114977380D01*
X179397142Y-115025000D01*
X179440000Y-115072619D01*
X179482857Y-115167857D01*
X179525714Y-115358333D01*
X179525714Y-115596428D01*
X179482857Y-115786904D01*
X179440000Y-115882142D01*
X179397142Y-115929761D01*
X179311428Y-115977380D01*
X179225714Y-115977380D01*
X179140000Y-115929761D01*
X179097142Y-115882142D01*
X179054285Y-115786904D01*
X179011428Y-115596428D01*
X179011428Y-115358333D01*
X179054285Y-115167857D01*
X179097142Y-115072619D01*
X179140000Y-115025000D01*
X179225714Y-114977380D01*
X181111428Y-115882142D02*
X181068571Y-115929761D01*
X180940000Y-115977380D01*
X180854285Y-115977380D01*
X180725714Y-115929761D01*
X180640000Y-115834523D01*
X180597142Y-115739285D01*
X180554285Y-115548809D01*
X180554285Y-115405952D01*
X180597142Y-115215476D01*
X180640000Y-115120238D01*
X180725714Y-115025000D01*
X180854285Y-114977380D01*
X180940000Y-114977380D01*
X181068571Y-115025000D01*
X181111428Y-115072619D01*
X181497142Y-115977380D02*
X181497142Y-114977380D01*
X181840000Y-114977380D01*
X181925714Y-115025000D01*
X181968571Y-115072619D01*
X182011428Y-115167857D01*
X182011428Y-115310714D01*
X181968571Y-115405952D01*
X181925714Y-115453571D01*
X181840000Y-115501190D01*
X181497142Y-115501190D01*
X182397142Y-114977380D02*
X182397142Y-115786904D01*
X182440000Y-115882142D01*
X182482857Y-115929761D01*
X182568571Y-115977380D01*
X182740000Y-115977380D01*
X182825714Y-115929761D01*
X182868571Y-115882142D01*
X182911428Y-115786904D01*
X182911428Y-114977380D01*
X183382857Y-115929761D02*
X183382857Y-115977380D01*
X183340000Y-116072619D01*
X183297142Y-116120238D01*
X178240000Y-116587380D02*
X177811428Y-116587380D01*
X177768571Y-117063571D01*
X177811428Y-117015952D01*
X177897142Y-116968333D01*
X178111428Y-116968333D01*
X178197142Y-117015952D01*
X178240000Y-117063571D01*
X178282857Y-117158809D01*
X178282857Y-117396904D01*
X178240000Y-117492142D01*
X178197142Y-117539761D01*
X178111428Y-117587380D01*
X177897142Y-117587380D01*
X177811428Y-117539761D01*
X177768571Y-117492142D01*
X179140000Y-117587380D02*
X178625714Y-117587380D01*
X178882857Y-117587380D02*
X178882857Y-116587380D01*
X178797142Y-116730238D01*
X178711428Y-116825476D01*
X178625714Y-116873095D01*
X179482857Y-116682619D02*
X179525714Y-116635000D01*
X179611428Y-116587380D01*
X179825714Y-116587380D01*
X179911428Y-116635000D01*
X179954285Y-116682619D01*
X179997142Y-116777857D01*
X179997142Y-116873095D01*
X179954285Y-117015952D01*
X179440000Y-117587380D01*
X179997142Y-117587380D01*
X181068571Y-117587380D02*
X181068571Y-116587380D01*
X181582857Y-117587380D02*
X181197142Y-117015952D01*
X181582857Y-116587380D02*
X181068571Y-117158809D01*
X181968571Y-117587380D02*
X181968571Y-116920714D01*
X181968571Y-116587380D02*
X181925714Y-116635000D01*
X181968571Y-116682619D01*
X182011428Y-116635000D01*
X181968571Y-116587380D01*
X181968571Y-116682619D01*
X182697142Y-117063571D02*
X182825714Y-117111190D01*
X182868571Y-117158809D01*
X182911428Y-117254047D01*
X182911428Y-117396904D01*
X182868571Y-117492142D01*
X182825714Y-117539761D01*
X182740000Y-117587380D01*
X182397142Y-117587380D01*
X182397142Y-116587380D01*
X182697142Y-116587380D01*
X182782857Y-116635000D01*
X182825714Y-116682619D01*
X182868571Y-116777857D01*
X182868571Y-116873095D01*
X182825714Y-116968333D01*
X182782857Y-117015952D01*
X182697142Y-117063571D01*
X182397142Y-117063571D01*
X177168571Y-119149761D02*
X177297142Y-119197380D01*
X177511428Y-119197380D01*
X177597142Y-119149761D01*
X177640000Y-119102142D01*
X177682857Y-119006904D01*
X177682857Y-118911666D01*
X177640000Y-118816428D01*
X177597142Y-118768809D01*
X177511428Y-118721190D01*
X177340000Y-118673571D01*
X177254285Y-118625952D01*
X177211428Y-118578333D01*
X177168571Y-118483095D01*
X177168571Y-118387857D01*
X177211428Y-118292619D01*
X177254285Y-118245000D01*
X177340000Y-118197380D01*
X177554285Y-118197380D01*
X177682857Y-118245000D01*
X178582857Y-119197380D02*
X178282857Y-118721190D01*
X178068571Y-119197380D02*
X178068571Y-118197380D01*
X178411428Y-118197380D01*
X178497142Y-118245000D01*
X178540000Y-118292619D01*
X178582857Y-118387857D01*
X178582857Y-118530714D01*
X178540000Y-118625952D01*
X178497142Y-118673571D01*
X178411428Y-118721190D01*
X178068571Y-118721190D01*
X178925714Y-118911666D02*
X179354285Y-118911666D01*
X178840000Y-119197380D02*
X179140000Y-118197380D01*
X179440000Y-119197380D01*
X179740000Y-119197380D02*
X179740000Y-118197380D01*
X180040000Y-118911666D01*
X180340000Y-118197380D01*
X180340000Y-119197380D01*
X181840000Y-119197380D02*
X181840000Y-118673571D01*
X181797142Y-118578333D01*
X181711428Y-118530714D01*
X181540000Y-118530714D01*
X181454285Y-118578333D01*
X181840000Y-119149761D02*
X181754285Y-119197380D01*
X181540000Y-119197380D01*
X181454285Y-119149761D01*
X181411428Y-119054523D01*
X181411428Y-118959285D01*
X181454285Y-118864047D01*
X181540000Y-118816428D01*
X181754285Y-118816428D01*
X181840000Y-118768809D01*
X182268571Y-118530714D02*
X182268571Y-119197380D01*
X182268571Y-118625952D02*
X182311428Y-118578333D01*
X182397142Y-118530714D01*
X182525714Y-118530714D01*
X182611428Y-118578333D01*
X182654285Y-118673571D01*
X182654285Y-119197380D01*
X183468571Y-119197380D02*
X183468571Y-118197380D01*
X183468571Y-119149761D02*
X183382857Y-119197380D01*
X183211428Y-119197380D01*
X183125714Y-119149761D01*
X183082857Y-119102142D01*
X183040000Y-119006904D01*
X183040000Y-118721190D01*
X183082857Y-118625952D01*
X183125714Y-118578333D01*
X183211428Y-118530714D01*
X183382857Y-118530714D01*
X183468571Y-118578333D01*
X178240000Y-119807380D02*
X177811428Y-119807380D01*
X177768571Y-120283571D01*
X177811428Y-120235952D01*
X177897142Y-120188333D01*
X178111428Y-120188333D01*
X178197142Y-120235952D01*
X178240000Y-120283571D01*
X178282857Y-120378809D01*
X178282857Y-120616904D01*
X178240000Y-120712142D01*
X178197142Y-120759761D01*
X178111428Y-120807380D01*
X177897142Y-120807380D01*
X177811428Y-120759761D01*
X177768571Y-120712142D01*
X179140000Y-120807380D02*
X178625714Y-120807380D01*
X178882857Y-120807380D02*
X178882857Y-119807380D01*
X178797142Y-119950238D01*
X178711428Y-120045476D01*
X178625714Y-120093095D01*
X179482857Y-119902619D02*
X179525714Y-119855000D01*
X179611428Y-119807380D01*
X179825714Y-119807380D01*
X179911428Y-119855000D01*
X179954285Y-119902619D01*
X179997142Y-119997857D01*
X179997142Y-120093095D01*
X179954285Y-120235952D01*
X179440000Y-120807380D01*
X179997142Y-120807380D01*
X181068571Y-120807380D02*
X181068571Y-119807380D01*
X181582857Y-120807380D02*
X181197142Y-120235952D01*
X181582857Y-119807380D02*
X181068571Y-120378809D01*
X181968571Y-120807380D02*
X181968571Y-120140714D01*
X181968571Y-119807380D02*
X181925714Y-119855000D01*
X181968571Y-119902619D01*
X182011428Y-119855000D01*
X181968571Y-119807380D01*
X181968571Y-119902619D01*
X182697142Y-120283571D02*
X182825714Y-120331190D01*
X182868571Y-120378809D01*
X182911428Y-120474047D01*
X182911428Y-120616904D01*
X182868571Y-120712142D01*
X182825714Y-120759761D01*
X182740000Y-120807380D01*
X182397142Y-120807380D01*
X182397142Y-119807380D01*
X182697142Y-119807380D01*
X182782857Y-119855000D01*
X182825714Y-119902619D01*
X182868571Y-119997857D01*
X182868571Y-120093095D01*
X182825714Y-120188333D01*
X182782857Y-120235952D01*
X182697142Y-120283571D01*
X182397142Y-120283571D01*
X177275714Y-121893571D02*
X176975714Y-121893571D01*
X176975714Y-122417380D02*
X176975714Y-121417380D01*
X177404285Y-121417380D01*
X177875714Y-122417380D02*
X177790000Y-122369761D01*
X177747142Y-122274523D01*
X177747142Y-121417380D01*
X178604285Y-122417380D02*
X178604285Y-121893571D01*
X178561428Y-121798333D01*
X178475714Y-121750714D01*
X178304285Y-121750714D01*
X178218571Y-121798333D01*
X178604285Y-122369761D02*
X178518571Y-122417380D01*
X178304285Y-122417380D01*
X178218571Y-122369761D01*
X178175714Y-122274523D01*
X178175714Y-122179285D01*
X178218571Y-122084047D01*
X178304285Y-122036428D01*
X178518571Y-122036428D01*
X178604285Y-121988809D01*
X178990000Y-122369761D02*
X179075714Y-122417380D01*
X179247142Y-122417380D01*
X179332857Y-122369761D01*
X179375714Y-122274523D01*
X179375714Y-122226904D01*
X179332857Y-122131666D01*
X179247142Y-122084047D01*
X179118571Y-122084047D01*
X179032857Y-122036428D01*
X178990000Y-121941190D01*
X178990000Y-121893571D01*
X179032857Y-121798333D01*
X179118571Y-121750714D01*
X179247142Y-121750714D01*
X179332857Y-121798333D01*
X179761428Y-122417380D02*
X179761428Y-121417380D01*
X180147142Y-122417380D02*
X180147142Y-121893571D01*
X180104285Y-121798333D01*
X180018571Y-121750714D01*
X179890000Y-121750714D01*
X179804285Y-121798333D01*
X179761428Y-121845952D01*
X181775714Y-122417380D02*
X181475714Y-121941190D01*
X181261428Y-122417380D02*
X181261428Y-121417380D01*
X181604285Y-121417380D01*
X181690000Y-121465000D01*
X181732857Y-121512619D01*
X181775714Y-121607857D01*
X181775714Y-121750714D01*
X181732857Y-121845952D01*
X181690000Y-121893571D01*
X181604285Y-121941190D01*
X181261428Y-121941190D01*
X182332857Y-121417380D02*
X182504285Y-121417380D01*
X182590000Y-121465000D01*
X182675714Y-121560238D01*
X182718571Y-121750714D01*
X182718571Y-122084047D01*
X182675714Y-122274523D01*
X182590000Y-122369761D01*
X182504285Y-122417380D01*
X182332857Y-122417380D01*
X182247142Y-122369761D01*
X182161428Y-122274523D01*
X182118571Y-122084047D01*
X182118571Y-121750714D01*
X182161428Y-121560238D01*
X182247142Y-121465000D01*
X182332857Y-121417380D01*
X183104285Y-122417380D02*
X183104285Y-121417380D01*
X183404285Y-122131666D01*
X183704285Y-121417380D01*
X183704285Y-122417380D01*
X178197142Y-124027380D02*
X178197142Y-123027380D01*
X178497142Y-123741666D01*
X178797142Y-123027380D01*
X178797142Y-124027380D01*
X179354285Y-124027380D02*
X179268571Y-123979761D01*
X179225714Y-123932142D01*
X179182857Y-123836904D01*
X179182857Y-123551190D01*
X179225714Y-123455952D01*
X179268571Y-123408333D01*
X179354285Y-123360714D01*
X179482857Y-123360714D01*
X179568571Y-123408333D01*
X179611428Y-123455952D01*
X179654285Y-123551190D01*
X179654285Y-123836904D01*
X179611428Y-123932142D01*
X179568571Y-123979761D01*
X179482857Y-124027380D01*
X179354285Y-124027380D01*
X180425714Y-124027380D02*
X180425714Y-123027380D01*
X180425714Y-123979761D02*
X180340000Y-124027380D01*
X180168571Y-124027380D01*
X180082857Y-123979761D01*
X180040000Y-123932142D01*
X179997142Y-123836904D01*
X179997142Y-123551190D01*
X180040000Y-123455952D01*
X180082857Y-123408333D01*
X180168571Y-123360714D01*
X180340000Y-123360714D01*
X180425714Y-123408333D01*
X181240000Y-123360714D02*
X181240000Y-124027380D01*
X180854285Y-123360714D02*
X180854285Y-123884523D01*
X180897142Y-123979761D01*
X180982857Y-124027380D01*
X181111428Y-124027380D01*
X181197142Y-123979761D01*
X181240000Y-123932142D01*
X181797142Y-124027380D02*
X181711428Y-123979761D01*
X181668571Y-123884523D01*
X181668571Y-123027380D01*
X182482857Y-123979761D02*
X182397142Y-124027380D01*
X182225714Y-124027380D01*
X182140000Y-123979761D01*
X182097142Y-123884523D01*
X182097142Y-123503571D01*
X182140000Y-123408333D01*
X182225714Y-123360714D01*
X182397142Y-123360714D01*
X182482857Y-123408333D01*
X182525714Y-123503571D01*
X182525714Y-123598809D01*
X182097142Y-123694047D01*
X213685714Y-122324761D02*
X213828571Y-122372380D01*
X214066666Y-122372380D01*
X214161904Y-122324761D01*
X214209523Y-122277142D01*
X214257142Y-122181904D01*
X214257142Y-122086666D01*
X214209523Y-121991428D01*
X214161904Y-121943809D01*
X214066666Y-121896190D01*
X213876190Y-121848571D01*
X213780952Y-121800952D01*
X213733333Y-121753333D01*
X213685714Y-121658095D01*
X213685714Y-121562857D01*
X213733333Y-121467619D01*
X213780952Y-121420000D01*
X213876190Y-121372380D01*
X214114285Y-121372380D01*
X214257142Y-121420000D01*
X214685714Y-122372380D02*
X214685714Y-121372380D01*
X215257142Y-122372380D02*
X214828571Y-121800952D01*
X215257142Y-121372380D02*
X214685714Y-121943809D01*
X216209523Y-122372380D02*
X215638095Y-122372380D01*
X215923809Y-122372380D02*
X215923809Y-121372380D01*
X215828571Y-121515238D01*
X215733333Y-121610476D01*
X215638095Y-121658095D01*
X216828571Y-121372380D02*
X216923809Y-121372380D01*
X217019047Y-121420000D01*
X217066666Y-121467619D01*
X217114285Y-121562857D01*
X217161904Y-121753333D01*
X217161904Y-121991428D01*
X217114285Y-122181904D01*
X217066666Y-122277142D01*
X217019047Y-122324761D01*
X216923809Y-122372380D01*
X216828571Y-122372380D01*
X216733333Y-122324761D01*
X216685714Y-122277142D01*
X216638095Y-122181904D01*
X216590476Y-121991428D01*
X216590476Y-121753333D01*
X216638095Y-121562857D01*
X216685714Y-121467619D01*
X216733333Y-121420000D01*
X216828571Y-121372380D01*
X218066666Y-121372380D02*
X217590476Y-121372380D01*
X217542857Y-121848571D01*
X217590476Y-121800952D01*
X217685714Y-121753333D01*
X217923809Y-121753333D01*
X218019047Y-121800952D01*
X218066666Y-121848571D01*
X218114285Y-121943809D01*
X218114285Y-122181904D01*
X218066666Y-122277142D01*
X218019047Y-122324761D01*
X217923809Y-122372380D01*
X217685714Y-122372380D01*
X217590476Y-122324761D01*
X217542857Y-122277142D01*
D11*
X134937500Y-89535000D02*
X134937500Y-91757500D01*
X143510000Y-88582500D02*
X143510000Y-88900000D01*
X143510000Y-88582500D02*
X143192500Y-88582500D01*
X142875000Y-89217500D02*
X143510000Y-88582500D01*
X135255000Y-89217500D02*
X142875000Y-89217500D01*
X134937500Y-89535000D02*
X135255000Y-89217500D01*
X154305000Y-94297500D02*
X154622500Y-93980000D01*
X154622500Y-93980000D02*
X154305000Y-93662500D01*
X152082500Y-93980000D02*
X154622500Y-93980000D01*
X152082500Y-90487500D02*
X152082500Y-93980000D01*
X152082500Y-90487500D02*
X152400000Y-90805000D01*
X151765000Y-90805000D02*
X152082500Y-90487500D01*
D10*
X153952380Y-92764880D02*
X152952380Y-92764880D01*
X153285714Y-92288690D02*
X153952380Y-92288690D01*
X153380952Y-92288690D02*
X153333333Y-92241071D01*
X153285714Y-92145833D01*
X153285714Y-92002976D01*
X153333333Y-91907738D01*
X153428571Y-91860119D01*
X153952380Y-91860119D01*
X153904761Y-91431547D02*
X153952380Y-91336309D01*
X153952380Y-91145833D01*
X153904761Y-91050595D01*
X153809523Y-91002976D01*
X153761904Y-91002976D01*
X153666666Y-91050595D01*
X153619047Y-91145833D01*
X153619047Y-91288690D01*
X153571428Y-91383928D01*
X153476190Y-91431547D01*
X153428571Y-91431547D01*
X153333333Y-91383928D01*
X153285714Y-91288690D01*
X153285714Y-91145833D01*
X153333333Y-91050595D01*
X153285714Y-90717261D02*
X153285714Y-90336309D01*
X152952380Y-90574404D02*
X153809523Y-90574404D01*
X153904761Y-90526785D01*
X153952380Y-90431547D01*
X153952380Y-90336309D01*
X153952380Y-89574404D02*
X153428571Y-89574404D01*
X153333333Y-89622023D01*
X153285714Y-89717261D01*
X153285714Y-89907738D01*
X153333333Y-90002976D01*
X153904761Y-89574404D02*
X153952380Y-89669642D01*
X153952380Y-89907738D01*
X153904761Y-90002976D01*
X153809523Y-90050595D01*
X153714285Y-90050595D01*
X153619047Y-90002976D01*
X153571428Y-89907738D01*
X153571428Y-89669642D01*
X153523809Y-89574404D01*
X153952380Y-88955357D02*
X153904761Y-89050595D01*
X153809523Y-89098214D01*
X152952380Y-89098214D01*
X153952380Y-88431547D02*
X153904761Y-88526785D01*
X153809523Y-88574404D01*
X152952380Y-88574404D01*
X153285714Y-87288690D02*
X154142857Y-87288690D01*
X154238095Y-87336309D01*
X154285714Y-87431547D01*
X154285714Y-87479166D01*
X152952380Y-87288690D02*
X153000000Y-87336309D01*
X153047619Y-87288690D01*
X153000000Y-87241071D01*
X152952380Y-87288690D01*
X153047619Y-87288690D01*
X153285714Y-86383928D02*
X153952380Y-86383928D01*
X153285714Y-86812500D02*
X153809523Y-86812500D01*
X153904761Y-86764880D01*
X153952380Y-86669642D01*
X153952380Y-86526785D01*
X153904761Y-86431547D01*
X153857142Y-86383928D01*
X153952380Y-85907738D02*
X153285714Y-85907738D01*
X153380952Y-85907738D02*
X153333333Y-85860119D01*
X153285714Y-85764880D01*
X153285714Y-85622023D01*
X153333333Y-85526785D01*
X153428571Y-85479166D01*
X153952380Y-85479166D01*
X153428571Y-85479166D02*
X153333333Y-85431547D01*
X153285714Y-85336309D01*
X153285714Y-85193452D01*
X153333333Y-85098214D01*
X153428571Y-85050595D01*
X153952380Y-85050595D01*
X153285714Y-84574404D02*
X154285714Y-84574404D01*
X153333333Y-84574404D02*
X153285714Y-84479166D01*
X153285714Y-84288690D01*
X153333333Y-84193452D01*
X153380952Y-84145833D01*
X153476190Y-84098214D01*
X153761904Y-84098214D01*
X153857142Y-84145833D01*
X153904761Y-84193452D01*
X153952380Y-84288690D01*
X153952380Y-84479166D01*
X153904761Y-84574404D01*
X153904761Y-83288690D02*
X153952380Y-83383928D01*
X153952380Y-83574404D01*
X153904761Y-83669642D01*
X153809523Y-83717261D01*
X153428571Y-83717261D01*
X153333333Y-83669642D01*
X153285714Y-83574404D01*
X153285714Y-83383928D01*
X153333333Y-83288690D01*
X153428571Y-83241071D01*
X153523809Y-83241071D01*
X153619047Y-83717261D01*
X153952380Y-82812500D02*
X153285714Y-82812500D01*
X153476190Y-82812500D02*
X153380952Y-82764880D01*
X153333333Y-82717261D01*
X153285714Y-82622023D01*
X153285714Y-82526785D01*
X153904761Y-82241071D02*
X153952380Y-82145833D01*
X153952380Y-81955357D01*
X153904761Y-81860119D01*
X153809523Y-81812500D01*
X153761904Y-81812500D01*
X153666666Y-81860119D01*
X153619047Y-81955357D01*
X153619047Y-82098214D01*
X153571428Y-82193452D01*
X153476190Y-82241071D01*
X153428571Y-82241071D01*
X153333333Y-82193452D01*
X153285714Y-82098214D01*
X153285714Y-81955357D01*
X153333333Y-81860119D01*
X154895714Y-92407738D02*
X155562380Y-92217261D01*
X155086190Y-92026785D01*
X155562380Y-91836309D01*
X154895714Y-91645833D01*
X154514761Y-90550595D02*
X155800476Y-91407738D01*
X155562380Y-90074404D02*
X155514761Y-90169642D01*
X155467142Y-90217261D01*
X155371904Y-90264880D01*
X155086190Y-90264880D01*
X154990952Y-90217261D01*
X154943333Y-90169642D01*
X154895714Y-90074404D01*
X154895714Y-89931547D01*
X154943333Y-89836309D01*
X154990952Y-89788690D01*
X155086190Y-89741071D01*
X155371904Y-89741071D01*
X155467142Y-89788690D01*
X155514761Y-89836309D01*
X155562380Y-89931547D01*
X155562380Y-90074404D01*
X155276666Y-88598214D02*
X155276666Y-88122023D01*
X155562380Y-88693452D02*
X154562380Y-88360119D01*
X155562380Y-88026785D01*
X155562380Y-87693452D02*
X154562380Y-87693452D01*
X154562380Y-87455357D01*
X154610000Y-87312500D01*
X154705238Y-87217261D01*
X154800476Y-87169642D01*
X154990952Y-87122023D01*
X155133809Y-87122023D01*
X155324285Y-87169642D01*
X155419523Y-87217261D01*
X155514761Y-87312500D01*
X155562380Y-87455357D01*
X155562380Y-87693452D01*
X155562380Y-86693452D02*
X154562380Y-86693452D01*
X155276666Y-86360119D01*
X154562380Y-86026785D01*
X155562380Y-86026785D01*
X154562380Y-85122023D02*
X154562380Y-85312500D01*
X154610000Y-85407738D01*
X154657619Y-85455357D01*
X154800476Y-85550595D01*
X154990952Y-85598214D01*
X155371904Y-85598214D01*
X155467142Y-85550595D01*
X155514761Y-85502976D01*
X155562380Y-85407738D01*
X155562380Y-85217261D01*
X155514761Y-85122023D01*
X155467142Y-85074404D01*
X155371904Y-85026785D01*
X155133809Y-85026785D01*
X155038571Y-85074404D01*
X154990952Y-85122023D01*
X154943333Y-85217261D01*
X154943333Y-85407738D01*
X154990952Y-85502976D01*
X155038571Y-85550595D01*
X155133809Y-85598214D01*
X155562380Y-84550595D02*
X155562380Y-84360119D01*
X155514761Y-84264880D01*
X155467142Y-84217261D01*
X155324285Y-84122023D01*
X155133809Y-84074404D01*
X154752857Y-84074404D01*
X154657619Y-84122023D01*
X154610000Y-84169642D01*
X154562380Y-84264880D01*
X154562380Y-84455357D01*
X154610000Y-84550595D01*
X154657619Y-84598214D01*
X154752857Y-84645833D01*
X154990952Y-84645833D01*
X155086190Y-84598214D01*
X155133809Y-84550595D01*
X155181428Y-84455357D01*
X155181428Y-84264880D01*
X155133809Y-84169642D01*
X155086190Y-84122023D01*
X154990952Y-84074404D01*
X154562380Y-83741071D02*
X154562380Y-83122023D01*
X154943333Y-83455357D01*
X154943333Y-83312500D01*
X154990952Y-83217261D01*
X155038571Y-83169642D01*
X155133809Y-83122023D01*
X155371904Y-83122023D01*
X155467142Y-83169642D01*
X155514761Y-83217261D01*
X155562380Y-83312500D01*
X155562380Y-83598214D01*
X155514761Y-83693452D01*
X155467142Y-83741071D01*
X155276666Y-82741071D02*
X155276666Y-82264880D01*
X155562380Y-82836309D02*
X154562380Y-82502976D01*
X155562380Y-82169642D01*
D11*
X152400000Y-90170000D02*
X152400000Y-89535000D01*
X151447500Y-87630000D02*
X150812500Y-87630000D01*
X151447500Y-90170000D02*
X150812500Y-90170000D01*
X152400000Y-87630000D02*
X151765000Y-87630000D01*
X150812500Y-87630000D02*
X151130000Y-87312500D01*
X151130000Y-90487500D02*
X150812500Y-90170000D01*
X150812500Y-90170000D02*
X151130000Y-89852500D01*
X151130000Y-87947500D02*
X150812500Y-87630000D01*
X151765000Y-90170000D02*
X152400000Y-90170000D01*
X152400000Y-88265000D02*
X152400000Y-87630000D01*
X152400000Y-89217500D02*
X152400000Y-88582500D01*
X154940000Y-93662500D02*
X154940000Y-94297500D01*
X154940000Y-95250000D02*
X155575000Y-95250000D01*
X154940000Y-94615000D02*
X154940000Y-95250000D01*
X154940000Y-92710000D02*
X154940000Y-93345000D01*
X155575000Y-92710000D02*
X154940000Y-92710000D01*
X156210000Y-92392500D02*
X156527500Y-92710000D01*
X156527500Y-92710000D02*
X156210000Y-93027500D01*
X155892500Y-92710000D02*
X156527500Y-92710000D01*
X156210000Y-94932500D02*
X156527500Y-95250000D01*
X156527500Y-95250000D02*
X156210000Y-95567500D01*
X155892500Y-95250000D02*
X156527500Y-95250000D01*
X207962500Y-84772500D02*
X207327500Y-84137500D01*
X207962500Y-84137500D02*
X207962500Y-84772500D01*
X207327500Y-84137500D02*
X207962500Y-84137500D01*
X222885000Y-122237500D02*
X224155000Y-123507500D01*
X220980000Y-121602500D02*
X222250000Y-122872500D01*
X222885000Y-121602500D02*
X222885000Y-122872500D01*
X222250000Y-122237500D02*
X222250000Y-123507500D01*
X220980000Y-120967500D02*
X220980000Y-122237500D01*
X219710000Y-123507500D02*
X218440000Y-123507500D01*
X220980000Y-122237500D02*
X219710000Y-123507500D01*
X222250000Y-123507500D02*
X220980000Y-122237500D01*
X222885000Y-122872500D02*
X222250000Y-123507500D01*
X223520000Y-123507500D02*
X222885000Y-122872500D01*
X224790000Y-123507500D02*
X223520000Y-123507500D01*
X222885000Y-121602500D02*
X224790000Y-123507500D01*
X220980000Y-120967500D02*
X222250000Y-122237500D01*
X222250000Y-122237500D02*
X222885000Y-121602500D01*
X218440000Y-123507500D02*
X220980000Y-120967500D01*
X125730000Y-125730000D02*
X125730000Y-123825000D01*
D10*
X132969047Y-85796428D02*
X133730952Y-85796428D01*
X132969047Y-92146428D02*
X133730952Y-92146428D01*
X133350000Y-92527380D02*
X133350000Y-91765476D01*
X128799285Y-121202380D02*
X129332619Y-121202380D01*
X128799285Y-122202380D01*
X129332619Y-122202380D01*
X129751666Y-121630952D02*
X129675476Y-121583333D01*
X129637380Y-121535714D01*
X129599285Y-121440476D01*
X129599285Y-121392857D01*
X129637380Y-121297619D01*
X129675476Y-121250000D01*
X129751666Y-121202380D01*
X129904047Y-121202380D01*
X129980238Y-121250000D01*
X130018333Y-121297619D01*
X130056428Y-121392857D01*
X130056428Y-121440476D01*
X130018333Y-121535714D01*
X129980238Y-121583333D01*
X129904047Y-121630952D01*
X129751666Y-121630952D01*
X129675476Y-121678571D01*
X129637380Y-121726190D01*
X129599285Y-121821428D01*
X129599285Y-122011904D01*
X129637380Y-122107142D01*
X129675476Y-122154761D01*
X129751666Y-122202380D01*
X129904047Y-122202380D01*
X129980238Y-122154761D01*
X130018333Y-122107142D01*
X130056428Y-122011904D01*
X130056428Y-121821428D01*
X130018333Y-121726190D01*
X129980238Y-121678571D01*
X129904047Y-121630952D01*
X130551666Y-121202380D02*
X130627857Y-121202380D01*
X130704047Y-121250000D01*
X130742142Y-121297619D01*
X130780238Y-121392857D01*
X130818333Y-121583333D01*
X130818333Y-121821428D01*
X130780238Y-122011904D01*
X130742142Y-122107142D01*
X130704047Y-122154761D01*
X130627857Y-122202380D01*
X130551666Y-122202380D01*
X130475476Y-122154761D01*
X130437380Y-122107142D01*
X130399285Y-122011904D01*
X130361190Y-121821428D01*
X130361190Y-121583333D01*
X130399285Y-121392857D01*
X130437380Y-121297619D01*
X130475476Y-121250000D01*
X130551666Y-121202380D01*
X131161190Y-121821428D02*
X131770714Y-121821428D01*
X132532619Y-121202380D02*
X132151666Y-121202380D01*
X132113571Y-121678571D01*
X132151666Y-121630952D01*
X132227857Y-121583333D01*
X132418333Y-121583333D01*
X132494523Y-121630952D01*
X132532619Y-121678571D01*
X132570714Y-121773809D01*
X132570714Y-122011904D01*
X132532619Y-122107142D01*
X132494523Y-122154761D01*
X132418333Y-122202380D01*
X132227857Y-122202380D01*
X132151666Y-122154761D01*
X132113571Y-122107142D01*
X133332619Y-122202380D02*
X132875476Y-122202380D01*
X133104047Y-122202380D02*
X133104047Y-121202380D01*
X133027857Y-121345238D01*
X132951666Y-121440476D01*
X132875476Y-121488095D01*
X133637380Y-121297619D02*
X133675476Y-121250000D01*
X133751666Y-121202380D01*
X133942142Y-121202380D01*
X134018333Y-121250000D01*
X134056428Y-121297619D01*
X134094523Y-121392857D01*
X134094523Y-121488095D01*
X134056428Y-121630952D01*
X133599285Y-122202380D01*
X134094523Y-122202380D01*
X134437380Y-122202380D02*
X134437380Y-121202380D01*
X134894523Y-122202380D02*
X134551666Y-121630952D01*
X134894523Y-121202380D02*
X134437380Y-121773809D01*
X135846904Y-121821428D02*
X136456428Y-121821428D01*
X137332619Y-121202380D02*
X137599285Y-122202380D01*
X137865952Y-121202380D01*
X138437380Y-122154761D02*
X138361190Y-122202380D01*
X138208809Y-122202380D01*
X138132619Y-122154761D01*
X138094523Y-122059523D01*
X138094523Y-121678571D01*
X138132619Y-121583333D01*
X138208809Y-121535714D01*
X138361190Y-121535714D01*
X138437380Y-121583333D01*
X138475476Y-121678571D01*
X138475476Y-121773809D01*
X138094523Y-121869047D01*
X138818333Y-122202380D02*
X138818333Y-121535714D01*
X138818333Y-121726190D02*
X138856428Y-121630952D01*
X138894523Y-121583333D01*
X138970714Y-121535714D01*
X139046904Y-121535714D01*
X139275476Y-122154761D02*
X139351666Y-122202380D01*
X139504047Y-122202380D01*
X139580238Y-122154761D01*
X139618333Y-122059523D01*
X139618333Y-122011904D01*
X139580238Y-121916666D01*
X139504047Y-121869047D01*
X139389761Y-121869047D01*
X139313571Y-121821428D01*
X139275476Y-121726190D01*
X139275476Y-121678571D01*
X139313571Y-121583333D01*
X139389761Y-121535714D01*
X139504047Y-121535714D01*
X139580238Y-121583333D01*
X139961190Y-122202380D02*
X139961190Y-121535714D01*
X139961190Y-121202380D02*
X139923095Y-121250000D01*
X139961190Y-121297619D01*
X139999285Y-121250000D01*
X139961190Y-121202380D01*
X139961190Y-121297619D01*
X140456428Y-122202380D02*
X140380238Y-122154761D01*
X140342142Y-122107142D01*
X140304047Y-122011904D01*
X140304047Y-121726190D01*
X140342142Y-121630952D01*
X140380238Y-121583333D01*
X140456428Y-121535714D01*
X140570714Y-121535714D01*
X140646904Y-121583333D01*
X140685000Y-121630952D01*
X140723095Y-121726190D01*
X140723095Y-122011904D01*
X140685000Y-122107142D01*
X140646904Y-122154761D01*
X140570714Y-122202380D01*
X140456428Y-122202380D01*
X141065952Y-121535714D02*
X141065952Y-122202380D01*
X141065952Y-121630952D02*
X141104047Y-121583333D01*
X141180238Y-121535714D01*
X141294523Y-121535714D01*
X141370714Y-121583333D01*
X141408809Y-121678571D01*
X141408809Y-122202380D01*
X142361190Y-121297619D02*
X142399285Y-121250000D01*
X142475476Y-121202380D01*
X142665952Y-121202380D01*
X142742142Y-121250000D01*
X142780238Y-121297619D01*
X142818333Y-121392857D01*
X142818333Y-121488095D01*
X142780238Y-121630952D01*
X142323095Y-122202380D01*
X142818333Y-122202380D01*
X143161190Y-122107142D02*
X143199285Y-122154761D01*
X143161190Y-122202380D01*
X143123095Y-122154761D01*
X143161190Y-122107142D01*
X143161190Y-122202380D01*
X143694523Y-121202380D02*
X143770714Y-121202380D01*
X143846904Y-121250000D01*
X143885000Y-121297619D01*
X143923095Y-121392857D01*
X143961190Y-121583333D01*
X143961190Y-121821428D01*
X143923095Y-122011904D01*
X143885000Y-122107142D01*
X143846904Y-122154761D01*
X143770714Y-122202380D01*
X143694523Y-122202380D01*
X143618333Y-122154761D01*
X143580238Y-122107142D01*
X143542142Y-122011904D01*
X143504047Y-121821428D01*
X143504047Y-121583333D01*
X143542142Y-121392857D01*
X143580238Y-121297619D01*
X143618333Y-121250000D01*
X143694523Y-121202380D01*
X129104047Y-124193333D02*
X129065952Y-124145714D01*
X128989761Y-124002857D01*
X128951666Y-123907619D01*
X128913571Y-123764761D01*
X128875476Y-123526666D01*
X128875476Y-123336190D01*
X128913571Y-123098095D01*
X128951666Y-122955238D01*
X128989761Y-122860000D01*
X129065952Y-122717142D01*
X129104047Y-122669523D01*
X129865952Y-123717142D02*
X129827857Y-123764761D01*
X129713571Y-123812380D01*
X129637380Y-123812380D01*
X129523095Y-123764761D01*
X129446904Y-123669523D01*
X129408809Y-123574285D01*
X129370714Y-123383809D01*
X129370714Y-123240952D01*
X129408809Y-123050476D01*
X129446904Y-122955238D01*
X129523095Y-122860000D01*
X129637380Y-122812380D01*
X129713571Y-122812380D01*
X129827857Y-122860000D01*
X129865952Y-122907619D01*
X130132619Y-124193333D02*
X130170714Y-124145714D01*
X130246904Y-124002857D01*
X130285000Y-123907619D01*
X130323095Y-123764761D01*
X130361190Y-123526666D01*
X130361190Y-123336190D01*
X130323095Y-123098095D01*
X130285000Y-122955238D01*
X130246904Y-122860000D01*
X130170714Y-122717142D01*
X130132619Y-122669523D01*
X131313571Y-122907619D02*
X131351666Y-122860000D01*
X131427857Y-122812380D01*
X131618333Y-122812380D01*
X131694523Y-122860000D01*
X131732619Y-122907619D01*
X131770714Y-123002857D01*
X131770714Y-123098095D01*
X131732619Y-123240952D01*
X131275476Y-123812380D01*
X131770714Y-123812380D01*
X132265952Y-122812380D02*
X132342142Y-122812380D01*
X132418333Y-122860000D01*
X132456428Y-122907619D01*
X132494523Y-123002857D01*
X132532619Y-123193333D01*
X132532619Y-123431428D01*
X132494523Y-123621904D01*
X132456428Y-123717142D01*
X132418333Y-123764761D01*
X132342142Y-123812380D01*
X132265952Y-123812380D01*
X132189761Y-123764761D01*
X132151666Y-123717142D01*
X132113571Y-123621904D01*
X132075476Y-123431428D01*
X132075476Y-123193333D01*
X132113571Y-123002857D01*
X132151666Y-122907619D01*
X132189761Y-122860000D01*
X132265952Y-122812380D01*
X132837380Y-122907619D02*
X132875476Y-122860000D01*
X132951666Y-122812380D01*
X133142142Y-122812380D01*
X133218333Y-122860000D01*
X133256428Y-122907619D01*
X133294523Y-123002857D01*
X133294523Y-123098095D01*
X133256428Y-123240952D01*
X132799285Y-123812380D01*
X133294523Y-123812380D01*
X133789761Y-122812380D02*
X133865952Y-122812380D01*
X133942142Y-122860000D01*
X133980238Y-122907619D01*
X134018333Y-123002857D01*
X134056428Y-123193333D01*
X134056428Y-123431428D01*
X134018333Y-123621904D01*
X133980238Y-123717142D01*
X133942142Y-123764761D01*
X133865952Y-123812380D01*
X133789761Y-123812380D01*
X133713571Y-123764761D01*
X133675476Y-123717142D01*
X133637380Y-123621904D01*
X133599285Y-123431428D01*
X133599285Y-123193333D01*
X133637380Y-123002857D01*
X133675476Y-122907619D01*
X133713571Y-122860000D01*
X133789761Y-122812380D01*
X134399285Y-123431428D02*
X135008809Y-123431428D01*
X135351666Y-122907619D02*
X135389761Y-122860000D01*
X135465952Y-122812380D01*
X135656428Y-122812380D01*
X135732619Y-122860000D01*
X135770714Y-122907619D01*
X135808809Y-123002857D01*
X135808809Y-123098095D01*
X135770714Y-123240952D01*
X135313571Y-123812380D01*
X135808809Y-123812380D01*
X136304047Y-122812380D02*
X136380238Y-122812380D01*
X136456428Y-122860000D01*
X136494523Y-122907619D01*
X136532619Y-123002857D01*
X136570714Y-123193333D01*
X136570714Y-123431428D01*
X136532619Y-123621904D01*
X136494523Y-123717142D01*
X136456428Y-123764761D01*
X136380238Y-123812380D01*
X136304047Y-123812380D01*
X136227857Y-123764761D01*
X136189761Y-123717142D01*
X136151666Y-123621904D01*
X136113571Y-123431428D01*
X136113571Y-123193333D01*
X136151666Y-123002857D01*
X136189761Y-122907619D01*
X136227857Y-122860000D01*
X136304047Y-122812380D01*
X136875476Y-122907619D02*
X136913571Y-122860000D01*
X136989761Y-122812380D01*
X137180238Y-122812380D01*
X137256428Y-122860000D01*
X137294523Y-122907619D01*
X137332619Y-123002857D01*
X137332619Y-123098095D01*
X137294523Y-123240952D01*
X136837380Y-123812380D01*
X137332619Y-123812380D01*
X138018333Y-123145714D02*
X138018333Y-123812380D01*
X137827857Y-122764761D02*
X137637380Y-123479047D01*
X138132619Y-123479047D01*
X139008809Y-123764761D02*
X139123095Y-123812380D01*
X139313571Y-123812380D01*
X139389761Y-123764761D01*
X139427857Y-123717142D01*
X139465952Y-123621904D01*
X139465952Y-123526666D01*
X139427857Y-123431428D01*
X139389761Y-123383809D01*
X139313571Y-123336190D01*
X139161190Y-123288571D01*
X139085000Y-123240952D01*
X139046904Y-123193333D01*
X139008809Y-123098095D01*
X139008809Y-123002857D01*
X139046904Y-122907619D01*
X139085000Y-122860000D01*
X139161190Y-122812380D01*
X139351666Y-122812380D01*
X139465952Y-122860000D01*
X140113571Y-123764761D02*
X140037380Y-123812380D01*
X139885000Y-123812380D01*
X139808809Y-123764761D01*
X139770714Y-123669523D01*
X139770714Y-123288571D01*
X139808809Y-123193333D01*
X139885000Y-123145714D01*
X140037380Y-123145714D01*
X140113571Y-123193333D01*
X140151666Y-123288571D01*
X140151666Y-123383809D01*
X139770714Y-123479047D01*
X140494523Y-123812380D02*
X140494523Y-123145714D01*
X140494523Y-123336190D02*
X140532619Y-123240952D01*
X140570714Y-123193333D01*
X140646904Y-123145714D01*
X140723095Y-123145714D01*
X141332619Y-123145714D02*
X141332619Y-123955238D01*
X141294523Y-124050476D01*
X141256428Y-124098095D01*
X141180238Y-124145714D01*
X141065952Y-124145714D01*
X140989761Y-124098095D01*
X141332619Y-123764761D02*
X141256428Y-123812380D01*
X141104047Y-123812380D01*
X141027857Y-123764761D01*
X140989761Y-123717142D01*
X140951666Y-123621904D01*
X140951666Y-123336190D01*
X140989761Y-123240952D01*
X141027857Y-123193333D01*
X141104047Y-123145714D01*
X141256428Y-123145714D01*
X141332619Y-123193333D01*
X142018333Y-123764761D02*
X141942142Y-123812380D01*
X141789761Y-123812380D01*
X141713571Y-123764761D01*
X141675476Y-123669523D01*
X141675476Y-123288571D01*
X141713571Y-123193333D01*
X141789761Y-123145714D01*
X141942142Y-123145714D01*
X142018333Y-123193333D01*
X142056428Y-123288571D01*
X142056428Y-123383809D01*
X141675476Y-123479047D01*
X142323095Y-123145714D02*
X142513571Y-123812380D01*
X142704047Y-123145714D02*
X142513571Y-123812380D01*
X142437380Y-124050476D01*
X142399285Y-124098095D01*
X142323095Y-124145714D01*
X143618333Y-123812380D02*
X143618333Y-122812380D01*
X144075476Y-123812380D02*
X143732619Y-123240952D01*
X144075476Y-122812380D02*
X143618333Y-123383809D01*
X144418333Y-123812380D02*
X144418333Y-123145714D01*
X144418333Y-122812380D02*
X144380238Y-122860000D01*
X144418333Y-122907619D01*
X144456428Y-122860000D01*
X144418333Y-122812380D01*
X144418333Y-122907619D01*
X144761190Y-123764761D02*
X144837380Y-123812380D01*
X144989761Y-123812380D01*
X145065952Y-123764761D01*
X145104047Y-123669523D01*
X145104047Y-123621904D01*
X145065952Y-123526666D01*
X144989761Y-123479047D01*
X144875476Y-123479047D01*
X144799285Y-123431428D01*
X144761190Y-123336190D01*
X144761190Y-123288571D01*
X144799285Y-123193333D01*
X144875476Y-123145714D01*
X144989761Y-123145714D01*
X145065952Y-123193333D01*
X145751666Y-123764761D02*
X145675476Y-123812380D01*
X145523095Y-123812380D01*
X145446904Y-123764761D01*
X145408809Y-123669523D01*
X145408809Y-123288571D01*
X145446904Y-123193333D01*
X145523095Y-123145714D01*
X145675476Y-123145714D01*
X145751666Y-123193333D01*
X145789761Y-123288571D01*
X145789761Y-123383809D01*
X145408809Y-123479047D01*
X146246904Y-123812380D02*
X146170714Y-123764761D01*
X146132619Y-123669523D01*
X146132619Y-122812380D01*
X146856428Y-123764761D02*
X146780238Y-123812380D01*
X146627857Y-123812380D01*
X146551666Y-123764761D01*
X146513571Y-123669523D01*
X146513571Y-123288571D01*
X146551666Y-123193333D01*
X146627857Y-123145714D01*
X146780238Y-123145714D01*
X146856428Y-123193333D01*
X146894523Y-123288571D01*
X146894523Y-123383809D01*
X146513571Y-123479047D01*
X147161190Y-123145714D02*
X147351666Y-123812380D01*
X147542142Y-123145714D01*
X225528214Y-122562142D02*
X226194880Y-122371666D01*
X225718690Y-122181190D01*
X226194880Y-121990714D01*
X225528214Y-121800238D01*
X225528214Y-121514523D02*
X226194880Y-121324047D01*
X225718690Y-121133571D01*
X226194880Y-120943095D01*
X225528214Y-120752619D01*
X225528214Y-120466904D02*
X226194880Y-120276428D01*
X225718690Y-120085952D01*
X226194880Y-119895476D01*
X225528214Y-119705000D01*
X226099642Y-119324047D02*
X226147261Y-119276428D01*
X226194880Y-119324047D01*
X226147261Y-119371666D01*
X226099642Y-119324047D01*
X226194880Y-119324047D01*
X226194880Y-118847857D02*
X225528214Y-118847857D01*
X225623452Y-118847857D02*
X225575833Y-118800238D01*
X225528214Y-118705000D01*
X225528214Y-118562142D01*
X225575833Y-118466904D01*
X225671071Y-118419285D01*
X226194880Y-118419285D01*
X225671071Y-118419285D02*
X225575833Y-118371666D01*
X225528214Y-118276428D01*
X225528214Y-118133571D01*
X225575833Y-118038333D01*
X225671071Y-117990714D01*
X226194880Y-117990714D01*
X226194880Y-117085952D02*
X225671071Y-117085952D01*
X225575833Y-117133571D01*
X225528214Y-117228809D01*
X225528214Y-117419285D01*
X225575833Y-117514523D01*
X226147261Y-117085952D02*
X226194880Y-117181190D01*
X226194880Y-117419285D01*
X226147261Y-117514523D01*
X226052023Y-117562142D01*
X225956785Y-117562142D01*
X225861547Y-117514523D01*
X225813928Y-117419285D01*
X225813928Y-117181190D01*
X225766309Y-117085952D01*
X226194880Y-116466904D02*
X226147261Y-116562142D01*
X226052023Y-116609761D01*
X225194880Y-116609761D01*
X226194880Y-116085952D02*
X225528214Y-116085952D01*
X225194880Y-116085952D02*
X225242500Y-116133571D01*
X225290119Y-116085952D01*
X225242500Y-116038333D01*
X225194880Y-116085952D01*
X225290119Y-116085952D01*
X225528214Y-115609761D02*
X226194880Y-115609761D01*
X225623452Y-115609761D02*
X225575833Y-115562142D01*
X225528214Y-115466904D01*
X225528214Y-115324047D01*
X225575833Y-115228809D01*
X225671071Y-115181190D01*
X226194880Y-115181190D01*
X226194880Y-114562142D02*
X226147261Y-114657380D01*
X226099642Y-114705000D01*
X226004404Y-114752619D01*
X225718690Y-114752619D01*
X225623452Y-114705000D01*
X225575833Y-114657380D01*
X225528214Y-114562142D01*
X225528214Y-114419285D01*
X225575833Y-114324047D01*
X225623452Y-114276428D01*
X225718690Y-114228809D01*
X226004404Y-114228809D01*
X226099642Y-114276428D01*
X226147261Y-114324047D01*
X226194880Y-114419285D01*
X226194880Y-114562142D01*
X225528214Y-113895476D02*
X226194880Y-113657380D01*
X225528214Y-113419285D01*
X226099642Y-113038333D02*
X226147261Y-112990714D01*
X226194880Y-113038333D01*
X226147261Y-113085952D01*
X226099642Y-113038333D01*
X226194880Y-113038333D01*
X226147261Y-112133571D02*
X226194880Y-112228809D01*
X226194880Y-112419285D01*
X226147261Y-112514523D01*
X226099642Y-112562142D01*
X226004404Y-112609761D01*
X225718690Y-112609761D01*
X225623452Y-112562142D01*
X225575833Y-112514523D01*
X225528214Y-112419285D01*
X225528214Y-112228809D01*
X225575833Y-112133571D01*
X226194880Y-111562142D02*
X226147261Y-111657380D01*
X226099642Y-111705000D01*
X226004404Y-111752619D01*
X225718690Y-111752619D01*
X225623452Y-111705000D01*
X225575833Y-111657380D01*
X225528214Y-111562142D01*
X225528214Y-111419285D01*
X225575833Y-111324047D01*
X225623452Y-111276428D01*
X225718690Y-111228809D01*
X226004404Y-111228809D01*
X226099642Y-111276428D01*
X226147261Y-111324047D01*
X226194880Y-111419285D01*
X226194880Y-111562142D01*
X226194880Y-110800238D02*
X225528214Y-110800238D01*
X225623452Y-110800238D02*
X225575833Y-110752619D01*
X225528214Y-110657380D01*
X225528214Y-110514523D01*
X225575833Y-110419285D01*
X225671071Y-110371666D01*
X226194880Y-110371666D01*
X225671071Y-110371666D02*
X225575833Y-110324047D01*
X225528214Y-110228809D01*
X225528214Y-110085952D01*
X225575833Y-109990714D01*
X225671071Y-109943095D01*
X226194880Y-109943095D01*
X206041666Y-79779880D02*
X206041666Y-80494166D01*
X205994047Y-80637023D01*
X205898809Y-80732261D01*
X205755952Y-80779880D01*
X205660714Y-80779880D01*
X206470238Y-79875119D02*
X206517857Y-79827500D01*
X206613095Y-79779880D01*
X206851190Y-79779880D01*
X206946428Y-79827500D01*
X206994047Y-79875119D01*
X207041666Y-79970357D01*
X207041666Y-80065595D01*
X206994047Y-80208452D01*
X206422619Y-80779880D01*
X207041666Y-80779880D01*
X205471994Y-81684880D02*
X205382708Y-82399166D01*
X205326755Y-82542023D01*
X205238660Y-82637261D01*
X205118422Y-82684880D01*
X205042232Y-82684880D01*
X205738660Y-81684880D02*
X206195803Y-81684880D01*
X205842232Y-82684880D02*
X205967232Y-81684880D01*
X206335089Y-82399166D02*
X206716041Y-82399166D01*
X206223184Y-82684880D02*
X206614851Y-81684880D01*
X206756517Y-82684880D01*
X207561279Y-81732500D02*
X207491041Y-81684880D01*
X207376755Y-81684880D01*
X207256517Y-81732500D01*
X207168422Y-81827738D01*
X207118422Y-81922976D01*
X207056517Y-82113452D01*
X207038660Y-82256309D01*
X207052946Y-82446785D01*
X207079136Y-82542023D01*
X207143422Y-82637261D01*
X207251755Y-82684880D01*
X207327946Y-82684880D01*
X207448184Y-82637261D01*
X207492232Y-82589642D01*
X207533898Y-82256309D01*
X207381517Y-82256309D01*
X158305595Y-101369880D02*
X158305595Y-102179404D01*
X158353214Y-102274642D01*
X158400833Y-102322261D01*
X158496071Y-102369880D01*
X158686547Y-102369880D01*
X158781785Y-102322261D01*
X158829404Y-102274642D01*
X158877023Y-102179404D01*
X158877023Y-101369880D01*
X159781785Y-101703214D02*
X159781785Y-102369880D01*
X159543690Y-101322261D02*
X159305595Y-102036547D01*
X159924642Y-102036547D01*
X168305327Y-90654166D02*
X168686279Y-90654166D01*
X168193422Y-90939880D02*
X168585089Y-89939880D01*
X168726755Y-90939880D01*
X169004136Y-89939880D02*
X169461279Y-89939880D01*
X169107708Y-90939880D02*
X169232708Y-89939880D01*
X169935089Y-90416071D02*
X169668422Y-90416071D01*
X169602946Y-90939880D02*
X169727946Y-89939880D01*
X170108898Y-89939880D01*
X170707708Y-90939880D02*
X170250565Y-90939880D01*
X170479136Y-90939880D02*
X170604136Y-89939880D01*
X170510089Y-90082738D01*
X170421994Y-90177976D01*
X170339851Y-90225595D01*
X171556517Y-89939880D02*
X171175565Y-89939880D01*
X171077946Y-90416071D01*
X171121994Y-90368452D01*
X171204136Y-90320833D01*
X171394613Y-90320833D01*
X171464851Y-90368452D01*
X171496994Y-90416071D01*
X171523184Y-90511309D01*
X171493422Y-90749404D01*
X171443422Y-90844642D01*
X171399375Y-90892261D01*
X171317232Y-90939880D01*
X171126755Y-90939880D01*
X171056517Y-90892261D01*
X171024375Y-90844642D01*
X172089851Y-89939880D02*
X172166041Y-89939880D01*
X172236279Y-89987500D01*
X172268422Y-90035119D01*
X172294613Y-90130357D01*
X172308898Y-90320833D01*
X172279136Y-90558928D01*
X172217232Y-90749404D01*
X172167232Y-90844642D01*
X172123184Y-90892261D01*
X172041041Y-90939880D01*
X171964851Y-90939880D01*
X171894613Y-90892261D01*
X171862470Y-90844642D01*
X171836279Y-90749404D01*
X171821994Y-90558928D01*
X171851755Y-90320833D01*
X171913660Y-90130357D01*
X171963660Y-90035119D01*
X172007708Y-89987500D01*
X172089851Y-89939880D01*
X173000565Y-90273214D02*
X172917232Y-90939880D01*
X172857708Y-89892261D02*
X172577946Y-90606547D01*
X173073184Y-90606547D01*
X173333898Y-90654166D02*
X173714851Y-90654166D01*
X173221994Y-90939880D02*
X173613660Y-89939880D01*
X173755327Y-90939880D01*
X173989851Y-90892261D02*
X174098184Y-90939880D01*
X174288660Y-90939880D01*
X174370803Y-90892261D01*
X174414851Y-90844642D01*
X174464851Y-90749404D01*
X174476755Y-90654166D01*
X174450565Y-90558928D01*
X174418422Y-90511309D01*
X174348184Y-90463690D01*
X174201755Y-90416071D01*
X174131517Y-90368452D01*
X174099375Y-90320833D01*
X174073184Y-90225595D01*
X174085089Y-90130357D01*
X174135089Y-90035119D01*
X174179136Y-89987500D01*
X174261279Y-89939880D01*
X174451755Y-89939880D01*
X174560089Y-89987500D01*
X184062642Y-81446666D02*
X184110261Y-81494285D01*
X184157880Y-81637142D01*
X184157880Y-81732380D01*
X184110261Y-81875238D01*
X184015023Y-81970476D01*
X183919785Y-82018095D01*
X183729309Y-82065714D01*
X183586452Y-82065714D01*
X183395976Y-82018095D01*
X183300738Y-81970476D01*
X183205500Y-81875238D01*
X183157880Y-81732380D01*
X183157880Y-81637142D01*
X183205500Y-81494285D01*
X183253119Y-81446666D01*
X183157880Y-80589523D02*
X183157880Y-80780000D01*
X183205500Y-80875238D01*
X183253119Y-80922857D01*
X183395976Y-81018095D01*
X183586452Y-81065714D01*
X183967404Y-81065714D01*
X184062642Y-81018095D01*
X184110261Y-80970476D01*
X184157880Y-80875238D01*
X184157880Y-80684761D01*
X184110261Y-80589523D01*
X184062642Y-80541904D01*
X183967404Y-80494285D01*
X183729309Y-80494285D01*
X183634071Y-80541904D01*
X183586452Y-80589523D01*
X183538833Y-80684761D01*
X183538833Y-80875238D01*
X183586452Y-80970476D01*
X183634071Y-81018095D01*
X183729309Y-81065714D01*
X186690732Y-81732380D02*
X186233589Y-81732380D01*
X186462160Y-81732380D02*
X186587160Y-80732380D01*
X186493113Y-80875238D01*
X186405017Y-80970476D01*
X186322875Y-81018095D01*
X187310970Y-80732380D02*
X187387160Y-80732380D01*
X187457398Y-80780000D01*
X187489541Y-80827619D01*
X187515732Y-80922857D01*
X187530017Y-81113333D01*
X187500255Y-81351428D01*
X187438351Y-81541904D01*
X187388351Y-81637142D01*
X187344303Y-81684761D01*
X187262160Y-81732380D01*
X187185970Y-81732380D01*
X187115732Y-81684761D01*
X187083589Y-81637142D01*
X187057398Y-81541904D01*
X187043113Y-81351428D01*
X187072875Y-81113333D01*
X187134779Y-80922857D01*
X187184779Y-80827619D01*
X187228827Y-80780000D01*
X187310970Y-80732380D01*
X188072875Y-80732380D02*
X188149065Y-80732380D01*
X188219303Y-80780000D01*
X188251446Y-80827619D01*
X188277636Y-80922857D01*
X188291922Y-81113333D01*
X188262160Y-81351428D01*
X188200255Y-81541904D01*
X188150255Y-81637142D01*
X188106208Y-81684761D01*
X188024065Y-81732380D01*
X187947875Y-81732380D01*
X187877636Y-81684761D01*
X187845494Y-81637142D01*
X187819303Y-81541904D01*
X187805017Y-81351428D01*
X187834779Y-81113333D01*
X187896684Y-80922857D01*
X187946684Y-80827619D01*
X187990732Y-80780000D01*
X188072875Y-80732380D01*
X188640732Y-81065714D02*
X188557398Y-81732380D01*
X188628827Y-81160952D02*
X188672875Y-81113333D01*
X188755017Y-81065714D01*
X188869303Y-81065714D01*
X188939541Y-81113333D01*
X188965732Y-81208571D01*
X188900255Y-81732380D01*
X189613351Y-81208571D02*
X189346684Y-81208571D01*
X189281208Y-81732380D02*
X189406208Y-80732380D01*
X189787160Y-80732380D01*
X184062642Y-83986666D02*
X184110261Y-84034285D01*
X184157880Y-84177142D01*
X184157880Y-84272380D01*
X184110261Y-84415238D01*
X184015023Y-84510476D01*
X183919785Y-84558095D01*
X183729309Y-84605714D01*
X183586452Y-84605714D01*
X183395976Y-84558095D01*
X183300738Y-84510476D01*
X183205500Y-84415238D01*
X183157880Y-84272380D01*
X183157880Y-84177142D01*
X183205500Y-84034285D01*
X183253119Y-83986666D01*
X183253119Y-83605714D02*
X183205500Y-83558095D01*
X183157880Y-83462857D01*
X183157880Y-83224761D01*
X183205500Y-83129523D01*
X183253119Y-83081904D01*
X183348357Y-83034285D01*
X183443595Y-83034285D01*
X183586452Y-83081904D01*
X184157880Y-83653333D01*
X184157880Y-83034285D01*
X186690732Y-84272380D02*
X186233589Y-84272380D01*
X186462160Y-84272380D02*
X186587160Y-83272380D01*
X186493113Y-83415238D01*
X186405017Y-83510476D01*
X186322875Y-83558095D01*
X187310970Y-83272380D02*
X187387160Y-83272380D01*
X187457398Y-83320000D01*
X187489541Y-83367619D01*
X187515732Y-83462857D01*
X187530017Y-83653333D01*
X187500255Y-83891428D01*
X187438351Y-84081904D01*
X187388351Y-84177142D01*
X187344303Y-84224761D01*
X187262160Y-84272380D01*
X187185970Y-84272380D01*
X187115732Y-84224761D01*
X187083589Y-84177142D01*
X187057398Y-84081904D01*
X187043113Y-83891428D01*
X187072875Y-83653333D01*
X187134779Y-83462857D01*
X187184779Y-83367619D01*
X187228827Y-83320000D01*
X187310970Y-83272380D01*
X188072875Y-83272380D02*
X188149065Y-83272380D01*
X188219303Y-83320000D01*
X188251446Y-83367619D01*
X188277636Y-83462857D01*
X188291922Y-83653333D01*
X188262160Y-83891428D01*
X188200255Y-84081904D01*
X188150255Y-84177142D01*
X188106208Y-84224761D01*
X188024065Y-84272380D01*
X187947875Y-84272380D01*
X187877636Y-84224761D01*
X187845494Y-84177142D01*
X187819303Y-84081904D01*
X187805017Y-83891428D01*
X187834779Y-83653333D01*
X187896684Y-83462857D01*
X187946684Y-83367619D01*
X187990732Y-83320000D01*
X188072875Y-83272380D01*
X188640732Y-83605714D02*
X188557398Y-84272380D01*
X188628827Y-83700952D02*
X188672875Y-83653333D01*
X188755017Y-83605714D01*
X188869303Y-83605714D01*
X188939541Y-83653333D01*
X188965732Y-83748571D01*
X188900255Y-84272380D01*
X189613351Y-83748571D02*
X189346684Y-83748571D01*
X189281208Y-84272380D02*
X189406208Y-83272380D01*
X189787160Y-83272380D01*
X136675833Y-86082142D02*
X136628214Y-86129761D01*
X136485357Y-86177380D01*
X136390119Y-86177380D01*
X136247261Y-86129761D01*
X136152023Y-86034523D01*
X136104404Y-85939285D01*
X136056785Y-85748809D01*
X136056785Y-85605952D01*
X136104404Y-85415476D01*
X136152023Y-85320238D01*
X136247261Y-85225000D01*
X136390119Y-85177380D01*
X136485357Y-85177380D01*
X136628214Y-85225000D01*
X136675833Y-85272619D01*
X137009166Y-85177380D02*
X137675833Y-85177380D01*
X137247261Y-86177380D01*
X137732232Y-88082380D02*
X137275089Y-88082380D01*
X137503660Y-88082380D02*
X137628660Y-87082380D01*
X137534613Y-87225238D01*
X137446517Y-87320476D01*
X137364375Y-87368095D01*
X138352470Y-87082380D02*
X138428660Y-87082380D01*
X138498898Y-87130000D01*
X138531041Y-87177619D01*
X138557232Y-87272857D01*
X138571517Y-87463333D01*
X138541755Y-87701428D01*
X138479851Y-87891904D01*
X138429851Y-87987142D01*
X138385803Y-88034761D01*
X138303660Y-88082380D01*
X138227470Y-88082380D01*
X138157232Y-88034761D01*
X138125089Y-87987142D01*
X138098898Y-87891904D01*
X138084613Y-87701428D01*
X138114375Y-87463333D01*
X138176279Y-87272857D01*
X138226279Y-87177619D01*
X138270327Y-87130000D01*
X138352470Y-87082380D01*
X139114375Y-87082380D02*
X139190565Y-87082380D01*
X139260803Y-87130000D01*
X139292946Y-87177619D01*
X139319136Y-87272857D01*
X139333422Y-87463333D01*
X139303660Y-87701428D01*
X139241755Y-87891904D01*
X139191755Y-87987142D01*
X139147708Y-88034761D01*
X139065565Y-88082380D01*
X138989375Y-88082380D01*
X138919136Y-88034761D01*
X138886994Y-87987142D01*
X138860803Y-87891904D01*
X138846517Y-87701428D01*
X138876279Y-87463333D01*
X138938184Y-87272857D01*
X138988184Y-87177619D01*
X139032232Y-87130000D01*
X139114375Y-87082380D01*
X139682232Y-87415714D02*
X139598898Y-88082380D01*
X139670327Y-87510952D02*
X139714375Y-87463333D01*
X139796517Y-87415714D01*
X139910803Y-87415714D01*
X139981041Y-87463333D01*
X140007232Y-87558571D01*
X139941755Y-88082380D01*
X140654851Y-87558571D02*
X140388184Y-87558571D01*
X140322708Y-88082380D02*
X140447708Y-87082380D01*
X140828660Y-87082380D01*
X149582142Y-101131666D02*
X149629761Y-101179285D01*
X149677380Y-101322142D01*
X149677380Y-101417380D01*
X149629761Y-101560238D01*
X149534523Y-101655476D01*
X149439285Y-101703095D01*
X149248809Y-101750714D01*
X149105952Y-101750714D01*
X148915476Y-101703095D01*
X148820238Y-101655476D01*
X148725000Y-101560238D01*
X148677380Y-101417380D01*
X148677380Y-101322142D01*
X148725000Y-101179285D01*
X148772619Y-101131666D01*
X148677380Y-100226904D02*
X148677380Y-100703095D01*
X149153571Y-100750714D01*
X149105952Y-100703095D01*
X149058333Y-100607857D01*
X149058333Y-100369761D01*
X149105952Y-100274523D01*
X149153571Y-100226904D01*
X149248809Y-100179285D01*
X149486904Y-100179285D01*
X149582142Y-100226904D01*
X149629761Y-100274523D01*
X149677380Y-100369761D01*
X149677380Y-100607857D01*
X149629761Y-100703095D01*
X149582142Y-100750714D01*
X152400732Y-101417380D02*
X151943589Y-101417380D01*
X152172160Y-101417380D02*
X152297160Y-100417380D01*
X152203113Y-100560238D01*
X152115017Y-100655476D01*
X152032875Y-100703095D01*
X153020970Y-100417380D02*
X153097160Y-100417380D01*
X153167398Y-100465000D01*
X153199541Y-100512619D01*
X153225732Y-100607857D01*
X153240017Y-100798333D01*
X153210255Y-101036428D01*
X153148351Y-101226904D01*
X153098351Y-101322142D01*
X153054303Y-101369761D01*
X152972160Y-101417380D01*
X152895970Y-101417380D01*
X152825732Y-101369761D01*
X152793589Y-101322142D01*
X152767398Y-101226904D01*
X152753113Y-101036428D01*
X152782875Y-100798333D01*
X152844779Y-100607857D01*
X152894779Y-100512619D01*
X152938827Y-100465000D01*
X153020970Y-100417380D01*
X153782875Y-100417380D02*
X153859065Y-100417380D01*
X153929303Y-100465000D01*
X153961446Y-100512619D01*
X153987636Y-100607857D01*
X154001922Y-100798333D01*
X153972160Y-101036428D01*
X153910255Y-101226904D01*
X153860255Y-101322142D01*
X153816208Y-101369761D01*
X153734065Y-101417380D01*
X153657875Y-101417380D01*
X153587636Y-101369761D01*
X153555494Y-101322142D01*
X153529303Y-101226904D01*
X153515017Y-101036428D01*
X153544779Y-100798333D01*
X153606684Y-100607857D01*
X153656684Y-100512619D01*
X153700732Y-100465000D01*
X153782875Y-100417380D01*
X154350732Y-100750714D02*
X154267398Y-101417380D01*
X154338827Y-100845952D02*
X154382875Y-100798333D01*
X154465017Y-100750714D01*
X154579303Y-100750714D01*
X154649541Y-100798333D01*
X154675732Y-100893571D01*
X154610255Y-101417380D01*
X155323351Y-100893571D02*
X155056684Y-100893571D01*
X154991208Y-101417380D02*
X155116208Y-100417380D01*
X155497160Y-100417380D01*
X149693333Y-124182142D02*
X149645714Y-124229761D01*
X149502857Y-124277380D01*
X149407619Y-124277380D01*
X149264761Y-124229761D01*
X149169523Y-124134523D01*
X149121904Y-124039285D01*
X149074285Y-123848809D01*
X149074285Y-123705952D01*
X149121904Y-123515476D01*
X149169523Y-123420238D01*
X149264761Y-123325000D01*
X149407619Y-123277380D01*
X149502857Y-123277380D01*
X149645714Y-123325000D01*
X149693333Y-123372619D01*
X150645714Y-124277380D02*
X150074285Y-124277380D01*
X150360000Y-124277380D02*
X150360000Y-123277380D01*
X150264761Y-123420238D01*
X150169523Y-123515476D01*
X150074285Y-123563095D01*
X148908184Y-122372380D02*
X148451041Y-122372380D01*
X148679613Y-122372380D02*
X148804613Y-121372380D01*
X148710565Y-121515238D01*
X148622470Y-121610476D01*
X148540327Y-121658095D01*
X149528422Y-121372380D02*
X149604613Y-121372380D01*
X149674851Y-121420000D01*
X149706994Y-121467619D01*
X149733184Y-121562857D01*
X149747470Y-121753333D01*
X149717708Y-121991428D01*
X149655803Y-122181904D01*
X149605803Y-122277142D01*
X149561755Y-122324761D01*
X149479613Y-122372380D01*
X149403422Y-122372380D01*
X149333184Y-122324761D01*
X149301041Y-122277142D01*
X149274851Y-122181904D01*
X149260565Y-121991428D01*
X149290327Y-121753333D01*
X149352232Y-121562857D01*
X149402232Y-121467619D01*
X149446279Y-121420000D01*
X149528422Y-121372380D01*
X150439136Y-121705714D02*
X150355803Y-122372380D01*
X150096279Y-121705714D02*
X150030803Y-122229523D01*
X150056994Y-122324761D01*
X150127232Y-122372380D01*
X150241517Y-122372380D01*
X150323660Y-122324761D01*
X150367708Y-122277142D01*
X151068898Y-121848571D02*
X150802232Y-121848571D01*
X150736755Y-122372380D02*
X150861755Y-121372380D01*
X151242708Y-121372380D01*
X181967142Y-111609166D02*
X182014761Y-111656785D01*
X182062380Y-111799642D01*
X182062380Y-111894880D01*
X182014761Y-112037738D01*
X181919523Y-112132976D01*
X181824285Y-112180595D01*
X181633809Y-112228214D01*
X181490952Y-112228214D01*
X181300476Y-112180595D01*
X181205238Y-112132976D01*
X181110000Y-112037738D01*
X181062380Y-111894880D01*
X181062380Y-111799642D01*
X181110000Y-111656785D01*
X181157619Y-111609166D01*
X181062380Y-111275833D02*
X181062380Y-110656785D01*
X181443333Y-110990119D01*
X181443333Y-110847261D01*
X181490952Y-110752023D01*
X181538571Y-110704404D01*
X181633809Y-110656785D01*
X181871904Y-110656785D01*
X181967142Y-110704404D01*
X182014761Y-110752023D01*
X182062380Y-110847261D01*
X182062380Y-111132976D01*
X182014761Y-111228214D01*
X181967142Y-111275833D01*
X182062380Y-107949267D02*
X182062380Y-108406410D01*
X182062380Y-108177839D02*
X181062380Y-108052839D01*
X181205238Y-108146886D01*
X181300476Y-108234982D01*
X181348095Y-108317125D01*
X181062380Y-107329029D02*
X181062380Y-107252839D01*
X181110000Y-107182601D01*
X181157619Y-107150458D01*
X181252857Y-107124267D01*
X181443333Y-107109982D01*
X181681428Y-107139744D01*
X181871904Y-107201648D01*
X181967142Y-107251648D01*
X182014761Y-107295696D01*
X182062380Y-107377839D01*
X182062380Y-107454029D01*
X182014761Y-107524267D01*
X181967142Y-107556410D01*
X181871904Y-107582601D01*
X181681428Y-107596886D01*
X181443333Y-107567125D01*
X181252857Y-107505220D01*
X181157619Y-107455220D01*
X181110000Y-107411172D01*
X181062380Y-107329029D01*
X181062380Y-106567125D02*
X181062380Y-106490934D01*
X181110000Y-106420696D01*
X181157619Y-106388553D01*
X181252857Y-106362363D01*
X181443333Y-106348077D01*
X181681428Y-106377839D01*
X181871904Y-106439744D01*
X181967142Y-106489744D01*
X182014761Y-106533791D01*
X182062380Y-106615934D01*
X182062380Y-106692125D01*
X182014761Y-106762363D01*
X181967142Y-106794505D01*
X181871904Y-106820696D01*
X181681428Y-106834982D01*
X181443333Y-106805220D01*
X181252857Y-106743315D01*
X181157619Y-106693315D01*
X181110000Y-106649267D01*
X181062380Y-106567125D01*
X181395714Y-105999267D02*
X182062380Y-106082601D01*
X181490952Y-106011172D02*
X181443333Y-105967125D01*
X181395714Y-105884982D01*
X181395714Y-105770696D01*
X181443333Y-105700458D01*
X181538571Y-105674267D01*
X182062380Y-105739744D01*
X181538571Y-105026648D02*
X181538571Y-105293315D01*
X182062380Y-105358791D02*
X181062380Y-105233791D01*
X181062380Y-104852839D01*
X179427142Y-111609166D02*
X179474761Y-111656785D01*
X179522380Y-111799642D01*
X179522380Y-111894880D01*
X179474761Y-112037738D01*
X179379523Y-112132976D01*
X179284285Y-112180595D01*
X179093809Y-112228214D01*
X178950952Y-112228214D01*
X178760476Y-112180595D01*
X178665238Y-112132976D01*
X178570000Y-112037738D01*
X178522380Y-111894880D01*
X178522380Y-111799642D01*
X178570000Y-111656785D01*
X178617619Y-111609166D01*
X178855714Y-110752023D02*
X179522380Y-110752023D01*
X178474761Y-110990119D02*
X179189047Y-111228214D01*
X179189047Y-110609166D01*
X179522380Y-107949267D02*
X179522380Y-108406410D01*
X179522380Y-108177839D02*
X178522380Y-108052839D01*
X178665238Y-108146886D01*
X178760476Y-108234982D01*
X178808095Y-108317125D01*
X178522380Y-107329029D02*
X178522380Y-107252839D01*
X178570000Y-107182601D01*
X178617619Y-107150458D01*
X178712857Y-107124267D01*
X178903333Y-107109982D01*
X179141428Y-107139744D01*
X179331904Y-107201648D01*
X179427142Y-107251648D01*
X179474761Y-107295696D01*
X179522380Y-107377839D01*
X179522380Y-107454029D01*
X179474761Y-107524267D01*
X179427142Y-107556410D01*
X179331904Y-107582601D01*
X179141428Y-107596886D01*
X178903333Y-107567125D01*
X178712857Y-107505220D01*
X178617619Y-107455220D01*
X178570000Y-107411172D01*
X178522380Y-107329029D01*
X178522380Y-106567125D02*
X178522380Y-106490934D01*
X178570000Y-106420696D01*
X178617619Y-106388553D01*
X178712857Y-106362363D01*
X178903333Y-106348077D01*
X179141428Y-106377839D01*
X179331904Y-106439744D01*
X179427142Y-106489744D01*
X179474761Y-106533791D01*
X179522380Y-106615934D01*
X179522380Y-106692125D01*
X179474761Y-106762363D01*
X179427142Y-106794505D01*
X179331904Y-106820696D01*
X179141428Y-106834982D01*
X178903333Y-106805220D01*
X178712857Y-106743315D01*
X178617619Y-106693315D01*
X178570000Y-106649267D01*
X178522380Y-106567125D01*
X178855714Y-105999267D02*
X179522380Y-106082601D01*
X178950952Y-106011172D02*
X178903333Y-105967125D01*
X178855714Y-105884982D01*
X178855714Y-105770696D01*
X178903333Y-105700458D01*
X178998571Y-105674267D01*
X179522380Y-105739744D01*
X178998571Y-105026648D02*
X178998571Y-105293315D01*
X179522380Y-105358791D02*
X178522380Y-105233791D01*
X178522380Y-104852839D01*
X130389404Y-83637380D02*
X130389404Y-82637380D01*
X130627500Y-82637380D01*
X130770357Y-82685000D01*
X130865595Y-82780238D01*
X130913214Y-82875476D01*
X130960833Y-83065952D01*
X130960833Y-83208809D01*
X130913214Y-83399285D01*
X130865595Y-83494523D01*
X130770357Y-83589761D01*
X130627500Y-83637380D01*
X130389404Y-83637380D01*
X131913214Y-83637380D02*
X131341785Y-83637380D01*
X131627500Y-83637380D02*
X131627500Y-82637380D01*
X131532261Y-82780238D01*
X131437023Y-82875476D01*
X131341785Y-82923095D01*
X130155803Y-85129642D02*
X130111755Y-85177261D01*
X129991517Y-85224880D01*
X129915327Y-85224880D01*
X129806994Y-85177261D01*
X129742708Y-85082023D01*
X129716517Y-84986785D01*
X129702232Y-84796309D01*
X129720089Y-84653452D01*
X129781994Y-84462976D01*
X129831994Y-84367738D01*
X129920089Y-84272500D01*
X130040327Y-84224880D01*
X130116517Y-84224880D01*
X130224851Y-84272500D01*
X130256994Y-84320119D01*
X130486755Y-85224880D02*
X130611755Y-84224880D01*
X130916517Y-84224880D01*
X130986755Y-84272500D01*
X131018898Y-84320119D01*
X131045089Y-84415357D01*
X131027232Y-84558214D01*
X130977232Y-84653452D01*
X130933184Y-84701071D01*
X130851041Y-84748690D01*
X130546279Y-84748690D01*
X131411755Y-84224880D02*
X131310565Y-85034404D01*
X131336755Y-85129642D01*
X131368898Y-85177261D01*
X131439136Y-85224880D01*
X131591517Y-85224880D01*
X131673660Y-85177261D01*
X131717708Y-85129642D01*
X131767708Y-85034404D01*
X131868898Y-84224880D01*
X138564880Y-81240238D02*
X138088690Y-81573571D01*
X138564880Y-81811666D02*
X137564880Y-81811666D01*
X137564880Y-81430714D01*
X137612500Y-81335476D01*
X137660119Y-81287857D01*
X137755357Y-81240238D01*
X137898214Y-81240238D01*
X137993452Y-81287857D01*
X138041071Y-81335476D01*
X138088690Y-81430714D01*
X138088690Y-81811666D01*
X137564880Y-80954523D02*
X138564880Y-80621190D01*
X137564880Y-80287857D01*
X138564880Y-79430714D02*
X138564880Y-80002142D01*
X138564880Y-79716428D02*
X137564880Y-79716428D01*
X137707738Y-79811666D01*
X137802976Y-79906904D01*
X137850595Y-80002142D01*
X139247619Y-81178958D02*
X139200000Y-81134910D01*
X139152380Y-81052767D01*
X139152380Y-80862291D01*
X139200000Y-80792053D01*
X139247619Y-80759910D01*
X139342857Y-80733720D01*
X139438095Y-80745625D01*
X139580952Y-80801577D01*
X140152380Y-81330148D01*
X140152380Y-80834910D01*
X140152380Y-80492053D02*
X139152380Y-80367053D01*
X139771428Y-80368244D02*
X140152380Y-80187291D01*
X139485714Y-80103958D02*
X139866666Y-80456339D01*
X158694523Y-122054880D02*
X158361190Y-121578690D01*
X158123095Y-122054880D02*
X158123095Y-121054880D01*
X158504047Y-121054880D01*
X158599285Y-121102500D01*
X158646904Y-121150119D01*
X158694523Y-121245357D01*
X158694523Y-121388214D01*
X158646904Y-121483452D01*
X158599285Y-121531071D01*
X158504047Y-121578690D01*
X158123095Y-121578690D01*
X159123095Y-122054880D02*
X159123095Y-121054880D01*
X159694523Y-122054880D01*
X159694523Y-121054880D01*
X160123095Y-121150119D02*
X160170714Y-121102500D01*
X160265952Y-121054880D01*
X160504047Y-121054880D01*
X160599285Y-121102500D01*
X160646904Y-121150119D01*
X160694523Y-121245357D01*
X160694523Y-121340595D01*
X160646904Y-121483452D01*
X160075476Y-122054880D01*
X160694523Y-122054880D01*
X158630803Y-122975714D02*
X158547470Y-123642380D01*
X158487946Y-122594761D02*
X158208184Y-123309047D01*
X158703422Y-123309047D01*
X158978422Y-123547142D02*
X159010565Y-123594761D01*
X158966517Y-123642380D01*
X158934375Y-123594761D01*
X158978422Y-123547142D01*
X158966517Y-123642380D01*
X159396279Y-122642380D02*
X159929613Y-122642380D01*
X159461755Y-123642380D01*
X160109375Y-123642380D02*
X160234375Y-122642380D01*
X160233184Y-123261428D02*
X160414136Y-123642380D01*
X160497470Y-122975714D02*
X160145089Y-123356666D01*
X186634523Y-122054880D02*
X186301190Y-121578690D01*
X186063095Y-122054880D02*
X186063095Y-121054880D01*
X186444047Y-121054880D01*
X186539285Y-121102500D01*
X186586904Y-121150119D01*
X186634523Y-121245357D01*
X186634523Y-121388214D01*
X186586904Y-121483452D01*
X186539285Y-121531071D01*
X186444047Y-121578690D01*
X186063095Y-121578690D01*
X187063095Y-122054880D02*
X187063095Y-121054880D01*
X187634523Y-122054880D01*
X187634523Y-121054880D01*
X188634523Y-122054880D02*
X188063095Y-122054880D01*
X188348809Y-122054880D02*
X188348809Y-121054880D01*
X188253571Y-121197738D01*
X188158333Y-121292976D01*
X188063095Y-121340595D01*
X186570803Y-122975714D02*
X186487470Y-123642380D01*
X186427946Y-122594761D02*
X186148184Y-123309047D01*
X186643422Y-123309047D01*
X186918422Y-123547142D02*
X186950565Y-123594761D01*
X186906517Y-123642380D01*
X186874375Y-123594761D01*
X186918422Y-123547142D01*
X186906517Y-123642380D01*
X187336279Y-122642380D02*
X187869613Y-122642380D01*
X187401755Y-123642380D01*
X188049375Y-123642380D02*
X188174375Y-122642380D01*
X188173184Y-123261428D02*
X188354136Y-123642380D01*
X188437470Y-122975714D02*
X188085089Y-123356666D01*
X157670595Y-99464880D02*
X157670595Y-100274404D01*
X157718214Y-100369642D01*
X157765833Y-100417261D01*
X157861071Y-100464880D01*
X158051547Y-100464880D01*
X158146785Y-100417261D01*
X158194404Y-100369642D01*
X158242023Y-100274404D01*
X158242023Y-99464880D01*
X159194404Y-99464880D02*
X158718214Y-99464880D01*
X158670595Y-99941071D01*
X158718214Y-99893452D01*
X158813452Y-99845833D01*
X159051547Y-99845833D01*
X159146785Y-99893452D01*
X159194404Y-99941071D01*
X159242023Y-100036309D01*
X159242023Y-100274404D01*
X159194404Y-100369642D01*
X159146785Y-100417261D01*
X159051547Y-100464880D01*
X158813452Y-100464880D01*
X158718214Y-100417261D01*
X158670595Y-100369642D01*
X151077708Y-97321666D02*
X151458660Y-97321666D01*
X150965803Y-97607380D02*
X151357470Y-96607380D01*
X151499136Y-97607380D01*
X151765803Y-97607380D02*
X151890803Y-96607380D01*
X152081279Y-96607380D01*
X152189613Y-96655000D01*
X152253898Y-96750238D01*
X152280089Y-96845476D01*
X152294375Y-97035952D01*
X152276517Y-97178809D01*
X152214613Y-97369285D01*
X152164613Y-97464523D01*
X152076517Y-97559761D01*
X151956279Y-97607380D01*
X151765803Y-97607380D01*
X152565803Y-97607380D02*
X152690803Y-96607380D01*
X152868184Y-97321666D01*
X153224136Y-96607380D01*
X153099136Y-97607380D01*
X153947946Y-96607380D02*
X153795565Y-96607380D01*
X153713422Y-96655000D01*
X153669375Y-96702619D01*
X153575327Y-96845476D01*
X153513422Y-97035952D01*
X153465803Y-97416904D01*
X153491994Y-97512142D01*
X153524136Y-97559761D01*
X153594375Y-97607380D01*
X153746755Y-97607380D01*
X153828898Y-97559761D01*
X153872946Y-97512142D01*
X153922946Y-97416904D01*
X153952708Y-97178809D01*
X153926517Y-97083571D01*
X153894375Y-97035952D01*
X153824136Y-96988333D01*
X153671755Y-96988333D01*
X153589613Y-97035952D01*
X153545565Y-97083571D01*
X153495565Y-97178809D01*
X154280089Y-97607380D02*
X154432470Y-97607380D01*
X154514613Y-97559761D01*
X154558660Y-97512142D01*
X154652708Y-97369285D01*
X154714613Y-97178809D01*
X154762232Y-96797857D01*
X154736041Y-96702619D01*
X154703898Y-96655000D01*
X154633660Y-96607380D01*
X154481279Y-96607380D01*
X154399136Y-96655000D01*
X154355089Y-96702619D01*
X154305089Y-96797857D01*
X154275327Y-97035952D01*
X154301517Y-97131190D01*
X154333660Y-97178809D01*
X154403898Y-97226428D01*
X154556279Y-97226428D01*
X154638422Y-97178809D01*
X154682470Y-97131190D01*
X154732470Y-97035952D01*
X155052708Y-96607380D02*
X155547946Y-96607380D01*
X155233660Y-96988333D01*
X155347946Y-96988333D01*
X155418184Y-97035952D01*
X155450327Y-97083571D01*
X155476517Y-97178809D01*
X155446755Y-97416904D01*
X155396755Y-97512142D01*
X155352708Y-97559761D01*
X155270565Y-97607380D01*
X155041994Y-97607380D01*
X154971755Y-97559761D01*
X154939613Y-97512142D01*
X155763422Y-97321666D02*
X156144375Y-97321666D01*
X155651517Y-97607380D02*
X156043184Y-96607380D01*
X156184851Y-97607380D01*
X182967380Y-103314404D02*
X183776904Y-103314404D01*
X183872142Y-103266785D01*
X183919761Y-103219166D01*
X183967380Y-103123928D01*
X183967380Y-102933452D01*
X183919761Y-102838214D01*
X183872142Y-102790595D01*
X183776904Y-102742976D01*
X182967380Y-102742976D01*
X183062619Y-102314404D02*
X183015000Y-102266785D01*
X182967380Y-102171547D01*
X182967380Y-101933452D01*
X183015000Y-101838214D01*
X183062619Y-101790595D01*
X183157857Y-101742976D01*
X183253095Y-101742976D01*
X183395952Y-101790595D01*
X183967380Y-102362023D01*
X183967380Y-101742976D01*
X189725922Y-94384761D02*
X189834255Y-94432380D01*
X190024732Y-94432380D01*
X190106875Y-94384761D01*
X190150922Y-94337142D01*
X190200922Y-94241904D01*
X190212827Y-94146666D01*
X190186636Y-94051428D01*
X190154494Y-94003809D01*
X190084255Y-93956190D01*
X189937827Y-93908571D01*
X189867589Y-93860952D01*
X189835446Y-93813333D01*
X189809255Y-93718095D01*
X189821160Y-93622857D01*
X189871160Y-93527619D01*
X189915208Y-93480000D01*
X189997351Y-93432380D01*
X190187827Y-93432380D01*
X190296160Y-93480000D01*
X190487827Y-94384761D02*
X190596160Y-94432380D01*
X190786636Y-94432380D01*
X190868779Y-94384761D01*
X190912827Y-94337142D01*
X190962827Y-94241904D01*
X190974732Y-94146666D01*
X190948541Y-94051428D01*
X190916398Y-94003809D01*
X190846160Y-93956190D01*
X190699732Y-93908571D01*
X190629494Y-93860952D01*
X190597351Y-93813333D01*
X190571160Y-93718095D01*
X190583065Y-93622857D01*
X190633065Y-93527619D01*
X190677113Y-93480000D01*
X190759255Y-93432380D01*
X190949732Y-93432380D01*
X191058065Y-93480000D01*
X191292589Y-93432380D02*
X191749732Y-93432380D01*
X191396160Y-94432380D02*
X191521160Y-93432380D01*
X191940208Y-93432380D02*
X192435446Y-93432380D01*
X192121160Y-93813333D01*
X192235446Y-93813333D01*
X192305684Y-93860952D01*
X192337827Y-93908571D01*
X192364017Y-94003809D01*
X192334255Y-94241904D01*
X192284255Y-94337142D01*
X192240208Y-94384761D01*
X192158065Y-94432380D01*
X191929494Y-94432380D01*
X191859255Y-94384761D01*
X191827113Y-94337142D01*
X192691398Y-94432380D02*
X192843779Y-94432380D01*
X192925922Y-94384761D01*
X192969970Y-94337142D01*
X193064017Y-94194285D01*
X193125922Y-94003809D01*
X193173541Y-93622857D01*
X193147351Y-93527619D01*
X193115208Y-93480000D01*
X193044970Y-93432380D01*
X192892589Y-93432380D01*
X192810446Y-93480000D01*
X192766398Y-93527619D01*
X192716398Y-93622857D01*
X192686636Y-93860952D01*
X192712827Y-93956190D01*
X192744970Y-94003809D01*
X192815208Y-94051428D01*
X192967589Y-94051428D01*
X193049732Y-94003809D01*
X193093779Y-93956190D01*
X193143779Y-93860952D01*
X193383065Y-94384761D02*
X193491398Y-94432380D01*
X193681875Y-94432380D01*
X193764017Y-94384761D01*
X193808065Y-94337142D01*
X193858065Y-94241904D01*
X193869970Y-94146666D01*
X193843779Y-94051428D01*
X193811636Y-94003809D01*
X193741398Y-93956190D01*
X193594970Y-93908571D01*
X193524732Y-93860952D01*
X193492589Y-93813333D01*
X193466398Y-93718095D01*
X193478303Y-93622857D01*
X193528303Y-93527619D01*
X193572351Y-93480000D01*
X193654494Y-93432380D01*
X193844970Y-93432380D01*
X193953303Y-93480000D01*
X194509255Y-93908571D02*
X194242589Y-93908571D01*
X194177113Y-94432380D02*
X194302113Y-93432380D01*
X194683065Y-93432380D01*
X195140208Y-93432380D02*
X195216398Y-93432380D01*
X195286636Y-93480000D01*
X195318779Y-93527619D01*
X195344970Y-93622857D01*
X195359255Y-93813333D01*
X195329494Y-94051428D01*
X195267589Y-94241904D01*
X195217589Y-94337142D01*
X195173541Y-94384761D01*
X195091398Y-94432380D01*
X195015208Y-94432380D01*
X194944970Y-94384761D01*
X194912827Y-94337142D01*
X194886636Y-94241904D01*
X194872351Y-94051428D01*
X194902113Y-93813333D01*
X194964017Y-93622857D01*
X195014017Y-93527619D01*
X195058065Y-93480000D01*
X195140208Y-93432380D01*
X196050922Y-93765714D02*
X195967589Y-94432380D01*
X195908065Y-93384761D02*
X195628303Y-94099047D01*
X196123541Y-94099047D01*
X196664017Y-93432380D02*
X196740208Y-93432380D01*
X196810446Y-93480000D01*
X196842589Y-93527619D01*
X196868779Y-93622857D01*
X196883065Y-93813333D01*
X196853303Y-94051428D01*
X196791398Y-94241904D01*
X196741398Y-94337142D01*
X196697351Y-94384761D01*
X196615208Y-94432380D01*
X196539017Y-94432380D01*
X196468779Y-94384761D01*
X196436636Y-94337142D01*
X196410446Y-94241904D01*
X196396160Y-94051428D01*
X196425922Y-93813333D01*
X196487827Y-93622857D01*
X196537827Y-93527619D01*
X196581875Y-93480000D01*
X196664017Y-93432380D01*
X182967380Y-112521904D02*
X183776904Y-112521904D01*
X183872142Y-112474285D01*
X183919761Y-112426666D01*
X183967380Y-112331428D01*
X183967380Y-112140952D01*
X183919761Y-112045714D01*
X183872142Y-111998095D01*
X183776904Y-111950476D01*
X182967380Y-111950476D01*
X182967380Y-111569523D02*
X182967380Y-110950476D01*
X183348333Y-111283809D01*
X183348333Y-111140952D01*
X183395952Y-111045714D01*
X183443571Y-110998095D01*
X183538809Y-110950476D01*
X183776904Y-110950476D01*
X183872142Y-110998095D01*
X183919761Y-111045714D01*
X183967380Y-111140952D01*
X183967380Y-111426666D01*
X183919761Y-111521904D01*
X183872142Y-111569523D01*
X190104851Y-111926666D02*
X190485803Y-111926666D01*
X189992946Y-112212380D02*
X190384613Y-111212380D01*
X190526279Y-112212380D01*
X190760803Y-112164761D02*
X190869136Y-112212380D01*
X191059613Y-112212380D01*
X191141755Y-112164761D01*
X191185803Y-112117142D01*
X191235803Y-112021904D01*
X191247708Y-111926666D01*
X191221517Y-111831428D01*
X191189375Y-111783809D01*
X191119136Y-111736190D01*
X190972708Y-111688571D01*
X190902470Y-111640952D01*
X190870327Y-111593333D01*
X190844136Y-111498095D01*
X190856041Y-111402857D01*
X190906041Y-111307619D01*
X190950089Y-111260000D01*
X191032232Y-111212380D01*
X191222708Y-111212380D01*
X191331041Y-111260000D01*
X192022708Y-111212380D02*
X191870327Y-111212380D01*
X191788184Y-111260000D01*
X191744136Y-111307619D01*
X191650089Y-111450476D01*
X191588184Y-111640952D01*
X191540565Y-112021904D01*
X191566755Y-112117142D01*
X191598898Y-112164761D01*
X191669136Y-112212380D01*
X191821517Y-112212380D01*
X191903660Y-112164761D01*
X191947708Y-112117142D01*
X191997708Y-112021904D01*
X192027470Y-111783809D01*
X192001279Y-111688571D01*
X191969136Y-111640952D01*
X191898898Y-111593333D01*
X191746517Y-111593333D01*
X191664375Y-111640952D01*
X191620327Y-111688571D01*
X191570327Y-111783809D01*
X192785803Y-112117142D02*
X192741755Y-112164761D01*
X192621517Y-112212380D01*
X192545327Y-112212380D01*
X192436994Y-112164761D01*
X192372708Y-112069523D01*
X192346517Y-111974285D01*
X192332232Y-111783809D01*
X192350089Y-111640952D01*
X192411994Y-111450476D01*
X192461994Y-111355238D01*
X192550089Y-111260000D01*
X192670327Y-111212380D01*
X192746517Y-111212380D01*
X192854851Y-111260000D01*
X192886994Y-111307619D01*
X193542946Y-111545714D02*
X193459613Y-112212380D01*
X193400089Y-111164761D02*
X193120327Y-111879047D01*
X193615565Y-111879047D01*
X194156041Y-111212380D02*
X194232232Y-111212380D01*
X194302470Y-111260000D01*
X194334613Y-111307619D01*
X194360803Y-111402857D01*
X194375089Y-111593333D01*
X194345327Y-111831428D01*
X194283422Y-112021904D01*
X194233422Y-112117142D01*
X194189375Y-112164761D01*
X194107232Y-112212380D01*
X194031041Y-112212380D01*
X193960803Y-112164761D01*
X193928660Y-112117142D01*
X193902470Y-112021904D01*
X193888184Y-111831428D01*
X193917946Y-111593333D01*
X193979851Y-111402857D01*
X194029851Y-111307619D01*
X194073898Y-111260000D01*
X194156041Y-111212380D01*
X194917946Y-111212380D02*
X194994136Y-111212380D01*
X195064375Y-111260000D01*
X195096517Y-111307619D01*
X195122708Y-111402857D01*
X195136994Y-111593333D01*
X195107232Y-111831428D01*
X195045327Y-112021904D01*
X194995327Y-112117142D01*
X194951279Y-112164761D01*
X194869136Y-112212380D01*
X194792946Y-112212380D01*
X194722708Y-112164761D01*
X194690565Y-112117142D01*
X194664375Y-112021904D01*
X194650089Y-111831428D01*
X194679851Y-111593333D01*
X194741755Y-111402857D01*
X194791755Y-111307619D01*
X194835803Y-111260000D01*
X194917946Y-111212380D01*
X195588184Y-111640952D02*
X195517946Y-111593333D01*
X195485803Y-111545714D01*
X195459613Y-111450476D01*
X195465565Y-111402857D01*
X195515565Y-111307619D01*
X195559613Y-111260000D01*
X195641755Y-111212380D01*
X195794136Y-111212380D01*
X195864375Y-111260000D01*
X195896517Y-111307619D01*
X195922708Y-111402857D01*
X195916755Y-111450476D01*
X195866755Y-111545714D01*
X195822708Y-111593333D01*
X195740565Y-111640952D01*
X195588184Y-111640952D01*
X195506041Y-111688571D01*
X195461994Y-111736190D01*
X195411994Y-111831428D01*
X195388184Y-112021904D01*
X195414375Y-112117142D01*
X195446517Y-112164761D01*
X195516755Y-112212380D01*
X195669136Y-112212380D01*
X195751279Y-112164761D01*
X195795327Y-112117142D01*
X195845327Y-112021904D01*
X195869136Y-111831428D01*
X195842946Y-111736190D01*
X195810803Y-111688571D01*
X195740565Y-111640952D01*
X126238095Y-101052380D02*
X126238095Y-101861904D01*
X126285714Y-101957142D01*
X126333333Y-102004761D01*
X126428571Y-102052380D01*
X126619047Y-102052380D01*
X126714285Y-102004761D01*
X126761904Y-101957142D01*
X126809523Y-101861904D01*
X126809523Y-101052380D01*
X127809523Y-102052380D02*
X127238095Y-102052380D01*
X127523809Y-102052380D02*
X127523809Y-101052380D01*
X127428571Y-101195238D01*
X127333333Y-101290476D01*
X127238095Y-101338095D01*
X132459851Y-111212380D02*
X132993184Y-111212380D01*
X132334851Y-112212380D01*
X132868184Y-112212380D01*
X133358660Y-111640952D02*
X133288422Y-111593333D01*
X133256279Y-111545714D01*
X133230089Y-111450476D01*
X133236041Y-111402857D01*
X133286041Y-111307619D01*
X133330089Y-111260000D01*
X133412232Y-111212380D01*
X133564613Y-111212380D01*
X133634851Y-111260000D01*
X133666994Y-111307619D01*
X133693184Y-111402857D01*
X133687232Y-111450476D01*
X133637232Y-111545714D01*
X133593184Y-111593333D01*
X133511041Y-111640952D01*
X133358660Y-111640952D01*
X133276517Y-111688571D01*
X133232470Y-111736190D01*
X133182470Y-111831428D01*
X133158660Y-112021904D01*
X133184851Y-112117142D01*
X133216994Y-112164761D01*
X133287232Y-112212380D01*
X133439613Y-112212380D01*
X133521755Y-112164761D01*
X133565803Y-112117142D01*
X133615803Y-112021904D01*
X133639613Y-111831428D01*
X133613422Y-111736190D01*
X133581279Y-111688571D01*
X133511041Y-111640952D01*
X134361041Y-111545714D02*
X134277708Y-112212380D01*
X134218184Y-111164761D02*
X133938422Y-111879047D01*
X134433660Y-111879047D01*
X135165803Y-112117142D02*
X135121755Y-112164761D01*
X135001517Y-112212380D01*
X134925327Y-112212380D01*
X134816994Y-112164761D01*
X134752708Y-112069523D01*
X134726517Y-111974285D01*
X134712232Y-111783809D01*
X134730089Y-111640952D01*
X134791994Y-111450476D01*
X134841994Y-111355238D01*
X134930089Y-111260000D01*
X135050327Y-111212380D01*
X135126517Y-111212380D01*
X135234851Y-111260000D01*
X135266994Y-111307619D01*
X135774136Y-111212380D02*
X135850327Y-111212380D01*
X135920565Y-111260000D01*
X135952708Y-111307619D01*
X135978898Y-111402857D01*
X135993184Y-111593333D01*
X135963422Y-111831428D01*
X135901517Y-112021904D01*
X135851517Y-112117142D01*
X135807470Y-112164761D01*
X135725327Y-112212380D01*
X135649136Y-112212380D01*
X135578898Y-112164761D01*
X135546755Y-112117142D01*
X135520565Y-112021904D01*
X135506279Y-111831428D01*
X135536041Y-111593333D01*
X135597946Y-111402857D01*
X135647946Y-111307619D01*
X135691994Y-111260000D01*
X135774136Y-111212380D01*
X136536041Y-111212380D02*
X136612232Y-111212380D01*
X136682470Y-111260000D01*
X136714613Y-111307619D01*
X136740803Y-111402857D01*
X136755089Y-111593333D01*
X136725327Y-111831428D01*
X136663422Y-112021904D01*
X136613422Y-112117142D01*
X136569375Y-112164761D01*
X136487232Y-112212380D01*
X136411041Y-112212380D01*
X136340803Y-112164761D01*
X136308660Y-112117142D01*
X136282470Y-112021904D01*
X136268184Y-111831428D01*
X136297946Y-111593333D01*
X136359851Y-111402857D01*
X136409851Y-111307619D01*
X136453898Y-111260000D01*
X136536041Y-111212380D01*
X127342857Y-123732857D02*
X126657142Y-123732857D01*
X127000000Y-123732857D02*
X127000000Y-122532857D01*
X126885714Y-122704285D01*
X126771428Y-122818571D01*
X126657142Y-122875714D01*
X201112380Y-81286333D02*
X200636190Y-81553000D01*
X201112380Y-81743476D02*
X200112380Y-81743476D01*
X200112380Y-81438714D01*
X200160000Y-81362523D01*
X200207619Y-81324428D01*
X200302857Y-81286333D01*
X200445714Y-81286333D01*
X200540952Y-81324428D01*
X200588571Y-81362523D01*
X200636190Y-81438714D01*
X200636190Y-81743476D01*
X201112380Y-80524428D02*
X201112380Y-80981571D01*
X201112380Y-80753000D02*
X200112380Y-80753000D01*
X200255238Y-80829190D01*
X200350476Y-80905380D01*
X200398095Y-80981571D01*
X201359136Y-84907380D02*
X200901994Y-84907380D01*
X201130565Y-84907380D02*
X201255565Y-83907380D01*
X201161517Y-84050238D01*
X201073422Y-84145476D01*
X200991279Y-84193095D01*
X201979375Y-83907380D02*
X202055565Y-83907380D01*
X202125803Y-83955000D01*
X202157946Y-84002619D01*
X202184136Y-84097857D01*
X202198422Y-84288333D01*
X202168660Y-84526428D01*
X202106755Y-84716904D01*
X202056755Y-84812142D01*
X202012708Y-84859761D01*
X201930565Y-84907380D01*
X201854375Y-84907380D01*
X201784136Y-84859761D01*
X201751994Y-84812142D01*
X201725803Y-84716904D01*
X201711517Y-84526428D01*
X201741279Y-84288333D01*
X201803184Y-84097857D01*
X201853184Y-84002619D01*
X201897232Y-83955000D01*
X201979375Y-83907380D01*
X202463898Y-84907380D02*
X202588898Y-83907380D01*
X202587708Y-84526428D02*
X202768660Y-84907380D01*
X202851994Y-84240714D02*
X202499613Y-84621666D01*
X198572380Y-81286333D02*
X198096190Y-81553000D01*
X198572380Y-81743476D02*
X197572380Y-81743476D01*
X197572380Y-81438714D01*
X197620000Y-81362523D01*
X197667619Y-81324428D01*
X197762857Y-81286333D01*
X197905714Y-81286333D01*
X198000952Y-81324428D01*
X198048571Y-81362523D01*
X198096190Y-81438714D01*
X198096190Y-81743476D01*
X197667619Y-80981571D02*
X197620000Y-80943476D01*
X197572380Y-80867285D01*
X197572380Y-80676809D01*
X197620000Y-80600619D01*
X197667619Y-80562523D01*
X197762857Y-80524428D01*
X197858095Y-80524428D01*
X198000952Y-80562523D01*
X198572380Y-81019666D01*
X198572380Y-80524428D01*
X198819136Y-84907380D02*
X198361994Y-84907380D01*
X198590565Y-84907380D02*
X198715565Y-83907380D01*
X198621517Y-84050238D01*
X198533422Y-84145476D01*
X198451279Y-84193095D01*
X199439375Y-83907380D02*
X199515565Y-83907380D01*
X199585803Y-83955000D01*
X199617946Y-84002619D01*
X199644136Y-84097857D01*
X199658422Y-84288333D01*
X199628660Y-84526428D01*
X199566755Y-84716904D01*
X199516755Y-84812142D01*
X199472708Y-84859761D01*
X199390565Y-84907380D01*
X199314375Y-84907380D01*
X199244136Y-84859761D01*
X199211994Y-84812142D01*
X199185803Y-84716904D01*
X199171517Y-84526428D01*
X199201279Y-84288333D01*
X199263184Y-84097857D01*
X199313184Y-84002619D01*
X199357232Y-83955000D01*
X199439375Y-83907380D01*
X199923898Y-84907380D02*
X200048898Y-83907380D01*
X200047708Y-84526428D02*
X200228660Y-84907380D01*
X200311994Y-84240714D02*
X199959613Y-84621666D01*
X196032380Y-81286333D02*
X195556190Y-81553000D01*
X196032380Y-81743476D02*
X195032380Y-81743476D01*
X195032380Y-81438714D01*
X195080000Y-81362523D01*
X195127619Y-81324428D01*
X195222857Y-81286333D01*
X195365714Y-81286333D01*
X195460952Y-81324428D01*
X195508571Y-81362523D01*
X195556190Y-81438714D01*
X195556190Y-81743476D01*
X195032380Y-81019666D02*
X195032380Y-80524428D01*
X195413333Y-80791095D01*
X195413333Y-80676809D01*
X195460952Y-80600619D01*
X195508571Y-80562523D01*
X195603809Y-80524428D01*
X195841904Y-80524428D01*
X195937142Y-80562523D01*
X195984761Y-80600619D01*
X196032380Y-80676809D01*
X196032380Y-80905380D01*
X195984761Y-80981571D01*
X195937142Y-81019666D01*
X196279136Y-84907380D02*
X195821994Y-84907380D01*
X196050565Y-84907380D02*
X196175565Y-83907380D01*
X196081517Y-84050238D01*
X195993422Y-84145476D01*
X195911279Y-84193095D01*
X196899375Y-83907380D02*
X196975565Y-83907380D01*
X197045803Y-83955000D01*
X197077946Y-84002619D01*
X197104136Y-84097857D01*
X197118422Y-84288333D01*
X197088660Y-84526428D01*
X197026755Y-84716904D01*
X196976755Y-84812142D01*
X196932708Y-84859761D01*
X196850565Y-84907380D01*
X196774375Y-84907380D01*
X196704136Y-84859761D01*
X196671994Y-84812142D01*
X196645803Y-84716904D01*
X196631517Y-84526428D01*
X196661279Y-84288333D01*
X196723184Y-84097857D01*
X196773184Y-84002619D01*
X196817232Y-83955000D01*
X196899375Y-83907380D01*
X197383898Y-84907380D02*
X197508898Y-83907380D01*
X197507708Y-84526428D02*
X197688660Y-84907380D01*
X197771994Y-84240714D02*
X197419613Y-84621666D01*
X193492380Y-81286333D02*
X193016190Y-81553000D01*
X193492380Y-81743476D02*
X192492380Y-81743476D01*
X192492380Y-81438714D01*
X192540000Y-81362523D01*
X192587619Y-81324428D01*
X192682857Y-81286333D01*
X192825714Y-81286333D01*
X192920952Y-81324428D01*
X192968571Y-81362523D01*
X193016190Y-81438714D01*
X193016190Y-81743476D01*
X192825714Y-80600619D02*
X193492380Y-80600619D01*
X192444761Y-80791095D02*
X193159047Y-80981571D01*
X193159047Y-80486333D01*
X193739136Y-84907380D02*
X193281994Y-84907380D01*
X193510565Y-84907380D02*
X193635565Y-83907380D01*
X193541517Y-84050238D01*
X193453422Y-84145476D01*
X193371279Y-84193095D01*
X194359375Y-83907380D02*
X194435565Y-83907380D01*
X194505803Y-83955000D01*
X194537946Y-84002619D01*
X194564136Y-84097857D01*
X194578422Y-84288333D01*
X194548660Y-84526428D01*
X194486755Y-84716904D01*
X194436755Y-84812142D01*
X194392708Y-84859761D01*
X194310565Y-84907380D01*
X194234375Y-84907380D01*
X194164136Y-84859761D01*
X194131994Y-84812142D01*
X194105803Y-84716904D01*
X194091517Y-84526428D01*
X194121279Y-84288333D01*
X194183184Y-84097857D01*
X194233184Y-84002619D01*
X194277232Y-83955000D01*
X194359375Y-83907380D01*
X194843898Y-84907380D02*
X194968898Y-83907380D01*
X194967708Y-84526428D02*
X195148660Y-84907380D01*
X195231994Y-84240714D02*
X194879613Y-84621666D01*
X145930880Y-86302833D02*
X145454690Y-86569500D01*
X145930880Y-86759976D02*
X144930880Y-86759976D01*
X144930880Y-86455214D01*
X144978500Y-86379023D01*
X145026119Y-86340928D01*
X145121357Y-86302833D01*
X145264214Y-86302833D01*
X145359452Y-86340928D01*
X145407071Y-86379023D01*
X145454690Y-86455214D01*
X145454690Y-86759976D01*
X144930880Y-85579023D02*
X144930880Y-85959976D01*
X145407071Y-85998071D01*
X145359452Y-85959976D01*
X145311833Y-85883785D01*
X145311833Y-85693309D01*
X145359452Y-85617119D01*
X145407071Y-85579023D01*
X145502309Y-85540928D01*
X145740404Y-85540928D01*
X145835642Y-85579023D01*
X145883261Y-85617119D01*
X145930880Y-85693309D01*
X145930880Y-85883785D01*
X145883261Y-85959976D01*
X145835642Y-85998071D01*
X148407380Y-86676863D02*
X148407380Y-87134005D01*
X148407380Y-86905434D02*
X147407380Y-86780434D01*
X147550238Y-86874482D01*
X147645476Y-86962577D01*
X147693095Y-87044720D01*
X147407380Y-86056625D02*
X147407380Y-85980434D01*
X147455000Y-85910196D01*
X147502619Y-85878053D01*
X147597857Y-85851863D01*
X147788333Y-85837577D01*
X148026428Y-85867339D01*
X148216904Y-85929244D01*
X148312142Y-85979244D01*
X148359761Y-86023291D01*
X148407380Y-86105434D01*
X148407380Y-86181625D01*
X148359761Y-86251863D01*
X148312142Y-86284005D01*
X148216904Y-86310196D01*
X148026428Y-86324482D01*
X147788333Y-86294720D01*
X147597857Y-86232815D01*
X147502619Y-86182815D01*
X147455000Y-86138767D01*
X147407380Y-86056625D01*
X148407380Y-85572101D02*
X147407380Y-85447101D01*
X148026428Y-85448291D02*
X148407380Y-85267339D01*
X147740714Y-85184005D02*
X148121666Y-85536386D01*
X143403580Y-86340933D02*
X142927390Y-86607600D01*
X143403580Y-86798076D02*
X142403580Y-86798076D01*
X142403580Y-86493314D01*
X142451200Y-86417123D01*
X142498819Y-86379028D01*
X142594057Y-86340933D01*
X142736914Y-86340933D01*
X142832152Y-86379028D01*
X142879771Y-86417123D01*
X142927390Y-86493314D01*
X142927390Y-86798076D01*
X142403580Y-85655219D02*
X142403580Y-85807600D01*
X142451200Y-85883790D01*
X142498819Y-85921885D01*
X142641676Y-85998076D01*
X142832152Y-86036171D01*
X143213104Y-86036171D01*
X143308342Y-85998076D01*
X143355961Y-85959980D01*
X143403580Y-85883790D01*
X143403580Y-85731409D01*
X143355961Y-85655219D01*
X143308342Y-85617123D01*
X143213104Y-85579028D01*
X142975009Y-85579028D01*
X142879771Y-85617123D01*
X142832152Y-85655219D01*
X142784533Y-85731409D01*
X142784533Y-85883790D01*
X142832152Y-85959980D01*
X142879771Y-85998076D01*
X142975009Y-86036171D01*
X134167619Y-94831339D02*
X134120000Y-94787291D01*
X134072380Y-94705148D01*
X134072380Y-94514672D01*
X134120000Y-94444434D01*
X134167619Y-94412291D01*
X134262857Y-94386101D01*
X134358095Y-94398005D01*
X134500952Y-94453958D01*
X135072380Y-94982529D01*
X135072380Y-94487291D01*
X135072380Y-94106339D02*
X135072380Y-93953958D01*
X135024761Y-93871815D01*
X134977142Y-93827767D01*
X134834285Y-93733720D01*
X134643809Y-93671815D01*
X134262857Y-93624196D01*
X134167619Y-93650386D01*
X134120000Y-93682529D01*
X134072380Y-93752767D01*
X134072380Y-93905148D01*
X134120000Y-93987291D01*
X134167619Y-94031339D01*
X134262857Y-94081339D01*
X134500952Y-94111101D01*
X134596190Y-94084910D01*
X134643809Y-94052767D01*
X134691428Y-93982529D01*
X134691428Y-93830148D01*
X134643809Y-93748005D01*
X134596190Y-93703958D01*
X134500952Y-93653958D01*
X134977142Y-93370625D02*
X135024761Y-93338482D01*
X135072380Y-93382529D01*
X135024761Y-93414672D01*
X134977142Y-93370625D01*
X135072380Y-93382529D01*
X134405714Y-92575386D02*
X135072380Y-92658720D01*
X134024761Y-92718244D02*
X134739047Y-92998005D01*
X134739047Y-92502767D01*
X135072380Y-92239672D02*
X134072380Y-92114672D01*
X134691428Y-92115863D02*
X135072380Y-91934910D01*
X134405714Y-91851577D02*
X134786666Y-92203958D01*
X137628333Y-83954880D02*
X137295000Y-83478690D01*
X137056904Y-83954880D02*
X137056904Y-82954880D01*
X137437857Y-82954880D01*
X137533095Y-83002500D01*
X137580714Y-83050119D01*
X137628333Y-83145357D01*
X137628333Y-83288214D01*
X137580714Y-83383452D01*
X137533095Y-83431071D01*
X137437857Y-83478690D01*
X137056904Y-83478690D01*
X137961666Y-82954880D02*
X138628333Y-82954880D01*
X138199761Y-83954880D01*
X139510089Y-83954880D02*
X139052946Y-83954880D01*
X139281517Y-83954880D02*
X139406517Y-82954880D01*
X139312470Y-83097738D01*
X139224375Y-83192976D01*
X139142232Y-83240595D01*
X139852946Y-83954880D02*
X139977946Y-82954880D01*
X139976755Y-83573928D02*
X140157708Y-83954880D01*
X140241041Y-83288214D02*
X139888660Y-83669166D01*
X132484880Y-100822023D02*
X133484880Y-100155357D01*
X132484880Y-100155357D02*
X133484880Y-100822023D01*
X133484880Y-99250595D02*
X133484880Y-99822023D01*
X133484880Y-99536309D02*
X132484880Y-99536309D01*
X132627738Y-99631547D01*
X132722976Y-99726785D01*
X132770595Y-99822023D01*
X134072380Y-101893125D02*
X134072380Y-101359791D01*
X135072380Y-101827648D01*
X134977142Y-101168125D02*
X135024761Y-101135982D01*
X135072380Y-101180029D01*
X135024761Y-101212172D01*
X134977142Y-101168125D01*
X135072380Y-101180029D01*
X134072380Y-100750267D02*
X134072380Y-100255029D01*
X134453333Y-100569315D01*
X134453333Y-100455029D01*
X134500952Y-100384791D01*
X134548571Y-100352648D01*
X134643809Y-100326458D01*
X134881904Y-100356220D01*
X134977142Y-100406220D01*
X135024761Y-100450267D01*
X135072380Y-100532410D01*
X135072380Y-100760982D01*
X135024761Y-100831220D01*
X134977142Y-100863363D01*
X134072380Y-99988363D02*
X134072380Y-99455029D01*
X135072380Y-99922886D01*
X134167619Y-99200267D02*
X134120000Y-99156220D01*
X134072380Y-99074077D01*
X134072380Y-98883601D01*
X134120000Y-98813363D01*
X134167619Y-98781220D01*
X134262857Y-98755029D01*
X134358095Y-98766934D01*
X134500952Y-98822886D01*
X135072380Y-99351458D01*
X135072380Y-98856220D01*
X134500952Y-98327648D02*
X134453333Y-98397886D01*
X134405714Y-98430029D01*
X134310476Y-98456220D01*
X134262857Y-98450267D01*
X134167619Y-98400267D01*
X134120000Y-98356220D01*
X134072380Y-98274077D01*
X134072380Y-98121696D01*
X134120000Y-98051458D01*
X134167619Y-98019315D01*
X134262857Y-97993125D01*
X134310476Y-97999077D01*
X134405714Y-98049077D01*
X134453333Y-98093125D01*
X134500952Y-98175267D01*
X134500952Y-98327648D01*
X134548571Y-98409791D01*
X134596190Y-98453839D01*
X134691428Y-98503839D01*
X134881904Y-98527648D01*
X134977142Y-98501458D01*
X135024761Y-98469315D01*
X135072380Y-98399077D01*
X135072380Y-98246696D01*
X135024761Y-98164553D01*
X134977142Y-98120505D01*
X134881904Y-98070505D01*
X134691428Y-98046696D01*
X134596190Y-98072886D01*
X134548571Y-98105029D01*
X134500952Y-98175267D01*
X135072380Y-97751458D02*
X134072380Y-97626458D01*
X134786666Y-97449077D01*
X134072380Y-97093125D01*
X135072380Y-97218125D01*
X135072380Y-96837172D02*
X134072380Y-96712172D01*
X134548571Y-96771696D02*
X134548571Y-96314553D01*
X135072380Y-96380029D02*
X134072380Y-96255029D01*
X134405714Y-95991934D02*
X134405714Y-95572886D01*
X135072380Y-96075267D01*
X135072380Y-95656220D01*
X126984166Y-92162380D02*
X126984166Y-92876666D01*
X126936547Y-93019523D01*
X126841309Y-93114761D01*
X126698452Y-93162380D01*
X126603214Y-93162380D01*
X127984166Y-93162380D02*
X127412738Y-93162380D01*
X127698452Y-93162380D02*
X127698452Y-92162380D01*
X127603214Y-92305238D01*
X127507976Y-92400476D01*
X127412738Y-92448095D01*
X128879970Y-92162380D02*
X129088303Y-93162380D01*
X129546636Y-92162380D01*
X130153779Y-92638571D02*
X130290684Y-92686190D01*
X130332351Y-92733809D01*
X130368065Y-92829047D01*
X130350208Y-92971904D01*
X130290684Y-93067142D01*
X130237113Y-93114761D01*
X130135922Y-93162380D01*
X129754970Y-93162380D01*
X129879970Y-92162380D01*
X130213303Y-92162380D01*
X130302589Y-92210000D01*
X130344255Y-92257619D01*
X130379970Y-92352857D01*
X130368065Y-92448095D01*
X130308541Y-92543333D01*
X130254970Y-92590952D01*
X130153779Y-92638571D01*
X129820446Y-92638571D01*
X130743065Y-92876666D02*
X131219255Y-92876666D01*
X130612113Y-93162380D02*
X131070446Y-92162380D01*
X131278779Y-93162380D01*
X131594255Y-92162380D02*
X132165684Y-92162380D01*
X131754970Y-93162380D02*
X131879970Y-92162380D01*
D11*
X213360000Y-79375000D02*
X212725000Y-78740000D01*
X213995000Y-83820000D02*
X215265000Y-83820000D01*
X216535000Y-83820000D02*
X217805000Y-83820000D01*
X220980000Y-81915000D02*
X220345000Y-81280000D01*
X210820000Y-79375000D02*
X210185000Y-78740000D01*
X210820000Y-83185000D02*
X211455000Y-83820000D01*
X216535000Y-78740000D02*
X215900000Y-79375000D01*
X218440000Y-79375000D02*
X217805000Y-78740000D01*
X213360000Y-83185000D02*
X213995000Y-83820000D01*
X208280000Y-81280000D02*
X208915000Y-81280000D01*
X210820000Y-83820000D02*
X208280000Y-83820000D01*
X220980000Y-80645000D02*
X220980000Y-79375000D01*
X220345000Y-81280000D02*
X220980000Y-80645000D01*
X219075000Y-78740000D02*
X218440000Y-79375000D01*
X213995000Y-78740000D02*
X213360000Y-79375000D01*
X211455000Y-83820000D02*
X212725000Y-83820000D01*
X208280000Y-79375000D02*
X208915000Y-78740000D01*
X217805000Y-83820000D02*
X218440000Y-83185000D01*
X210820000Y-83820000D02*
X210820000Y-83185000D01*
X210185000Y-78740000D02*
X208915000Y-78740000D01*
X211455000Y-78740000D02*
X210820000Y-79375000D01*
X208280000Y-83820000D02*
X208280000Y-81280000D01*
X217805000Y-78740000D02*
X216535000Y-78740000D01*
X219075000Y-83820000D02*
X220345000Y-83820000D01*
X212725000Y-78740000D02*
X211455000Y-78740000D01*
X212725000Y-83820000D02*
X213360000Y-83185000D01*
X220980000Y-83185000D02*
X220980000Y-81915000D01*
X215265000Y-83820000D02*
X215900000Y-83185000D01*
X208280000Y-80645000D02*
X208280000Y-79375000D01*
X215900000Y-83185000D02*
X216535000Y-83820000D01*
X220980000Y-79375000D02*
X220345000Y-78740000D01*
X215265000Y-78740000D02*
X213995000Y-78740000D01*
X220345000Y-83820000D02*
X220980000Y-83185000D01*
X220345000Y-78740000D02*
X219075000Y-78740000D01*
X208915000Y-81280000D02*
X208280000Y-80645000D01*
X218440000Y-83185000D02*
X219075000Y-83820000D01*
X215900000Y-79375000D02*
X215265000Y-78740000D01*
X160020000Y-101600000D02*
X160020000Y-80645000D01*
X160020000Y-80645000D02*
X161925000Y-78740000D01*
X161925000Y-78740000D02*
X182880000Y-78740000D01*
X182880000Y-78740000D02*
X182880000Y-101600000D01*
X182880000Y-101600000D02*
X160020000Y-101600000D01*
X184912000Y-82296000D02*
X191008000Y-82296000D01*
X191516000Y-81788000D02*
X191516000Y-80772000D01*
X184404000Y-81788000D02*
X184404000Y-80772000D01*
X184912000Y-80264000D02*
X191008000Y-80264000D01*
X184912000Y-80264000D02*
G75*
G03*
X184404000Y-80772000I1J-508001D01*
G01*
X191516000Y-80772000D02*
G75*
G03*
X191008000Y-80264000I-508001J-1D01*
G01*
X184404000Y-81788000D02*
G75*
G03*
X184912000Y-82296000I508001J1D01*
G01*
X191008000Y-82296000D02*
G75*
G03*
X191516000Y-81788000I-1J508001D01*
G01*
X184912000Y-84836000D02*
X191008000Y-84836000D01*
X191516000Y-84328000D02*
X191516000Y-83312000D01*
X184404000Y-84328000D02*
X184404000Y-83312000D01*
X184912000Y-82804000D02*
X191008000Y-82804000D01*
X184912000Y-82804000D02*
G75*
G03*
X184404000Y-83312000I1J-508001D01*
G01*
X191516000Y-83312000D02*
G75*
G03*
X191008000Y-82804000I-508001J-1D01*
G01*
X184404000Y-84328000D02*
G75*
G03*
X184912000Y-84836000I508001J1D01*
G01*
X191008000Y-84836000D02*
G75*
G03*
X191516000Y-84328000I-1J508001D01*
G01*
X136017000Y-88646000D02*
X142113000Y-88646000D01*
X142621000Y-88138000D02*
X142621000Y-87122000D01*
X135509000Y-88138000D02*
X135509000Y-87122000D01*
X136017000Y-86614000D02*
X142113000Y-86614000D01*
X136017000Y-86614000D02*
G75*
G03*
X135509000Y-87122000I1J-508001D01*
G01*
X142621000Y-87122000D02*
G75*
G03*
X142113000Y-86614000I-508001J-1D01*
G01*
X135509000Y-88138000D02*
G75*
G03*
X136017000Y-88646000I508001J1D01*
G01*
X142113000Y-88646000D02*
G75*
G03*
X142621000Y-88138000I-1J508001D01*
G01*
X156718000Y-99949000D02*
X150622000Y-99949000D01*
X150114000Y-100457000D02*
X150114000Y-101473000D01*
X157226000Y-100457000D02*
X157226000Y-101473000D01*
X156718000Y-101981000D02*
X150622000Y-101981000D01*
X156718000Y-101981000D02*
G75*
G03*
X157226000Y-101473000I-1J508001D01*
G01*
X150114000Y-101473000D02*
G75*
G03*
X150622000Y-101981000I508001J1D01*
G01*
X157226000Y-100457000D02*
G75*
G03*
X156718000Y-99949000I-508001J-1D01*
G01*
X150622000Y-99949000D02*
G75*
G03*
X150114000Y-100457000I1J-508001D01*
G01*
X152908000Y-120904000D02*
X146812000Y-120904000D01*
X146304000Y-121412000D02*
X146304000Y-122428000D01*
X153416000Y-121412000D02*
X153416000Y-122428000D01*
X152908000Y-122936000D02*
X146812000Y-122936000D01*
X152908000Y-122936000D02*
G75*
G03*
X153416000Y-122428000I-1J508001D01*
G01*
X146304000Y-122428000D02*
G75*
G03*
X146812000Y-122936000I508001J1D01*
G01*
X153416000Y-121412000D02*
G75*
G03*
X152908000Y-120904000I-508001J-1D01*
G01*
X146812000Y-120904000D02*
G75*
G03*
X146304000Y-121412000I1J-508001D01*
G01*
X182626000Y-109728000D02*
X182626000Y-103632000D01*
X182118000Y-103124000D02*
X181102000Y-103124000D01*
X182118000Y-110236000D02*
X181102000Y-110236000D01*
X180594000Y-109728000D02*
X180594000Y-103632000D01*
X180594000Y-109728000D02*
G75*
G03*
X181102000Y-110236000I508001J1D01*
G01*
X181102000Y-103124000D02*
G75*
G03*
X180594000Y-103632000I1J-508001D01*
G01*
X182118000Y-110236000D02*
G75*
G03*
X182626000Y-109728000I-1J508001D01*
G01*
X182626000Y-103632000D02*
G75*
G03*
X182118000Y-103124000I-508001J-1D01*
G01*
X178054000Y-103632000D02*
X178054000Y-109728000D01*
X178562000Y-110236000D02*
X179578000Y-110236000D01*
X178562000Y-103124000D02*
X179578000Y-103124000D01*
X180086000Y-103632000D02*
X180086000Y-109728000D01*
X180086000Y-103632000D02*
G75*
G03*
X179578000Y-103124000I-508001J-1D01*
G01*
X179578000Y-110236000D02*
G75*
G03*
X180086000Y-109728000I-1J508001D01*
G01*
X178562000Y-103124000D02*
G75*
G03*
X178054000Y-103632000I1J-508001D01*
G01*
X178054000Y-109728000D02*
G75*
G03*
X178562000Y-110236000I508001J1D01*
G01*
X133120000Y-85070000D02*
X133120000Y-82570000D01*
X134620000Y-83320000D02*
G75*
G03*
X134120000Y-83820000I1J-500001D01*
G01*
X134620000Y-84320000D02*
G75*
G03*
X135120000Y-83820000I-1J500001D01*
G01*
X134620000Y-82820000D02*
G75*
G03*
X133620000Y-83820000I-1J-999999D01*
G01*
X133120001Y-85069999D02*
G75*
G03*
X133120001Y-82570001I1499999J1249999D01*
G01*
X134620000Y-84820000D02*
G75*
G03*
X135620000Y-83820000I1J999999D01*
G01*
X136120000Y-83820000D02*
G75*
G03*
X136120000Y-83820000I-1500000J0D01*
G01*
X140670000Y-83690000D02*
X140670000Y-83045000D01*
X147620000Y-82055000D02*
X147620000Y-78950000D01*
X147620000Y-78950000D02*
X140670000Y-78950000D01*
X147620000Y-83690000D02*
X140670000Y-83690000D01*
X147620000Y-83690000D02*
X147620000Y-83045000D01*
X140670000Y-82055000D02*
X140670000Y-78950000D01*
X161290000Y-120650000D02*
X176530000Y-120650000D01*
X176530000Y-123190000D02*
X161290000Y-123190000D01*
X161290000Y-123190000D02*
X161290000Y-120650000D01*
X163830000Y-123190000D02*
X163830000Y-120650000D01*
X176530000Y-120650000D02*
X176530000Y-123190000D01*
X191770000Y-123190000D02*
X191770000Y-120650000D01*
X189230000Y-123190000D02*
X189230000Y-120650000D01*
X212090000Y-123190000D02*
X189230000Y-123190000D01*
X212090000Y-120650000D02*
X212090000Y-123190000D01*
X189230000Y-120650000D02*
X212090000Y-120650000D01*
X148590000Y-99060000D02*
X148590000Y-78740000D01*
X158750000Y-78740000D02*
X158750000Y-99060000D01*
X158750000Y-99060000D02*
X148590000Y-99060000D01*
X148590000Y-78740000D02*
X158750000Y-78740000D01*
X153670000Y-98044000D02*
G75*
G03*
X152654000Y-99060000I2J-1016002D01*
G01*
X154686000Y-99060000D02*
G75*
G03*
X153670000Y-98044000I-1016002J-2D01*
G01*
X224790000Y-85090000D02*
X224790000Y-102870000D01*
X184150000Y-85090000D02*
X224790000Y-85090000D01*
X184150000Y-102870000D02*
X184150000Y-85090000D01*
X224790000Y-102870000D02*
X184150000Y-102870000D01*
X184150000Y-94996000D02*
G75*
G03*
X185166000Y-93980000I-2J1016002D01*
G01*
X185166000Y-93980000D02*
G75*
G03*
X184150000Y-92964000I-1016002J-2D01*
G01*
X224790000Y-102870000D02*
X224790000Y-120650000D01*
X184150000Y-102870000D02*
X224790000Y-102870000D01*
X184150000Y-120650000D02*
X184150000Y-102870000D01*
X224790000Y-120650000D02*
X184150000Y-120650000D01*
X184150000Y-112776000D02*
G75*
G03*
X185166000Y-111760000I-2J1016002D01*
G01*
X185166000Y-111760000D02*
G75*
G03*
X184150000Y-110744000I-1016002J-2D01*
G01*
X176530000Y-120650000D02*
X176530000Y-102870000D01*
X125730000Y-120650000D02*
X125730000Y-102870000D01*
X125730000Y-120650000D02*
X176530000Y-120650000D01*
X125730000Y-102870000D02*
X176530000Y-102870000D01*
X126746000Y-111760000D02*
G75*
G03*
X125730000Y-110744000I-1016002J-2D01*
G01*
X125730000Y-112776000D02*
G75*
G03*
X126746000Y-111760000I-2J1016002D01*
G01*
X176530000Y-129540000D02*
X176530000Y-132080000D01*
X222250000Y-129540000D02*
X222250000Y-132080000D01*
X140970000Y-129540000D02*
X140970000Y-132080000D01*
X166370000Y-129540000D02*
X166370000Y-132080000D01*
X207010000Y-129540000D02*
X207010000Y-132080000D01*
X130810000Y-129540000D02*
X130810000Y-132080000D01*
X171450000Y-129540000D02*
X171450000Y-132080000D01*
X151130000Y-129540000D02*
X151130000Y-132080000D01*
X227330000Y-124460000D02*
X227330000Y-132080000D01*
X161290000Y-129540000D02*
X161290000Y-132080000D01*
X199390000Y-129540000D02*
X199390000Y-132080000D01*
X224790000Y-129540000D02*
X224790000Y-132080000D01*
X173990000Y-129540000D02*
X173990000Y-132080000D01*
X156210000Y-129540000D02*
X156210000Y-132080000D01*
X212090000Y-129540000D02*
X212090000Y-132080000D01*
X125730000Y-129540000D02*
X227330000Y-129540000D01*
X163830000Y-129540000D02*
X163830000Y-132080000D01*
X128270000Y-127000000D02*
X128270000Y-132080000D01*
X184150000Y-129540000D02*
X184150000Y-132080000D01*
X128270000Y-127000000D02*
X125730000Y-127000000D01*
X153670000Y-129540000D02*
X153670000Y-132080000D01*
X128270000Y-121920000D02*
X128270000Y-124460000D01*
X214630000Y-129540000D02*
X214630000Y-132080000D01*
X143510000Y-129540000D02*
X143510000Y-132080000D01*
X133350000Y-129540000D02*
X133350000Y-132080000D01*
X146050000Y-129540000D02*
X146050000Y-132080000D01*
X126365000Y-121920000D02*
X128270000Y-121920000D01*
X125730000Y-122555000D02*
X125730000Y-132080000D01*
X204470000Y-129540000D02*
X204470000Y-132080000D01*
X201930000Y-129540000D02*
X201930000Y-132080000D01*
X168910000Y-129540000D02*
X168910000Y-132080000D01*
X125730000Y-122555000D02*
X126365000Y-121920000D01*
X158750000Y-129540000D02*
X158750000Y-132080000D01*
X186690000Y-129540000D02*
X186690000Y-132080000D01*
X219710000Y-129540000D02*
X219710000Y-132080000D01*
X196850000Y-129540000D02*
X196850000Y-132080000D01*
X179070000Y-129540000D02*
X179070000Y-132080000D01*
X191770000Y-129540000D02*
X191770000Y-132080000D01*
X138430000Y-129540000D02*
X138430000Y-132080000D01*
X194310000Y-129540000D02*
X194310000Y-132080000D01*
X209550000Y-129540000D02*
X209550000Y-132080000D01*
X181610000Y-129540000D02*
X181610000Y-132080000D01*
X217170000Y-129540000D02*
X217170000Y-132080000D01*
X148590000Y-129540000D02*
X148590000Y-132080000D01*
X135890000Y-129540000D02*
X135890000Y-132080000D01*
X227330000Y-124460000D02*
X125730000Y-124460000D01*
X189230000Y-129540000D02*
X189230000Y-132080000D01*
X201930000Y-81630000D02*
X201930000Y-81010000D01*
X202850000Y-82550000D02*
G75*
G03*
X202850000Y-82550000I-920000J0D01*
G01*
X199390000Y-81630000D02*
X199390000Y-81010000D01*
X200310000Y-82550000D02*
G75*
G03*
X200310000Y-82550000I-920000J0D01*
G01*
X196850000Y-81630000D02*
X196850000Y-81010000D01*
X197770000Y-82550000D02*
G75*
G03*
X197770000Y-82550000I-920000J0D01*
G01*
X194310000Y-81630000D02*
X194310000Y-81010000D01*
X195230000Y-82550000D02*
G75*
G03*
X195230000Y-82550000I-920000J0D01*
G01*
X146685000Y-86710000D02*
X146685000Y-86090000D01*
X147605000Y-87630000D02*
G75*
G03*
X147605000Y-87630000I-920000J0D01*
G01*
X144145000Y-86710000D02*
X144145000Y-86090000D01*
X145065000Y-87630000D02*
G75*
G03*
X145065000Y-87630000I-920000J0D01*
G01*
X139985000Y-85090000D02*
X140605000Y-85090000D01*
X139985000Y-85090000D02*
G75*
G03*
X139985000Y-85090000I-920000J0D01*
G01*
X147955000Y-101600000D02*
X147955000Y-90170000D01*
X135255000Y-90170000D02*
X135255000Y-102235000D01*
X135890000Y-89535000D02*
X147320000Y-89535000D01*
X147320000Y-102235000D02*
X135255000Y-102235000D01*
X147955000Y-90170000D02*
G75*
G03*
X147320000Y-89535000I-634999J1D01*
G01*
X135890000Y-89535000D02*
G75*
G03*
X135255000Y-90170000I-1J-634999D01*
G01*
X147320000Y-102235000D02*
G75*
G03*
X147955000Y-101600000I1J634999D01*
G01*
X135255000Y-97155000D02*
G75*
G03*
X135255000Y-94615000I0J1270000D01*
G01*
X129250000Y-90010000D02*
X123250000Y-90010000D01*
X123250000Y-87250000D02*
X129250000Y-87250000D01*
X134620000Y-91440000D02*
X133350000Y-91440000D01*
X129250000Y-90250000D02*
X123250000Y-90250000D01*
X129250000Y-90550000D02*
X123250000Y-90550000D01*
X123250000Y-89790000D02*
X129250000Y-89790000D01*
X129250000Y-91500000D02*
X131910000Y-91500000D01*
X131910000Y-91500000D02*
X131910000Y-86300000D01*
X129250000Y-90370000D02*
X123250000Y-90370000D01*
X123250000Y-90550000D02*
X123250000Y-89790000D01*
X129250000Y-89890000D02*
X123250000Y-89890000D01*
X129250000Y-90490000D02*
X123250000Y-90490000D01*
X134620000Y-90170000D02*
X134620000Y-91440000D01*
X131910000Y-88900000D02*
X129250000Y-88900000D01*
X129250000Y-90130000D02*
X123250000Y-90130000D01*
X131910000Y-86300000D02*
X129250000Y-86300000D01*
X132240000Y-89790000D02*
X131910000Y-89790000D01*
X129250000Y-86300000D02*
X129250000Y-91500000D01*
X129250000Y-88010000D02*
X123250000Y-88010000D01*
X132307071Y-87250000D02*
X131910000Y-87250000D01*
X132240000Y-90550000D02*
X131910000Y-90550000D01*
X123250000Y-88010000D02*
X123250000Y-87250000D01*
X132307071Y-88010000D02*
X131910000Y-88010000D01*
M02*
